<svg width="28" height="22" viewBox="0 0 28 22" fill="none" xmlns="http://www.w3.org/2000/svg">
<path d="M23.1805 0.750488H4.81948C3.67273 0.753715 2.57414 1.20201 1.76443 1.99708C0.95472 2.79216 0.500007 3.86914 0.500012 4.99193V15.4858C0.498376 16.3085 0.662281 17.1235 0.982316 17.8841C1.30235 18.6448 1.77227 19.3363 2.36526 19.9192C2.95824 20.502 3.66264 20.9648 4.4383 21.2812C5.21396 21.5975 6.04567 21.7611 6.88591 21.7627H21.1141C22.8089 21.7594 24.4331 21.098 25.6304 19.9235C26.8276 18.749 27.5 17.1574 27.5 15.498V4.99193C27.5 3.86914 27.0453 2.79216 26.2356 1.99708C25.4259 1.20201 24.3272 0.753715 23.1805 0.750488ZM22.4585 3.55374L15.4378 11.4638C15.2613 11.6627 15.0434 11.8223 14.7986 11.9316C14.5538 12.0409 14.2878 12.0975 14.0187 12.0976C13.7514 12.0974 13.4874 12.0407 13.2446 11.9313C13.0018 11.8219 12.786 11.6624 12.612 11.4638L5.56641 3.55374H22.4585ZM21.1141 18.9472H6.88591C5.95046 18.944 5.05446 18.5779 4.39416 17.9291C3.73385 17.2803 3.36306 16.4017 3.36307 15.4858V5.36976L10.4585 13.3042C10.9014 13.8049 11.4491 14.2065 12.0645 14.4818C12.6798 14.757 13.3484 14.8995 14.0249 14.8995C14.7014 14.8995 15.3701 14.757 15.9854 14.4818C16.6008 14.2065 17.1484 13.8049 17.5913 13.3042L24.6618 5.36976V15.4858C24.6618 15.9414 24.57 16.3925 24.3916 16.8133C24.2131 17.234 23.9516 17.6162 23.622 17.9377C23.2924 18.2593 22.9012 18.514 22.4708 18.6873C22.0405 18.8605 21.5794 18.9488 21.1141 18.9472Z" fill="#CF142A"/>
</svg>
