<svg width="28" height="29" viewBox="0 0 28 29" fill="none" xmlns="http://www.w3.org/2000/svg">
<path d="M0.5 28.2627L2.5 20.9227C0.916333 18.0636 0.416981 14.7292 1.09357 11.5316C1.77015 8.33394 3.57727 5.4876 6.18329 3.51497C8.78931 1.54233 12.0194 0.57575 15.2806 0.792646C18.5418 1.00954 21.6154 2.39535 23.9373 4.69572C26.2591 6.99609 27.6734 10.0567 27.9205 13.3157C28.1677 16.5748 27.2312 19.8137 25.2828 22.4379C23.3345 25.0622 20.505 26.8956 17.3138 27.6019C14.1226 28.3081 10.7837 27.8397 7.91003 26.2827L0.5 28.2627ZM8.23999 23.5327L8.71002 23.8127C11.0169 25.188 13.7472 25.6719 16.3862 25.173C19.0252 24.6741 21.3906 23.227 23.0362 21.1044C24.6818 18.9819 25.4941 16.3306 25.3198 13.6506C25.1455 10.9705 23.9967 8.44676 22.09 6.55525C20.1833 4.66374 17.6505 3.53515 14.9691 3.38228C12.2877 3.2294 9.64307 4.06278 7.53375 5.72532C5.42444 7.38786 3.99622 9.76467 3.51843 12.4076C3.04065 15.0505 3.54628 17.7769 4.94 20.0727L5.22003 20.5427L4.12 24.6427L8.23999 23.5327Z" fill="#CF142A"/>
<path fill-rule="evenodd" clip-rule="evenodd" d="M19.3599 16.2626C19.0896 16.0498 18.7748 15.9006 18.4389 15.8262C18.1031 15.7517 17.7548 15.754 17.4199 15.8326C16.9099 16.0326 16.5898 16.8326 16.2598 17.2226C16.1913 17.3175 16.0905 17.3841 15.9763 17.4099C15.8622 17.4357 15.7425 17.4188 15.6399 17.3626C13.7957 16.6379 12.2493 15.3134 11.2498 13.6026C11.1675 13.4944 11.129 13.3592 11.1419 13.2239C11.1549 13.0885 11.2184 12.9631 11.3198 12.8726C11.6967 12.5175 11.9727 12.069 12.1198 11.5726C12.1451 11.039 12.0204 10.509 11.7598 10.0426C11.5561 9.37827 11.1635 8.78757 10.6298 8.34258C10.3562 8.21493 10.051 8.17056 9.75228 8.21501C9.45358 8.25946 9.17452 8.39077 8.94985 8.59258C8.56132 8.92588 8.25334 9.34286 8.04897 9.81221C7.84461 10.2816 7.74917 10.7911 7.76986 11.3026C7.7727 11.5887 7.8062 11.8736 7.86984 12.1526C8.05482 12.8221 8.33432 13.4619 8.69985 14.0526C8.96194 14.5049 9.24904 14.9422 9.55984 15.3626C10.5666 16.7437 11.8295 17.9184 13.2799 18.8226C14.0116 19.2803 14.7934 19.6527 15.6099 19.9326C16.4585 20.3154 17.3951 20.4606 18.3198 20.3526C18.8451 20.2705 19.3426 20.0619 19.7694 19.7449C20.1962 19.4278 20.5396 19.0118 20.7699 18.5325C20.8997 18.2408 20.938 17.9165 20.8798 17.6026C20.7398 16.9526 19.8699 16.5726 19.3599 16.2626Z" fill="#CF142A"/>
</svg>
