<svg width="21" height="29" viewBox="0 0 21 29" fill="none" xmlns="http://www.w3.org/2000/svg">
<path d="M15.946 0.750488H5.02874C4.42959 0.75383 3.83701 0.874918 3.28492 1.10681C2.73282 1.3387 2.23207 1.67683 1.81138 2.10184C1.3907 2.52684 1.05833 3.03037 0.833331 3.58356C0.608337 4.13675 0.49509 4.72872 0.500163 5.32557V24.2137C0.500144 25.4126 0.976469 26.5626 1.82501 27.4127C2.67354 28.2628 3.82535 28.7437 5.02874 28.7505H15.9332C17.141 28.7505 18.2994 28.2725 19.1535 27.4217C20.0076 26.5709 20.4874 25.417 20.4874 24.2137V5.32557C20.4924 4.72765 20.3788 4.13463 20.153 3.58061C19.9272 3.02659 19.5937 2.5225 19.1717 2.09733C18.7496 1.67215 18.2474 1.33428 17.6938 1.10314C17.1403 0.872002 16.5462 0.752151 15.946 0.750488ZM3.45084 5.32557C3.44573 5.11472 3.48259 4.90495 3.55928 4.70836C3.63598 4.51178 3.751 4.33227 3.8977 4.18019C4.04439 4.02811 4.21988 3.90648 4.41401 3.82231C4.60814 3.73814 4.81705 3.6931 5.02874 3.68979H15.9332C16.1481 3.68801 16.3612 3.72931 16.5598 3.81121C16.7584 3.89311 16.9385 4.01394 17.0893 4.16654C17.2401 4.31914 17.3585 4.50038 17.4376 4.69949C17.5166 4.8986 17.5548 5.11151 17.5496 5.32557V24.2137C17.5396 24.6307 17.3661 25.0273 17.0665 25.3186C16.7668 25.6099 16.3647 25.773 15.946 25.7729H5.02874C4.60567 25.7695 4.20106 25.5997 3.9031 25.3005C3.60514 25.0013 3.43798 24.5969 3.43799 24.1754L3.45084 5.32557Z" fill="#B7FFD3"/>
<path d="M11.8406 24.2391H9.1594C8.96518 24.2408 8.77258 24.204 8.59281 24.1307C8.41305 24.0575 8.24978 23.9493 8.11244 23.8125C7.97511 23.6756 7.86651 23.5129 7.79298 23.3339C7.71944 23.1548 7.68243 22.9629 7.68414 22.7695C7.68414 22.3797 7.83953 22.0059 8.1162 21.7303C8.39287 21.4546 8.76812 21.2998 9.1594 21.2998H11.8406C12.2309 21.3031 12.6042 21.4591 12.8802 21.7339C13.1561 22.0088 13.3126 22.3807 13.316 22.7695C13.316 23.1592 13.1605 23.533 12.8838 23.8087C12.6072 24.0843 12.2319 24.2391 11.8406 24.2391Z" fill="#B7FFD3"/>
</svg>
