<svg width="24" height="29" viewBox="0 0 24 29" fill="none" xmlns="http://www.w3.org/2000/svg">
<path d="M12 0.262695C8.95107 0.266284 6.0281 1.47744 3.87221 3.63047C1.71632 5.7835 0.503593 8.70259 0.5 11.7474C0.5 15.9644 5.12983 22.3102 9.02652 26.8932C9.39366 27.3215 9.84992 27.6647 10.3635 27.8989C10.877 28.133 11.4354 28.2526 12 28.2491C12.564 28.2499 13.1217 28.1291 13.6348 27.8951C14.1479 27.6611 14.6045 27.3194 14.9734 26.8932C18.8565 22.3102 23.4864 15.9644 23.4864 11.7474C23.4864 8.70384 22.2766 5.78471 20.1229 3.63129C17.9692 1.47787 15.0476 0.266289 12 0.262695ZM12.6245 24.8729C12.5543 24.9595 12.4652 25.0289 12.364 25.0759C12.2628 25.1229 12.1523 25.1462 12.0407 25.1441C11.9271 25.1473 11.8141 25.1245 11.7106 25.0775C11.607 25.0305 11.5157 24.9605 11.4433 24.8729C6.56906 19.1373 3.66354 14.2288 3.66354 11.7474C3.61812 10.6214 3.80093 9.49772 4.20112 8.44396C4.6013 7.3902 5.21059 6.42805 5.99234 5.61526C6.77408 4.80247 7.7122 4.15579 8.7504 3.71405C9.7886 3.2723 10.9054 3.0446 12.0339 3.0446C13.1624 3.0446 14.2793 3.2723 15.3175 3.71405C16.3557 4.15579 17.2938 4.80247 18.0755 5.61526C18.8573 6.42805 19.4666 7.3902 19.8668 8.44396C20.2669 9.49772 20.4498 10.6214 20.4043 11.7474C20.3636 14.2288 17.4581 19.1779 12.6245 24.8729Z" fill="#B7FFD3"/>
<path d="M12.0001 13.6457C13.3123 13.6457 14.3761 12.5833 14.3761 11.2728C14.3761 9.96228 13.3123 8.8999 12.0001 8.8999C10.6878 8.8999 9.62402 9.96228 9.62402 11.2728C9.62402 12.5833 10.6878 13.6457 12.0001 13.6457Z" fill="#B7FFD3"/>
</svg>
