<svg width="385" height="657" viewBox="0 0 385 657" fill="none" xmlns="http://www.w3.org/2000/svg">
<g opacity="0.95">
<g filter="url(#filter0_d_98_1774)">
<ellipse cx="130.282" cy="130.282" rx="130.282" ry="130.282" transform="matrix(0.845934 -0.533287 0.845934 0.533287 65.6941 308.734)" fill="white"/>
<path d="M395.311 239.895C455.619 277.914 455.619 339.554 395.311 377.573C335.003 415.592 237.224 415.592 176.917 377.573C116.609 339.554 116.609 277.914 176.917 239.895C237.224 201.876 335.003 201.876 395.311 239.895Z" stroke="url(#paint0_linear_98_1774)" stroke-width="2.39432"/>
</g>
<path d="M397.898 387.755L397.875 387.768L397.852 387.782C366.513 407.551 325.384 417.463 284.208 417.463C243.031 417.463 201.902 407.551 170.563 387.782L170.553 387.776L170.544 387.77C138.599 368.702 122.003 339.789 121.144 310.785C120.284 281.788 135.149 252.56 166.418 232.834C197.752 213.069 240.931 202.928 284.173 202.703C327.416 202.478 370.59 212.171 401.918 231.933C464.337 271.307 458.573 354.167 397.898 387.755Z" fill="#14CC5D"/>
<path d="M397.898 387.755L397.875 387.768L397.852 387.782C366.513 407.551 325.384 417.463 284.208 417.463C243.031 417.463 201.902 407.551 170.563 387.782L170.553 387.776L170.544 387.77C138.599 368.702 122.003 339.789 121.144 310.785C120.284 281.788 135.149 252.56 166.418 232.834C197.752 213.069 240.931 202.928 284.173 202.703C327.416 202.478 370.59 212.171 401.918 231.933C464.337 271.307 458.573 354.167 397.898 387.755Z" stroke="url(#paint1_radial_98_1774)" stroke-width="1.83648" style="mix-blend-mode:overlay"/>
<g filter="url(#filter1_b_98_1774)">
<ellipse cx="136.691" cy="136.691" rx="136.691" ry="136.691" transform="matrix(0.845934 -0.533287 0.845934 0.533287 52.9973 299.19)" fill="url(#paint2_radial_98_1774)"/>
<path d="M398.339 227.274C461.343 266.992 461.343 331.388 398.339 371.106C335.336 410.825 233.186 410.825 170.183 371.106C107.179 331.388 107.179 266.992 170.183 227.274C233.186 187.555 335.336 187.555 398.339 227.274Z" stroke="url(#paint3_linear_98_1774)" stroke-width="3.67296" style="mix-blend-mode:overlay"/>
</g>
</g>
<g opacity="0.95">
<g filter="url(#filter2_d_98_1774)">
<ellipse cx="130.282" cy="130.282" rx="130.282" ry="130.282" transform="matrix(0.845934 -0.533287 0.845934 0.533287 121.444 227.989)" fill="white"/>
<path d="M451.06 159.15C511.368 197.169 511.368 258.81 451.06 296.828C390.753 334.847 292.974 334.847 232.666 296.828C172.358 258.81 172.358 197.169 232.666 159.15C292.974 121.131 390.753 121.131 451.06 159.15Z" stroke="url(#paint4_linear_98_1774)" stroke-width="2.39432"/>
</g>
<path d="M453.647 307.01L453.624 307.023L453.602 307.037C422.263 326.806 381.134 336.718 339.957 336.718C298.781 336.718 257.652 326.806 226.313 307.037L226.303 307.031L226.293 307.025C194.348 287.958 177.753 259.044 176.894 230.041C176.034 201.043 190.899 171.815 222.168 152.09C253.501 132.324 296.681 122.183 339.923 121.958C383.165 121.733 426.34 131.426 457.668 151.188C520.087 190.563 514.323 273.423 453.647 307.01Z" fill="#B0B5D3"/>
<path d="M453.647 307.01L453.624 307.023L453.602 307.037C422.263 326.806 381.134 336.718 339.957 336.718C298.781 336.718 257.652 326.806 226.313 307.037L226.303 307.031L226.293 307.025C194.348 287.958 177.753 259.044 176.894 230.041C176.034 201.043 190.899 171.815 222.168 152.09C253.501 132.324 296.681 122.183 339.923 121.958C383.165 121.733 426.34 131.426 457.668 151.188C520.087 190.563 514.323 273.423 453.647 307.01Z" stroke="url(#paint5_radial_98_1774)" stroke-width="1.83648" style="mix-blend-mode:overlay"/>
<g filter="url(#filter3_b_98_1774)">
<ellipse cx="136.691" cy="136.691" rx="136.691" ry="136.691" transform="matrix(0.845934 -0.533287 0.845934 0.533287 108.747 218.445)" fill="url(#paint6_radial_98_1774)"/>
<path d="M454.089 146.529C517.093 186.247 517.093 250.643 454.089 290.362C391.086 330.08 288.936 330.08 225.933 290.362C162.929 250.643 162.929 186.247 225.932 146.529C288.936 106.811 391.085 106.811 454.089 146.529Z" stroke="url(#paint7_linear_98_1774)" stroke-width="3.67296"/>
</g>
</g>
<path d="M296.324 238.613C300.045 240.96 303.953 243.189 307.675 245.301L295.951 252.692L297.998 253.983L309.908 246.474C340.24 261.843 375.41 267.357 407.231 251.049L405.556 249.994C399.043 253.161 390.297 254.686 379.132 253.044C366.478 251.401 350.661 245.418 329.819 233.921L382.668 200.601L380.621 199.311L327.586 232.747C323.864 230.636 320.515 228.524 316.607 226.06L315.118 225.121C310.094 221.954 305.628 219.373 301.906 216.322L354.755 183.003L352.708 181.713L299.859 215.032C283.112 202.83 274.924 193.21 272.319 185.702C269.713 178.662 272.132 173.148 277.157 169.042L275.482 167.986C250.733 187.344 257.618 208.579 280.32 227.351L268.039 235.094L270.085 236.384L282.181 228.758C286.089 231.926 290.555 234.976 295.207 237.91L296.324 238.613ZM411.325 209.987L409.278 211.278L410.394 211.982L420.815 239.435L413.372 245.301L415.047 246.357C422.118 241.664 429.375 235.68 437.749 228.524L411.325 209.987ZM311.211 148.745C299.859 154.025 290.369 158.6 282.925 163.059L284.6 164.114L293.718 159.304L334.471 165.992L335.588 166.696L337.635 165.405L311.211 148.745Z" fill="url(#paint8_radial_98_1774)"/>
<defs>
<filter id="filter0_d_98_1774" x="0.253418" y="160.478" width="611.72" height="496.512" filterUnits="userSpaceOnUse" color-interpolation-filters="sRGB">
<feFlood flood-opacity="0" result="BackgroundImageFix"/>
<feColorMatrix in="SourceAlpha" type="matrix" values="0 0 0 0 0 0 0 0 0 0 0 0 0 0 0 0 0 0 127 0" result="hardAlpha"/>
<feOffset dx="20" dy="100"/>
<feGaussianBlur stdDeviation="75"/>
<feComposite in2="hardAlpha" operator="out"/>
<feColorMatrix type="matrix" values="0 0 0 0 0 0 0 0 0 0.15942 0 0 0 0 1 0 0 0 0.4 0"/>
<feBlend mode="normal" in2="BackgroundImageFix" result="effect1_dropShadow_98_1774"/>
<feBlend mode="normal" in="SourceGraphic" in2="effect1_dropShadow_98_1774" result="shape"/>
</filter>
<filter id="filter1_b_98_1774" x="51.1992" y="126.566" width="466.124" height="345.248" filterUnits="userSpaceOnUse" color-interpolation-filters="sRGB">
<feFlood flood-opacity="0" result="BackgroundImageFix"/>
<feGaussianBlur in="BackgroundImageFix" stdDeviation="34.7668"/>
<feComposite in2="SourceAlpha" operator="in" result="effect1_backgroundBlur_98_1774"/>
<feBlend mode="normal" in="SourceGraphic" in2="effect1_backgroundBlur_98_1774" result="shape"/>
</filter>
<filter id="filter2_d_98_1774" x="56.0032" y="79.7334" width="611.72" height="496.512" filterUnits="userSpaceOnUse" color-interpolation-filters="sRGB">
<feFlood flood-opacity="0" result="BackgroundImageFix"/>
<feColorMatrix in="SourceAlpha" type="matrix" values="0 0 0 0 0 0 0 0 0 0 0 0 0 0 0 0 0 0 127 0" result="hardAlpha"/>
<feOffset dx="20" dy="100"/>
<feGaussianBlur stdDeviation="75"/>
<feComposite in2="hardAlpha" operator="out"/>
<feColorMatrix type="matrix" values="0 0 0 0 0 0 0 0 0 0.15942 0 0 0 0 1 0 0 0 0.4 0"/>
<feBlend mode="normal" in2="BackgroundImageFix" result="effect1_dropShadow_98_1774"/>
<feBlend mode="normal" in="SourceGraphic" in2="effect1_dropShadow_98_1774" result="shape"/>
</filter>
<filter id="filter3_b_98_1774" x="106.949" y="45.8213" width="466.124" height="345.248" filterUnits="userSpaceOnUse" color-interpolation-filters="sRGB">
<feFlood flood-opacity="0" result="BackgroundImageFix"/>
<feGaussianBlur in="BackgroundImageFix" stdDeviation="34.7668"/>
<feComposite in2="SourceAlpha" operator="in" result="effect1_backgroundBlur_98_1774"/>
<feBlend mode="normal" in="SourceGraphic" in2="effect1_backgroundBlur_98_1774" result="shape"/>
</filter>
<linearGradient id="paint0_linear_98_1774" x1="174.45" y1="353.215" x2="361.686" y2="343.696" gradientUnits="userSpaceOnUse">
<stop stop-color="white" stop-opacity="0.43"/>
<stop offset="0.846595" stop-color="white" stop-opacity="0.44"/>
<stop offset="1" stop-color="white" stop-opacity="0"/>
</linearGradient>
<radialGradient id="paint1_radial_98_1774" cx="0" cy="0" r="1" gradientUnits="userSpaceOnUse" gradientTransform="translate(120.19 310.081) rotate(4.43175) scale(323.435 618.285)">
<stop offset="0.0567805" stop-color="white" stop-opacity="0"/>
<stop offset="0.307354" stop-color="white"/>
<stop offset="0.776131" stop-color="white"/>
<stop offset="0.979895" stop-color="white" stop-opacity="0"/>
</radialGradient>
<radialGradient id="paint2_radial_98_1774" cx="0" cy="0" r="1" gradientUnits="userSpaceOnUse" gradientTransform="translate(206.654 -757.344) rotate(98.5461) scale(1341.17 960.553)">
<stop offset="0.28125" stop-color="#52EE90"/>
<stop offset="1" stop-color="#E0FFEC"/>
</radialGradient>
<linearGradient id="paint3_linear_98_1774" x1="364.902" y1="480.862" x2="358.972" y2="327.168" gradientUnits="userSpaceOnUse">
<stop stop-color="white" stop-opacity="0"/>
<stop offset="0.238618" stop-color="white"/>
<stop offset="0.795365" stop-color="white"/>
<stop offset="1" stop-color="white" stop-opacity="0"/>
</linearGradient>
<linearGradient id="paint4_linear_98_1774" x1="230.2" y1="272.47" x2="417.436" y2="262.952" gradientUnits="userSpaceOnUse">
<stop stop-color="white" stop-opacity="0.43"/>
<stop offset="0.846595" stop-color="white" stop-opacity="0.44"/>
<stop offset="1" stop-color="white" stop-opacity="0"/>
</linearGradient>
<radialGradient id="paint5_radial_98_1774" cx="0" cy="0" r="1" gradientUnits="userSpaceOnUse" gradientTransform="translate(175.94 229.336) rotate(4.43175) scale(323.435 618.285)">
<stop offset="0.0567805" stop-color="white" stop-opacity="0"/>
<stop offset="0.307354" stop-color="white"/>
<stop offset="0.776131" stop-color="white"/>
<stop offset="0.979895" stop-color="white" stop-opacity="0"/>
</radialGradient>
<radialGradient id="paint6_radial_98_1774" cx="0" cy="0" r="1" gradientUnits="userSpaceOnUse" gradientTransform="translate(206.654 -757.344) rotate(98.5461) scale(1341.17 960.553)">
<stop offset="0.28125" stop-color="white"/>
<stop offset="1" stop-color="#D2D2D2"/>
</radialGradient>
<linearGradient id="paint7_linear_98_1774" x1="502.223" y1="218.442" x2="244.424" y2="91.3218" gradientUnits="userSpaceOnUse">
<stop stop-color="white" stop-opacity="0"/>
<stop offset="0.238618" stop-color="white"/>
<stop offset="0.795365" stop-color="white"/>
<stop offset="1" stop-color="white" stop-opacity="0"/>
</linearGradient>
<radialGradient id="paint8_radial_98_1774" cx="0" cy="0" r="1" gradientUnits="userSpaceOnUse" gradientTransform="translate(-78.4507 -70.6218) rotate(37.8485) scale(727.196 361.538)">
<stop offset="0.28125" stop-color="#0029FF" stop-opacity="0.4"/>
<stop offset="1" stop-color="#E0FFEC"/>
</radialGradient>
</defs>
</svg>
