<?xml version="1.0" standalone="no"?>
<!DOCTYPE svg PUBLIC "-//W3C//DTD SVG 20010904//EN"
 "http://www.w3.org/TR/2001/REC-SVG-20010904/DTD/svg10.dtd">
<svg version="1.0" xmlns="http://www.w3.org/2000/svg"
 width="96px" height="96px" viewBox="0 0 521.000000 514.000000"
 preserveAspectRatio="xMidYMid meet">
<metadata>
Created by potrace 1.16, written by Peter Selinger 2001-2019
</metadata>
<g transform="translate(0.000000,514.000000) scale(0.100000,-0.100000)"
fill="#136194" stroke="none">
<path d="M782 4810 c-18 -11 -37 -32 -42 -46 -14 -36 -13 -1227 1 -1373 13
-140 55 -310 102 -411 75 -165 158 -270 392 -493 l165 -159 0 -649 0 -649
1230 0 1230 0 0 1015 c0 1115 3 1057 -60 1090 -16 8 -36 15 -44 15 -10 0 -17
14 -21 38 -24 141 -63 252 -142 403 -89 172 -122 213 -751 929 -128 146 -247
276 -265 288 -93 68 -210 -45 -148 -143 10 -16 75 -93 143 -170 233 -262 651
-749 703 -820 107 -142 196 -324 229 -465 l14 -60 -668 0 -667 0 -38 85 c-21
46 -48 93 -60 105 -52 49 -144 30 -171 -35 -11 -28 -12 -40 0 -77 13 -40 384
-845 529 -1148 86 -181 119 -277 125 -372 6 -94 0 -118 -38 -162 -73 -82 -225
-100 -344 -40 -181 91 -343 338 -511 781 -51 133 -83 173 -291 363 -265 242
-351 372 -407 620 -20 91 -21 125 -27 790 -5 642 -6 697 -23 721 -34 50 -91
62 -145 29z"/>
<path d="M680 1902 c-19 -9 -40 -28 -47 -42 -7 -14 -89 -387 -184 -828 -190
-887 -184 -841 -115 -883 30 -18 98 -19 2296 -19 2198 0 2266 1 2296 19 69 42
75 -4 -115 883 -95 441 -177 814 -184 828 -25 53 -60 60 -309 60 l-228 0 0
-335 c0 -261 3 -335 13 -335 66 0 157 -65 188 -135 53 -116 -9 -258 -134 -304
-19 -8 -501 -11 -1531 -11 l-1502 0 -51 25 c-77 39 -123 115 -123 203 1 97 73
188 169 213 l51 13 0 333 0 333 -227 0 c-197 0 -233 -2 -263 -18z"/>
</g>
</svg>
