<?xml version="1.0" standalone="no"?>
<!DOCTYPE svg PUBLIC "-//W3C//DTD SVG 20010904//EN"
 "http://www.w3.org/TR/2001/REC-SVG-20010904/DTD/svg10.dtd">
<svg version="1.0" xmlns="http://www.w3.org/2000/svg"
 width="96px" height="96px" viewBox="0 0 500.000000 500.000000"
 preserveAspectRatio="xMidYMid meet">
<metadata>
Created by potrace 1.16, written by Peter Selinger 2001-2019
</metadata>
<g transform="translate(0.000000,500.000000) scale(0.100000,-0.100000)"
fill="#970019" stroke="none">
<path d="M1063 4617 c-18 -6 -33 -15 -33 -19 0 -4 -7 -8 -16 -8 -18 0 -44 -23
-44 -39 0 -6 -7 -11 -15 -11 -26 0 -125 -107 -125 -135 0 -14 -4 -25 -10 -25
-5 0 -10 -9 -10 -20 0 -11 -4 -20 -10 -20 -5 0 -10 -13 -10 -30 0 -16 -4 -30
-10 -30 -5 0 -10 -7 -10 -16 0 -8 -7 -22 -15 -30 -21 -21 -21 -127 0 -148 8
-8 15 -22 15 -30 0 -9 5 -16 10 -16 6 0 10 -18 10 -40 0 -22 5 -40 10 -40 6 0
10 -13 10 -30 0 -16 5 -30 10 -30 6 0 10 -13 10 -30 0 -16 5 -30 10 -30 6 0
10 -9 10 -20 0 -11 5 -20 10 -20 6 0 10 -9 10 -20 0 -11 5 -20 10 -20 6 0 10
-9 10 -20 0 -11 5 -20 10 -20 6 0 10 -9 10 -20 0 -11 5 -20 10 -20 6 0 10 -9
10 -20 0 -11 -4 -20 -10 -20 -5 0 -10 -9 -10 -20 0 -11 -4 -20 -10 -20 -5 0
-10 -8 -10 -18 0 -10 -9 -24 -20 -32 -11 -8 -20 -22 -20 -32 0 -10 -4 -18 -10
-18 -5 0 -10 -8 -10 -18 0 -10 -9 -24 -20 -32 -11 -8 -20 -23 -20 -33 0 -20
-22 -47 -39 -47 -6 0 -11 -9 -11 -20 0 -11 -4 -20 -10 -20 -5 0 -10 -9 -10
-19 0 -11 -4 -23 -10 -26 -5 -3 -10 -17 -10 -31 0 -13 -4 -24 -10 -24 -5 0
-10 -9 -10 -19 0 -11 -4 -23 -10 -26 -20 -12 -11 -73 16 -104 21 -25 33 -31
65 -31 42 0 89 34 89 65 0 8 5 15 10 15 6 0 10 14 10 30 0 17 5 30 10 30 6 0
10 9 10 20 0 11 5 20 10 20 6 0 10 11 10 25 0 16 6 25 15 25 8 0 15 9 15 20 0
11 5 20 10 20 6 0 10 9 10 20 0 11 5 20 10 20 6 0 10 9 10 20 0 11 5 20 10 20
6 0 10 7 10 16 0 15 23 44 34 44 3 0 6 -65 6 -145 0 -90 4 -145 10 -145 6 0
10 -9 10 -20 0 -11 5 -20 10 -20 6 0 10 -7 10 -16 0 -20 24 -44 44 -44 9 0 16
-4 16 -10 0 -6 30 -10 70 -10 40 0 70 4 70 10 0 6 9 10 20 10 11 0 20 5 20 10
0 6 7 10 15 10 8 0 32 18 54 40 22 22 46 40 53 40 7 0 20 9 28 20 8 11 22 20
32 20 10 0 18 3 18 8 0 8 49 32 67 32 7 0 13 7 13 15 0 13 30 15 210 15 133 0
210 4 210 10 0 6 23 10 50 10 28 0 50 5 50 10 0 6 14 10 31 10 22 0 32 5 36
20 3 11 12 20 20 20 8 0 32 18 53 40 21 22 43 40 49 40 13 0 121 108 121 121
0 13 67 79 80 79 16 0 80 67 80 85 0 8 5 15 10 15 6 0 10 14 10 30 0 17 5 30
10 30 6 0 10 30 10 70 0 40 -4 70 -10 70 -5 0 -10 14 -10 30 0 17 -4 30 -10
30 -5 0 -10 7 -10 15 0 9 -36 51 -80 95 -44 44 -80 86 -80 95 0 8 -4 15 -10
15 -5 0 -10 5 -10 10 0 6 22 10 49 10 28 0 53 -4 56 -10 4 -6 55 -10 121 -10
69 0 114 -4 114 -10 0 -5 20 -10 45 -10 32 0 52 -6 67 -20 13 -12 36 -20 54
-20 18 0 36 -4 39 -10 3 -5 22 -10 41 -10 19 0 34 -4 34 -10 0 -5 14 -10 30
-10 17 0 30 -4 30 -10 0 -5 14 -10 30 -10 17 0 30 -4 30 -10 0 -5 9 -10 19
-10 11 0 23 -4 26 -10 3 -5 17 -10 31 -10 13 0 24 -4 24 -10 0 -5 11 -10 25
-10 14 0 25 -4 25 -10 0 -5 9 -10 20 -10 11 0 20 -4 20 -10 0 -5 7 -10 16 -10
8 0 33 -18 54 -40 21 -22 46 -40 54 -40 9 0 16 -4 16 -10 0 -5 9 -10 20 -10
11 0 20 -4 20 -8 0 -4 -9 -14 -20 -22 -12 -8 -20 -26 -20 -42 0 -15 -4 -28
-10 -28 -5 0 -10 -18 -10 -40 0 -22 -4 -40 -10 -40 -6 0 -10 -33 -10 -80 0
-47 4 -80 10 -80 6 0 10 -27 10 -60 0 -33 4 -60 10 -60 6 0 10 -50 10 -129 0
-76 4 -132 10 -136 6 -3 10 -23 10 -43 0 -26 6 -42 20 -52 12 -8 20 -26 20
-42 0 -15 5 -28 10 -28 6 0 10 -9 10 -20 0 -11 5 -20 10 -20 6 0 10 -9 10 -20
0 -11 5 -20 10 -20 6 0 10 -13 10 -30 0 -16 5 -30 10 -30 6 0 10 -9 10 -20 0
-11 5 -20 10 -20 6 0 10 -13 10 -30 0 -16 5 -30 10 -30 6 0 10 -8 10 -18 0
-10 9 -24 20 -32 11 -8 20 -20 20 -28 0 -18 66 -82 85 -82 8 0 15 -4 15 -10 0
-5 9 -10 20 -10 11 0 20 -4 20 -10 0 -5 9 -10 20 -10 11 0 20 -4 20 -10 0 -5
14 -10 30 -10 17 0 30 -4 30 -10 0 -6 37 -10 90 -10 53 0 90 4 90 10 0 6 14
10 30 10 17 0 30 5 30 10 0 6 9 10 20 10 19 0 20 -7 20 -155 0 -97 -4 -155
-10 -155 -6 0 -10 -27 -10 -60 0 -33 -4 -60 -10 -60 -5 0 -10 -22 -10 -50 0
-27 -4 -50 -10 -50 -5 0 -10 -13 -10 -28 0 -16 -8 -34 -20 -42 -12 -8 -20 -26
-20 -42 0 -15 -4 -28 -10 -28 -5 0 -10 -13 -10 -30 0 -16 -4 -30 -10 -30 -5 0
-10 -13 -10 -30 0 -16 -4 -30 -10 -30 -5 0 -10 -9 -10 -20 0 -11 -4 -20 -10
-20 -5 0 -10 -9 -10 -20 0 -11 -4 -20 -10 -20 -5 0 -10 -6 -10 -13 0 -18 -24
-67 -32 -67 -5 0 -8 -8 -8 -18 0 -10 -9 -24 -20 -32 -11 -8 -20 -21 -20 -28 0
-8 -14 -27 -30 -42 -17 -15 -30 -33 -30 -39 0 -6 -13 -25 -30 -43 -16 -17 -30
-35 -30 -40 0 -15 -229 -238 -245 -238 -8 0 -15 -5 -15 -11 0 -15 -26 -39 -42
-39 -8 0 -20 -9 -28 -20 -8 -11 -21 -20 -28 -20 -8 0 -27 -13 -42 -30 -15 -16
-35 -30 -44 -30 -9 0 -16 -4 -16 -10 0 -5 -9 -10 -20 -10 -11 0 -20 -4 -20
-10 0 -5 -9 -10 -20 -10 -11 0 -20 -4 -20 -10 0 -5 -11 -10 -25 -10 -14 0 -25
-4 -25 -10 0 -5 -9 -10 -20 -10 -11 0 -20 -4 -20 -10 0 -5 -11 -10 -24 -10
-14 0 -28 -5 -31 -10 -3 -6 -17 -10 -30 -10 -13 0 -27 -5 -30 -10 -3 -6 -16
-10 -29 -10 -12 0 -32 -9 -44 -20 -12 -11 -33 -20 -47 -20 -14 0 -25 -4 -25
-10 0 -5 -18 -10 -40 -10 -22 0 -40 -4 -40 -10 0 -6 -27 -10 -60 -10 -33 0
-60 -4 -60 -10 0 -6 -90 -10 -250 -10 -160 0 -250 4 -250 10 0 6 -28 10 -65
10 -37 0 -65 4 -65 10 0 6 -18 10 -40 10 -22 0 -40 5 -40 10 0 6 -13 10 -28
10 -16 0 -34 8 -42 20 -8 12 -26 20 -42 20 -15 0 -28 5 -28 10 0 6 -13 10 -30
10 -16 0 -30 5 -30 10 0 6 -13 10 -30 10 -16 0 -30 5 -30 10 0 6 -9 10 -20 10
-11 0 -20 5 -20 10 0 6 -9 10 -20 10 -11 0 -20 5 -20 10 0 6 -9 10 -20 10 -11
0 -20 5 -20 10 0 6 -9 10 -20 10 -11 0 -20 5 -20 10 0 6 -7 10 -16 10 -9 0
-29 14 -44 30 -15 17 -34 30 -42 30 -7 0 -20 9 -28 20 -8 11 -20 20 -28 20
-16 0 -42 24 -42 39 0 5 -9 13 -21 16 -22 7 -239 218 -239 233 0 5 -13 23 -30
40 -16 18 -30 36 -30 40 0 5 -12 22 -27 38 -16 16 -34 42 -42 57 -8 15 -18 27
-23 27 -4 0 -8 9 -8 20 0 11 -4 20 -9 20 -5 0 -16 18 -25 40 -9 22 -20 40 -26
40 -5 0 -10 9 -10 20 0 11 -4 20 -10 20 -5 0 -10 9 -10 20 0 11 -4 20 -10 20
-5 0 -10 14 -10 30 0 17 -4 30 -10 30 -5 0 -10 14 -10 30 0 17 -4 30 -10 30
-5 0 -10 13 -10 28 0 16 -8 34 -20 42 -12 8 -20 26 -20 42 0 15 -4 28 -10 28
-5 0 -10 23 -10 50 0 28 -4 50 -10 50 -6 0 -10 27 -10 60 0 33 -4 60 -10 60
-6 0 -10 85 -10 235 0 150 4 235 10 235 6 0 10 23 10 50 0 28 5 50 10 50 16 0
12 129 -4 146 -9 8 -35 14 -67 14 -60 0 -78 -16 -79 -67 0 -18 -4 -33 -10 -33
-5 0 -10 -22 -10 -50 0 -27 -4 -50 -10 -50 -6 0 -10 -107 -10 -300 0 -193 4
-300 10 -300 6 0 10 -22 10 -49 0 -28 4 -53 10 -56 5 -3 10 -20 10 -37 0 -31
15 -87 31 -120 5 -10 9 -29 9 -43 0 -14 5 -25 10 -25 6 0 10 -9 10 -20 0 -28
23 -100 32 -100 5 0 8 -9 8 -20 0 -11 5 -20 10 -20 6 0 10 -8 10 -18 0 -27 26
-75 50 -92 11 -8 20 -21 20 -30 0 -9 9 -22 20 -30 11 -8 20 -21 20 -30 0 -9 9
-22 20 -30 11 -8 20 -25 20 -38 0 -14 13 -36 30 -52 16 -15 30 -35 30 -44 0
-9 8 -16 20 -16 12 0 20 -7 20 -16 0 -9 14 -29 30 -44 16 -15 30 -33 30 -39 0
-14 86 -101 100 -101 11 0 140 -125 140 -136 0 -11 29 -34 42 -34 8 0 20 -9
28 -20 8 -11 22 -20 32 -20 10 0 18 -4 18 -10 0 -5 8 -10 18 -10 10 0 24 -9
32 -20 8 -11 22 -20 32 -20 10 0 18 -4 18 -10 0 -5 7 -10 16 -10 9 0 29 -13
44 -30 15 -16 35 -30 44 -30 9 0 16 -4 16 -10 0 -5 14 -10 30 -10 17 0 30 -4
30 -10 0 -5 9 -10 20 -10 11 0 20 -4 20 -10 0 -5 14 -10 30 -10 17 0 30 -4 30
-10 0 -5 14 -10 30 -10 17 0 30 -4 30 -10 0 -5 14 -10 30 -10 17 0 30 -4 30
-10 0 -5 18 -10 40 -10 22 0 40 -4 40 -10 0 -5 20 -10 45 -10 25 0 45 -4 45
-10 0 -5 23 -10 50 -10 28 0 50 -4 50 -10 0 -14 627 -14 635 0 3 6 24 10 46
10 21 0 39 5 39 10 0 6 18 10 40 10 22 0 40 5 40 10 0 6 18 10 40 10 22 0 40
5 40 10 0 6 14 10 30 10 17 0 30 5 30 10 0 6 14 10 30 10 17 0 30 5 30 10 0 6
14 10 30 10 17 0 30 5 30 10 0 6 9 10 20 10 11 0 20 5 20 10 0 6 14 10 30 10
17 0 30 5 30 10 0 6 7 10 16 10 9 0 29 14 44 30 15 17 37 30 49 30 12 0 21 5
21 10 0 6 5 10 11 10 6 0 29 13 52 28 23 15 54 34 70 41 15 8 27 18 27 23 0 4
5 8 12 8 6 0 49 38 94 85 45 47 87 85 93 85 15 0 101 86 101 101 0 6 14 24 30
39 17 15 30 35 30 44 0 9 8 16 20 16 12 0 20 7 20 16 0 9 13 29 30 44 17 16
30 38 30 52 0 13 9 30 20 38 11 8 20 21 20 30 0 9 9 22 20 30 11 8 20 21 20
30 0 9 9 22 20 30 11 8 20 22 20 32 0 10 5 18 10 18 6 0 10 14 10 30 0 17 5
30 10 30 6 0 10 9 10 20 0 11 5 20 10 20 6 0 10 9 10 19 0 11 4 23 10 26 6 3
10 22 10 41 0 19 5 34 10 34 6 0 10 14 10 30 0 17 5 30 10 30 6 0 10 13 10 29
0 17 4 33 10 36 6 3 10 26 10 51 0 24 5 44 10 44 6 0 10 25 10 55 0 30 5 55
10 55 6 0 10 107 10 300 0 193 -4 300 -10 300 -5 0 -10 23 -10 50 0 28 -4 50
-10 50 -5 0 -10 23 -10 50 0 28 -4 50 -10 50 -5 0 -10 14 -10 30 0 17 -4 30
-10 30 -5 0 -10 14 -10 30 0 17 -4 30 -10 30 -5 0 -10 18 -10 39 0 22 -6 42
-12 45 -10 5 -10 7 0 12 6 3 12 14 12 25 0 10 5 19 10 19 6 0 10 11 10 25 0
14 5 25 10 25 6 0 10 14 10 30 0 17 5 30 10 30 6 0 10 14 10 30 0 17 5 30 10
30 6 0 10 14 10 30 0 17 5 30 10 30 6 0 10 57 10 150 0 93 -4 150 -10 150 -5
0 -10 14 -10 30 0 17 -4 30 -10 30 -5 0 -10 8 -10 18 0 10 -9 24 -20 32 -11 8
-20 20 -20 27 0 19 -106 123 -125 123 -8 0 -15 5 -15 10 0 6 -9 10 -20 10 -11
0 -20 5 -20 10 0 6 -9 10 -20 10 -11 0 -20 5 -20 10 0 6 -27 10 -60 10 -33 0
-60 4 -60 10 0 6 -18 10 -40 10 -22 0 -40 -4 -40 -10 0 -6 -27 -10 -60 -10
-33 0 -60 -4 -60 -10 0 -5 -9 -10 -20 -10 -11 0 -20 -4 -20 -10 0 -5 -9 -10
-19 -10 -11 0 -21 -5 -23 -11 -5 -14 -71 -15 -76 -1 -2 7 -11 12 -21 12 -9 0
-23 9 -31 20 -8 11 -22 20 -32 20 -10 0 -18 5 -18 10 0 6 -9 10 -20 10 -11 0
-20 5 -20 10 0 6 -10 10 -23 10 -12 0 -29 9 -37 20 -8 11 -21 20 -30 20 -9 0
-22 9 -30 20 -8 11 -22 20 -32 20 -10 0 -18 5 -18 10 0 6 -13 10 -30 10 -16 0
-30 5 -30 10 0 6 -9 10 -20 10 -11 0 -20 5 -20 10 0 6 -13 10 -30 10 -16 0
-30 5 -30 10 0 6 -18 10 -40 10 -22 0 -40 5 -40 10 0 6 -13 10 -30 10 -16 0
-30 5 -30 10 0 6 -22 10 -50 10 -27 0 -50 5 -50 10 0 6 -22 10 -50 10 -27 0
-50 5 -50 10 0 6 -37 10 -90 10 -53 0 -90 4 -90 10 0 6 -50 10 -130 10 -80 0
-130 -4 -130 -10 0 -6 -37 -10 -90 -10 -53 0 -90 -4 -90 -10 0 -5 -22 -10 -50
-10 -27 0 -50 -4 -50 -10 0 -5 -25 -10 -55 -10 -30 0 -55 -4 -55 -10 0 -5 -16
-10 -35 -10 -19 0 -35 -4 -35 -10 0 -5 -16 -10 -35 -10 -19 0 -35 -4 -35 -10
0 -5 -13 -10 -30 -10 -16 0 -30 -4 -30 -10 0 -15 -29 -12 -46 4 -8 8 -14 26
-14 40 0 14 -4 26 -10 26 -5 0 -10 9 -10 20 0 11 -4 20 -10 20 -5 0 -10 7 -10
16 0 9 -13 29 -30 44 -16 15 -30 35 -30 44 0 9 -7 16 -15 16 -18 0 -65 43 -65
60 0 5 -9 10 -20 10 -11 0 -20 5 -20 10 0 6 -9 10 -20 10 -11 0 -20 5 -20 10
0 6 -9 10 -20 10 -11 0 -20 5 -20 10 0 13 -285 10 -327 -3z m267 -157 c0 -5 9
-10 20 -10 11 0 20 -4 20 -10 0 -5 9 -10 20 -10 11 0 20 -5 20 -11 0 -6 12
-23 28 -37 15 -15 33 -39 41 -54 8 -16 18 -28 23 -28 4 0 8 -9 8 -20 0 -11 -4
-20 -10 -20 -5 0 -10 7 -10 15 0 19 -64 85 -82 85 -8 0 -20 9 -28 20 -8 11
-21 20 -30 20 -9 0 -22 9 -30 20 -12 17 -26 20 -82 20 -39 0 -68 -4 -68 -10 0
-5 -9 -10 -20 -10 -11 0 -20 -4 -20 -10 0 -5 -7 -10 -15 -10 -20 0 -125 -105
-125 -125 0 -8 -4 -15 -10 -15 -5 0 -10 -9 -10 -20 0 -11 -4 -20 -10 -20 -6 0
-10 -28 -10 -62 0 -45 -3 -59 -10 -48 -13 20 -13 107 0 115 6 3 10 14 10 24 0
10 6 30 13 45 21 38 134 156 152 156 8 0 15 5 15 10 0 6 40 10 100 10 60 0
100 -4 100 -10z m-60 -210 c0 -5 9 -10 20 -10 13 0 20 -7 20 -20 0 -11 5 -20
10 -20 6 0 10 -20 10 -45 0 -63 -32 -95 -95 -95 -25 0 -45 5 -45 10 0 6 -9 10
-20 10 -13 0 -20 7 -20 20 0 11 -4 20 -10 20 -5 0 -10 16 -10 35 0 36 20 64
66 92 23 15 74 17 74 3z m260 -100 c0 -53 -4 -90 -10 -90 -5 0 -10 -18 -10
-40 0 -22 -4 -40 -10 -40 -5 0 -10 -9 -10 -20 0 -11 -4 -20 -10 -20 -5 0 -10
-9 -10 -20 0 -11 -4 -20 -10 -20 -5 0 -10 -9 -10 -20 0 -11 -4 -20 -10 -20 -5
0 -10 -7 -10 -16 0 -9 -13 -29 -30 -44 -16 -15 -30 -34 -30 -42 0 -7 -9 -20
-20 -28 -11 -8 -20 -20 -20 -27 0 -8 -21 -34 -46 -59 l-46 -46 -64 66 c-35 37
-64 72 -64 79 0 7 -9 19 -20 27 -11 8 -20 22 -20 32 0 10 -4 18 -9 18 -5 0
-13 9 -16 20 -4 11 -17 32 -31 45 -13 13 -24 36 -24 50 0 14 -4 25 -10 25 -5
0 -10 11 -10 24 0 14 -4 28 -10 31 -10 6 -14 65 -4 65 11 0 34 -29 34 -42 0
-8 9 -20 20 -28 11 -8 20 -20 20 -28 0 -18 46 -62 65 -62 8 0 15 -4 15 -10 0
-5 9 -10 20 -10 11 0 20 -4 20 -10 0 -6 33 -10 80 -10 47 0 80 4 80 10 0 6 14
10 30 10 17 0 30 5 30 10 0 6 7 10 15 10 20 0 85 65 85 85 0 8 5 15 10 15 6 0
10 9 10 20 0 11 5 20 10 20 6 0 10 37 10 90 0 53 4 90 10 90 6 0 10 -37 10
-90z m690 57 c0 -7 9 -23 20 -35 11 -12 20 -28 20 -37 0 -8 5 -15 10 -15 6 0
10 -7 10 -16 0 -8 23 -37 50 -64 28 -27 50 -54 50 -60 0 -7 14 -25 30 -40 23
-21 30 -37 30 -64 0 -20 -4 -36 -10 -36 -5 0 -10 -7 -10 -15 0 -20 -305 -325
-325 -325 -8 0 -15 -4 -15 -10 0 -5 -13 -10 -30 -10 -16 0 -30 -4 -30 -10 0
-6 -79 -10 -217 -10 -194 0 -223 -2 -277 -21 -34 -12 -66 -27 -72 -35 -6 -8
-17 -14 -23 -14 -7 0 -34 -22 -61 -50 -27 -27 -56 -50 -64 -50 -9 0 -16 -4
-16 -10 0 -5 -8 -10 -18 -10 -10 0 -24 -9 -32 -20 -8 -11 -22 -20 -32 -20 -16
0 -18 11 -18 95 l0 95 60 0 c33 0 60 4 60 10 0 6 7 10 15 10 18 0 125 104 125
121 0 6 14 24 30 39 17 15 30 33 30 40 0 7 14 25 30 40 17 15 30 35 30 44 0 9
5 16 10 16 6 0 10 13 10 28 0 16 8 34 20 42 11 8 20 21 20 30 0 9 9 22 20 30
14 10 20 26 20 52 0 21 5 38 10 38 6 0 10 23 10 50 0 49 1 50 30 50 17 0 30 5
30 10 0 6 9 10 20 10 11 0 20 5 20 10 0 6 14 10 30 10 17 0 30 5 30 10 0 6 14
10 30 10 17 0 30 5 30 10 0 6 15 10 34 10 19 0 38 5 41 10 3 6 23 10 43 10 26
0 42 6 52 20 11 15 26 20 62 20 26 0 50 5 53 10 9 14 25 12 25 -3z m1710 -277
c0 -5 23 -10 50 -10 28 0 50 -4 50 -10 0 -5 8 -10 18 -10 10 0 24 -9 32 -20 8
-11 20 -20 28 -20 17 0 42 -25 42 -42 0 -8 9 -20 20 -28 18 -13 30 -70 14 -70
-11 0 -34 29 -34 44 0 9 -4 16 -10 16 -5 0 -10 7 -10 15 0 20 -45 65 -65 65
-8 0 -15 5 -15 10 0 6 -13 10 -30 10 -16 0 -30 5 -30 10 0 6 -33 10 -80 10
-47 0 -80 -4 -80 -10 0 -5 -13 -10 -28 -10 -16 0 -34 -8 -42 -20 -8 -11 -20
-20 -28 -20 -17 0 -42 -25 -42 -42 0 -8 -9 -20 -20 -28 -12 -8 -20 -26 -20
-42 0 -15 -4 -28 -10 -28 -5 0 -10 14 -10 30 0 17 5 30 10 30 6 0 10 9 10 20
0 11 5 20 10 20 6 0 10 7 10 15 0 20 45 65 65 65 8 0 15 5 15 10 0 6 9 10 20
10 11 0 20 5 20 10 0 6 18 10 40 10 22 0 40 5 40 10 0 6 14 10 30 10 17 0 30
-4 30 -10z m20 -220 c0 -5 7 -10 16 -10 40 0 58 -65 32 -112 -41 -71 -99 -88
-143 -43 -14 13 -25 31 -25 40 0 8 -4 15 -10 15 -5 0 -10 14 -10 30 0 17 5 30
10 30 6 0 10 9 10 20 0 13 7 20 20 20 11 0 20 5 20 10 0 6 18 10 40 10 22 0
40 -4 40 -10z m260 -90 c0 -47 -4 -80 -10 -80 -5 0 -10 -18 -10 -40 0 -22 -4
-40 -10 -40 -5 0 -10 -9 -10 -19 0 -11 -4 -23 -10 -26 -5 -3 -10 -14 -10 -23
0 -10 -9 -24 -20 -32 -11 -8 -20 -22 -20 -32 0 -10 -4 -18 -10 -18 -5 0 -10
-8 -10 -18 0 -10 -9 -24 -20 -32 -11 -8 -20 -21 -20 -28 0 -8 -13 -27 -30 -42
-16 -15 -30 -33 -30 -39 0 -15 -66 -81 -80 -81 -14 0 -80 66 -80 80 0 7 -18
29 -40 50 -22 21 -40 45 -40 52 0 7 -9 20 -20 28 -11 8 -20 22 -20 32 0 10 -4
18 -10 18 -5 0 -10 9 -10 20 0 11 -4 20 -10 20 -5 0 -10 14 -10 30 0 17 -4 30
-10 30 -5 0 -10 11 -10 25 0 14 -4 25 -10 25 -5 0 -10 18 -10 40 0 22 5 40 10
40 6 0 10 -13 10 -30 0 -16 5 -30 10 -30 6 0 10 -9 10 -20 0 -12 7 -20 16 -20
9 0 29 -13 44 -30 15 -16 35 -30 44 -30 9 0 16 -4 16 -10 0 -5 9 -10 20 -10
11 0 20 -4 20 -10 0 -6 33 -10 80 -10 47 0 80 4 80 10 0 6 9 10 20 10 11 0 20
5 20 10 0 6 7 10 15 10 19 0 105 84 105 103 0 7 9 19 20 27 17 12 20 26 20 92
0 45 4 78 10 78 6 0 10 -33 10 -80z m-60 -665 c0 -14 5 -25 10 -25 6 0 10 -22
10 -50 0 -27 5 -50 10 -50 15 0 12 -49 -4 -66 -8 -8 -21 -14 -28 -14 -8 0 -20
-9 -28 -20 -8 -11 -22 -20 -32 -20 -10 0 -18 -4 -18 -10 0 -5 -18 -10 -40 -10
-22 0 -40 5 -40 10 0 6 -13 10 -28 10 -16 0 -34 8 -42 20 -8 11 -20 20 -28 20
-18 0 -62 46 -62 65 0 8 -4 15 -10 15 -5 0 -10 9 -10 20 0 11 -4 20 -10 20 -5
0 -10 10 -10 23 0 13 -5 28 -12 35 -6 6 -9 15 -5 18 9 9 37 -21 37 -40 0 -9 8
-16 20 -16 11 0 20 -4 20 -10 0 -6 27 -10 60 -10 33 0 60 4 60 10 0 6 7 10 16
10 17 0 84 67 84 83 0 5 10 18 22 28 21 19 22 19 40 0 10 -11 18 -32 18 -46z"/>
<path d="M2585 3490 c-3 -5 -19 -10 -36 -10 -16 0 -29 -4 -29 -10 0 -5 -10
-10 -23 -10 -13 0 -33 -9 -45 -20 -12 -11 -28 -20 -37 -20 -8 0 -15 -5 -15
-11 0 -6 -18 -28 -40 -49 -22 -21 -40 -45 -40 -52 0 -7 -9 -20 -20 -28 -11 -8
-20 -22 -20 -32 0 -10 -4 -18 -10 -18 -5 0 -10 -9 -10 -20 0 -11 -4 -20 -10
-20 -5 0 -10 -7 -10 -16 0 -28 -27 -44 -74 -44 -25 0 -46 -4 -46 -10 0 -5 -13
-10 -30 -10 -16 0 -30 -4 -30 -10 0 -5 -9 -10 -20 -10 -11 0 -20 -4 -20 -10 0
-5 -7 -10 -15 -10 -8 0 -15 -4 -15 -10 0 -5 -7 -10 -16 -10 -19 0 -104 -87
-104 -107 0 -7 -4 -13 -10 -13 -5 0 -10 -7 -10 -16 0 -8 -22 -37 -50 -64 -27
-27 -50 -54 -50 -60 0 -6 -9 -20 -20 -32 -11 -12 -20 -28 -20 -35 0 -7 -4 -13
-10 -13 -5 0 -10 -8 -10 -18 0 -10 -9 -24 -20 -32 -12 -8 -20 -26 -20 -42 0
-15 -4 -28 -10 -28 -5 0 -10 -22 -10 -49 0 -28 -4 -53 -10 -56 -5 -3 -10 -17
-10 -31 0 -13 5 -24 10 -24 6 0 10 -22 10 -50 0 -27 5 -50 10 -50 6 0 10 -16
10 -35 0 -19 -4 -35 -10 -35 -6 0 -10 -27 -10 -60 0 -33 -4 -60 -10 -60 -5 0
-10 -11 -10 -25 0 -14 5 -25 10 -25 6 0 10 -32 10 -75 0 -43 4 -75 10 -75 6 0
10 -13 10 -30 0 -16 5 -30 10 -30 6 0 10 -15 10 -34 0 -19 5 -38 10 -41 6 -3
10 -15 10 -26 0 -10 5 -19 10 -19 6 0 10 -9 10 -20 0 -11 5 -20 10 -20 6 0 10
-6 10 -13 0 -7 9 -23 20 -35 11 -12 20 -26 20 -32 0 -7 18 -29 40 -50 22 -21
40 -44 40 -50 0 -7 14 -25 32 -41 23 -23 28 -33 20 -41 -15 -15 -17 -398 -2
-398 6 0 10 -13 10 -30 0 -16 5 -30 10 -30 6 0 10 -8 10 -18 0 -21 29 -52 48
-52 7 0 12 -4 12 -10 0 -5 7 -10 15 -10 8 0 15 -4 15 -10 0 -5 9 -10 20 -10
11 0 20 -4 20 -10 0 -6 40 -10 99 -10 83 0 106 4 140 22 23 12 41 25 41 30 0
4 9 8 20 8 11 0 20 5 20 10 0 6 6 10 14 10 8 0 23 11 34 25 11 14 27 25 36 25
9 0 16 8 16 20 0 13 7 20 18 20 10 0 24 9 32 20 8 11 21 20 30 20 9 0 22 9 30
20 8 11 21 20 30 20 9 0 22 9 30 20 8 11 22 20 32 20 10 0 18 5 18 10 0 6 7
10 16 10 8 0 33 18 54 40 21 22 44 40 50 40 7 0 25 14 40 30 15 17 34 30 42
30 7 0 20 9 28 20 8 11 20 20 28 20 17 0 62 45 62 62 0 8 9 20 20 28 11 8 20
20 20 28 0 7 23 35 50 62 28 27 50 56 50 64 0 9 5 16 10 16 6 0 10 8 10 18 0
10 9 24 20 32 11 8 20 21 20 30 0 9 9 22 20 30 14 10 20 26 20 52 0 21 -4 38
-10 38 -5 0 -10 9 -10 20 0 18 -7 20 -55 20 -46 0 -60 -4 -80 -25 -14 -13 -25
-29 -25 -34 0 -6 -22 -34 -50 -62 -27 -28 -50 -60 -50 -71 0 -11 -13 -33 -30
-48 -16 -15 -30 -33 -30 -39 0 -15 -66 -81 -80 -81 -6 0 -33 -22 -60 -50 -27
-27 -55 -50 -62 -50 -8 0 -20 -9 -28 -20 -8 -11 -21 -20 -30 -20 -9 0 -22 -9
-30 -20 -8 -11 -22 -20 -32 -20 -10 0 -18 -4 -18 -10 0 -5 -7 -10 -16 -10 -8
0 -33 -18 -54 -40 -21 -22 -45 -40 -52 -40 -7 0 -20 -9 -28 -20 -8 -11 -21
-20 -30 -20 -9 0 -22 -9 -30 -20 -8 -11 -22 -20 -32 -20 -10 0 -18 -5 -18 -11
0 -16 -26 -39 -44 -39 -9 0 -16 -4 -16 -10 0 -5 -9 -10 -20 -10 -11 0 -20 -4
-20 -10 0 -5 -25 -10 -55 -10 -30 0 -55 5 -55 10 0 6 -9 10 -20 10 -19 0 -20
7 -20 145 l0 145 40 0 c22 0 40 5 40 10 0 6 10 10 21 10 20 0 69 45 69 63 0
11 63 72 83 80 9 3 17 11 17 18 0 6 14 24 30 39 17 16 30 38 30 52 0 13 9 30
20 38 11 8 20 22 20 32 0 10 5 18 10 18 6 0 10 8 10 18 0 10 9 24 20 32 11 8
20 22 20 32 0 10 5 18 10 18 6 0 10 14 10 30 0 17 5 30 10 30 6 0 10 13 10 29
0 17 5 33 10 36 6 4 10 65 10 151 0 89 -4 144 -10 144 -5 0 -10 16 -10 35 0
19 -4 35 -10 35 -5 0 -10 9 -10 20 0 37 -181 220 -217 220 -13 0 -23 5 -23 10
0 6 -13 10 -30 10 -16 0 -30 5 -30 10 0 6 -50 10 -129 10 -76 0 -132 -4 -136
-10 -3 -5 -15 -10 -25 -10 -24 0 -89 -36 -111 -61 -22 -26 -29 -24 -29 9 0 16
8 34 20 42 11 8 20 21 20 28 0 7 18 31 40 52 22 21 40 46 40 54 0 9 5 16 10
16 6 0 10 7 10 16 0 9 14 29 30 44 17 15 30 33 30 39 0 17 127 141 145 141 8
0 15 5 15 10 0 6 16 10 35 10 l35 0 0 -58 c0 -46 4 -60 20 -72 12 -8 20 -26
20 -42 0 -15 5 -28 10 -28 6 0 10 -9 10 -20 0 -11 5 -20 10 -20 6 0 10 -13 10
-30 0 -16 5 -30 10 -30 6 0 10 -9 10 -20 0 -11 5 -20 10 -20 6 0 10 -8 10 -18
0 -10 9 -24 20 -32 11 -8 20 -22 20 -32 0 -10 5 -18 10 -18 6 0 10 -7 10 -15
0 -8 51 -67 114 -129 122 -122 120 -121 224 -117 35 1 42 4 42 21 0 13 7 20
20 20 11 0 20 7 20 15 0 19 144 165 163 165 7 0 19 -9 27 -20 8 -11 22 -20 32
-20 10 0 18 -4 18 -10 0 -5 8 -10 18 -10 10 0 24 -9 32 -20 8 -11 21 -20 30
-20 9 0 22 -9 30 -20 8 -11 21 -20 30 -20 9 0 22 -9 30 -20 8 -11 19 -20 24
-20 12 0 56 -52 56 -67 0 -7 5 -13 10 -13 6 0 10 -20 10 -45 0 -25 -4 -45 -10
-45 -5 0 -10 -8 -10 -17 0 -10 -16 -31 -35 -48 -19 -16 -35 -35 -35 -42 0 -7
-4 -13 -10 -13 -5 0 -10 -15 -10 -33 0 -36 25 -67 53 -67 9 0 17 -4 17 -10 0
-5 13 -10 30 -10 49 0 150 108 150 161 0 10 5 21 10 24 6 3 10 48 10 100 0 52
-4 97 -10 100 -5 3 -10 14 -10 24 0 42 -61 121 -93 121 -7 0 -19 9 -27 20 -8
11 -20 20 -28 20 -7 0 -35 23 -62 50 -27 28 -56 50 -64 50 -9 0 -16 5 -16 10
0 6 -8 10 -18 10 -10 0 -24 9 -32 20 -8 11 -20 20 -28 20 -20 0 -50 32 -34 38
6 2 12 12 12 23 0 10 5 19 10 19 6 0 10 13 10 28 0 16 8 34 20 42 12 8 20 26
20 42 0 15 5 28 10 28 6 0 10 57 10 150 0 93 -4 150 -10 150 -5 0 -10 13 -10
28 0 16 -8 34 -20 42 -11 8 -20 21 -20 30 0 9 -9 22 -20 30 -11 8 -20 21 -20
28 0 7 -18 31 -40 52 -22 21 -40 43 -40 49 0 6 -7 11 -15 11 -9 0 -25 9 -37
20 -12 11 -32 20 -45 20 -13 0 -23 5 -23 10 0 6 -13 10 -29 10 -17 0 -33 5
-36 10 -3 6 -50 10 -105 10 -55 0 -102 -4 -105 -10z m175 -180 c0 -5 14 -10
30 -10 17 0 30 -4 30 -10 0 -5 9 -10 20 -10 11 0 20 -6 20 -14 0 -7 14 -19 30
-26 17 -7 30 -18 30 -24 0 -7 9 -22 20 -34 11 -12 20 -28 20 -37 0 -8 5 -15
10 -15 6 0 10 -47 10 -120 0 -73 -4 -120 -10 -120 -5 0 -10 -13 -10 -30 0 -16
-4 -30 -10 -30 -5 0 -10 -11 -10 -25 0 -14 -9 -35 -20 -47 -11 -12 -20 -31
-20 -43 0 -11 -9 -27 -20 -35 -11 -8 -20 -20 -20 -27 0 -7 -22 -36 -50 -64
-27 -28 -50 -55 -50 -60 0 -5 -16 -25 -35 -45 l-35 -35 -35 35 c-19 20 -35 39
-35 44 0 5 -13 23 -30 40 -16 18 -30 36 -30 40 0 5 -8 17 -18 28 -10 10 -25
35 -35 55 -9 20 -23 42 -32 49 -8 7 -15 21 -15 31 0 11 -4 19 -10 19 -5 0 -10
9 -10 20 0 11 -4 20 -10 20 -5 0 -10 14 -10 30 0 17 -4 30 -10 30 -6 0 -10 47
-10 120 0 73 4 120 10 120 6 0 10 7 10 15 0 9 9 25 20 37 11 12 20 27 20 32 0
6 14 17 30 24 17 8 30 20 30 28 0 8 9 14 20 14 11 0 20 5 20 10 0 6 14 10 30
10 17 0 30 5 30 10 0 6 30 10 70 10 40 0 70 -4 70 -10z m-560 -910 c0 -5 9
-10 20 -10 11 0 20 -4 20 -10 0 -5 7 -10 15 -10 23 0 85 -66 85 -90 0 -28 -5
-26 -46 20 -40 44 -85 70 -121 70 -12 0 -23 5 -23 10 0 6 -25 10 -55 10 -30 0
-55 -4 -55 -10 0 -5 -14 -10 -31 -10 -36 0 -109 -47 -128 -84 -8 -14 -18 -26
-23 -26 -4 0 -8 -8 -8 -18 0 -10 -9 -24 -20 -32 -22 -16 -27 -40 -7 -41 10 0
10 -2 0 -6 -16 -6 -18 -129 -3 -138 6 -3 10 -15 10 -26 0 -10 5 -19 10 -19 6
0 10 -7 10 -16 0 -24 109 -124 135 -124 8 0 15 -4 15 -10 0 -6 33 -10 80 -10
83 0 134 18 171 61 9 11 21 19 26 19 11 0 53 46 71 77 7 14 12 62 12 128 0 63
4 105 10 105 6 0 10 -45 10 -115 0 -70 -4 -115 -10 -115 -5 0 -10 -13 -10 -30
0 -16 -4 -30 -10 -30 -5 0 -10 -13 -10 -30 0 -16 -4 -30 -10 -30 -5 0 -10 -9
-10 -20 0 -11 -4 -20 -10 -20 -5 0 -10 -8 -10 -18 0 -10 -9 -24 -20 -32 -11
-8 -20 -21 -20 -28 0 -8 -13 -27 -30 -42 -16 -15 -30 -33 -30 -39 0 -11 -104
-121 -115 -121 -13 0 -95 91 -95 105 0 8 -4 15 -10 15 -5 0 -10 7 -10 16 0 9
-13 29 -30 44 -16 15 -30 35 -30 44 0 9 -4 16 -10 16 -5 0 -10 9 -10 20 0 11
-4 20 -10 20 -5 0 -10 8 -10 18 0 10 -9 24 -20 32 -12 8 -20 26 -20 42 0 15
-4 28 -10 28 -5 0 -10 14 -10 30 0 17 -4 30 -10 30 -6 0 -10 42 -10 105 0 63
4 105 10 105 6 0 10 9 10 20 0 11 5 20 10 20 6 0 10 9 10 20 0 11 5 20 10 20
6 0 10 9 10 20 0 12 7 20 16 20 9 0 29 14 44 30 17 18 38 30 54 30 14 0 26 5
26 10 0 6 42 10 105 10 63 0 105 -4 105 -10z m-45 -215 c14 -13 25 -33 25 -45
0 -11 5 -20 10 -20 6 0 10 -9 10 -20 0 -11 -4 -20 -10 -20 -5 0 -10 -7 -10
-15 0 -9 -11 -27 -25 -40 -18 -19 -35 -25 -70 -25 -67 0 -95 31 -95 105 0 58
14 85 44 85 9 0 16 5 16 10 0 6 18 10 40 10 30 0 47 -7 65 -25z"/>
<path d="M2580 3260 c0 -5 -7 -10 -15 -10 -9 0 -40 -25 -70 -55 -30 -30 -55
-61 -55 -70 0 -8 -4 -15 -10 -15 -6 0 -10 -42 -10 -105 l0 -105 65 -65 c35
-36 71 -65 80 -65 8 0 15 -4 15 -10 0 -6 43 -10 110 -10 67 0 110 4 110 10 0
6 8 10 18 10 10 0 24 9 32 20 8 11 21 20 29 20 16 0 61 49 61 68 0 6 5 12 10
12 6 0 10 37 10 90 0 83 -1 90 -20 90 -11 0 -20 5 -20 10 0 6 -18 10 -40 10
-22 0 -40 -4 -40 -10 0 -5 -9 -10 -20 -10 -16 0 -20 -7 -20 -30 0 -16 -4 -30
-10 -30 -5 0 -10 -11 -10 -25 0 -41 -42 -75 -90 -75 -59 0 -90 39 -90 112 0
37 4 45 27 56 15 6 32 12 39 12 7 0 14 6 17 13 4 10 7 10 18 0 7 -7 20 -13 29
-13 21 0 70 44 70 64 0 9 5 16 10 16 20 0 10 51 -15 75 -22 23 -32 25 -120 25
-57 0 -95 -4 -95 -10z"/>
</g>
</svg>
