<svg version="1.1" id="Layer_1" xmlns="http://www.w3.org/2000/svg" xmlns:xlink="http://www.w3.org/1999/xlink" x="0px" y="0px"
	 width="96px" viewBox="0 0 500 500" enable-background="new 0 0 500 500" xml:space="preserve">
<path fill="none" opacity="1.000000" stroke="none" 
	d="
M269.000000,501.000000 
	C179.333359,501.000000 90.166710,501.000000 1.000048,501.000000 
	C1.000032,334.333405 1.000032,167.666794 1.000016,1.000137 
	C167.666565,1.000092 334.333130,1.000092 500.999756,1.000046 
	C500.999847,167.666519 500.999847,334.333038 500.999939,500.999786 
	C423.833344,501.000000 346.666656,501.000000 269.000000,501.000000 
M352.919281,218.315704 
	C351.971832,217.495422 351.024414,216.675156 349.758636,215.193695 
	C346.078217,208.824051 345.261810,201.049393 338.354675,196.184967 
	C333.597168,192.834457 330.454132,187.264618 326.221466,183.056992 
	C324.689331,181.533920 322.086823,181.087631 319.504059,180.014313 
	C319.504059,180.014313 319.026703,179.913651 318.966431,179.179337 
	C316.893188,174.999725 312.663025,175.114151 308.216339,174.029221 
	C303.146240,172.011719 298.076111,169.994217 292.813141,167.175842 
	C289.196838,166.834305 285.580536,166.492767 281.036896,166.043747 
	C259.604889,166.061371 238.172379,166.011780 216.741531,166.178406 
	C213.938278,166.200195 211.101746,167.188049 208.356369,167.988327 
	C205.389420,168.853149 202.584412,170.396729 199.579727,170.983994 
	C192.768158,172.315353 186.973404,175.360138 181.270660,180.011566 
	C180.320969,180.229019 179.078644,180.136551 178.468002,180.713104 
	C173.689133,185.225067 169.002213,189.836472 164.381180,194.510376 
	C163.914108,194.982819 164.070358,196.071548 163.187576,196.969940 
	C162.482422,197.274918 161.441299,197.380051 161.123016,197.915146 
	C157.025909,204.803131 152.335449,211.455597 149.216339,218.773438 
	C146.348862,225.500885 145.129440,232.944077 143.397812,240.123520 
	C143.208221,240.909576 144.429443,242.035904 145.000000,243.000000 
	C145.000000,243.000000 144.995590,243.003464 145.029190,243.864014 
	C146.870331,244.567200 148.710480,245.882111 150.552795,245.885147 
	C217.624924,245.995773 284.697266,245.984634 351.769592,245.988251 
	C352.768036,245.988312 354.000153,246.322739 354.708130,245.862518 
	C355.681915,245.229553 356.259094,243.986450 357.001953,243.007416 
	C357.001953,243.007416 357.013794,243.015656 357.705597,242.845505 
	C357.490936,240.881531 357.276276,238.917557 357.034210,236.075455 
	C356.373047,233.351196 355.711884,230.626953 355.002045,227.275406 
	C354.951019,226.860184 354.899994,226.444946 354.981995,225.262939 
	C354.344452,223.469528 353.706940,221.676117 352.961517,219.453094 
	C352.961517,219.453094 352.807526,219.037735 352.919281,218.315704 
M118.757233,162.975616 
	C120.218513,161.810486 121.882607,160.822632 123.092926,159.438126 
	C124.852638,157.425140 126.285233,155.126205 128.209808,152.304398 
	C130.153198,151.226807 132.096588,150.149216 134.805801,149.017960 
	C135.416122,148.857788 136.162506,148.869812 136.616150,148.511353 
	C142.598373,143.784286 148.169159,138.190720 156.932404,139.880890 
	C157.509308,139.992157 158.357605,138.696259 159.756424,137.718414 
	C166.296936,135.569611 170.328629,128.951035 171.020981,121.013107 
	C171.789566,112.201210 158.141998,103.045418 150.650375,105.446060 
	C148.739471,106.058395 147.253265,108.459831 145.398621,108.699799 
	C139.002563,109.527351 138.336243,114.033775 137.433456,119.366432 
	C134.347214,122.491478 131.393417,125.762909 128.141937,128.705383 
	C123.857750,132.582413 119.361031,136.226669 114.916092,139.923401 
	C110.647919,143.473145 105.580978,146.368195 102.208282,150.617172 
	C97.161644,156.974991 92.442764,163.890884 89.176430,171.273712 
	C86.346161,177.670944 85.729759,185.047623 83.768028,192.762741 
	C83.581169,209.624908 83.357361,226.486984 83.317848,243.349503 
	C83.315887,244.182312 84.895287,245.709641 85.781082,245.741974 
	C91.683426,245.957352 97.597404,245.853714 103.826324,245.853714 
	C103.826324,226.388306 103.826324,207.663620 103.932289,188.204422 
	C104.238625,186.816635 104.544952,185.428833 105.176224,183.397278 
	C105.712151,182.784912 106.364548,182.240036 106.764954,181.549149 
	C109.222816,177.308014 111.563271,172.997910 114.070076,168.786499 
	C115.248970,166.805954 116.711281,164.994110 118.757233,162.975616 
M127.080109,256.016998 
	C104.046890,256.092285 81.013672,256.167572 57.126373,256.120728 
	C56.415833,257.430756 55.121632,258.726959 55.090183,260.053101 
	C54.896782,268.208557 55.238884,276.381409 54.893776,284.526917 
	C54.679176,289.591980 56.424530,290.805084 61.430450,290.800079 
	C185.827637,290.676025 310.225006,290.737823 434.622345,290.766449 
	C438.419373,290.767334 442.216400,290.766541 445.711639,290.766541 
	C446.192291,290.024567 446.519897,289.753693 446.524994,289.476898 
	C446.703247,279.834106 446.929443,270.190247 446.872162,260.548218 
	C446.866943,259.664124 445.022461,258.790955 443.678223,257.182129 
	C442.654999,256.791504 441.631866,256.059723 440.608582,256.059570 
	C403.737213,256.054474 366.865875,256.117615 329.067169,256.031464 
	C296.713348,256.077972 264.359528,256.124481 231.078354,256.020386 
	C196.721512,256.069305 162.364655,256.118225 127.080109,256.016998 
M208.982803,98.727318 
	C209.713089,100.603340 210.065369,102.770630 211.244461,104.300827 
	C214.790924,108.903366 217.358627,114.713661 224.725662,116.166229 
	C225.488831,117.061279 226.098465,118.494011 227.040405,118.762962 
	C232.612640,120.354050 238.262009,121.674950 243.993683,123.933495 
	C244.085876,124.419716 244.162872,125.327415 244.272461,125.331375 
	C248.522644,125.484688 252.777298,125.620918 257.026062,125.525299 
	C257.407043,125.516716 257.752686,123.936768 258.948700,123.011894 
	C262.281525,122.294601 265.614319,121.577309 269.727173,121.026558 
	C273.139008,119.263451 276.812988,117.867783 279.907349,115.659775 
	C286.108429,111.234978 291.568176,106.058228 293.166779,97.267647 
	C294.164215,94.858337 295.161621,92.449028 296.852112,89.596954 
	C297.209930,82.893349 297.693787,76.192253 297.827789,69.484177 
	C297.857422,68.000923 296.649841,66.492950 295.974091,64.257263 
	C295.022705,62.146042 294.071320,60.034817 293.067841,57.125511 
	C291.813477,50.415981 287.439972,45.583698 282.698517,41.297192 
	C280.047882,38.900852 276.289001,37.730297 272.500732,35.465908 
	C267.318665,33.975842 262.216949,31.712357 256.937073,31.164118 
	C247.310654,30.164553 237.658203,30.621471 228.281036,35.969780 
	C217.799652,40.342598 211.315018,48.278126 207.231995,59.311340 
	C206.810089,61.191811 206.388199,63.072281 205.188934,65.222855 
	C205.013428,73.265442 204.827271,81.307892 204.718033,89.351379 
	C204.714996,89.573647 205.537567,89.807121 206.016785,90.795746 
	C207.057938,93.179550 208.099091,95.563354 208.982803,98.727318 
M401.001831,300.987152 
	C395.881104,300.732666 390.760101,300.256287 385.639709,300.262390 
	C364.498169,300.287628 343.356720,300.566315 322.215393,300.551910 
	C290.249451,300.530121 258.283539,300.221863 226.317917,300.266693 
	C205.709396,300.295593 185.102097,300.848419 164.493103,300.965820 
	C143.011780,301.088196 121.529099,300.969666 99.600456,300.435089 
	C98.487152,300.188538 97.165779,299.429749 96.296082,299.783020 
	C92.243813,301.428894 91.567963,308.529999 95.048347,312.909302 
	C95.733459,317.255585 96.418571,321.601898 96.922989,326.839233 
	C97.705185,330.636749 94.998650,335.384033 100.042465,338.946716 
	C100.743546,343.612762 101.444633,348.278778 101.970345,353.815186 
	C102.301201,357.398254 100.697060,361.563293 105.046814,364.863922 
	C105.745590,369.224548 106.444359,373.585175 106.961594,378.827087 
	C107.624008,381.907104 108.286423,384.987091 109.002663,388.787231 
	C109.047867,389.507263 109.093079,390.227264 108.966049,391.832703 
	C109.885391,395.264191 106.779350,399.875122 112.022491,402.958801 
	C112.723885,407.622711 113.425278,412.286621 113.953751,417.831451 
	C114.624733,421.234863 115.295715,424.638275 116.012833,428.886597 
	C117.349739,435.012634 119.055794,441.086975 119.923531,447.278748 
	C120.860092,453.961700 120.518074,454.004333 127.250343,454.004181 
	C209.169052,454.002411 291.087769,454.004364 373.006470,453.992340 
	C375.494995,453.991974 378.424988,454.598419 380.303497,453.489471 
	C381.398651,452.842896 380.812714,449.345612 380.978058,447.130554 
	C381.002808,446.798859 380.928864,446.444122 381.020172,446.135406 
	C382.656464,440.600647 384.475006,435.113251 385.904602,429.526154 
	C386.863373,425.778961 387.305023,421.896667 387.915771,418.064911 
	C388.097809,416.922974 387.931000,415.719574 388.158569,414.591644 
	C389.975555,405.587036 391.925720,396.608582 393.666382,387.589569 
	C394.340637,384.095886 394.480896,380.502319 395.047821,376.983826 
	C395.525146,374.021515 396.469391,371.127502 396.845306,368.157471 
	C397.379089,363.940186 396.397858,359.073151 398.193207,355.577271 
	C401.128998,349.860718 402.238403,344.195526 402.726990,337.758087 
	C403.444061,333.824036 404.161133,329.890015 404.964569,325.309387 
	C404.987091,324.875214 405.009613,324.441071 405.813507,323.792175 
	C406.166534,320.178772 406.519562,316.565369 406.963257,312.497131 
	C406.963257,312.497131 407.037018,312.039215 407.797729,311.775208 
	C408.183746,308.618347 409.125519,305.402710 408.799744,302.321106 
	C408.473175,299.232056 404.023712,298.533325 401.001831,300.987152 
z"/>
<path fill="#84CEC7" opacity="1.000000" stroke="none" 
	d="
M114.126678,416.950531 
	C113.425278,412.286621 112.723885,407.622711 112.071411,402.104858 
	C112.349274,399.501648 112.650436,397.758118 112.790329,396.001709 
	C113.003426,393.326080 112.410072,391.145752 109.138283,390.947296 
	C109.093079,390.227264 109.047867,389.507263 109.159180,388.060883 
	C109.798065,383.925751 111.997910,380.119537 107.143127,377.945801 
	C106.444359,373.585175 105.745590,369.224548 105.111938,364.009338 
	C105.354813,361.375000 106.071472,359.421906 105.569458,357.860687 
	C104.984993,356.043030 103.333916,354.568359 102.145721,352.944824 
	C101.444633,348.278778 100.743546,343.612762 100.092896,338.092438 
	C100.341888,335.459808 100.635841,333.685760 100.716927,331.902069 
	C100.841743,329.156281 100.518288,326.588379 97.103683,325.948181 
	C96.418571,321.601898 95.733459,317.255585 95.239120,312.115601 
	C95.608147,309.377930 96.011009,307.422546 95.913147,305.492584 
	C95.757988,302.432587 96.814789,300.782410 100.047012,300.956482 
	C121.529099,300.969666 143.011780,301.088196 164.493103,300.965820 
	C185.102097,300.848419 205.709396,300.295593 226.317917,300.266693 
	C258.283539,300.221863 290.249451,300.530121 322.215393,300.551910 
	C343.356720,300.566315 364.498169,300.287628 385.639709,300.262390 
	C390.760101,300.256287 395.881104,300.732666 401.858154,301.016602 
	C403.833313,302.290466 405.461700,303.362762 405.953369,304.818939 
	C406.719849,307.088867 406.714996,309.619202 407.036987,312.039215 
	C407.037018,312.039215 406.963257,312.497131 406.577393,312.870239 
	C402.636627,316.489929 403.593475,320.222473 405.032135,324.006897 
	C405.009613,324.441071 404.987091,324.875214 404.554688,325.715210 
	C403.149628,327.368835 401.426788,328.553680 401.312317,329.877655 
	C401.081238,332.549774 401.724243,335.297546 402.006714,338.014099 
	C402.238403,344.195526 401.128998,349.860718 398.193207,355.577271 
	C396.397858,359.073151 397.379089,363.940186 396.845306,368.157471 
	C396.469391,371.127502 395.525146,374.021515 395.047821,376.983826 
	C394.480896,380.502319 394.340637,384.095886 393.666382,387.589569 
	C391.925720,396.608582 389.975555,405.587036 388.158569,414.591644 
	C387.931000,415.719574 388.097809,416.922974 387.915771,418.064911 
	C387.305023,421.896667 386.863373,425.778961 385.904602,429.526154 
	C384.475006,435.113251 382.656464,440.600647 381.020172,446.135406 
	C380.928864,446.444122 381.002808,446.798859 380.978058,447.130554 
	C380.812714,449.345612 381.398651,452.842896 380.303497,453.489471 
	C378.424988,454.598419 375.494995,453.991974 373.006470,453.992340 
	C291.087769,454.004364 209.169052,454.002411 127.250343,454.004181 
	C120.518074,454.004333 120.860092,453.961700 119.923531,447.278748 
	C119.055794,441.086975 117.349739,435.012634 116.150497,428.141876 
	C117.376411,423.540710 119.257690,419.520172 114.126678,416.950531 
z"/>
<path fill="#84CEC7" opacity="1.000000" stroke="none" 
	d="
M293.006012,167.976715 
	C298.076111,169.994217 303.146240,172.011719 308.639832,174.438202 
	C311.714508,177.853409 314.595856,180.407074 319.026703,179.913651 
	C319.026703,179.913651 319.504059,180.014313 319.778076,180.432907 
	C321.093445,182.280563 321.902405,183.983856 323.213348,185.094757 
	C332.623444,193.068970 340.996216,201.832993 346.229889,213.239532 
	C346.927795,214.760544 348.560944,215.852448 349.791626,217.450104 
	C349.832764,218.169510 349.843292,218.581848 349.703735,219.230743 
	C350.350433,220.322906 351.147247,221.178543 351.947235,222.430176 
	C351.975830,223.881851 352.001251,224.937500 351.855225,226.222610 
	C352.678223,227.371841 353.672607,228.291626 354.632690,229.583679 
	C354.456421,232.257599 354.314453,234.559235 354.180817,237.193771 
	C355.050903,238.401093 355.912659,239.275543 356.791199,240.509308 
	C356.876587,241.584305 356.945190,242.299988 357.013794,243.015656 
	C357.013794,243.015656 357.001953,243.007416 356.535034,243.000946 
	C285.710632,242.997482 215.353104,243.000473 144.995590,243.003464 
	C144.995590,243.003464 145.000000,243.000000 145.062866,242.630554 
	C146.086151,238.543198 147.033203,234.821732 148.011230,231.108414 
	C148.803848,228.099045 149.122269,224.828690 150.542633,222.146194 
	C154.845993,214.018906 159.582596,206.121017 164.486191,198.074005 
	C170.361252,192.856796 175.924774,187.724731 181.399185,182.499298 
	C181.900253,182.021011 181.831100,180.945312 182.026718,180.147034 
	C186.973404,175.360138 192.768158,172.315353 199.579727,170.983994 
	C202.584412,170.396729 205.389420,168.853149 208.356369,167.988327 
	C211.101746,167.188049 213.938278,166.200195 216.741531,166.178406 
	C238.172379,166.011780 259.604889,166.061371 281.608826,166.431870 
	C285.444641,170.429749 289.095581,170.417358 293.006012,167.976715 
z"/>
<path fill="#80C9C1" opacity="1.000000" stroke="none" 
	d="
M444.032043,257.912750 
	C445.022461,258.790955 446.866943,259.664124 446.872162,260.548218 
	C446.929443,270.190247 446.703247,279.834106 446.524994,289.476898 
	C446.519897,289.753693 446.192291,290.024567 445.711639,290.766541 
	C442.216400,290.766541 438.419373,290.767334 434.622345,290.766449 
	C310.225006,290.737823 185.827637,290.676025 61.430450,290.800079 
	C56.424530,290.805084 54.679176,289.591980 54.893776,284.526917 
	C55.238884,276.381409 54.896782,268.208557 55.090183,260.053101 
	C55.121632,258.726959 56.415833,257.430756 57.603699,256.562927 
	C59.929630,257.668579 61.774815,258.897980 63.627365,258.909149 
	C85.077957,259.038849 106.529671,258.984344 128.450897,258.983276 
	C158.404190,258.990173 187.888779,259.120544 217.370071,258.868103 
	C222.255966,258.826263 227.127518,257.112274 232.005707,256.171021 
	C264.359528,256.124481 296.713348,256.077972 329.706177,256.437378 
	C335.691010,257.560333 341.032959,258.862579 346.383270,258.897583 
	C377.017609,259.098114 407.653961,259.017029 438.289490,258.952637 
	C440.204376,258.948608 442.117889,258.274902 444.032043,257.912750 
z"/>
<path fill="#83CEC6" opacity="1.000000" stroke="none" 
	d="
M243.885437,123.086739 
	C238.262009,121.674950 232.612640,120.354050 227.040405,118.762962 
	C226.098465,118.494011 225.488831,117.061279 224.278778,115.696716 
	C219.750031,109.997299 215.696808,104.744499 211.553345,99.563858 
	C210.976685,98.842842 209.955582,98.477272 209.140228,97.947159 
	C208.099091,95.563354 207.057938,93.179550 206.164001,90.031265 
	C206.196243,81.162109 206.081268,73.057426 205.966309,64.952751 
	C206.388199,63.072281 206.810089,61.191811 207.906586,59.051605 
	C209.694794,57.788132 210.959122,56.907436 211.896072,55.759518 
	C216.133469,50.567951 217.969727,43.265778 225.662140,41.068619 
	C227.140701,40.646301 227.922760,37.785435 229.026138,36.049541 
	C237.658203,30.621471 247.310654,30.164553 256.937073,31.164118 
	C262.216949,31.712357 267.318665,33.975842 272.802307,36.097420 
	C274.550446,38.377533 275.926025,40.095665 277.458679,41.659954 
	C280.454254,44.717400 283.587555,47.640411 286.568268,50.711803 
	C288.828918,53.041233 290.941467,55.514389 293.119934,57.923592 
	C294.071320,60.034817 295.022705,62.146042 295.782959,64.917412 
	C295.366272,72.858276 295.096649,80.138245 294.973602,87.420692 
	C294.958923,88.286781 295.744415,89.166374 296.159027,90.039719 
	C295.161621,92.449028 294.164215,94.858337 292.698181,97.723480 
	C291.389618,98.937920 290.286224,99.545662 289.751587,100.479149 
	C285.675323,107.596306 279.841431,112.876381 272.959900,117.175163 
	C271.445862,118.120964 270.275696,119.617233 268.947144,120.860016 
	C265.614319,121.577309 262.281525,122.294601 258.060791,123.000534 
	C252.743729,123.021698 248.314590,123.054222 243.885437,123.086739 
z"/>
<path fill="#82CCC4" opacity="1.000000" stroke="none" 
	d="
M137.969772,118.964859 
	C138.336243,114.033775 139.002563,109.527351 145.398621,108.699799 
	C147.253265,108.459831 148.739471,106.058395 150.650375,105.446060 
	C158.141998,103.045418 171.789566,112.201210 171.020981,121.013107 
	C170.328629,128.951035 166.296936,135.569611 159.042007,137.697784 
	C152.291382,136.348007 146.472260,135.649628 142.187897,141.692215 
	C141.395844,142.809326 139.638779,143.190750 138.574951,144.178635 
	C136.949966,145.687607 135.540771,147.428940 134.039978,149.071625 
	C132.096588,150.149216 130.153198,151.226807 127.703392,152.717957 
	C124.125984,156.078064 121.054993,159.024628 117.654114,162.061462 
	C109.865761,166.625320 107.075706,174.369156 103.767036,181.712189 
	C103.537270,182.222092 104.462936,183.252625 104.851288,184.041046 
	C104.544952,185.428833 104.238625,186.816635 103.538055,188.710800 
	C102.456139,191.487991 101.208298,193.750290 101.173698,196.031006 
	C100.981689,208.688858 101.103844,221.351196 101.080101,234.011932 
	C101.061935,243.696793 102.093216,242.662720 92.327362,243.099777 
	C87.012306,243.337646 85.944618,241.319916 86.022682,236.469971 
	C86.261223,221.650696 86.030640,206.823868 86.189644,191.685440 
	C87.243523,188.192719 88.184891,185.036224 88.919716,181.832352 
	C91.279816,171.542114 95.370117,161.884979 102.947983,154.587341 
	C111.276009,146.567307 120.873833,139.880646 129.453827,132.100693 
	C133.285599,128.626236 139.647675,126.226646 137.969772,118.964859 
z"/>
<path fill="#639C96" opacity="1.000000" stroke="none" 
	d="
M145.012390,243.433746 
	C215.353104,243.000473 285.710632,242.997482 356.537170,242.999619 
	C356.259094,243.986450 355.681915,245.229553 354.708130,245.862518 
	C354.000153,246.322739 352.768036,245.988312 351.769592,245.988251 
	C284.697266,245.984634 217.624924,245.995773 150.552795,245.885147 
	C148.710480,245.882111 146.870331,244.567200 145.012390,243.433746 
z"/>
<path fill="#5E9791" opacity="1.000000" stroke="none" 
	d="
M85.982574,191.999969 
	C86.030640,206.823868 86.261223,221.650696 86.022682,236.469971 
	C85.944618,241.319916 87.012306,243.337646 92.327362,243.099777 
	C102.093216,242.662720 101.061935,243.696793 101.080101,234.011932 
	C101.103844,221.351196 100.981689,208.688858 101.173698,196.031006 
	C101.208298,193.750290 102.456139,191.487991 103.485077,189.078049 
	C103.826324,207.663620 103.826324,226.388306 103.826324,245.853714 
	C97.597404,245.853714 91.683426,245.957352 85.781082,245.741974 
	C84.895287,245.709641 83.315887,244.182312 83.317848,243.349503 
	C83.357361,226.486984 83.581169,209.624908 84.259438,192.382568 
	C85.161423,192.001572 85.571999,192.000763 85.982574,191.999969 
z"/>
<path fill="#7CC3BC" opacity="1.000000" stroke="none" 
	d="
M443.855133,257.547424 
	C442.117889,258.274902 440.204376,258.948608 438.289490,258.952637 
	C407.653961,259.017029 377.017609,259.098114 346.383270,258.897583 
	C341.032959,258.862579 335.691010,257.560333 330.169861,256.507324 
	C366.865875,256.117615 403.737213,256.054474 440.608582,256.059570 
	C441.631866,256.059723 442.654999,256.791504 443.855133,257.547424 
z"/>
<path fill="#7CC3BC" opacity="1.000000" stroke="none" 
	d="
M231.542023,256.095703 
	C227.127518,257.112274 222.255966,258.826263 217.370071,258.868103 
	C187.888779,259.120544 158.404190,258.990173 128.456848,258.632324 
	C127.997910,257.573547 128.002869,256.870361 128.007812,256.167145 
	C162.364655,256.118225 196.721512,256.069305 231.542023,256.095703 
z"/>
<path fill="#649F99" opacity="1.000000" stroke="none" 
	d="
M86.189644,191.685440 
	C85.571999,192.000763 85.161423,192.001572 84.442841,191.996887 
	C85.729759,185.047623 86.346161,177.670944 89.176430,171.273712 
	C92.442764,163.890884 97.161644,156.974991 102.208282,150.617172 
	C105.580978,146.368195 110.647919,143.473145 114.916092,139.923401 
	C119.361031,136.226669 123.857750,132.582413 128.141937,128.705383 
	C131.393417,125.762909 134.347214,122.491478 137.701614,119.165649 
	C139.647675,126.226646 133.285599,128.626236 129.453827,132.100693 
	C120.873833,139.880646 111.276009,146.567307 102.947983,154.587341 
	C95.370117,161.884979 91.279816,171.542114 88.919716,181.832352 
	C88.184891,185.036224 87.243523,188.192719 86.189644,191.685440 
z"/>
<path fill="#78BCB5" opacity="1.000000" stroke="none" 
	d="
M127.543961,256.092072 
	C128.002869,256.870361 127.997910,257.573547 127.987030,258.627747 
	C106.529671,258.984344 85.077957,259.038849 63.627365,258.909149 
	C61.774815,258.897980 59.929630,257.668579 58.030739,256.623962 
	C81.013672,256.167572 104.046890,256.092285 127.543961,256.092072 
z"/>
<path fill="#639C96" opacity="1.000000" stroke="none" 
	d="
M164.150421,198.133759 
	C159.582596,206.121017 154.845993,214.018906 150.542633,222.146194 
	C149.122269,224.828690 148.803848,228.099045 148.011230,231.108414 
	C147.033203,234.821732 146.086151,238.543198 145.061005,242.632767 
	C144.429443,242.035904 143.208221,240.909576 143.397812,240.123520 
	C145.129440,232.944077 146.348862,225.500885 149.216339,218.773438 
	C152.335449,211.455597 157.025909,204.803131 161.123016,197.915146 
	C161.441299,197.380051 162.482422,197.274918 163.605530,197.238708 
	C164.065811,197.716232 164.108109,197.925003 164.150421,198.133759 
z"/>
<path fill="#6FB3AB" opacity="1.000000" stroke="none" 
	d="
M349.760986,217.143066 
	C348.560944,215.852448 346.927795,214.760544 346.229889,213.239532 
	C340.996216,201.832993 332.623444,193.068970 323.213348,185.094757 
	C321.902405,183.983856 321.093445,182.280563 320.012421,180.500763 
	C322.086823,181.087631 324.689331,181.533920 326.221466,183.056992 
	C330.454132,187.264618 333.597168,192.834457 338.354675,196.184967 
	C345.261810,201.049393 346.078217,208.824051 349.849731,215.848999 
	C349.880859,216.717239 349.820923,216.930161 349.760986,217.143066 
z"/>
<path fill="#5E9791" opacity="1.000000" stroke="none" 
	d="
M269.337158,120.943283 
	C270.275696,119.617233 271.445862,118.120964 272.959900,117.175163 
	C279.841431,112.876381 285.675323,107.596306 289.751587,100.479149 
	C290.286224,99.545662 291.389618,98.937920 292.545990,98.064232 
	C291.568176,106.058228 286.108429,111.234978 279.907349,115.659775 
	C276.812988,117.867783 273.139008,119.263451 269.337158,120.943283 
z"/>
<path fill="#5F9C96" opacity="1.000000" stroke="none" 
	d="
M228.653595,36.009659 
	C227.922760,37.785435 227.140701,40.646301 225.662140,41.068619 
	C217.969727,43.265778 216.133469,50.567951 211.896072,55.759518 
	C210.959122,56.907436 209.694794,57.788132 208.211746,58.845177 
	C211.315018,48.278126 217.799652,40.342598 228.653595,36.009659 
z"/>
<path fill="#5F9C96" opacity="1.000000" stroke="none" 
	d="
M293.093872,57.524551 
	C290.941467,55.514389 288.828918,53.041233 286.568268,50.711803 
	C283.587555,47.640411 280.454254,44.717400 277.458679,41.659954 
	C275.926025,40.095665 274.550446,38.377533 273.066711,36.368172 
	C276.289001,37.730297 280.047882,38.900852 282.698517,41.297192 
	C287.439972,45.583698 291.813477,50.415981 293.093872,57.524551 
z"/>
<path fill="#6FB3AB" opacity="1.000000" stroke="none" 
	d="
M164.486191,198.074005 
	C164.108109,197.925003 164.065811,197.716232 163.980408,197.190857 
	C164.070358,196.071548 163.914108,194.982819 164.381180,194.510376 
	C169.002213,189.836472 173.689133,185.225067 178.468002,180.713104 
	C179.078644,180.136551 180.320969,180.229019 181.648682,180.079300 
	C181.831100,180.945312 181.900253,182.021011 181.399185,182.499298 
	C175.924774,187.724731 170.361252,192.856796 164.486191,198.074005 
z"/>
<path fill="#649F99" opacity="1.000000" stroke="none" 
	d="
M105.013756,183.719162 
	C104.462936,183.252625 103.537270,182.222092 103.767036,181.712189 
	C107.075706,174.369156 109.865761,166.625320 117.673798,162.345016 
	C118.030640,162.727478 118.037903,162.916656 118.045166,163.105820 
	C116.711281,164.994110 115.248970,166.805954 114.070076,168.786499 
	C111.563271,172.997910 109.222816,177.308014 106.764954,181.549149 
	C106.364548,182.240036 105.712151,182.784912 105.013756,183.719162 
z"/>
<path fill="#69A9A3" opacity="1.000000" stroke="none" 
	d="
M296.505554,89.818329 
	C295.744415,89.166374 294.958923,88.286781 294.973602,87.420692 
	C295.096649,80.138245 295.366272,72.858276 295.801880,65.286957 
	C296.649841,66.492950 297.857422,68.000923 297.827789,69.484177 
	C297.693787,76.192253 297.209930,82.893349 296.505554,89.818329 
z"/>
<path fill="#649F99" opacity="1.000000" stroke="none" 
	d="
M134.422882,149.044800 
	C135.540771,147.428940 136.949966,145.687607 138.574951,144.178635 
	C139.638779,143.190750 141.395844,142.809326 142.187897,141.692215 
	C146.472260,135.649628 152.291382,136.348007 158.703629,137.866028 
	C158.357605,138.696259 157.509308,139.992157 156.932404,139.880890 
	C148.169159,138.190720 142.598373,143.784286 136.616150,148.511353 
	C136.162506,148.869812 135.416122,148.857788 134.422882,149.044800 
z"/>
<path fill="#649F99" opacity="1.000000" stroke="none" 
	d="
M205.577621,65.087799 
	C206.081268,73.057426 206.196243,81.162109 206.143188,89.651077 
	C205.537567,89.807121 204.714996,89.573647 204.718033,89.351379 
	C204.827271,81.307892 205.013428,73.265442 205.577621,65.087799 
z"/>
<path fill="#5A9690" opacity="1.000000" stroke="none" 
	d="
M209.061523,98.337234 
	C209.955582,98.477272 210.976685,98.842842 211.553345,99.563858 
	C215.696808,104.744499 219.750031,109.997299 223.942093,115.544762 
	C217.358627,114.713661 214.790924,108.903366 211.244461,104.300827 
	C210.065369,102.770630 209.713089,100.603340 209.061523,98.337234 
z"/>
<path fill="#5F9C96" opacity="1.000000" stroke="none" 
	d="
M402.366852,337.886108 
	C401.724243,335.297546 401.081238,332.549774 401.312317,329.877655 
	C401.426788,328.553680 403.149628,327.368835 404.511505,326.038513 
	C404.161133,329.890015 403.444061,333.824036 402.366852,337.886108 
z"/>
<path fill="#5A9690" opacity="1.000000" stroke="none" 
	d="
M407.417358,311.907227 
	C406.714996,309.619202 406.719849,307.088867 405.953369,304.818939 
	C405.461700,303.362762 403.833313,302.290466 402.304596,300.988861 
	C404.023712,298.533325 408.473175,299.232056 408.799744,302.321106 
	C409.125519,305.402710 408.183746,308.618347 407.417358,311.907227 
z"/>
<path fill="#548986" opacity="1.000000" stroke="none" 
	d="
M243.939560,123.510117 
	C248.314590,123.054222 252.743729,123.021698 257.643799,123.037888 
	C257.752686,123.936768 257.407043,125.516716 257.026062,125.525299 
	C252.777298,125.620918 248.522644,125.484688 244.272461,125.331375 
	C244.162872,125.327415 244.085876,124.419716 243.939560,123.510117 
z"/>
<path fill="#548986" opacity="1.000000" stroke="none" 
	d="
M97.013336,326.393707 
	C100.518288,326.588379 100.841743,329.156281 100.716927,331.902069 
	C100.635841,333.685760 100.341888,335.459808 100.057800,337.639343 
	C94.998650,335.384033 97.705185,330.636749 97.013336,326.393707 
z"/>
<path fill="#5E9791" opacity="1.000000" stroke="none" 
	d="
M99.823730,300.695770 
	C96.814789,300.782410 95.757988,302.432587 95.913147,305.492584 
	C96.011009,307.422546 95.608147,309.377930 95.211075,311.661865 
	C91.567963,308.529999 92.243813,301.428894 96.296082,299.783020 
	C97.165779,299.429749 98.487152,300.188538 99.823730,300.695770 
z"/>
<path fill="#5E9791" opacity="1.000000" stroke="none" 
	d="
M109.052170,391.390015 
	C112.410072,391.145752 113.003426,393.326080 112.790329,396.001709 
	C112.650436,397.758118 112.349274,399.501648 112.041153,401.654175 
	C106.779350,399.875122 109.885391,395.264191 109.052170,391.390015 
z"/>
<path fill="#5A9690" opacity="1.000000" stroke="none" 
	d="
M118.401199,163.040710 
	C118.037903,162.916656 118.030640,162.727478 118.003693,162.254730 
	C121.054993,159.024628 124.125984,156.078064 127.527145,153.040344 
	C126.285233,155.126205 124.852638,157.425140 123.092926,159.438126 
	C121.882607,160.822632 120.218513,161.810486 118.401199,163.040710 
z"/>
<path fill="#69A9A3" opacity="1.000000" stroke="none" 
	d="
M292.909576,167.576294 
	C289.095581,170.417358 285.444641,170.429749 282.072479,166.485626 
	C285.580536,166.492767 289.196838,166.834305 292.909576,167.576294 
z"/>
<path fill="#5E9791" opacity="1.000000" stroke="none" 
	d="
M102.058029,353.380005 
	C103.333916,354.568359 104.984993,356.043030 105.569458,357.860687 
	C106.071472,359.421906 105.354813,361.375000 105.097229,363.550659 
	C100.697060,361.563293 102.301201,357.398254 102.058029,353.380005 
z"/>
<path fill="#5A9690" opacity="1.000000" stroke="none" 
	d="
M114.040215,417.390991 
	C119.257690,419.520172 117.376411,423.540710 116.127426,427.719421 
	C115.295715,424.638275 114.624733,421.234863 114.040215,417.390991 
z"/>
<path fill="#6FB3AB" opacity="1.000000" stroke="none" 
	d="
M318.996582,179.546494 
	C314.595856,180.407074 311.714508,177.853409 309.016876,174.502777 
	C312.663025,175.114151 316.893188,174.999725 318.996582,179.546494 
z"/>
<path fill="#5E9791" opacity="1.000000" stroke="none" 
	d="
M405.422821,323.899536 
	C403.593475,320.222473 402.636627,316.489929 406.532043,313.097656 
	C406.519562,316.565369 406.166534,320.178772 405.422821,323.899536 
z"/>
<path fill="#5E9791" opacity="1.000000" stroke="none" 
	d="
M107.052361,378.386444 
	C111.997910,380.119537 109.798065,383.925751 109.132263,387.700806 
	C108.286423,384.987091 107.624008,381.907104 107.052361,378.386444 
z"/>
<path fill="#5E9791" opacity="1.000000" stroke="none" 
	d="
M354.172485,236.860886 
	C354.314453,234.559235 354.456421,232.257599 354.738403,229.258484 
	C354.935883,228.341583 354.993317,228.122131 355.050751,227.902695 
	C355.711884,230.626953 356.373047,233.351196 356.956421,236.598587 
	C356.878601,237.121719 356.697327,237.291840 356.388245,237.204346 
	C355.443604,237.031525 354.808075,236.946198 354.172485,236.860886 
z"/>
<path fill="#5E9791" opacity="1.000000" stroke="none" 
	d="
M352.026672,225.993164 
	C352.001251,224.937500 351.975830,223.881851 352.094025,222.163635 
	C352.514893,220.961624 352.792145,220.422165 353.069397,219.882721 
	C353.706940,221.676117 354.344452,223.469528 354.562653,225.632904 
	C353.437775,225.999649 352.732208,225.996399 352.026672,225.993164 
z"/>
<path fill="#5E9791" opacity="1.000000" stroke="none" 
	d="
M357.359680,242.930573 
	C356.945190,242.299988 356.876587,241.584305 356.832031,240.150391 
	C356.803192,238.718704 356.750275,238.005280 356.697327,237.291840 
	C356.697327,237.291840 356.878601,237.121719 356.970123,237.037659 
	C357.276276,238.917557 357.490936,240.881531 357.359680,242.930573 
z"/>
<path fill="#6FB3AB" opacity="1.000000" stroke="none" 
	d="
M351.855225,226.222610 
	C352.732208,225.996399 353.437775,225.999649 354.496155,226.016296 
	C354.899994,226.444946 354.951019,226.860184 355.026398,227.589050 
	C354.993317,228.122131 354.935883,228.341583 354.772736,228.886200 
	C353.672607,228.291626 352.678223,227.371841 351.855225,226.222610 
z"/>
<path fill="#6FB3AB" opacity="1.000000" stroke="none" 
	d="
M353.015442,219.667908 
	C352.792145,220.422165 352.514893,220.961624 352.090851,221.767639 
	C351.147247,221.178543 350.350433,220.322906 350.075256,219.234558 
	C351.333740,219.013809 352.070648,219.025772 352.807526,219.037750 
	C352.807526,219.037735 352.961517,219.453094 353.015442,219.667908 
z"/>
<path fill="#5E9791" opacity="1.000000" stroke="none" 
	d="
M352.863403,218.676727 
	C352.070648,219.025772 351.333740,219.013809 350.225342,218.998016 
	C349.843292,218.581848 349.832764,218.169510 349.791626,217.450104 
	C349.820923,216.930161 349.880859,216.717239 350.008911,216.179596 
	C351.024414,216.675156 351.971832,217.495422 352.863403,218.676727 
z"/>
<path fill="#6FB3AB" opacity="1.000000" stroke="none" 
	d="
M356.388245,237.204346 
	C356.750275,238.005280 356.803192,238.718704 356.815308,239.791077 
	C355.912659,239.275543 355.050903,238.401093 354.180847,237.193771 
	C354.808075,236.946198 355.443604,237.031525 356.388245,237.204346 
z"/>
</svg>