<?xml version="1.0" standalone="no"?>
<!DOCTYPE svg PUBLIC "-//W3C//DTD SVG 20010904//EN"
 "http://www.w3.org/TR/2001/REC-SVG-20010904/DTD/svg10.dtd">
<svg version="1.0" xmlns="http://www.w3.org/2000/svg"
 width="96px" height="96px" viewBox="0 0 300.000000 300.000000"
 preserveAspectRatio="xMidYMid meet">
<metadata>
Created by potrace 1.10, written by Peter Selinger 2001-2011
</metadata>
<g transform="translate(0.000000,300.000000) scale(0.100000,-0.100000)"
fill="#5CCABE" stroke="none">
<path d="M1387 2791 c-43 -20 -117 -89 -117 -108 0 -7 -4 -13 -10 -13 -5 0
-12 -16 -16 -35 -3 -19 -10 -38 -15 -41 -11 -7 -12 -97 -1 -109 5 -6 14 -28
20 -50 10 -35 35 -67 93 -119 9 -8 28 -18 43 -22 14 -3 26 -11 26 -16 0 -6 11
-7 25 -4 14 4 34 1 45 -6 16 -10 24 -10 40 0 11 7 31 10 45 6 14 -3 25 -2 25
4 0 5 12 13 26 16 58 15 144 118 144 173 0 13 5 23 10 23 12 0 13 97 1 104 -5
3 -12 22 -15 41 -4 19 -11 35 -16 35 -6 0 -10 5 -10 12 0 16 -81 98 -97 98 -7
0 -13 5 -13 11 0 6 -9 9 -20 6 -11 -3 -20 -1 -20 4 0 17 -152 10 -193 -10z
m209 -17 c72 -29 130 -100 153 -186 24 -85 -20 -189 -104 -249 -37 -26 -141
-62 -156 -54 -3 2 -21 7 -40 10 -45 8 -111 47 -142 85 -29 34 -67 128 -67 166
0 39 54 146 91 180 19 17 48 38 64 47 41 20 152 21 201 1z"/>
<path d="M891 2363 c-34 -14 -68 -54 -64 -76 3 -15 -3 -27 -18 -37 -39 -27
-171 -132 -187 -149 -32 -33 -82 -111 -88 -139 -4 -15 -12 -33 -18 -41 -7 -9
-11 -77 -11 -195 l0 -181 44 -3 c24 -2 47 0 52 5 4 4 9 86 10 181 1 94 5 172
9 172 4 0 10 14 14 30 10 52 43 92 131 160 26 19 60 47 77 63 26 22 38 26 65
21 21 -4 33 -2 33 5 0 6 6 11 13 11 26 0 57 45 57 81 0 55 -72 111 -119 92z
m73 -44 c38 -30 33 -75 -12 -106 -18 -12 -42 -20 -52 -18 -27 5 -51 -9 -144
-83 -141 -113 -166 -172 -166 -391 0 -142 -1 -150 -20 -156 -42 -13 -50 9 -50
139 0 178 28 278 102 362 18 20 74 70 125 110 58 46 95 84 99 99 7 29 48 65
74 65 10 0 29 -10 44 -21z"/>
<path d="M1238 1993 c-16 -2 -28 -9 -28 -14 0 -5 -6 -9 -12 -8 -31 5 -147 -70
-200 -130 -60 -66 -112 -161 -113 -208 0 -6 -4 -15 -8 -19 -4 -4 -7 -22 -7
-41 l0 -33 630 0 630 0 0 34 c0 19 -4 37 -10 41 -5 3 -7 12 -4 19 3 8 1 17 -5
21 -6 3 -11 14 -11 23 0 16 -30 80 -50 106 -46 59 -94 105 -140 135 -73 47
-102 62 -108 56 -3 -3 -12 1 -20 8 -11 9 -82 12 -266 13 -138 1 -263 0 -278
-3z m594 -57 c135 -67 211 -152 257 -285 17 -49 19 -66 10 -77 -10 -12 -108
-14 -598 -14 -341 0 -592 4 -601 10 -12 7 -11 18 9 77 41 120 102 197 212 266
97 62 125 66 394 64 l240 -2 77 -39z"/>
<path d="M330 1370 l0 -95 1170 0 1170 0 0 95 0 95 -1170 0 -1170 0 0 -95z
m2288 72 l32 -2 0 -64 c0 -49 -4 -65 -16 -70 -9 -3 -521 -6 -1139 -6 -1101 0
-1125 0 -1135 19 -13 25 -13 118 0 123 10 3 2191 3 2258 0z"/>
<path d="M553 1187 c-3 -5 0 -14 6 -20 6 -6 11 -28 11 -48 0 -21 5 -41 10 -44
6 -4 10 -18 10 -33 0 -54 12 -122 22 -122 5 0 7 -12 3 -29 -3 -17 -2 -32 4
-36 6 -3 11 -24 11 -46 0 -21 4 -39 9 -39 6 0 7 -15 4 -34 -3 -19 -1 -36 6
-40 6 -4 11 -22 11 -40 0 -18 3 -36 7 -40 4 -4 6 -23 4 -42 -1 -20 2 -34 9
-34 6 0 10 -15 10 -32 0 -47 11 -111 22 -125 5 -6 6 -23 2 -37 -14 -59 -52
-56 786 -56 842 0 799 -3 785 59 -3 16 -2 32 4 35 5 3 12 40 16 81 4 41 12 75
17 75 5 0 8 16 7 34 -2 19 0 38 4 42 4 4 7 22 7 40 0 18 5 36 11 40 6 4 8 20
4 40 -3 21 -2 34 5 34 5 0 10 18 10 39 0 22 5 43 11 46 6 4 7 19 4 35 -3 15
-2 31 3 34 6 3 13 37 17 76 4 39 11 73 16 76 5 3 9 23 9 44 0 21 4 41 10 45 5
3 7 11 4 18 -3 10 -203 13 -945 12 -518 0 -943 -4 -946 -8z m1855 -57 c2 -21
-2 -47 -7 -57 -6 -10 -15 -49 -20 -88 -6 -38 -13 -81 -16 -95 -10 -53 -36
-199 -50 -280 -8 -47 -17 -96 -20 -110 -3 -14 -11 -56 -17 -93 -6 -38 -17 -75
-25 -83 -22 -21 -1484 -21 -1506 0 -8 8 -19 45 -25 83 -6 37 -20 118 -32 178
-12 61 -28 146 -36 190 -9 44 -22 121 -30 170 -8 50 -19 103 -24 119 -11 33
-13 89 -3 99 3 4 412 7 908 7 l901 0 2 -40z"/>
</g>
</svg>
