<?xml version="1.0" standalone="no"?>
<!DOCTYPE svg PUBLIC "-//W3C//DTD SVG 20010904//EN"
 "http://www.w3.org/TR/2001/REC-SVG-20010904/DTD/svg10.dtd">
<svg version="1.0" xmlns="http://www.w3.org/2000/svg"
 width="96px" height="96px" viewBox="0 0 500.000000 500.000000"
 preserveAspectRatio="xMidYMid meet">

<g transform="translate(0.000000,500.000000) scale(0.100000,-0.100000)"
fill="#5CCABE" stroke="none">
<path d="M2365 4670 c-3 -5 -14 -10 -24 -10 -63 0 -251 -175 -251 -234 0 -7
-6 -19 -14 -25 -19 -16 -28 -71 -28 -166 0 -95 9 -150 28 -166 8 -6 14 -18 14
-25 0 -54 141 -194 230 -230 8 -3 24 -10 35 -14 21 -9 102 -21 145 -21 75 0
144 16 190 42 8 5 29 16 46 24 40 21 154 138 154 159 0 9 5 16 10 16 6 0 10 8
10 19 0 10 7 24 15 31 9 7 14 18 12 24 -3 6 2 26 9 45 26 62 9 225 -27 266 -5
5 -9 17 -9 27 0 10 -4 18 -10 18 -5 0 -10 8 -10 18 0 22 -121 141 -173 170
-21 12 -47 22 -57 22 -10 0 -22 5 -25 10 -4 6 -60 10 -135 10 -75 0 -131 -4
-135 -10z"/>
<path d="M1491 3932 c-47 -5 -111 -73 -111 -119 0 -42 -7 -49 -179 -178 -63
-47 -171 -138 -171 -144 0 -3 -16 -24 -36 -46 -35 -40 -41 -50 -86 -140 -54
-106 -68 -207 -68 -483 0 -218 1 -232 19 -242 29 -15 126 -13 140 3 7 9 12
107 15 283 4 280 3 275 51 389 28 66 126 185 153 185 4 0 23 15 42 33 36 34
105 86 179 137 30 20 48 27 55 20 26 -26 109 11 156 68 24 29 30 46 30 84 0
105 -71 161 -189 150z"/>
<path d="M2110 3325 c-14 -8 -34 -15 -45 -15 -37 -1 -195 -67 -195 -81 0 -5
-9 -9 -20 -9 -11 0 -20 -4 -20 -8 0 -5 -17 -18 -37 -30 -46 -25 -169 -150
-210 -212 -47 -70 -81 -151 -124 -296 -14 -47 -11 -91 7 -98 9 -3 476 -6 1039
-6 1129 0 1054 -4 1041 62 -3 18 -9 51 -12 73 -4 22 -13 49 -20 60 -8 11 -14
27 -14 36 0 20 -59 135 -99 192 -29 42 -151 161 -209 205 -17 12 -37 22 -46
22 -9 0 -16 4 -16 8 0 11 -110 62 -132 62 -9 0 -20 5 -23 10 -3 6 -18 10 -33
10 -15 1 -38 7 -52 15 -20 12 -92 14 -390 14 -298 0 -370 -2 -390 -14z"/>
<path d="M552 2288 l3 -153 1945 0 1945 0 3 153 3 152 -1951 0 -1951 0 3 -152z"/>
<path d="M936 1974 c-3 -8 -1 -24 4 -34 6 -10 10 -34 10 -53 0 -19 7 -54 15
-77 8 -23 15 -62 15 -86 0 -23 5 -46 10 -49 6 -3 10 -27 10 -52 0 -26 4 -60 9
-77 18 -58 42 -187 59 -313 4 -32 11 -64 16 -72 5 -8 9 -29 8 -48 -1 -18 4
-46 10 -61 11 -28 25 -105 35 -202 3 -30 11 -64 19 -75 8 -10 14 -43 14 -72 0
-28 5 -55 10 -58 6 -3 10 -28 10 -54 0 -26 7 -62 16 -79 l15 -32 1279 0 1279
0 16 30 c8 16 15 51 15 79 0 27 5 53 10 56 6 3 10 28 10 54 0 27 7 62 15 77 8
16 15 50 15 76 0 26 5 50 10 53 6 3 10 28 10 54 0 27 7 64 15 84 8 19 14 51
13 69 -1 19 3 41 8 49 5 8 12 40 16 72 5 31 11 83 16 115 4 31 11 63 16 70 5
8 13 42 18 75 5 34 13 89 19 122 5 33 13 87 17 120 4 33 13 70 20 82 7 12 12
40 12 63 0 23 4 50 10 60 5 10 7 26 4 34 -6 14 -157 16 -1564 16 -1407 0
-1558 -2 -1564 -16z"/>
</g>
</svg>
