<?xml version="1.0" standalone="no"?>
<!DOCTYPE svg PUBLIC "-//W3C//DTD SVG 20010904//EN"
 "http://www.w3.org/TR/2001/REC-SVG-20010904/DTD/svg10.dtd">
<svg version="1.0" xmlns="http://www.w3.org/2000/svg"
 width="96px" height="96px" viewBox="0 0 461.000000 305.000000"
 preserveAspectRatio="xMidYMid meet">
<metadata>
Created by potrace 1.16, written by Peter Selinger 2001-2019
</metadata>
<g transform="translate(0.000000,305.000000) scale(0.100000,-0.100000)"
fill="#488704" stroke="none">
<path d="M1884 2488 c-227 -227 -264 -268 -269 -300 -4 -21 -4 -50 -1 -64 10
-40 93 -122 134 -134 74 -20 88 -10 370 273 l262 263 0 48 c0 53 -10 78 -49
119 -38 42 -73 57 -132 57 l-53 0 -262 -262z"/>
<path d="M2208 2151 l-247 -248 217 -216 217 -217 252 253 253 252 -212 212
c-117 117 -217 213 -223 213 -5 0 -121 -112 -257 -249z"/>
<path d="M3015 1874 c-34 -17 -462 -438 -506 -498 -47 -64 -40 -126 25 -194
52 -57 113 -76 169 -54 10 4 134 124 277 265 274 273 281 283 265 355 -8 39
-66 105 -109 126 -43 20 -82 20 -121 0z"/>
<path d="M1895 1702 c-17 -15 -47 -41 -67 -59 l-37 -31 157 -156 156 -156 58
63 c31 34 57 67 56 72 0 6 -67 74 -147 152 l-146 142 -30 -27z"/>
<path d="M1475 1333 c-530 -466 -526 -462 -551 -517 -51 -110 -24 -260 62
-335 66 -59 111 -76 199 -76 133 0 135 2 497 413 172 196 315 360 317 365 3 9
-308 327 -319 327 -3 0 -95 -80 -205 -177z"/>
<path d="M2582 741 c-104 -36 -161 -118 -162 -233 l0 -68 -55 0 c-46 0 -60 -4
-80 -25 -30 -29 -31 -35 -4 -69 l20 -26 615 0 c601 0 614 0 634 20 46 46 5
100 -77 100 l-50 0 -5 74 c-8 124 -78 211 -189 235 -29 6 -165 11 -322 11
-237 -1 -279 -3 -325 -19z"/>
</g>
</svg>
