<?xml version="1.0" standalone="no"?>
<!DOCTYPE svg PUBLIC "-//W3C//DTD SVG 20010904//EN"
 "http://www.w3.org/TR/2001/REC-SVG-20010904/DTD/svg10.dtd">
<svg version="1.0" xmlns="http://www.w3.org/2000/svg"
 width="96px" height="96px" viewBox="0 0 545.000000 532.000000"
 preserveAspectRatio="xMidYMid meet">
<metadata>
Created by potrace 1.16, written by Peter Selinger 2001-2019
</metadata>
<g transform="translate(0.000000,532.000000) scale(0.100000,-0.100000)"
fill="#00977E" stroke="none">
<path d="M2550 5219 c-225 -13 -402 -49 -663 -135 -532 -177 -994 -529 -1304
-994 -260 -391 -411 -856 -430 -1325 -27 -679 214 -1330 689 -1861 315 -352
836 -650 1329 -758 357 -79 770 -75 1141 10 363 83 746 269 1041 506 606 486
960 1274 934 2078 -13 384 -101 729 -272 1070 -159 316 -347 561 -596 774
-529 454 -1177 674 -1869 635z m682 -375 l168 -56 0 -114 c0 -63 -2 -114 -5
-114 -3 0 -74 46 -158 102 -83 57 -210 133 -282 170 l-130 67 120 1 c119 0
121 0 287 -56z m-1251 -24 l70 -39 222 6 222 6 82 -42 c46 -22 87 -41 92 -41
5 0 13 11 18 25 l8 25 70 -48 c49 -32 70 -52 67 -64 -2 -12 12 -25 50 -43 39
-20 112 -86 285 -258 l232 -231 -172 -114 c-163 -108 -183 -125 -394 -335
l-222 -220 30 -59 c16 -32 27 -58 24 -58 -3 0 -42 25 -88 55 -111 74 -134 74
-359 -1 l-168 -56 0 -274 0 -274 60 0 c53 0 73 7 170 55 l110 55 0 -115 0
-115 110 0 110 0 0 -55 0 -55 110 -55 110 -55 112 56 111 56 231 4 231 5 45
-56 c39 -48 61 -64 165 -116 88 -44 136 -76 180 -119 l60 -57 192 -54 193 -54
26 -114 27 -114 -61 -126 c-33 -69 -83 -196 -111 -281 l-51 -155 -113 -57
c-100 -50 -165 -98 -597 -437 -267 -210 -489 -388 -495 -396 -7 -11 0 -25 30
-55 21 -22 35 -43 32 -47 -8 -7 -207 87 -207 98 0 3 73 199 161 435 89 236
164 437 166 447 3 10 -11 38 -35 70 -37 50 -49 57 -166 108 l-125 54 -56 165
c-55 164 -55 166 -55 285 l0 121 55 54 55 54 0 71 0 71 -107 34 c-99 32 -113
39 -173 96 -64 59 -71 63 -346 174 -154 62 -330 138 -389 169 l-109 56 -113
340 -113 340 0 218 0 217 60 120 60 120 0 160 0 160 -75 37 c-41 21 -75 40
-75 43 0 7 147 90 240 136 82 40 188 83 208 84 7 0 44 -18 83 -40z m2835
-1093 c157 -312 240 -629 258 -992 l5 -100 -118 235 -118 235 -51 295 c-28
162 -53 336 -55 387 l-3 92 18 -30 c10 -16 39 -71 64 -122z m-1813 -783 c181
-60 172 -53 130 -105 -13 -15 -30 -10 -190 53 -97 38 -181 72 -187 76 -8 5 42
26 74 31 3 1 81 -24 173 -55z"/>
</g>
</svg>
