<?xml version="1.0" standalone="no"?>
<!DOCTYPE svg PUBLIC "-//W3C//DTD SVG 20010904//EN"
 "http://www.w3.org/TR/2001/REC-SVG-20010904/DTD/svg10.dtd">
<svg version="1.0" xmlns="http://www.w3.org/2000/svg"
 width="96px" height="96px" viewBox="0 0 600.000000 600.000000"
 preserveAspectRatio="xMidYMid meet">
<metadata>
Created by potrace 1.16, written by Peter Selinger 2001-2019
</metadata>
<g transform="translate(0.000000,600.000000) scale(0.100000,-0.100000)"
fill="#5D2C80" stroke="none">
<path d="M2630 5479 c-270 -28 -618 -132 -874 -264 -361 -185 -651 -430 -900
-760 -167 -222 -287 -452 -376 -724 -94 -282 -131 -516 -131 -811 0 -408 88
-787 266 -1142 89 -177 133 -249 241 -393 384 -513 922 -856 1540 -984 189
-39 313 -51 528 -51 517 0 995 145 1423 431 154 103 231 166 375 308 402 392
648 874 745 1456 26 158 26 592 0 750 -61 366 -181 693 -359 979 -138 221
-372 487 -563 640 -389 312 -844 505 -1325 561 -135 16 -449 18 -590 4z m540
-219 c437 -51 826 -206 1170 -463 125 -94 369 -338 457 -457 316 -429 472
-898 472 -1420 0 -447 -115 -856 -347 -1234 -170 -277 -425 -542 -697 -724
-126 -84 -368 -207 -504 -255 -261 -94 -515 -137 -801 -137 -524 0 -1001 159
-1427 476 -117 87 -368 342 -461 468 -309 419 -462 884 -462 1406 0 713 297
1346 851 1814 326 275 761 464 1200 520 126 17 433 20 549 6z"/>
<path d="M2750 5013 c-55 -19 -158 -85 -223 -143 -99 -88 -236 -289 -318 -466
-45 -98 -110 -266 -105 -272 16 -16 395 -64 604 -77 l102 -7 0 491 c0 270 -3
491 -7 491 -5 -1 -28 -8 -53 -17z"/>
<path d="M3030 4539 l0 -491 103 7 c191 12 520 51 589 71 16 5 14 14 -16 98
-73 201 -206 436 -325 573 -91 106 -232 205 -323 227 l-28 6 0 -491z"/>
<path d="M2195 4918 c-184 -66 -423 -199 -579 -321 -97 -77 -248 -219 -239
-227 29 -26 443 -180 485 -180 11 0 23 20 39 68 71 217 235 520 348 645 18 21
32 39 30 41 -2 2 -40 -10 -84 -26z"/>
<path d="M3560 4941 c0 -4 9 -16 20 -26 31 -28 152 -210 203 -305 60 -111 121
-251 153 -351 16 -49 30 -79 37 -76 7 2 52 17 102 32 101 31 201 69 317 122
l79 36 -33 34 c-62 65 -253 220 -350 286 -102 68 -254 150 -348 187 -131 52
-180 69 -180 61z"/>
<path d="M1182 4138 c-82 -113 -166 -264 -224 -408 -86 -210 -131 -394 -153
-627 l-7 -73 445 0 445 0 6 128 c14 250 43 470 92 691 13 62 23 115 22 116 -2
2 -50 17 -108 35 -120 37 -320 115 -409 160 -33 16 -63 30 -65 30 -3 0 -23
-24 -44 -52z"/>
<path d="M4575 4173 c-106 -58 -413 -176 -512 -198 -18 -3 -33 -11 -33 -17 0
-5 11 -57 24 -116 42 -184 75 -438 92 -714 l6 -98 445 0 445 0 -7 73 c-32 351
-160 711 -355 999 -30 45 -59 83 -65 84 -5 2 -23 -4 -40 -13z"/>
<path d="M2007 3793 c-46 -203 -87 -523 -87 -683 l0 -80 445 0 445 0 0 394 0
394 -31 6 c-17 3 -57 6 -89 6 -85 0 -344 28 -478 51 -64 11 -131 23 -148 26
l-30 5 -27 -119z"/>
<path d="M3685 3890 c-114 -24 -334 -49 -479 -56 -61 -3 -126 -7 -143 -10
l-33 -5 0 -394 0 -395 447 0 446 0 -7 128 c-16 308 -90 745 -127 748 -8 1 -54
-6 -104 -16z"/>
<path d="M805 2738 c33 -362 144 -679 341 -982 37 -55 68 -103 70 -105 2 -2
54 20 116 49 125 59 308 128 408 156 36 9 66 18 68 19 1 1 -9 54 -23 117 -48
224 -77 446 -91 696 l-7 122 -444 0 -445 0 7 -72z"/>
<path d="M1920 2730 c0 -89 23 -322 46 -470 13 -88 63 -321 69 -328 2 -2 50 6
107 17 127 25 335 49 488 57 63 3 130 7 148 10 l32 5 0 394 0 395 -445 0 -445
0 0 -80z"/>
<path d="M3030 2416 l0 -394 23 -6 c12 -3 54 -6 92 -6 102 -1 328 -25 497 -55
81 -14 151 -25 156 -25 9 0 22 54 58 243 29 157 51 341 60 510 l7 127 -446 0
-447 0 0 -394z"/>
<path d="M4146 2723 c-20 -309 -50 -535 -96 -743 -11 -49 -20 -94 -20 -99 0
-4 28 -16 63 -26 91 -25 318 -111 426 -161 51 -24 97 -41 102 -39 20 13 136
200 189 305 124 248 201 514 225 778 l7 72 -445 0 -445 0 -6 -87z"/>
<path d="M2618 1779 c-179 -12 -499 -57 -514 -71 -9 -9 59 -178 126 -313 111
-223 236 -388 365 -480 66 -48 145 -89 188 -99 l27 -6 0 490 0 490 -42 -1
c-24 -1 -91 -5 -150 -10z"/>
<path d="M3030 1300 l0 -490 28 6 c15 4 52 19 82 34 227 114 425 387 578 802
l21 56 -112 21 c-122 22 -333 46 -494 56 l-103 6 0 -491z"/>
<path d="M1720 1611 c-80 -27 -192 -70 -249 -97 l-104 -48 79 -75 c220 -207
484 -373 752 -470 83 -31 99 -30 61 5 -98 88 -338 540 -374 704 -4 16 -10 30
-13 29 -4 0 -72 -22 -152 -48z"/>
<path d="M3950 1616 c-59 -200 -242 -545 -361 -681 -18 -20 -30 -38 -28 -40 8
-7 244 91 343 143 182 96 426 278 521 390 l36 41 -40 20 c-67 35 -190 82 -327
126 l-132 42 -12 -41z"/>
</g>
</svg>
