<?xml version="1.0" standalone="no"?>
<!DOCTYPE svg PUBLIC "-//W3C//DTD SVG 20010904//EN"
 "http://www.w3.org/TR/2001/REC-SVG-20010904/DTD/svg10.dtd">
<svg version="1.0" xmlns="http://www.w3.org/2000/svg"
 width="96px" height="96px" viewBox="0 0 681.000000 681.000000"
 preserveAspectRatio="xMidYMid meet">
<metadata>
Created by potrace 1.16, written by Peter Selinger 2001-2019
</metadata>
<g transform="translate(0.000000,681.000000) scale(0.100000,-0.100000)"
fill="#f10078" stroke="none">
<path d="M3165 6139 c-235 -20 -527 -95 -591 -151 -103 -90 -103 -246 0 -336
70 -61 140 -65 306 -19 165 47 293 62 525 61 312 0 568 -46 831 -149 169 -66
244 -58 326 33 91 100 67 261 -49 329 -70 41 -254 108 -404 147 -314 83 -632
111 -944 85z"/>
<path d="M2085 5699 c-17 -4 -65 -32 -107 -61 -192 -133 -408 -338 -574 -546
-97 -121 -264 -367 -294 -433 -79 -175 83 -363 264 -306 63 20 106 63 176 177
156 253 421 549 625 700 179 132 200 160 193 271 -3 56 -9 76 -33 111 -54 77
-159 114 -250 87z"/>
<path d="M4868 5586 c-120 -43 -181 -186 -129 -302 10 -23 42 -60 72 -85 221
-183 363 -369 513 -668 140 -278 229 -555 281 -878 13 -78 31 -158 40 -177 60
-125 245 -156 348 -58 70 66 81 122 57 293 -75 537 -275 1052 -556 1430 -136
184 -380 409 -483 445 -46 17 -96 17 -143 0z"/>
<path d="M3380 5464 c-149 -64 -179 -264 -56 -372 44 -39 80 -48 231 -63 714
-66 1180 -461 1384 -1174 135 -472 147 -1141 31 -1716 -32 -153 -31 -185 0
-249 37 -73 107 -114 195 -114 88 0 157 41 195 115 35 68 95 400 122 674 16
165 16 635 0 785 -69 644 -258 1140 -571 1497 -259 295 -631 503 -1053 587
-236 48 -412 59 -478 30z"/>
<path d="M2852 5396 c-188 -61 -457 -218 -642 -373 -200 -169 -459 -476 -498
-592 -51 -148 81 -308 236 -287 77 10 123 46 200 154 223 312 503 540 813 663
113 44 160 80 190 144 54 116 -13 264 -135 300 -64 19 -77 19 -164 -9z"/>
<path d="M3330 4810 c-234 -33 -439 -114 -608 -240 -96 -71 -126 -126 -120
-219 4 -84 36 -137 105 -178 38 -22 60 -28 108 -28 69 0 89 9 225 102 61 42
116 71 173 89 74 25 99 27 265 31 156 3 189 6 220 22 107 55 152 178 107 289
-20 50 -84 108 -134 122 -51 14 -264 21 -341 10z"/>
<path d="M4060 4563 c-75 -38 -112 -93 -118 -172 -6 -85 11 -125 89 -207 263
-278 377 -722 367 -1435 l-3 -257 30 -43 c38 -56 119 -99 184 -99 89 0 179 62
211 145 18 49 29 369 19 573 -31 646 -190 1120 -471 1403 -90 91 -121 110
-197 116 -47 4 -64 0 -111 -24z"/>
<path d="M2272 4119 c-50 -25 -97 -79 -113 -129 -26 -77 -90 -214 -143 -302
-205 -344 -483 -533 -815 -554 -125 -8 -164 -18 -207 -56 -102 -89 -107 -232
-13 -327 57 -57 89 -65 243 -58 201 9 385 61 571 162 322 175 597 504 755 905
63 157 55 244 -27 322 -63 60 -172 76 -251 37z"/>
<path d="M3268 4130 c-250 -45 -422 -176 -567 -430 -101 -175 -115 -226 -86
-311 54 -157 263 -200 371 -77 17 20 53 76 79 126 60 114 109 178 164 217 41
29 47 30 144 30 93 0 106 -2 148 -27 85 -50 154 -142 211 -281 16 -40 39 -83
51 -96 31 -33 115 -71 158 -71 119 0 229 106 229 222 0 60 -84 257 -153 358
-105 155 -276 277 -452 324 -72 20 -232 28 -297 16z"/>
<path d="M1494 4006 c-51 -24 -86 -61 -118 -123 -19 -37 -50 -55 -140 -83 -89
-28 -126 -56 -158 -119 -36 -71 -37 -129 -2 -199 52 -104 150 -142 282 -111
26 6 89 31 140 56 75 35 108 59 166 116 79 79 133 169 142 240 9 62 -17 134
-64 180 -72 70 -158 85 -248 43z"/>
<path d="M3309 3344 c-74 -22 -120 -81 -159 -200 -156 -481 -364 -810 -670
-1060 -158 -129 -322 -226 -612 -360 -207 -96 -249 -128 -275 -210 -32 -102
11 -206 106 -258 46 -24 61 -28 115 -24 55 3 87 16 277 109 118 58 269 138
334 178 489 297 840 710 1058 1247 59 143 117 326 117 365 0 95 -75 195 -162
217 -58 15 -71 14 -129 -4z"/>
<path d="M2496 3107 c-22 -12 -64 -51 -94 -87 -216 -261 -487 -459 -800 -586
-111 -45 -261 -84 -322 -84 -128 0 -226 -70 -249 -180 -20 -94 28 -198 112
-243 37 -19 56 -22 152 -21 417 6 955 279 1310 668 216 236 254 335 175 460
-57 89 -194 125 -284 73z"/>
<path d="M3860 3009 c-39 -16 -86 -56 -109 -92 -13 -21 -31 -87 -46 -173 -50
-270 -116 -466 -228 -676 -173 -327 -411 -570 -717 -733 -123 -66 -153 -105
-158 -205 -4 -60 -1 -75 23 -119 44 -81 140 -130 223 -115 130 24 435 243 645
464 221 233 393 505 510 810 82 212 149 489 151 621 1 68 -2 81 -29 124 -53
85 -177 129 -265 94z"/>
<path d="M4455 2121 c-99 -25 -140 -74 -194 -232 -70 -204 -157 -346 -290
-472 -38 -36 -100 -83 -138 -105 -74 -43 -92 -60 -116 -107 -75 -148 37 -325
204 -325 98 0 318 163 473 349 131 157 228 332 291 527 37 111 42 155 24 217
-27 98 -155 173 -254 148z"/>
</g>
</svg>
