<svg version="1.2" xmlns="http://www.w3.org/2000/svg" viewBox="0 0 500 500" width="96px" height="96px">
	<title>ISOTIPO_SENA_COLOR-removebg-preview-svg</title>
	<style>
		.s0 { fill: #08b2dd } 
		.s1 { fill: #09b3dd } 
	</style>
	<path id="Layer" class="s0" d="m166 214.2c-5.4-0.1-10.7-0.1-16.9 0.1-0.9 15.2-0.9 30.3-0.9 45.7-6.7 0-12.5 0-18.3 0 0 0 0.1 0 0.1-0.4 0-14 0.1-27.5 0-40.9 0-1.6-0.9-3.2-1.3-4.8-5.2-0.8-8.4-3.8-8.7-8.3-0.4-6 1.6-8.4 9.7-11.1 1.6-22 9.1-41.9 21.5-59.8 10.5-15.3 24.3-27.4 40.8-36.2 14.8-8 30.4-14 47.3-14.4 8.8-0.2 17.6-0.4 26.5 0.4 16.5 1.5 31.3 7.2 45.3 14.9 12 6.5 23 15 31.2 26.4 5.4 7.3 11.1 14.5 15.6 22.4 7.9 13.4 11.6 28.4 14.2 43.7 0.3 1.5 1.7 3.3 3.1 4 4.2 2 7.1 4.8 6.7 9.7-0.3 4.8-3.3 7.6-8.9 8.6-0.8 15.4-0.9 30.6-1 45.9 0 0 0-0.1-0.4-0.1-6 0-11.6 0-17.5 0 0-14.1 0-27.5-0.1-40.9 0-1.7-0.7-3.3-1-4.9-5.4-0.1-10.7-0.1-16.9 0-1 15.4-1 30.7-1.1 45.9-5.7 0.3-11.4 0.6-17.5 0.4-0.5-14.2-0.5-27.8-0.5-41.4-0.1-1.6-0.7-3.3-1-5-5.7 0-11.3 0-17.8 0.2-0.9 15.7-1.1 31.1-1.2 46.5-5.3 0.1-10.7 0.1-16.5-0.3-0.5-14.3-0.4-28-0.6-41.8 0-1.5-1.3-3.1-2-4.6-5.3 0-10.6 0-16.8 0.2-0.9 15.4-0.9 30.5-0.9 45.7-6 0.3-11.9 0.5-18.1-0.1-0.1-14.5-0.1-28.1-0.1-41.8 0-1.3-0.7-2.6-1-3.9-5.7-0.1-11.3-0.1-17.8 0.1-0.9 2.1-1.2 3.9-1.2 5.7 0 13.6 0 27.2 0 40.8-5.4 0.1-10.7 0.1-16.5-0.3-0.5-14.2-0.5-27.8-0.5-41.4-0.1-1.7-0.7-3.4-1.1-5-5.7 0-11.3-0.1-17.8 0.2-0.9 15.7-1 31.1-1.1 46.5-5.8 0.1-11.7 0.1-17.7-0.8-0.1-14.6-0.1-28.3-0.1-42.1-0.1-1.2-0.8-2.5-1.2-3.7z"/>
	<path id="Layer" class="s1" d="m298.7 73.9c-4.9-1.3-10.8-1.3-14.5-4.1-9.9-7.7-21.2-9.3-33-10.9-0.2-14.1-0.2-27.4-0.1-40.7 11.4-0.7 21.8 1.4 30.2 10.4 5.7 6.2 13.6 7.8 22.6 7.8 7.3 0.4 14 0.4 21 0.4 0 12.5 0 24.3-0.5 36.1-4.8 0.1-9.3 0-13.7 0.1-4 0.2-8 0.6-12 0.9z"/>
	<path id="Layer" fill-rule="evenodd" class="s0" d="m18 270.4c1-0.4 2-0.3 3-0.3 154 0 308 0 462.5-0.1 0.5 71.1 0.5 142.2 0.5 213.7-155.3 0-310.3 0-466 0 0-71 0-141.9 0-213.3zm214.7 73.2c0.1-7.8 0.2-15.6 0.3-23.4 0-1.3-0.7-2.6-2-4.2-10.6 0-21.3 0-31.9 0-1.4 0.1-2.7 0.7-4.3 1.9 0 7.4-0.1 14.8 0.1 22.2 0 1.3 0.9 2.6 1.6 3.9 0 0 0.2 0.1 0.9 0.7 10.8 0.1 21.7 0.2 32.5 0.2 0.7 0 1.4-0.6 2.1-0.9 0 0-0.1 0 0.7-0.4zm-102.7 0.4q0 0 0 0 0 0 0 0zm0.5 0.6c9 0.1 18.1 0.3 27.1 0.4 2.6 0 5.2-0.6 7.9-1 0 0 0.2 0.1 1.1-0.1 0.1-9 0.2-17.9-0.1-27.6-12.1 0-24.3-0.1-37.1 0.4-0.1 7.4-0.3 14.9-0.4 22.3 0 1.7 0.7 3.4 1 5 0 0 0 0 0.5 0.6zm101.5 65.4q0 0 0 0 0 0 0 0zm-0.4-0.7c-9.8-0.1-19.6-0.2-29.4-0.3-1.9 0-3.8 0.6-5.7 1 0 0-0.1-0.1-1 0-0.2 9-0.3 18 0 27.7 12.1 0 24.3 0.1 37.1-0.3 0.2-7.5 0.3-14.9 0.4-22.4 0-1.7-0.7-3.3-1-5 0 0 0 0-0.4-0.7zm93.7 1.1c-0.1 7.5-0.3 14.9-0.2 22.4 0 1.6 0.6 3.3 1.9 5.2 10.6 0 21.1 0 31.7-0.1 1.5 0 2.9-0.7 4.3-1.4 0 0 0-0.3 0.2-1.3 0-7.1 0.1-14.2 0-21.4-0.1-1.3-1.1-2.6-1.7-3.8 0 0 0-0.1-0.7-0.7-10.9-0.1-21.9-0.2-32.8-0.2-0.7 0-1.3 0.6-2 0.9 0 0 0.1 0-0.7 0.4zm-196 0c-0.1 7.5-0.3 14.9-0.3 22.4 0 1.6 0.7 3.3 2 5.2 10.6 0 21.3 0 31.9 0 1.4-0.1 2.7-0.7 4.3-1.9 0-7.5 0.1-14.9-0.1-22.3 0-1.3-1-2.6-1.6-3.8 0 0 0-0.1-0.7-0.7-10.9-0.1-21.9-0.2-32.8-0.2-0.7 0-1.3 0.6-2 0.9 0 0 0.1 0-0.7 0.4zm-63.3-19.4c11.6 0 23.3-0.1 35.7-0.5 0.1-7.1 0.3-14.3 0.3-21.4-0.1-2-0.7-4-1.9-6.2-11.7 0-23.4 0.1-35.8 0.6-0.1 7.5-0.3 14.9-0.3 22.4 0.1 1.7 0.7 3.3 2 5.1zm195.9 0c11.7 0 23.4 0 35.8-0.5 0.1-7.1 0.3-14.3 0.3-21.4-0.1-2-0.7-4-1.9-6.2-11.7 0.1-23.4 0.1-35.8 0.6-0.1 7.5-0.3 14.9-0.3 22.4 0.1 1.7 0.7 3.3 1.9 5.1zm64.1-47c0 0 0-0.1 0.5 0.6 11.5 0.1 23.1 0.3 34.6 0.3 0.7 0 1.3-0.8 1.9-1.5 0 0 0-0.2 0.2-1.2-0.1-8.4-0.2-16.8-0.7-25.9-12.1 0-24.3-0.1-37.1 0.4-0.1 7.4-0.3 14.9-0.3 22.3 0 1.7 0.6 3.4 0.9 5zm102.6-0.5c-0.1-8.6-0.3-17.3-0.6-26 0 0 0.1-0.1-0.1-1q-17.9-0.2-35.8-0.4c-0.3 0-0.7 0.6-1.1 1.8 0 8.4 0.1 16.8 0 25.5 0 0 0 0.4 0.5 1.2 11.6 0.1 23.3 0.2 34.9 0.3 0.6 0 1.1-0.6 1.6-0.9 0 0-0.1 0 0.6-0.5zm-168.4 67c0 8.8 0 17.6 0.4 27.2 12.3 0 24.7 0 37.2 0 0-9.5 0-18.6-0.4-28.3-11.7-0.1-23.3-0.2-34.9-0.3-0.5 0-1 0.6-2.3 1.4zm-159.6-1.1c-11.6-0.1-23.2-0.3-34.9-0.3-0.5 0-1 0.6-1.7 1.9 0 8.9 0 17.8 0 27 12.7 0 24.5 0 36.3-0.1 0.5 0 1-0.6 1.7-1.8 0-5.5 0.1-11 0-16.5-0.1-3.2-0.6-6.3-1.4-10.2zm327.4 0.6q0 0 0 0 0 0 0 0zm-0.4-0.6c-11.7-0.2-23.3-0.3-35-0.3-0.5 0-1 0.6-1.7 1.9 0.1 8.3 0.1 16.7 0.1 25.5 0 0 0.1 0.4 0.4 1.2 11.6 0.1 23.1 0.2 34.7 0.2 0.6 0 1.3-0.6 1.9-0.9 0 0-0.1 0 0.6-0.5 0.2-6.7 0.4-13.4 0.4-20.1-0.1-2.1-0.7-4.3-1-6.4 0 0 0 0.1-0.4-0.6zm-131.6-93.4c-11.8 0-23.7 0-35.9 0 0 9.4-0.1 18.1 0 26.9 0 0.4 0.8 0.8 1.4 1.1 0 0 0.2 0.1 0.9 0.7 8.4 0.1 16.8 0.3 25.2 0.3 2.9-0.1 5.8-0.6 8.9-1 0 0 0.1 0.1 1-0.2 0.2-7.4 0.4-14.7 0.5-22.1 0-1.8-0.7-3.7-2-5.7zm-231.7 0.6c-0.1 8.4-0.2 16.8-0.2 25.3 0 0.7 0.8 1.4 1.4 2.1 0 0 0.2 0.1 0.9 0.7 8.4 0.1 16.8 0.3 25.2 0.3 2.9-0.1 5.8-0.6 8.9-1 0 0 0.2 0.1 1.1-0.2 0-9.1 0-18.3 0-27.6-12.5 0-24.5 0-37.3 0.4zm262.7 74.5c11.9 0 23.8 0 35.8 0 0-9.7 0-18.8 0-28-12.5 0-24.6 0-37.5 0.4-0.1 7.5-0.3 15-0.2 22.4 0 1.7 0.6 3.4 1.9 5.2zm-94.3-0.6c0.1-3.1 0.4-6.3 0.3-9.4-0.2-5.5-0.6-11.1-1-16.7 0 0 0.1 0.1 0.1-0.9q-14.2-0.3-28.3-0.6c-2.9-0.1-5.8 0-8.6 0 0 9.8 0 18.9 0 28 12.5 0 24.6 0 37.5-0.4zm-100.8 0.6c11.6 0 23.2 0 35 0 0-9.6 0-18.6 0-28.2-12 0-23.8 0-35.6 0.1-0.5 0-0.9 0.9-1.3 1.4 0 0-0.1 0.1-0.7 0.8-0.1 6.7-0.3 13.5-0.2 20.3 0 1.8 0.6 3.6 1.4 5.5 0 0 0.4-0.1 1.4 0.1zm296-27.7c-12-0.1-24-0.3-36-0.3-0.2 0-0.5 0.6-0.9 1.4 0 0 0.1 0.5-0.1 1.4 0 8.3 0 16.7 0 25.2 11.9 0 23 0 34.1-0.1 1 0 2.1-0.9 3-1.5 0 0 0.1-0.1 0.7-0.8-0.2-8-0.4-16.1-0.7-24.2 0 0 0.1-0.1-0.1-1.1z"/>
</svg>