<svg version="1.1" id="Layer_1" xmlns="http://www.w3.org/2000/svg" xmlns:xlink="http://www.w3.org/1999/xlink" x="0px" y="0px"
	 width="96px" viewBox="0 0 600 600" enable-background="new 0 0 600 600" xml:space="preserve">
<path fill="#FFFFFF" opacity="1.000000" stroke="none" 
	d="
M336.000000,601.000000 
	C224.000000,601.000000 112.500000,601.000000 1.000000,601.000000 
	C1.000000,401.000000 1.000000,201.000000 1.000000,1.000000 
	C201.000000,1.000000 401.000000,1.000000 601.000000,1.000000 
	C601.000000,201.000000 601.000000,401.000000 601.000000,601.000000 
	C512.833313,601.000000 424.666656,601.000000 336.000000,601.000000 
M581.001038,339.502319 
	C581.001038,334.251709 581.001038,329.001099 581.001038,323.666260 
	C394.017426,323.666260 207.759338,323.666260 21.262096,323.666260 
	C21.262096,409.474396 21.262096,495.029694 21.262096,580.698303 
	C207.905136,580.698303 394.284607,580.698303 581.001038,580.698303 
	C581.001038,500.431244 581.001038,420.466431 581.001038,339.502319 
M164.537918,312.157440 
	C168.821854,312.157440 173.105774,312.157440 178.000488,312.157440 
	C178.000488,293.241638 178.000488,274.867920 178.000488,256.520264 
	C185.700348,256.520264 192.767624,256.520264 200.251068,256.520264 
	C200.251068,275.145874 200.251068,293.412811 200.251068,311.790405 
	C207.891586,311.790405 215.099182,311.790405 222.796234,311.790405 
	C222.796234,293.180450 222.796234,274.931366 222.796234,256.424255 
	C230.361954,256.424255 237.431274,256.424255 245.064545,256.424255 
	C245.064545,275.058044 245.064545,293.448303 245.064545,311.842957 
	C252.711029,311.842957 259.789886,311.842957 267.531372,311.842957 
	C267.531372,293.163391 267.531372,274.788177 267.531372,256.491852 
	C275.294586,256.491852 282.383301,256.491852 290.070709,256.491852 
	C290.070709,275.198395 290.070709,293.578827 290.070709,311.761261 
	C297.755768,311.761261 304.826080,311.761261 312.314270,311.761261 
	C312.314270,293.113525 312.314270,274.858398 312.314270,256.398193 
	C319.836121,256.398193 326.921143,256.398193 334.683472,256.398193 
	C334.683472,274.996490 334.683472,293.369080 334.683472,311.879089 
	C342.431976,311.879089 349.500549,311.879089 357.144409,311.879089 
	C357.144409,293.227966 357.144409,274.846436 357.144409,256.519226 
	C364.799408,256.519226 371.871155,256.519226 379.400391,256.519226 
	C379.400391,275.143066 379.400391,293.410553 379.400391,311.798828 
	C387.088013,311.798828 394.301361,311.798828 401.957611,311.798828 
	C401.957611,293.192047 401.957611,274.938660 401.957611,256.428955 
	C409.472046,256.428955 416.537079,256.428955 424.208313,256.428955 
	C424.208313,275.076599 424.208313,293.463531 424.208313,311.907410 
	C431.923859,311.907410 439.030640,311.907410 446.702271,311.907410 
	C446.702271,293.254822 446.702271,274.841919 446.702271,256.681641 
	C448.677643,255.956940 450.119537,255.544266 451.459564,254.914780 
	C455.660675,252.941269 457.821899,249.390839 457.714142,244.937775 
	C457.608368,240.566711 455.788483,236.111664 451.284210,235.216797 
	C445.510010,234.069656 445.070709,230.425995 444.808472,225.963135 
	C444.672516,223.649399 444.187683,221.348938 443.763550,219.060440 
	C429.041351,139.616898 354.248962,87.155159 274.657257,102.255463 
	C217.845398,113.033936 180.503906,147.764236 162.129807,202.493561 
	C158.775146,212.485825 157.366104,223.131271 155.014282,233.675339 
	C148.203339,235.213745 144.521484,238.705185 144.174164,244.285492 
	C143.821915,249.945221 147.191040,253.854019 155.496033,256.942657 
	C155.496033,275.094696 155.496033,293.479218 155.496033,312.157501 
	C158.586426,312.157501 161.072266,312.157501 164.537918,312.157440 
M344.661133,39.049950 
	C341.025482,36.155327 337.274902,33.392494 333.776367,30.340689 
	C324.321442,22.093058 313.059204,20.906094 301.209290,21.126862 
	C301.209290,38.146557 301.209290,54.591980 301.209290,71.337128 
	C303.688324,71.510223 305.984924,71.795174 308.283234,71.809875 
	C319.240814,71.879997 329.182892,74.634232 338.125854,81.382965 
	C341.587036,83.994904 346.112915,86.213402 350.339539,86.604752 
	C363.537781,87.826790 376.824738,88.090744 390.402710,88.741692 
	C390.402710,73.129585 390.402710,58.573849 390.402710,43.405407 
	C383.652313,43.405407 377.196960,43.514320 370.746735,43.378658 
	C362.109375,43.196991 353.377472,43.447910 344.661133,39.049950 
z"/>
<path fill="#08B2DD" opacity="1.000000" stroke="none" 
	d="
M581.001038,340.001984 
	C581.001038,420.466431 581.001038,500.431244 581.001038,580.698303 
	C394.284607,580.698303 207.905136,580.698303 21.262096,580.698303 
	C21.262096,495.029694 21.262096,409.474396 21.262096,323.666260 
	C207.759338,323.666260 394.017426,323.666260 581.001038,323.666260 
	C581.001038,329.001099 581.001038,334.251709 581.001038,340.001984 
M76.992783,459.463165 
	C76.992783,462.557617 76.992783,465.652069 76.992783,468.594604 
	C92.329575,468.594604 107.006004,468.594604 121.622025,468.594604 
	C121.622025,457.438202 121.622025,446.696411 121.622025,435.737610 
	C106.664986,435.737610 91.974174,435.737610 76.992783,435.737610 
	C76.992783,443.538055 76.992783,451.006439 76.992783,459.463165 
M513.886841,505.506561 
	C513.886841,500.931976 513.886841,496.357391 513.886841,491.665405 
	C498.589081,491.665405 484.030914,491.665405 469.237671,491.665405 
	C469.237671,502.802216 469.237671,513.675781 469.237671,524.682495 
	C484.160645,524.682495 498.836792,524.682495 513.886780,524.682495 
	C513.886780,518.411011 513.886780,512.457642 513.886841,505.506561 
M325.509521,525.007019 
	C335.913147,525.007019 346.316742,525.007019 356.653809,525.007019 
	C356.653809,513.494263 356.653809,502.632111 356.653809,491.683472 
	C341.741241,491.683472 327.183594,491.683472 312.389099,491.683472 
	C312.389099,502.829376 312.389099,513.693481 312.389099,525.007019 
	C316.608887,525.007019 320.561279,525.007019 325.509521,525.007019 
M121.845573,493.016846 
	C120.799812,492.479706 119.780083,491.550934 118.703384,491.479431 
	C115.557556,491.270386 112.389000,491.402527 109.229355,491.402435 
	C98.626610,491.402039 88.023865,491.402283 77.262741,491.402283 
	C77.262741,502.839417 77.262741,513.720276 77.262741,524.646973 
	C92.217072,524.646973 106.898438,524.646973 121.881638,524.646973 
	C121.881638,514.168396 121.881638,504.046783 121.845573,493.016846 
M468.992767,462.415436 
	C468.992767,464.510101 468.992767,466.604736 468.992767,468.608582 
	C484.301727,468.608582 498.978088,468.608582 513.636963,468.608582 
	C513.636963,457.464417 513.636963,446.720825 513.636963,435.722839 
	C498.690918,435.722839 483.995544,435.722839 468.992767,435.722839 
	C468.992767,444.504242 468.992767,452.968048 468.992767,462.415436 
M357.004608,466.281219 
	C357.004608,456.173218 357.004608,446.065216 357.004608,435.735474 
	C341.879089,435.735474 327.181213,435.735474 312.452240,435.735474 
	C312.452240,446.948212 312.452240,457.824280 312.452240,468.998352 
	C326.738342,468.998352 340.684296,469.027008 354.629272,468.923187 
	C355.419464,468.917297 356.201599,467.824188 357.004608,466.281219 
M513.886841,401.478302 
	C513.886841,394.246094 513.886841,387.013885 513.886841,379.667786 
	C498.582855,379.667786 484.024017,379.667786 469.241211,379.667786 
	C469.241211,390.807953 469.241211,401.682312 469.241211,412.678223 
	C484.168304,412.678223 498.844879,412.678223 513.886780,412.678223 
	C513.886780,409.059021 513.886780,405.764374 513.886841,401.478302 
M312.110443,382.840454 
	C312.110443,392.761810 312.110443,402.683197 312.110443,412.657410 
	C327.390839,412.657410 342.077148,412.657410 356.824097,412.657410 
	C356.824097,401.539032 356.824097,390.771301 356.824097,379.424927 
	C342.559143,379.424927 328.469086,379.386017 314.380920,379.531433 
	C313.617462,379.539276 312.869934,381.090271 312.110443,382.840454 
M104.498291,379.402405 
	C95.418015,379.402405 86.337738,379.402405 77.335510,379.402405 
	C77.335510,390.990204 77.335510,401.871765 77.335510,412.580872 
	C92.357513,412.580872 107.033249,412.580872 121.607849,412.580872 
	C121.607849,401.412628 121.607849,390.672760 121.607849,379.402832 
	C116.059975,379.402832 110.778625,379.402832 104.498291,379.402405 
M175.500732,435.398285 
	C168.904205,435.398285 162.307678,435.398285 155.668823,435.398285 
	C155.668823,447.028778 155.668823,457.894836 155.668823,468.702332 
	C170.634094,468.702332 185.207138,468.702332 199.757080,468.702332 
	C199.757080,457.522614 199.757080,446.653809 199.757080,435.398712 
	C191.760880,435.398712 184.130630,435.398712 175.500732,435.398285 
M233.870255,454.496521 
	C233.870255,459.243896 233.870255,463.991241 233.870255,468.706299 
	C249.149399,468.706299 263.708374,468.706299 278.302856,468.706299 
	C278.302856,457.542114 278.302856,446.685181 278.302856,435.737183 
	C263.329956,435.737183 248.774139,435.737183 233.870193,435.737183 
	C233.870193,441.879028 233.870193,447.688354 233.870255,454.496521 
M250.501740,413.009277 
	C259.760529,413.009277 269.019318,413.009277 278.302124,413.009277 
	C278.302124,401.540619 278.302124,390.683746 278.302124,379.738159 
	C263.328796,379.738159 248.773148,379.738159 234.229950,379.738159 
	C234.229950,390.965271 234.229950,401.848663 234.229950,413.009277 
	C239.559128,413.009277 244.531158,413.009277 250.501740,413.009277 
M188.474091,491.398285 
	C177.554108,491.398285 166.634109,491.398285 155.674561,491.398285 
	C155.674561,503.034302 155.674561,513.899353 155.674561,524.697388 
	C170.645416,524.697388 185.218475,524.697388 199.749847,524.697388 
	C199.749847,513.513367 199.749847,502.644684 199.749847,491.398712 
	C196.072571,491.398712 192.767944,491.398712 188.474091,491.398285 
M278.717499,508.500549 
	C278.717499,502.927490 278.717499,497.354431 278.717499,491.755219 
	C263.306122,491.755219 248.755234,491.755219 234.243561,491.755219 
	C234.243561,502.996735 234.243561,513.877136 234.243561,524.690857 
	C249.176773,524.690857 263.734497,524.690857 278.717285,524.690857 
	C278.717285,519.421082 278.717285,514.459351 278.717499,508.500549 
M195.376297,413.009186 
	C196.825943,412.930115 198.275589,412.851074 199.795288,412.768188 
	C199.795288,401.582916 199.795288,390.709900 199.795288,379.750275 
	C184.906693,379.750275 170.352448,379.750275 155.631378,379.750275 
	C155.631378,390.980530 155.631378,401.856049 155.631378,413.009247 
	C168.787231,413.009247 181.592361,413.009247 195.376297,413.009186 
M399.538940,412.998138 
	C411.314331,412.998138 423.089722,412.998138 434.853210,412.998138 
	C434.853210,401.570068 434.853210,390.704193 434.853210,379.931763 
	C420.007477,379.931763 405.596954,379.931763 390.952576,379.931763 
	C390.952576,391.012543 390.952576,401.748932 390.952576,412.998138 
	C393.643982,412.998138 396.098785,412.998138 399.538940,412.998138 
M390.708282,455.493652 
	C390.708282,459.902588 390.708282,464.311554 390.708282,468.587280 
	C406.014008,468.587280 420.547913,468.587280 434.900208,468.587280 
	C434.900208,457.428589 434.900208,446.684052 434.900208,435.878418 
	C420.103821,435.878418 405.694916,435.878418 390.708038,435.878418 
	C390.708038,442.272095 390.708038,448.384308 390.708282,455.493652 
M435.080383,492.587769 
	C433.533722,492.254395 431.990662,491.653778 430.439789,491.632935 
	C422.947968,491.532196 415.454071,491.587433 407.960907,491.587372 
	C402.366272,491.587341 396.771637,491.587372 390.953369,491.587372 
	C390.953369,503.014954 390.953369,513.750854 390.953369,524.715576 
	C405.755127,524.715576 420.311371,524.715576 435.245087,524.715576 
	C435.245087,514.149048 435.245087,503.860413 435.080383,492.587769 
z"/>
<path fill="#08B2DD" opacity="1.000000" stroke="none" 
	d="
M164.048004,312.157471 
	C161.072266,312.157501 158.586426,312.157501 155.496033,312.157501 
	C155.496033,293.479218 155.496033,275.094696 155.496033,256.942657 
	C147.191040,253.854019 143.821915,249.945221 144.174164,244.285492 
	C144.521484,238.705185 148.203339,235.213745 155.014282,233.675339 
	C157.366104,223.131271 158.775146,212.485825 162.129807,202.493561 
	C180.503906,147.764236 217.845398,113.033936 274.657257,102.255463 
	C354.248962,87.155159 429.041351,139.616898 443.763550,219.060440 
	C444.187683,221.348938 444.672516,223.649399 444.808472,225.963135 
	C445.070709,230.425995 445.510010,234.069656 451.284210,235.216797 
	C455.788483,236.111664 457.608368,240.566711 457.714142,244.937775 
	C457.821899,249.390839 455.660675,252.941269 451.459564,254.914780 
	C450.119537,255.544266 448.677643,255.956940 446.702271,256.681641 
	C446.702271,274.841919 446.702271,293.254822 446.702271,311.907410 
	C439.030640,311.907410 431.923859,311.907410 424.208313,311.907410 
	C424.208313,293.463531 424.208313,275.076599 424.208313,256.428955 
	C416.537079,256.428955 409.472046,256.428955 401.957611,256.428955 
	C401.957611,274.938660 401.957611,293.192047 401.957611,311.798828 
	C394.301361,311.798828 387.088013,311.798828 379.400391,311.798828 
	C379.400391,293.410553 379.400391,275.143066 379.400391,256.519226 
	C371.871155,256.519226 364.799408,256.519226 357.144409,256.519226 
	C357.144409,274.846436 357.144409,293.227966 357.144409,311.879089 
	C349.500549,311.879089 342.431976,311.879089 334.683472,311.879089 
	C334.683472,293.369080 334.683472,274.996490 334.683472,256.398193 
	C326.921143,256.398193 319.836121,256.398193 312.314270,256.398193 
	C312.314270,274.858398 312.314270,293.113525 312.314270,311.761261 
	C304.826080,311.761261 297.755768,311.761261 290.070709,311.761261 
	C290.070709,293.578827 290.070709,275.198395 290.070709,256.491852 
	C282.383301,256.491852 275.294586,256.491852 267.531372,256.491852 
	C267.531372,274.788177 267.531372,293.163391 267.531372,311.842957 
	C259.789886,311.842957 252.711029,311.842957 245.064545,311.842957 
	C245.064545,293.448303 245.064545,275.058044 245.064545,256.424255 
	C237.431274,256.424255 230.361954,256.424255 222.796234,256.424255 
	C222.796234,274.931366 222.796234,293.180450 222.796234,311.790405 
	C215.099182,311.790405 207.891586,311.790405 200.251068,311.790405 
	C200.251068,293.412811 200.251068,275.145874 200.251068,256.520264 
	C192.767624,256.520264 185.700348,256.520264 178.000488,256.520264 
	C178.000488,274.867920 178.000488,293.241638 178.000488,312.157440 
	C173.105774,312.157440 168.821854,312.157440 164.048004,312.157471 
z"/>
<path fill="#0AB3DD" opacity="1.000000" stroke="none" 
	d="
M345.000732,39.216080 
	C353.377472,43.447910 362.109375,43.196991 370.746735,43.378658 
	C377.196960,43.514320 383.652313,43.405407 390.402710,43.405407 
	C390.402710,58.573849 390.402710,73.129585 390.402710,88.741692 
	C376.824738,88.090744 363.537781,87.826790 350.339539,86.604752 
	C346.112915,86.213402 341.587036,83.994904 338.125854,81.382965 
	C329.182892,74.634232 319.240814,71.879997 308.283234,71.809875 
	C305.984924,71.795174 303.688324,71.510223 301.209290,71.337128 
	C301.209290,54.591980 301.209290,38.146557 301.209290,21.126862 
	C313.059204,20.906094 324.321442,22.093058 333.776367,30.340689 
	C337.274902,33.392494 341.025482,36.155327 345.000732,39.216080 
z"/>
<path fill="#FAFEFE" opacity="1.000000" stroke="none" 
	d="
M76.992783,458.968994 
	C76.992783,451.006439 76.992783,443.538055 76.992783,435.737610 
	C91.974174,435.737610 106.664986,435.737610 121.622025,435.737610 
	C121.622025,446.696411 121.622025,457.438202 121.622025,468.594604 
	C107.006004,468.594604 92.329575,468.594604 76.992783,468.594604 
	C76.992783,465.652069 76.992783,462.557617 76.992783,458.968994 
z"/>
<path fill="#FAFEFE" opacity="1.000000" stroke="none" 
	d="
M513.886841,506.005432 
	C513.886780,512.457642 513.886780,518.411011 513.886780,524.682495 
	C498.836792,524.682495 484.160645,524.682495 469.237671,524.682495 
	C469.237671,513.675781 469.237671,502.802216 469.237671,491.665405 
	C484.030914,491.665405 498.589081,491.665405 513.886841,491.665405 
	C513.886841,496.357391 513.886841,500.931976 513.886841,506.005432 
z"/>
<path fill="#FAFEFE" opacity="1.000000" stroke="none" 
	d="
M325.011597,525.007019 
	C320.561279,525.007019 316.608887,525.007019 312.389099,525.007019 
	C312.389099,513.693481 312.389099,502.829376 312.389099,491.683472 
	C327.183594,491.683472 341.741241,491.683472 356.653809,491.683472 
	C356.653809,502.632111 356.653809,513.494263 356.653809,525.007019 
	C346.316742,525.007019 335.913147,525.007019 325.011597,525.007019 
z"/>
<path fill="#FAFEFE" opacity="1.000000" stroke="none" 
	d="
M121.863602,493.471008 
	C121.881638,504.046783 121.881638,514.168396 121.881638,524.646973 
	C106.898438,524.646973 92.217072,524.646973 77.262741,524.646973 
	C77.262741,513.720276 77.262741,502.839417 77.262741,491.402283 
	C88.023865,491.402283 98.626610,491.402039 109.229355,491.402435 
	C112.389000,491.402527 115.557556,491.270386 118.703384,491.479431 
	C119.780083,491.550934 120.799812,492.479706 121.863602,493.471008 
z"/>
<path fill="#FAFEFE" opacity="1.000000" stroke="none" 
	d="
M468.992767,461.923645 
	C468.992767,452.968048 468.992767,444.504242 468.992767,435.722839 
	C483.995544,435.722839 498.690918,435.722839 513.636963,435.722839 
	C513.636963,446.720825 513.636963,457.464417 513.636963,468.608582 
	C498.978088,468.608582 484.301727,468.608582 468.992767,468.608582 
	C468.992767,466.604736 468.992767,464.510101 468.992767,461.923645 
z"/>
<path fill="#FAFEFE" opacity="1.000000" stroke="none" 
	d="
M356.996033,466.759155 
	C356.201599,467.824188 355.419464,468.917297 354.629272,468.923187 
	C340.684296,469.027008 326.738342,468.998352 312.452240,468.998352 
	C312.452240,457.824280 312.452240,446.948212 312.452240,435.735474 
	C327.181213,435.735474 341.879089,435.735474 357.004608,435.735474 
	C357.004608,446.065216 357.004608,456.173218 356.996033,466.759155 
z"/>
<path fill="#FAFEFE" opacity="1.000000" stroke="none" 
	d="
M513.886841,401.973999 
	C513.886780,405.764374 513.886780,409.059021 513.886780,412.678223 
	C498.844879,412.678223 484.168304,412.678223 469.241211,412.678223 
	C469.241211,401.682312 469.241211,390.807953 469.241211,379.667786 
	C484.024017,379.667786 498.582855,379.667786 513.886841,379.667786 
	C513.886841,387.013885 513.886841,394.246094 513.886841,401.973999 
z"/>
<path fill="#FAFEFE" opacity="1.000000" stroke="none" 
	d="
M312.112732,382.381714 
	C312.869934,381.090271 313.617462,379.539276 314.380920,379.531433 
	C328.469086,379.386017 342.559143,379.424927 356.824097,379.424927 
	C356.824097,390.771301 356.824097,401.539032 356.824097,412.657410 
	C342.077148,412.657410 327.390839,412.657410 312.110443,412.657410 
	C312.110443,402.683197 312.110443,392.761810 312.112732,382.381714 
z"/>
<path fill="#FAFEFE" opacity="1.000000" stroke="none" 
	d="
M104.997780,379.402618 
	C110.778625,379.402832 116.059975,379.402832 121.607849,379.402832 
	C121.607849,390.672760 121.607849,401.412628 121.607849,412.580872 
	C107.033249,412.580872 92.357513,412.580872 77.335510,412.580872 
	C77.335510,401.871765 77.335510,390.990204 77.335510,379.402405 
	C86.337738,379.402405 95.418015,379.402405 104.997780,379.402618 
z"/>
<path fill="#F9FDFE" opacity="1.000000" stroke="none" 
	d="
M176.000565,435.398499 
	C184.130630,435.398712 191.760880,435.398712 199.757080,435.398712 
	C199.757080,446.653809 199.757080,457.522614 199.757080,468.702332 
	C185.207138,468.702332 170.634094,468.702332 155.668823,468.702332 
	C155.668823,457.894836 155.668823,447.028778 155.668823,435.398285 
	C162.307678,435.398285 168.904205,435.398285 176.000565,435.398499 
z"/>
<path fill="#F9FDFE" opacity="1.000000" stroke="none" 
	d="
M233.870224,453.997101 
	C233.870193,447.688354 233.870193,441.879028 233.870193,435.737183 
	C248.774139,435.737183 263.329956,435.737183 278.302856,435.737183 
	C278.302856,446.685181 278.302856,457.542114 278.302856,468.706299 
	C263.708374,468.706299 249.149399,468.706299 233.870255,468.706299 
	C233.870255,463.991241 233.870255,459.243896 233.870224,453.997101 
z"/>
<path fill="#F9FDFE" opacity="1.000000" stroke="none" 
	d="
M250.002472,413.009277 
	C244.531158,413.009277 239.559128,413.009277 234.229950,413.009277 
	C234.229950,401.848663 234.229950,390.965271 234.229950,379.738159 
	C248.773148,379.738159 263.328796,379.738159 278.302124,379.738159 
	C278.302124,390.683746 278.302124,401.540619 278.302124,413.009277 
	C269.019318,413.009277 259.760529,413.009277 250.002472,413.009277 
z"/>
<path fill="#F9FDFE" opacity="1.000000" stroke="none" 
	d="
M188.968719,491.398499 
	C192.767944,491.398712 196.072571,491.398712 199.749847,491.398712 
	C199.749847,502.644684 199.749847,513.513367 199.749847,524.697388 
	C185.218475,524.697388 170.645416,524.697388 155.674561,524.697388 
	C155.674561,513.899353 155.674561,503.034302 155.674561,491.398285 
	C166.634109,491.398285 177.554108,491.398285 188.968719,491.398499 
z"/>
<path fill="#F9FDFE" opacity="1.000000" stroke="none" 
	d="
M278.717407,508.999084 
	C278.717285,514.459351 278.717285,519.421082 278.717285,524.690857 
	C263.734497,524.690857 249.176773,524.690857 234.243561,524.690857 
	C234.243561,513.877136 234.243561,502.996735 234.243561,491.755219 
	C248.755234,491.755219 263.306122,491.755219 278.717499,491.755219 
	C278.717499,497.354431 278.717499,502.927490 278.717407,508.999084 
z"/>
<path fill="#F9FDFE" opacity="1.000000" stroke="none" 
	d="
M194.886902,413.009216 
	C181.592361,413.009247 168.787231,413.009247 155.631378,413.009247 
	C155.631378,401.856049 155.631378,390.980530 155.631378,379.750275 
	C170.352448,379.750275 184.906693,379.750275 199.795288,379.750275 
	C199.795288,390.709900 199.795288,401.582916 199.795288,412.768188 
	C198.275589,412.851074 196.825943,412.930115 194.886902,413.009216 
z"/>
<path fill="#FFFFFF" opacity="1.000000" stroke="none" 
	d="
M399.046265,412.998138 
	C396.098785,412.998138 393.643982,412.998138 390.952576,412.998138 
	C390.952576,401.748932 390.952576,391.012543 390.952576,379.931763 
	C405.596954,379.931763 420.007477,379.931763 434.853210,379.931763 
	C434.853210,390.704193 434.853210,401.570068 434.853210,412.998138 
	C423.089722,412.998138 411.314331,412.998138 399.046265,412.998138 
z"/>
<path fill="#FFFFFF" opacity="1.000000" stroke="none" 
	d="
M390.708160,454.995087 
	C390.708038,448.384308 390.708038,442.272095 390.708038,435.878418 
	C405.694916,435.878418 420.103821,435.878418 434.900208,435.878418 
	C434.900208,446.684052 434.900208,457.428589 434.900208,468.587280 
	C420.547913,468.587280 406.014008,468.587280 390.708282,468.587280 
	C390.708282,464.311554 390.708282,459.902588 390.708160,454.995087 
z"/>
<path fill="#FFFFFF" opacity="1.000000" stroke="none" 
	d="
M435.162720,493.079773 
	C435.245087,503.860413 435.245087,514.149048 435.245087,524.715576 
	C420.311371,524.715576 405.755127,524.715576 390.953369,524.715576 
	C390.953369,513.750854 390.953369,503.014954 390.953369,491.587372 
	C396.771637,491.587372 402.366272,491.587341 407.960907,491.587372 
	C415.454071,491.587433 422.947968,491.532196 430.439789,491.632935 
	C431.990662,491.653778 433.533722,492.254395 435.162720,493.079773 
z"/>
</svg>