<?xml version="1.0" standalone="no"?>
<!DOCTYPE svg PUBLIC "-//W3C//DTD SVG 20010904//EN"
 "http://www.w3.org/TR/2001/REC-SVG-20010904/DTD/svg10.dtd">
<svg version="1.0" xmlns="http://www.w3.org/2000/svg"
 width="96px" height="96px" viewBox="0 0 300.000000 300.000000"
 preserveAspectRatio="xMidYMid meet">
<metadata>
Created by potrace 1.10, written by Peter Selinger 2001-2011
</metadata>
<g transform="translate(0.000000,300.000000) scale(0.100000,-0.100000)"
fill="#07b2dd" stroke="none">
<path d="M1500 2776 l0 -123 58 -6 c32 -2 73 -13 91 -23 94 -54 93 -54 197
-54 l101 0 -2 106 -1 106 -90 3 c-104 4 -134 14 -185 59 -24 22 -54 38 -88 45
-86 18 -81 26 -81 -113z m141 48 c76 -51 105 -62 193 -70 l77 -7 -3 -71 -3
-71 -85 0 c-72 0 -91 4 -124 25 -22 13 -67 31 -100 40 l-61 17 -3 73 c-2 40
-1 79 2 87 9 23 52 14 107 -23z"/>
<path d="M1316 2480 c-206 -55 -383 -204 -471 -395 -34 -73 -65 -182 -65 -228
0 -20 -5 -27 -19 -27 -49 0 -55 -76 -7 -99 l29 -13 -5 -134 -5 -134 54 0 53 0
0 140 0 140 60 0 60 0 0 -140 0 -140 55 0 54 0 -2 138 -2 137 58 3 57 3 0
-141 0 -140 55 0 55 0 0 140 0 140 60 0 60 0 0 -140 0 -140 50 0 50 0 0 140 0
140 60 0 60 0 0 -140 0 -140 55 0 55 0 0 140 0 141 58 -3 57 -3 0 -137 -1
-138 53 0 53 0 0 140 0 140 60 0 60 0 0 -140 0 -140 55 0 55 0 -7 135 -6 134
26 10 c46 18 44 101 -2 101 -15 0 -20 10 -25 48 -41 291 -262 537 -547 606
-91 22 -264 20 -353 -4z m364 -31 c106 -29 199 -81 281 -157 118 -109 173
-203 214 -371 14 -54 33 -103 44 -115 26 -28 26 -34 -1 -64 -20 -21 -24 -37
-28 -140 -4 -95 -8 -117 -20 -117 -12 0 -16 22 -20 117 -6 139 -12 150 -89
151 -83 1 -91 -13 -91 -149 0 -112 -8 -140 -33 -115 -7 7 -13 58 -15 124 -2
62 -9 118 -14 125 -6 7 -34 12 -66 12 -85 0 -92 -11 -92 -139 0 -58 -4 -112
-9 -120 -14 -22 -41 -5 -41 26 -3 231 -5 236 -91 234 -78 -1 -84 -11 -85 -142
-2 -116 -13 -151 -38 -117 -8 11 -13 57 -15 125 -1 70 -6 112 -15 121 -6 7
-36 13 -65 13 -79 2 -85 -8 -91 -149 -5 -109 -6 -117 -25 -117 -19 0 -20 8
-25 117 -6 141 -12 151 -91 149 -78 -1 -83 -10 -89 -149 -4 -95 -8 -117 -20
-117 -12 0 -16 22 -20 117 -6 139 -12 150 -89 151 -83 1 -91 -13 -91 -149 0
-70 -4 -115 -11 -120 -24 -15 -34 20 -37 131 -3 96 -7 116 -23 131 -25 22 -24
49 2 68 15 10 25 34 34 83 52 268 234 471 495 549 103 31 264 33 370 3z"/>
<path d="M100 743 l0 -643 1400 0 1400 0 0 643 0 642 -1400 0 -1400 0 0 -642z
m2768 6 c2 -494 0 -598 -11 -608 -11 -8 -371 -10 -1368 -9 l-1354 3 -3 595
c-1 327 0 601 3 608 3 10 282 12 1367 10 l1363 -3 3 -596z"/>
<path d="M395 1133 c-34 -9 -44 -35 -45 -108 0 -109 7 -115 140 -115 105 0
109 1 129 26 15 19 20 40 20 78 0 90 -6 104 -47 116 -37 10 -160 12 -197 3z
m215 -108 l0 -85 -115 0 -115 0 0 85 0 85 115 0 115 0 0 -85z"/>
<path d="M788 1133 c-33 -5 -39 -21 -41 -118 -2 -101 3 -105 140 -105 132 0
143 9 143 115 0 99 -12 110 -129 111 -47 1 -98 0 -113 -3z m212 -108 l0 -85
-115 0 -115 0 0 85 0 85 115 0 115 0 0 -85z"/>
<path d="M1172 1130 c-31 -13 -44 -55 -40 -126 6 -91 11 -94 137 -94 143 0
146 2 146 114 0 55 -4 89 -13 98 -15 15 -197 22 -230 8z m218 -105 l0 -85
-115 0 -115 0 0 85 0 85 115 0 115 0 0 -85z"/>
<path d="M1570 1132 c-14 -4 -30 -19 -37 -32 -15 -34 -3 -168 17 -180 8 -6 63
-10 122 -10 131 0 138 6 138 115 -1 101 -8 107 -122 111 -51 2 -104 0 -118 -4z
m210 -107 l0 -85 -115 0 -115 0 0 85 0 85 115 0 115 0 0 -85z"/>
<path d="M1965 1133 c-40 -10 -45 -23 -45 -108 0 -111 5 -115 142 -115 133 0
138 4 138 117 0 63 -4 84 -17 94 -16 14 -177 23 -218 12z m215 -108 l0 -85
-120 0 -120 0 0 85 0 85 120 0 120 0 0 -85z"/>
<path d="M2355 1134 c-35 -10 -45 -35 -45 -109 0 -109 7 -115 140 -115 138 0
140 2 140 114 0 63 -4 87 -15 96 -16 13 -183 23 -220 14z m215 -109 l0 -85
-115 0 -115 0 0 85 0 85 115 0 115 0 0 -85z"/>
<path d="M390 854 c-30 -12 -40 -38 -40 -109 0 -109 7 -115 140 -115 105 0
109 1 129 26 29 37 30 141 2 175 -18 22 -28 24 -118 26 -54 1 -105 0 -113 -3z
m220 -109 l0 -85 -115 0 -115 0 0 85 0 85 115 0 115 0 0 -85z"/>
<path d="M774 850 c-26 -10 -34 -51 -27 -135 3 -39 10 -64 21 -72 23 -19 212
-17 237 1 16 12 20 29 23 94 4 76 3 80 -23 100 -24 19 -40 22 -119 21 -50 0
-100 -4 -112 -9z m226 -105 l0 -85 -115 0 -115 0 0 85 0 85 115 0 115 0 0 -85z"/>
<path d="M1163 848 c-16 -8 -24 -23 -29 -55 -9 -61 2 -135 23 -150 11 -9 53
-13 118 -13 128 0 139 7 141 87 3 90 -5 119 -32 132 -31 14 -192 13 -221 -1z
m227 -103 l0 -85 -115 0 -115 0 0 85 0 85 115 0 115 0 0 -85z"/>
<path d="M1564 851 c-30 -13 -35 -23 -38 -87 -4 -63 7 -113 26 -126 7 -4 61
-8 120 -8 131 0 138 6 138 115 0 104 -6 109 -127 112 -54 2 -108 -1 -119 -6z
m216 -106 l0 -85 -115 0 -115 0 0 85 0 85 115 0 115 0 0 -85z"/>
<path d="M1950 848 c-23 -13 -25 -19 -28 -98 -4 -114 3 -120 137 -120 134 0
141 6 141 114 0 65 -4 87 -17 97 -23 19 -199 24 -233 7z m230 -103 l0 -85
-120 0 -120 0 0 85 0 85 120 0 120 0 0 -85z"/>
<path d="M2350 853 c-30 -11 -40 -37 -40 -108 0 -105 5 -109 137 -113 137 -5
142 -1 144 113 2 106 -8 115 -135 114 -50 0 -98 -3 -106 -6z m220 -108 l0 -85
-115 0 -115 0 0 85 0 85 115 0 115 0 0 -85z"/>
<path d="M370 558 c-19 -20 -21 -33 -18 -99 4 -107 7 -109 137 -109 58 0 111
4 117 8 22 14 34 52 34 104 0 106 -16 118 -161 118 -79 0 -91 -2 -109 -22z
m240 -93 l0 -85 -115 0 -115 0 0 85 0 85 115 0 115 0 0 -85z"/>
<path d="M782 570 c-31 -13 -41 -46 -36 -126 3 -50 9 -72 21 -81 11 -9 53 -13
118 -13 134 0 139 4 143 107 4 111 -2 117 -126 120 -53 2 -107 -1 -120 -7z
m218 -105 l0 -85 -115 0 -115 0 0 85 0 85 115 0 115 0 0 -85z"/>
<path d="M1172 570 c-31 -13 -42 -49 -38 -127 5 -89 12 -93 147 -93 83 0 109
3 119 15 8 9 13 47 14 95 1 108 -6 114 -127 117 -51 2 -102 -2 -115 -7z m218
-105 l0 -85 -115 0 -115 0 0 85 0 85 115 0 115 0 0 -85z"/>
<path d="M1552 563 c-38 -30 -37 -181 1 -205 7 -4 58 -8 115 -8 132 0 142 8
142 113 -1 106 -7 111 -133 115 -88 3 -106 1 -125 -15z m228 -98 l0 -85 -115
0 -115 0 0 85 0 85 115 0 115 0 0 -85z"/>
<path d="M1950 567 c-23 -12 -25 -18 -28 -96 -4 -117 0 -121 138 -121 136 0
140 4 140 118 0 72 -2 83 -22 96 -28 20 -191 22 -228 3z m230 -102 l0 -85
-120 0 -120 0 0 85 0 85 120 0 120 0 0 -85z"/>
<path d="M2350 573 c-30 -11 -40 -37 -40 -110 0 -106 10 -113 144 -113 133 0
136 2 136 115 0 109 -8 115 -135 114 -49 0 -97 -3 -105 -6z m220 -108 l0 -85
-115 0 -115 0 0 85 0 85 115 0 115 0 0 -85z"/>
</g>
</svg>
