<?xml version="1.0" encoding="UTF-8"?>
<!DOCTYPE svg PUBLIC "-//W3C//DTD SVG 1.1//EN" "http://www.w3.org/Graphics/SVG/1.1/DTD/svg11.dtd">
<svg xmlns="http://www.w3.org/2000/svg" version="1.1" width="500px" height="500px" style="shape-rendering:geometricPrecision; text-rendering:geometricPrecision; image-rendering:optimizeQuality; fill-rule:evenodd; clip-rule:evenodd" xmlns:xlink="http://www.w3.org/1999/xlink">
<g><path style="opacity:0.004" fill="#737283" d="M 211.5,54.5 C 212.946,53.3871 214.613,53.2204 216.5,54C 214.866,54.4935 213.199,54.6602 211.5,54.5 Z"/></g>
<g><path style="opacity:0.004" fill="#a088b7" d="M 270.5,54.5 C 271.601,53.4017 272.934,53.235 274.5,54C 273.207,54.49 271.873,54.6567 270.5,54.5 Z"/></g>
<g><path style="opacity:0.008" fill="#bc7eeb" d="M 207.5,55.5 C 208.251,54.4265 209.251,54.2599 210.5,55C 209.552,55.4828 208.552,55.6495 207.5,55.5 Z"/></g>
<g><path style="opacity:0.994" fill="#a273c4" d="M 307.5,62.5 C 313.144,63.3496 317.478,65.5162 320.5,69C 327.085,69.3194 332.918,71.8194 338,76.5C 339.811,77.0779 341.645,77.5779 343.5,78C 344.126,78.7504 344.626,79.5838 345,80.5C 346.073,79.7203 347.24,79.887 348.5,81C 356.488,86.0553 364.488,91.722 372.5,98C 377.247,101.521 381.247,105.688 384.5,110.5C 385.5,112.167 386.833,113.5 388.5,114.5C 390.93,117.268 393.763,119.601 397,121.5C 397.862,123.087 398.529,124.754 399,126.5C 400.147,125.542 401.147,125.875 402,127.5C 403.861,129.888 405.194,132.554 406,135.5C 409.082,138.076 411.582,141.076 413.5,144.5C 412.167,144.833 412.167,145.167 413.5,145.5C 416.522,148.863 419.188,152.53 421.5,156.5C 420.167,156.833 420.167,157.167 421.5,157.5C 423.679,162.37 426.345,167.036 429.5,171.5C 429.291,172.086 428.957,172.586 428.5,173C 431.756,178.845 434.756,184.845 437.5,191C 436.978,191.561 436.645,192.228 436.5,193C 437.465,196.882 438.798,200.548 440.5,204C 439.483,205.049 439.316,206.216 440,207.5C 440.333,206.833 440.667,206.167 441,205.5C 443.727,211.861 444.561,218.361 443.5,225C 445.787,226.427 446.12,228.261 444.5,230.5C 445.04,231.748 445.707,232.915 446.5,234C 445.167,248.667 445.167,263.333 446.5,278C 445.833,279 445.167,280 444.5,281C 444.868,285.415 444.868,289.748 444.5,294C 440.18,304.438 437.013,315.271 435,326.5C 432.295,330.577 430.128,334.91 428.5,339.5C 427.167,339.833 427.167,340.167 428.5,340.5C 427.364,344.771 425.198,348.437 422,351.5C 420.541,357.644 417.374,362.811 412.5,367C 412.957,367.414 413.291,367.914 413.5,368.5C 411.442,371.908 408.775,374.741 405.5,377C 406.345,378.558 405.679,379.558 403.5,380C 403.833,380.333 404.167,380.667 404.5,381C 398.467,386.955 392.801,393.122 387.5,399.5C 387.167,398.167 386.833,398.167 386.5,399.5C 385.167,399.833 385.167,400.167 386.5,400.5C 382.481,404.705 378.148,408.705 373.5,412.5C 373.167,411.167 372.833,411.167 372.5,412.5C 371.833,412.5 371.5,412.833 371.5,413.5C 368.847,415.155 366.514,417.155 364.5,419.5C 364.167,418.167 363.833,418.167 363.5,419.5C 358.938,422.955 354.771,426.289 351,429.5C 350.667,429.167 350.333,428.833 350,428.5C 345.667,431.5 341.333,434.5 337,437.5C 336.667,437.167 336.333,436.833 336,436.5C 332.307,437.674 329.141,439.674 326.5,442.5C 325.035,441.391 324.035,441.891 323.5,444C 322.216,444.684 321.049,444.517 320,443.5C 316.859,444.965 313.693,446.299 310.5,447.5C 306.566,450.916 302.066,452.249 297,451.5C 296.041,453.658 294.541,453.991 292.5,452.5C 285.795,453.258 279.461,455.091 273.5,458C 267.507,458.59 261.507,459.09 255.5,459.5C 247.335,458.2 239.168,458.2 231,459.5C 225.87,459.481 220.87,458.814 216,457.5C 215.439,458.022 214.772,458.355 214,458.5C 208.194,455.517 201.694,453.517 194.5,452.5C 190.797,453.371 187.297,452.704 184,450.5C 181.079,451.018 178.579,450.018 176.5,447.5C 171.961,446.788 167.628,445.622 163.5,444C 160.943,443.315 159.109,441.815 158,439.5C 157.667,439.833 157.333,440.167 157,440.5C 154.613,438.83 152.279,437.163 150,435.5C 148.493,436.535 146.993,436.368 145.5,435C 143.208,433.71 141.208,432.043 139.5,430C 138.551,429.383 137.718,429.549 137,430.5C 132.959,426.953 128.792,423.62 124.5,420.5C 123.699,418.492 122.366,417.992 120.5,419C 119.267,417.333 117.933,415.833 116.5,414.5C 114.879,412.883 112.879,411.716 110.5,411C 109.15,409.282 107.983,407.448 107,405.5C 106.667,405.833 106.333,406.167 106,406.5C 103.219,404.948 101.552,402.615 101,399.5C 97.2818,398.488 94.9484,396.155 94,392.5C 89.2369,390.738 86.2369,387.404 85,382.5C 84.2496,381.874 83.4162,381.374 82.5,381C 83.6537,380.086 83.487,379.253 82,378.5C 81.6667,378.833 81.3333,379.167 81,379.5C 78.5608,376.111 76.5608,372.445 75,368.5C 74.6667,368.833 74.3333,369.167 74,369.5C 71.1838,366.397 69.5172,362.73 69,358.5C 64.9707,356.159 63.1374,352.826 63.5,348.5C 60.3779,344.056 57.7112,339.39 55.5,334.5C 56.0431,334.44 56.3764,334.107 56.5,333.5C 53.5212,327.22 50.8545,320.886 48.5,314.5C 49.8333,313.833 49.8333,313.167 48.5,312.5C 48.1667,309.833 47.8333,309.833 47.5,312.5C 46.2089,311.458 46.2089,310.292 47.5,309C 44.8333,308.333 44.8333,307.667 47.5,307C 43.8253,297.228 41.3253,286.728 40,275.5C 39.4462,269.812 39.6129,264.145 40.5,258.5C 40.5,256.833 40.5,255.167 40.5,253.5C 40.3184,251.409 40.6518,249.409 41.5,247.5C 41.1543,246.304 40.6543,246.304 40,247.5C 39.6603,232.529 42.1603,218.029 47.5,204C 47.2645,203.127 46.9312,202.293 46.5,201.5C 49.1673,194.172 52.1673,187.006 55.5,180C 55.0426,179.586 54.7093,179.086 54.5,178.5C 55.1667,178.167 55.8333,177.833 56.5,177.5C 56.2907,176.914 55.9574,176.414 55.5,176C 57.8334,172.075 60.3334,168.242 63,164.5C 63.6917,163.563 63.525,162.897 62.5,162.5C 63.2616,158.823 65.2616,156.156 68.5,154.5C 74.6305,145.172 81.4638,136.172 89,127.5C 89.7401,126.251 89.5735,125.251 88.5,124.5C 94.4271,117.069 100.927,110.069 108,103.5C 108.333,103.833 108.667,104.167 109,104.5C 115.003,97.7949 121.336,92.1282 128,87.5C 128.333,87.8333 128.667,88.1667 129,88.5C 129.442,86.3215 130.442,85.6548 132,86.5C 136.76,81.6201 142.427,78.2868 149,76.5C 151.099,73.7797 153.765,71.7797 157,70.5C 157.333,70.8333 157.667,71.1667 158,71.5C 163.133,70.466 167.633,68.2994 171.5,65C 175.334,65.063 178.667,64.2297 181.5,62.5C 186.006,62.2123 190.006,60.7123 193.5,58C 198.163,57.0541 202.83,56.2208 207.5,55.5C 207.917,56.1239 208.584,56.4573 209.5,56.5C 232.167,52.5 254.833,52.5 277.5,56.5C 282.209,55.4648 286.709,56.1315 291,58.5C 291.333,58.1667 291.667,57.8333 292,57.5C 293.579,59.0412 295.413,60.2078 297.5,61C 300.489,61.3304 303.322,62.1638 306,63.5C 306.765,63.4301 307.265,63.0967 307.5,62.5 Z M 270.5,75.5 C 271.919,76.4511 273.585,76.7845 275.5,76.5C 279.719,76.0893 284.052,76.5893 288.5,78C 293.452,80.8849 299.118,83.0516 305.5,84.5C 305.833,85.8333 306.167,85.8333 306.5,84.5C 311.584,85.5984 316.251,87.5984 320.5,90.5C 320.842,91.3382 321.508,91.6716 322.5,91.5C 322.833,92.8333 323.167,92.8333 323.5,91.5C 324.492,91.3284 325.158,91.6618 325.5,92.5C 328.861,94.5113 332.194,96.5113 335.5,98.5C 337.264,99.9021 339.264,100.735 341.5,101C 343.362,102.366 345.028,103.866 346.5,105.5C 351.428,109.724 356.762,113.724 362.5,117.5C 363.5,119.167 364.833,120.5 366.5,121.5C 370.5,124.833 374.167,128.5 377.5,132.5C 379.481,134.303 381.648,135.97 384,137.5C 384.492,140.639 385.825,143.306 388,145.5C 388.667,146.833 389.333,146.833 390,145.5C 390.465,146.931 391.299,148.097 392.5,149C 392.167,149.333 391.833,149.667 391.5,150C 393.037,151.11 393.703,152.61 393.5,154.5C 395.592,154.561 397.092,155.561 398,157.5C 403.226,165.286 407.393,173.619 410.5,182.5C 410.328,183.492 410.662,184.158 411.5,184.5C 414.378,190.611 416.378,196.277 417.5,201.5C 417.263,202.791 417.596,203.791 418.5,204.5C 420.518,208.408 421.851,212.574 422.5,217C 422.167,217.333 421.833,217.667 421.5,218C 424.044,219.563 424.044,221.063 421.5,222.5C 421.846,223.696 422.346,223.696 423,222.5C 423.464,223.094 423.631,223.761 423.5,224.5C 422.167,225.833 422.167,227.167 423.5,228.5C 423.205,230.735 423.539,232.735 424.5,234.5C 425.802,248.501 425.802,262.501 424.5,276.5C 423.532,278.607 423.198,280.941 423.5,283.5C 422.167,284.833 422.167,286.167 423.5,287.5C 423.423,288.75 422.756,289.583 421.5,290C 422.308,290.308 422.975,290.808 423.5,291.5C 422.329,297.056 420.662,302.389 418.5,307.5C 417.596,308.209 417.263,309.209 417.5,310.5C 416.662,310.842 416.328,311.508 416.5,312.5C 415.751,313.531 415.085,314.698 414.5,316C 415.167,316.333 415.833,316.667 416.5,317C 414.893,320.489 413.227,323.989 411.5,327.5C 409.85,333.35 407.517,338.684 404.5,343.5C 404.167,342.167 403.833,342.167 403.5,343.5C 401.566,345.76 399.899,348.26 398.5,351C 398.833,351.333 399.167,351.667 399.5,352C 398.54,353.419 397.707,354.919 397,356.5C 396.333,355.167 395.667,355.167 395,356.5C 393.384,358.713 392.217,361.047 391.5,363.5C 389.876,366.79 387.543,369.457 384.5,371.5C 383.167,371.833 383.167,372.167 384.5,372.5C 378.895,377.603 373.395,382.936 368,388.5C 367.517,389.448 367.351,390.448 367.5,391.5C 363.81,391.907 361.143,394.074 359.5,398C 356.224,398.484 353.224,400.151 350.5,403C 351.598,403.77 351.598,404.603 350.5,405.5C 345.273,406.447 340.94,408.947 337.5,413C 335.919,413.707 334.419,414.54 333,415.5C 332.667,415.167 332.333,414.833 332,414.5C 329.833,415.488 328,416.821 326.5,418.5C 323.053,420.892 319.72,422.559 316.5,423.5C 316.167,422.167 315.833,422.167 315.5,423.5C 314.508,423.328 313.842,423.662 313.5,424.5C 308.573,426.801 303.573,428.801 298.5,430.5C 297.791,431.404 296.791,431.737 295.5,431.5C 294.5,430.167 293.5,430.167 292.5,431.5C 285.913,432.646 279.579,434.48 273.5,437C 253.169,440.31 232.836,440.31 212.5,437C 209.542,436.771 207.042,435.604 205,433.5C 202.448,433.131 199.781,433.131 197,433.5C 196.29,432.027 195.124,431.36 193.5,431.5C 192.833,430.167 192.167,430.167 191.5,431.5C 190.209,431.737 189.209,431.404 188.5,430.5C 183.142,429.319 178.142,427.319 173.5,424.5C 172.249,422.78 170.749,422.447 169,423.5C 164.819,421.987 161.152,419.654 158,416.5C 157.667,416.833 157.333,417.167 157,417.5C 156.424,414.876 155.09,414.209 153,415.5C 151.008,414.335 149.175,413.002 147.5,411.5C 141.439,408.443 135.606,404.11 130,398.5C 129.667,398.833 129.333,399.167 129,399.5C 125.697,397.405 123.197,394.572 121.5,391C 120.563,390.308 119.897,390.475 119.5,391.5C 117.495,390.746 116.828,389.579 117.5,388C 116.174,385.842 114.507,384.008 112.5,382.5C 111.893,382.624 111.56,382.957 111.5,383.5C 110.207,382.158 109.374,380.491 109,378.5C 107.829,377.107 106.329,376.273 104.5,376C 103.21,373.708 101.543,371.708 99.5,370C 99.8333,369.667 100.167,369.333 100.5,369C 99.3636,367.855 98.3636,366.688 97.5,365.5C 95.8333,363.5 94.1667,361.5 92.5,359.5C 93.547,358.922 93.3803,358.256 92,357.5C 91.6012,357.728 91.4346,358.062 91.5,358.5C 91.0573,355.389 89.224,352.723 86,350.5C 85.2086,349.255 84.7086,347.922 84.5,346.5C 85.8333,346.167 85.8333,345.833 84.5,345.5C 82.2221,340.897 79.5554,336.564 76.5,332.5C 76.8333,331.833 77.1667,331.167 77.5,330.5C 76.5912,326.625 74.5912,323.125 71.5,320C 71.8333,319.667 72.1667,319.333 72.5,319C 69.527,317.776 68.8603,315.776 70.5,313C 68.6652,312.072 68.3318,310.906 69.5,309.5C 68.1103,307.831 67.7769,306.164 68.5,304.5C 67.2341,300.535 66.0674,296.535 65,292.5C 64.6667,293.5 64.3333,294.5 64,295.5C 63.4242,293.623 63.5909,291.789 64.5,290C 62.5488,283.15 61.2154,276.317 60.5,269.5C 61.8333,260.5 61.8333,251.5 60.5,242.5C 62.1618,239.905 62.4952,237.239 61.5,234.5C 61.9338,230.006 62.9338,225.673 64.5,221.5C 63.5153,219.902 63.3486,218.235 64,216.5C 65.0432,220.226 65.5432,219.893 65.5,215.5C 67.3231,210.454 68.9898,205.287 70.5,200C 69.1012,196.196 70.1012,193.196 73.5,191C 73.1667,190.667 72.8333,190.333 72.5,190C 74.6751,187.518 76.3418,184.685 77.5,181.5C 77.1667,180.833 76.8333,180.167 76.5,179.5C 81.0623,170.517 86.0623,162.183 91.5,154.5C 92.8333,154.167 92.8333,153.833 91.5,153.5C 97.2801,148.188 101.613,142.855 104.5,137.5C 105.167,137.5 105.5,137.167 105.5,136.5C 111.825,129.926 117.825,123.592 123.5,117.5C 123.833,118.833 124.167,118.833 124.5,117.5C 126.627,115.467 128.961,113.634 131.5,112C 131.167,111.667 130.833,111.333 130.5,111C 132.65,109.589 134.984,108.755 137.5,108.5C 137.413,105.402 137.913,105.068 139,107.5C 141.703,104.462 144.703,101.795 148,99.5C 149.857,100.167 151.357,99.4999 152.5,97.5C 155.498,95.3554 158.665,93.3554 162,91.5C 162.977,92.7736 163.811,92.7736 164.5,91.5C 169.281,88.725 174.281,86.3917 179.5,84.5C 185.769,83.9051 191.769,81.7384 197.5,78C 221.46,74.6082 245.793,73.7748 270.5,75.5 Z"/></g>
<g><path style="opacity:0.004" fill="#fefffe" d="M 182.5,60.5 C 183.833,61.1667 183.833,61.1667 182.5,60.5 Z"/></g>
<g><path style="opacity:0.004" fill="#7070ff" d="M 181.5,62.5 C 180.833,61.1667 180.833,61.1667 181.5,62.5 Z"/></g>
<g><path style="opacity:0.004" fill="#dcd7ff" d="M 307.5,62.5 C 306.761,62.631 306.094,62.4643 305.5,62C 306.437,61.3083 307.103,61.475 307.5,62.5 Z"/></g>
<g><path style="opacity:0.995" fill="#9f6fc2" d="M 254.5,89.5 C 259.979,92.4149 265.312,94.9149 270.5,97C 271.071,98.2051 271.738,99.3717 272.5,100.5C 277.171,101.838 280.171,104.838 281.5,109.5C 284.212,110.212 285.879,111.879 286.5,114.5C 288.115,117.292 290.115,120.292 292.5,123.5C 295.072,127.639 297.405,131.973 299.5,136.5C 302.197,139.685 303.53,143.185 303.5,147C 304.406,149.447 305.239,151.947 306,154.5C 308.087,155.834 309.587,157.667 310.5,160C 309.624,161.585 308.291,162.585 306.5,163C 300.6,163.21 294.934,164.044 289.5,165.5C 287.815,167.057 285.148,167.89 281.5,168C 275.76,168.981 270.094,169.147 264.5,168.5C 262.372,167.371 260.039,167.204 257.5,168C 258.737,168.232 259.737,168.732 260.5,169.5C 257.482,169.665 254.482,169.498 251.5,169C 250.944,168.617 250.611,168.117 250.5,167.5C 251.171,141.764 251.838,115.931 252.5,90C 252.167,89.6667 251.833,89.3333 251.5,89C 252.749,88.2599 253.749,88.4265 254.5,89.5 Z"/></g>
<g><path style="opacity:0.749" fill="#c4a3dc" d="M 221.5,168.5 C 221.938,168.565 222.272,168.399 222.5,168C 221.833,167.667 221.167,167.333 220.5,167C 224.821,166.501 229.154,166.334 233.5,166.5C 233.833,141.824 233.5,117.158 232.5,92.5C 230.167,93.1667 227.833,93.8333 225.5,94.5C 224.702,94.0431 224.369,93.3764 224.5,92.5C 226.757,92.0383 228.757,91.0383 230.5,89.5C 231.803,90.7178 232.803,90.3845 233.5,88.5C 234.799,89.09 235.632,90.09 236,91.5C 236.806,117.53 236.639,143.53 235.5,169.5C 230.637,169.819 225.97,169.486 221.5,168.5 Z"/></g>
<g><path style="opacity:0.999" fill="#9f6fc1" d="M 224.5,92.5 C 224.369,93.3764 224.702,94.0431 225.5,94.5C 227.833,93.8333 230.167,93.1667 232.5,92.5C 233.5,117.158 233.833,141.824 233.5,166.5C 229.154,166.334 224.821,166.501 220.5,167C 221.167,167.333 221.833,167.667 222.5,168C 222.272,168.399 221.938,168.565 221.5,168.5C 216.577,169.128 211.577,168.961 206.5,168C 206,167.5 205.5,167 205,166.5C 203.274,167.576 201.441,167.743 199.5,167C 200.696,166.346 200.696,165.846 199.5,165.5C 198.232,166.428 196.899,166.595 195.5,166C 196.167,165.667 196.833,165.333 197.5,165C 191.947,164.197 186.447,163.364 181,162.5C 180.667,162.833 180.333,163.167 180,163.5C 178.284,160.012 178.451,156.512 180.5,153C 179.366,151.984 179.699,151.317 181.5,151C 180.447,149.251 180.78,147.751 182.5,146.5C 182.328,145.508 182.662,144.842 183.5,144.5C 185.281,141.777 186.948,138.943 188.5,136C 186.014,135.295 186.014,134.462 188.5,133.5C 188.328,132.508 188.662,131.842 189.5,131.5C 191.833,128.167 194.167,124.833 196.5,121.5C 195.475,121.103 195.308,120.437 196,119.5C 198.705,116.964 201.205,114.297 203.5,111.5C 204.833,111.167 204.833,110.833 203.5,110.5C 205.382,107.377 207.715,104.711 210.5,102.5C 211.327,103.439 211.994,103.105 212.5,101.5C 214.833,99.5 217.167,97.5 219.5,95.5C 220.078,96.547 220.744,96.3803 221.5,95C 221.272,94.6012 220.938,94.4346 220.5,94.5C 221.189,93.2264 222.023,93.2264 223,94.5C 223.278,93.5842 223.778,92.9175 224.5,92.5 Z"/></g>
<g><path style="opacity:0.998" fill="#a375c4" d="M 193.5,99.5 C 191.895,100.006 191.561,100.673 192.5,101.5C 189.286,104.354 186.952,107.687 185.5,111.5C 182.752,114.575 180.419,117.908 178.5,121.5C 177.167,121.833 177.167,122.167 178.5,122.5C 178.672,123.492 178.338,124.158 177.5,124.5C 176.245,127.584 174.412,130.251 172,132.5C 170.981,134.269 170.814,135.936 171.5,137.5C 170.004,141.353 168.338,145.019 166.5,148.5C 163.724,150.439 163.057,152.939 164.5,156C 163.142,156.934 161.808,157.768 160.5,158.5C 155.924,156.351 151.257,155.185 146.5,155C 143.826,154.33 141.493,153.163 139.5,151.5C 134.335,149.021 129.335,147.021 124.5,145.5C 123.807,144.04 122.141,142.873 119.5,142C 121.002,141.417 122.335,140.584 123.5,139.5C 125.037,134.464 128.37,131.297 133.5,130C 132.939,128.434 133.606,127.101 135.5,126C 137.949,125.275 140.283,124.275 142.5,123C 141.939,121.434 142.606,120.101 144.5,119C 146.604,116.762 148.938,115.762 151.5,116C 153.234,113.3 155.568,111.3 158.5,110C 159.449,109.383 160.282,109.549 161,110.5C 165.47,106.852 170.304,103.852 175.5,101.5C 176.167,102.833 176.833,102.833 177.5,101.5C 182.368,99.235 187.368,97.235 192.5,95.5C 193.743,94.2625 194.743,94.5959 195.5,96.5C 194.807,97.5178 194.141,98.5178 193.5,99.5 Z"/></g>
<g><path style="opacity:0.998" fill="#a475c5" d="M 294.5,95.5 C 299.5,97.5 304.5,99.5 309.5,101.5C 309.842,102.338 310.508,102.672 311.5,102.5C 311.897,101.475 312.563,101.308 313.5,102C 317.94,104.283 321.94,107.116 325.5,110.5C 326.107,110.376 326.44,110.043 326.5,109.5C 330.516,110.735 333.183,112.902 334.5,116C 338.53,116.339 341.53,118.173 343.5,121.5C 346.319,124.075 349.319,126.408 352.5,128.5C 351.453,129.078 351.62,129.744 353,130.5C 353.399,130.272 353.565,129.938 353.5,129.5C 355.525,131.196 357.525,132.863 359.5,134.5C 362.579,136.575 364.912,139.242 366.5,142.5C 364.519,144.303 362.352,145.97 360,147.5C 359.586,147.043 359.086,146.709 358.5,146.5C 352.902,149.883 347.068,152.883 341,155.5C 340.667,155.167 340.333,154.833 340,154.5C 334.399,155.689 329.232,157.022 324.5,158.5C 321.232,155.285 319.732,151.285 320,146.5C 319.634,144.548 318.801,142.882 317.5,141.5C 314.08,136.419 311.913,130.753 311,124.5C 310.333,125.833 309.667,125.833 309,124.5C 306.224,120.201 304.224,115.867 303,111.5C 302.667,111.833 302.333,112.167 302,112.5C 300.907,110.651 299.574,108.984 298,107.5C 297.383,106.551 297.549,105.718 298.5,105C 295.833,102.667 293.167,100.333 290.5,98C 291.252,97.3292 291.586,96.4959 291.5,95.5C 292.652,94.375 293.652,94.375 294.5,95.5 Z"/></g>
<g><path style="opacity:0.005" fill="#fbf9fd" d="M 388.5,114.5 C 386.833,113.5 385.5,112.167 384.5,110.5C 384.435,110.062 384.601,109.728 385,109.5C 386.5,111 388,112.5 389.5,114C 389.272,114.399 388.938,114.565 388.5,114.5 Z"/></g>
<g><path style="opacity:0.412" fill="#bf9dd7" d="M 88.5,124.5 C 89.5735,125.251 89.7401,126.251 89,127.5C 81.4638,136.172 74.6305,145.172 68.5,154.5C 70.1134,147.488 73.7801,141.321 79.5,136C 79.1667,135.667 78.8333,135.333 78.5,135C 79.8513,133.383 81.518,132.216 83.5,131.5C 85.9504,129.16 87.617,126.826 88.5,124.5 Z"/></g>
<g><path style="opacity:0.004" fill="#fe00ff" d="M 413.5,144.5 C 414.833,145.167 414.833,145.167 413.5,144.5 Z"/></g>
<g><path style="opacity:0.004" fill="#fefffe" d="M 421.5,156.5 C 422.833,157.167 422.833,157.167 421.5,156.5 Z"/></g>
<g><path style="opacity:0.997" fill="#9f6fc2" d="M 145.5,169.5 C 149.014,170.598 152.681,171.598 156.5,172.5C 156.977,173.478 157.643,174.311 158.5,175C 157.026,177.99 156.026,181.157 155.5,184.5C 156.668,185.906 156.335,187.072 154.5,188C 155.727,189.587 155.394,190.921 153.5,192C 154.308,192.308 154.975,192.808 155.5,193.5C 155.167,196.345 154.167,198.845 152.5,201C 153.801,202.616 153.801,204.116 152.5,205.5C 152.802,208.059 152.468,210.393 151.5,212.5C 149.468,224.225 148.134,235.892 147.5,247.5C 123.759,247.823 100.092,247.489 76.5,246.5C 76.7929,241.222 76.7929,236.056 76.5,231C 77.3365,228.295 78.3365,225.629 79.5,223C 78.8333,222.333 78.1667,221.667 77.5,221C 78.4371,218.051 79.4371,215.217 80.5,212.5C 80.2627,211.209 80.596,210.209 81.5,209.5C 81.81,210.738 82.31,210.738 83,209.5C 83.6917,208.563 83.525,207.897 82.5,207.5C 84.8693,203.453 85.8693,199.286 85.5,195C 86.3994,193.348 87.3994,191.848 88.5,190.5C 90.6777,186.805 92.6777,182.972 94.5,179C 93.3659,177.984 93.6992,177.317 95.5,177C 95.6645,173.913 97.3311,171.413 100.5,169.5C 101.616,163.646 104.949,158.98 110.5,155.5C 112.548,156.77 114.548,157.103 116.5,156.5C 120.348,157.921 123.682,160.088 126.5,163C 128.218,163.346 129.885,163.846 131.5,164.5C 133.061,163.653 134.561,163.986 136,165.5C 136.333,165.167 136.667,164.833 137,164.5C 140.774,165.786 143.607,167.453 145.5,169.5 Z"/></g>
<g><path style="opacity:0.997" fill="#9f6fc1" d="M 379.5,157.5 C 378.453,158.078 378.62,158.744 380,159.5C 380.399,159.272 380.565,158.938 380.5,158.5C 381.73,161.859 383.73,165.192 386.5,168.5C 387.5,168.833 388.167,169.5 388.5,170.5C 390.274,173.755 391.94,177.089 393.5,180.5C 396.345,183.55 397.679,187.05 397.5,191C 398.167,191.333 398.833,191.667 399.5,192C 398.536,194.647 399.036,197.147 401,199.5C 401.333,199.167 401.667,198.833 402,198.5C 403.167,202 404.333,205.5 405.5,209C 405.355,209.772 405.022,210.439 404.5,211C 406.658,211.959 406.991,213.459 405.5,215.5C 406.467,222.152 408.301,228.485 411,234.5C 411.814,239.02 411.647,243.354 410.5,247.5C 386.5,247.5 362.5,247.5 338.5,247.5C 337.662,247.158 337.328,246.492 337.5,245.5C 338.5,230.12 337.167,214.787 333.5,199.5C 334.855,198.325 334.688,197.325 333,196.5C 331.846,192.553 331.013,188.553 330.5,184.5C 329.694,183.003 329.028,181.336 328.5,179.5C 330.802,178.001 330.469,176.668 327.5,175.5C 328.04,174.252 328.707,173.085 329.5,172C 333.098,171.519 337.098,170.852 341.5,170C 342.667,169.5 343.5,168.667 344,167.5C 344.333,167.833 344.667,168.167 345,168.5C 345.308,167.692 345.808,167.025 346.5,166.5C 349.28,165.805 351.947,164.805 354.5,163.5C 358.521,163.998 361.854,162.498 364.5,159C 367.4,157.648 370.066,156.815 372.5,156.5C 375.172,154.956 377.505,155.289 379.5,157.5 Z"/></g>
<g><path style="opacity:0.004" fill="#fefffe" d="M 62.5,162.5 C 61.8333,163.167 61.8333,163.167 62.5,162.5 Z"/></g>
<g><path style="opacity:0.015" fill="#fdfafe" d="M 264.5,168.5 C 263.432,169.434 262.099,169.768 260.5,169.5C 259.737,168.732 258.737,168.232 257.5,168C 260.039,167.204 262.372,167.371 264.5,168.5 Z"/></g>
<g><path style="opacity:0.996" fill="#9e6ec1" d="M 318.5,194.5 C 318.833,197.833 319.167,201.167 319.5,204.5C 321.482,217.764 322.815,231.097 323.5,244.5C 322.596,245.209 322.263,246.209 322.5,247.5C 298.833,247.5 275.167,247.5 251.5,247.5C 251.5,226.5 251.5,205.5 251.5,184.5C 254.598,184.587 254.932,184.087 252.5,183C 256.821,182.501 261.154,182.334 265.5,182.5C 268.625,181.521 271.958,181.187 275.5,181.5C 278.5,180.167 281.5,180.167 284.5,181.5C 286.357,178.982 288.19,178.982 290,181.5C 291.888,178.727 293.888,178.394 296,180.5C 297.555,178.854 299.221,178.521 301,179.5C 304.598,178.912 308.098,177.912 311.5,176.5C 313.156,178.46 314.823,180.46 316.5,182.5C 315.332,183.906 315.665,185.072 317.5,186C 317.167,186.333 316.833,186.667 316.5,187C 317.554,189.382 318.221,191.882 318.5,194.5 Z"/></g>
<g><path style="opacity:0.996" fill="#9e6ec1" d="M 211.5,181.5 C 217.181,181.635 222.848,181.968 228.5,182.5C 228.414,183.496 228.748,184.329 229.5,185C 231.134,185.494 232.801,185.66 234.5,185.5C 234.5,205.833 234.5,226.167 234.5,246.5C 211.5,246.5 188.5,246.5 165.5,246.5C 165.843,244.517 165.176,243.183 163.5,242.5C 164.194,237.079 164.194,231.079 163.5,224.5C 163.709,223.006 164.376,221.839 165.5,221C 164.727,217.599 164.393,214.266 164.5,211C 164.767,207.968 165.767,205.301 167.5,203C 166.199,201.384 166.199,199.884 167.5,198.5C 167.343,197.127 167.51,195.793 168,194.5C 168.654,195.696 169.154,195.696 169.5,194.5C 169.167,193.833 168.833,193.167 168.5,192.5C 168.846,191.304 169.346,191.304 170,192.5C 170.374,188.204 171.207,184.037 172.5,180C 171.655,178.442 172.321,177.442 174.5,177C 180.307,177.997 186.14,179.164 192,180.5C 193.929,178.316 195.763,178.65 197.5,181.5C 198.328,180.585 199.328,179.919 200.5,179.5C 204.331,180.027 207.998,180.694 211.5,181.5 Z"/></g>
<g><path style="opacity:0.486" fill="#caaae1" d="M 228.5,182.5 C 230.527,182.338 232.527,182.505 234.5,183C 233.833,183.333 233.167,183.667 232.5,184C 233.766,184.309 234.933,184.809 236,185.5C 236.667,205.833 236.667,226.167 236,246.5C 235.722,247.416 235.222,248.082 234.5,248.5C 210.931,247.824 187.264,247.157 163.5,246.5C 163.5,245.167 163.5,243.833 163.5,242.5C 165.176,243.183 165.843,244.517 165.5,246.5C 188.5,246.5 211.5,246.5 234.5,246.5C 234.5,226.167 234.5,205.833 234.5,185.5C 232.801,185.66 231.134,185.494 229.5,185C 228.748,184.329 228.414,183.496 228.5,182.5 Z"/></g>
<g><path style="opacity:0.043" fill="#f0e0fe" d="M 76.5,246.5 C 100.092,247.489 123.759,247.823 147.5,247.5C 147.389,248.117 147.056,248.617 146.5,249C 123.5,249.667 100.5,249.667 77.5,249C 76.7476,248.329 76.4142,247.496 76.5,246.5 Z"/></g>
<g><path style="opacity:0.043" fill="#f0e1fe" d="M 163.5,246.5 C 187.264,247.157 210.931,247.824 234.5,248.5C 211.337,249.663 188.004,249.83 164.5,249C 163.748,248.329 163.414,247.496 163.5,246.5 Z"/></g>
<g><path style="opacity:0.043" fill="#f1e2fe" d="M 323.5,244.5 C 324.935,246.665 324.269,248.165 321.5,249C 298.5,249.667 275.5,249.667 252.5,249C 251.944,248.617 251.611,248.117 251.5,247.5C 275.167,247.5 298.833,247.5 322.5,247.5C 322.263,246.209 322.596,245.209 323.5,244.5 Z"/></g>
<g><path style="opacity:0.004" fill="#f7efff" d="M 338.5,247.5 C 362.5,247.5 386.5,247.5 410.5,247.5C 410.389,248.117 410.056,248.617 409.5,249C 386.167,249.667 362.833,249.667 339.5,249C 338.944,248.617 338.611,248.117 338.5,247.5 Z"/></g>
<g><path style="opacity:0.004" fill="#ff89ff" d="M 40.5,253.5 C 40.5,255.167 40.5,256.833 40.5,258.5C 39.3509,258.209 38.6842,257.376 38.5,256C 38.6842,254.624 39.3509,253.791 40.5,253.5 Z"/></g>
<g><path style="opacity:0.18" fill="#d0b4e6" d="M 229.5,328.5 C 230.635,326.787 232.302,326.12 234.5,326.5C 234.5,306.167 234.5,285.833 234.5,265.5C 211.5,265.5 188.5,265.5 165.5,265.5C 165.785,267.288 165.452,268.955 164.5,270.5C 163.817,270.137 163.15,269.804 162.5,269.5C 163.301,267.958 163.634,266.292 163.5,264.5C 187.833,264.5 212.167,264.5 236.5,264.5C 236.667,285.169 236.5,305.836 236,326.5C 235.692,327.308 235.192,327.975 234.5,328.5C 232.997,327.948 231.331,327.948 229.5,328.5 Z"/></g>
<g><path style="opacity:0.49" fill="#c29fdd" d="M 251.5,265.5 C 275.661,264.502 299.994,264.169 324.5,264.5C 324.737,265.791 324.404,266.791 323.5,267.5C 299.729,265.525 275.729,264.859 251.5,265.5 Z"/></g>
<g><path style="opacity:0.998" fill="#9f6fc2" d="M 151.5,300.5 C 153.16,303.77 153.494,307.103 152.5,310.5C 153.391,311.261 154.058,312.261 154.5,313.5C 155.608,316.835 155.608,320.335 154.5,324C 156.335,324.928 156.668,326.094 155.5,327.5C 155.975,330.722 156.975,333.722 158.5,336.5C 157.619,337.971 156.286,338.804 154.5,339C 155.167,339.333 155.833,339.667 156.5,340C 154.044,341.619 151.544,342.119 149,341.5C 148.667,342.167 148.333,342.833 148,343.5C 143.936,342.486 139.936,343.486 136,346.5C 135.586,346.043 135.086,345.709 134.5,345.5C 134.762,347.132 133.762,348.299 131.5,349C 126.61,349.905 121.943,351.405 117.5,353.5C 116.167,353.833 116.167,354.167 117.5,354.5C 115.34,355.734 113.173,357.067 111,358.5C 109.028,354.895 106.361,351.895 103,349.5C 104.008,347.634 103.508,346.301 101.5,345.5C 100.752,343.668 99.7515,342.001 98.5,340.5C 99.0431,340.44 99.3764,340.107 99.5,339.5C 98.5243,336.501 96.8577,334.168 94.5,332.5C 93.0748,329.312 91.4081,326.312 89.5,323.5C 88.6618,323.158 88.3284,322.492 88.5,321.5C 87.5795,316.241 85.5795,311.075 82.5,306C 83.8331,304.16 83.6665,303.66 82,304.5C 81.5357,303.906 81.369,303.239 81.5,302.5C 78.4223,296.435 77.4223,290.268 78.5,284C 77.8333,283 77.1667,282 76.5,281C 76.7686,275.611 76.7686,270.111 76.5,264.5C 100.5,264.5 124.5,264.5 148.5,264.5C 148.193,276.625 149.193,288.625 151.5,300.5 Z"/></g>
<g><path style="opacity:0.998" fill="#9e6ec1" d="M 229.5,328.5 C 221.734,328.131 214.067,328.798 206.5,330.5C 204.879,329.295 203.546,329.461 202.5,331C 198.855,331.719 195.188,332.219 191.5,332.5C 189.735,333.461 187.735,333.795 185.5,333.5C 182.911,335.157 180.244,335.491 177.5,334.5C 175.202,336.86 173.202,336.36 171.5,333C 172.727,331.413 172.394,330.079 170.5,329C 170.957,328.586 171.291,328.086 171.5,327.5C 170.911,324.36 170.244,321.36 169.5,318.5C 169.167,315.833 168.833,315.833 168.5,318.5C 167.245,314.522 166.245,310.355 165.5,306C 166.229,304.013 165.896,302.013 164.5,300C 164.034,293.802 164.034,287.468 164.5,281C 163.134,277.306 162.468,273.472 162.5,269.5C 163.15,269.804 163.817,270.137 164.5,270.5C 165.452,268.955 165.785,267.288 165.5,265.5C 188.5,265.5 211.5,265.5 234.5,265.5C 234.5,285.833 234.5,306.167 234.5,326.5C 232.302,326.12 230.635,326.787 229.5,328.5 Z"/></g>
<g><path style="opacity:0.997" fill="#9e6ec1" d="M 251.5,265.5 C 275.729,264.859 299.729,265.525 323.5,267.5C 323.5,270.833 323.5,274.167 323.5,277.5C 322.053,278.134 321.387,279.301 321.5,281C 321.528,282.07 321.861,282.903 322.5,283.5C 321.107,292.139 319.774,300.806 318.5,309.5C 318.726,311.189 319.059,312.855 319.5,314.5C 319.182,315.647 318.516,316.481 317.5,317C 318.205,321.191 317.705,325.357 316,329.5C 314.113,331.026 313.113,333.026 313,335.5C 312.667,335.167 312.333,334.833 312,334.5C 311,337.167 310,337.167 309,334.5C 306.856,335.844 305.023,335.51 303.5,333.5C 302.167,334.833 300.833,334.833 299.5,333.5C 297.585,333.784 295.919,333.451 294.5,332.5C 287.434,331.787 280.434,330.621 273.5,329C 266.133,328.727 258.8,328.227 251.5,327.5C 251.5,306.833 251.5,286.167 251.5,265.5 Z"/></g>
<g><path style="opacity:0.999" fill="#9f6fc1" d="M 405.5,301.5 C 404.294,307.419 402.127,312.419 399,316.5C 398.853,319.571 398.02,322.404 396.5,325C 396.833,325.333 397.167,325.667 397.5,326C 396.303,328.015 394.97,329.849 393.5,331.5C 391.496,335.192 389.496,338.859 387.5,342.5C 385.837,345.561 383.504,348.561 380.5,351.5C 378.871,352.625 377.371,353.959 376,355.5C 372.901,353.874 369.734,352.541 366.5,351.5C 363.728,351.78 361.228,351.113 359,349.5C 358.667,349.833 358.333,350.167 358,350.5C 355.486,348.996 352.986,347.662 350.5,346.5C 346.496,343.684 342.496,342.684 338.5,343.5C 337.803,341.615 336.803,341.282 335.5,342.5C 333.974,342.006 332.641,341.339 331.5,340.5C 332.833,340.167 332.833,339.833 331.5,339.5C 329.097,338.909 327.764,337.742 327.5,336C 328.308,335.692 328.975,335.192 329.5,334.5C 328.295,333.005 328.295,331.672 329.5,330.5C 331.14,322.805 332.973,315.138 335,307.5C 336,299.5 337,291.5 338,283.5C 338.411,277.131 338.578,270.964 338.5,265C 362.831,264.5 387.164,264.333 411.5,264.5C 411.739,270.565 411.239,276.565 410,282.5C 409.333,283.167 408.667,283.833 408,284.5C 406.519,290.334 405.686,296.001 405.5,301.5 Z"/></g>
<g><path style="opacity:0.027" fill="#fefbff" d="M 323.5,277.5 C 323.167,279.5 322.833,281.5 322.5,283.5C 321.861,282.903 321.528,282.07 321.5,281C 321.387,279.301 322.053,278.134 323.5,277.5 Z"/></g>
<g><path style="opacity:0.008" fill="#9d9ce8" d="M 47.5,312.5 C 47.8333,312.5 48.1667,312.5 48.5,312.5C 48.5,313.167 48.5,313.833 48.5,314.5C 47.6618,314.158 47.3284,313.492 47.5,312.5 Z"/></g>
<g><path style="opacity:0.004" fill="#fefffe" d="M 53.5,331.5 C 54.8333,332.167 54.8333,332.167 53.5,331.5 Z"/></g>
<g><path style="opacity:0.004" fill="#9a9aff" d="M 55.5,334.5 C 54.8333,333.167 54.8333,333.167 55.5,334.5 Z"/></g>
<g><path style="opacity:0.067" fill="#d6bce4" d="M 94.5,332.5 C 96.8577,334.168 98.5243,336.501 99.5,339.5C 99.3764,340.107 99.0431,340.44 98.5,340.5C 97.5116,339.205 96.5116,337.872 95.5,336.5C 94.6618,336.158 94.3284,335.492 94.5,334.5C 93.1667,333.833 93.1667,333.167 94.5,332.5 Z"/></g>
<g><path style="opacity:0.004" fill="#3d3e3d" d="M 428.5,339.5 C 429.833,340.167 429.833,340.167 428.5,339.5 Z"/></g>
<g><path style="opacity:0.998" fill="#a374c4" d="M 226.5,420.5 C 225.508,420.672 224.842,420.338 224.5,419.5C 221.25,417.757 218.416,415.423 216,412.5C 212.711,412.915 210.711,411.248 210,407.5C 207.532,406.896 205.532,405.562 204,403.5C 204.177,400.273 202.51,397.94 199,396.5C 198.535,395.069 197.701,393.903 196.5,393C 196.833,392.667 197.167,392.333 197.5,392C 194.207,387.363 190.874,382.696 187.5,378C 188.634,376.984 188.301,376.317 186.5,376C 186.957,375.586 187.291,375.086 187.5,374.5C 186.063,371.284 184.396,368.284 182.5,365.5C 181.442,364.4 180.608,363.066 180,361.5C 179.766,357.686 178.932,354.019 177.5,350.5C 179.073,349.34 180.739,348.34 182.5,347.5C 188.96,346.245 195.46,345.245 202,344.5C 213.391,344.635 224.724,344.635 236,344.5C 236.667,370.167 236.667,395.833 236,421.5C 235.439,422.022 234.772,422.355 234,422.5C 231.233,421.385 228.733,420.719 226.5,420.5 Z"/></g>
<g><path style="opacity:0.996" fill="#9f70c2" d="M 306.5,357.5 C 305.312,363.886 302.979,369.886 299.5,375.5C 297.761,378.331 296.094,381.164 294.5,384C 294.833,384.333 295.167,384.667 295.5,385C 292.285,388.709 289.285,392.542 286.5,396.5C 285.167,396.833 285.167,397.167 286.5,397.5C 283.746,400.578 281.079,403.578 278.5,406.5C 276.5,409.167 274.167,411.5 271.5,413.5C 271.167,412.167 270.833,412.167 270.5,413.5C 267.425,416.248 264.092,418.581 260.5,420.5C 260.167,419.167 259.833,419.167 259.5,420.5C 258.508,420.328 257.842,420.662 257.5,421.5C 255.738,421.357 254.071,421.691 252.5,422.5C 251.5,396.175 251.167,369.842 251.5,343.5C 260.009,343.988 268.509,344.655 277,345.5C 289.056,344.139 300.223,345.972 310.5,351C 309.781,353.617 308.447,355.784 306.5,357.5 Z"/></g>
<g><path style="opacity:0.02" fill="#d2b0e3" d="M 366.5,351.5 C 369.734,352.541 372.901,353.874 376,355.5C 377.371,353.959 378.871,352.625 380.5,351.5C 380.611,352.117 380.944,352.617 381.5,353C 376.031,358.897 371.031,358.397 366.5,351.5 Z"/></g>
<g><path style="opacity:0.992" fill="#a273c3" d="M 178.5,389.5 C 177.167,389.833 177.167,390.167 178.5,390.5C 180.082,393.754 182.082,396.754 184.5,399.5C 186.109,400.665 186.443,401.999 185.5,403.5C 185.685,405.196 186.519,406.529 188,407.5C 188.798,409.259 188.631,410.926 187.5,412.5C 184.24,410.273 180.906,409.606 177.5,410.5C 167.371,406.769 157.704,401.936 148.5,396C 146.875,395.147 146.542,394.147 147.5,393C 144.102,391.643 141.102,389.81 138.5,387.5C 135.836,383.833 132.836,381.167 129.5,379.5C 126.833,377.5 124.5,375.167 122.5,372.5C 121.373,371.878 120.373,371.045 119.5,370C 122.121,367.799 124.954,365.965 128,364.5C 128.977,365.774 129.811,365.774 130.5,364.5C 131.316,362.856 132.65,361.69 134.5,361C 139.368,360.116 144.034,358.95 148.5,357.5C 149.5,356.833 150.5,356.167 151.5,355.5C 154.186,354.436 157.02,353.436 160,352.5C 161.261,352.759 162.261,353.426 163,354.5C 163.073,358.579 164.573,361.912 167.5,364.5C 168.274,368.049 169.607,371.382 171.5,374.5C 171.291,375.086 170.957,375.586 170.5,376C 173.819,380.143 176.486,384.643 178.5,389.5 Z"/></g>
<g><path style="opacity:0.998" fill="#a374c4" d="M 337.5,357.5 C 339.218,358.224 341.052,358.891 343,359.5C 344.147,358.542 345.147,358.875 346,360.5C 349.477,360.002 352.644,361.002 355.5,363.5C 357.866,365.146 360.866,366.646 364.5,368C 366.688,369.848 366.688,371.348 364.5,372.5C 363.673,371.561 363.006,371.895 362.5,373.5C 359.758,375.181 358.091,377.181 357.5,379.5C 353.584,381.975 350.25,385.142 347.5,389C 346.423,389.47 345.423,389.303 344.5,388.5C 340.22,391.981 335.554,394.981 330.5,397.5C 329.702,397.957 329.369,398.624 329.5,399.5C 327.063,402.654 323.897,404.987 320,406.5C 316.85,405.819 314.35,406.985 312.5,410C 309.516,411.271 306.516,412.438 303.5,413.5C 303.44,412.957 303.107,412.624 302.5,412.5C 299.374,413.931 296.207,415.264 293,416.5C 291.941,416.37 291.108,415.87 290.5,415C 292.833,412.667 295.167,410.333 297.5,408C 297.942,404.027 300.109,400.86 304,398.5C 304.986,396.222 305.82,393.889 306.5,391.5C 307.025,390.808 307.692,390.308 308.5,390C 307.434,388.841 307.767,388.008 309.5,387.5C 311.983,382.567 314.316,377.567 316.5,372.5C 316.833,373.833 317.167,373.833 317.5,372.5C 319.001,368.486 320.335,364.653 321.5,361C 321.167,360.667 320.833,360.333 320.5,360C 321.229,357.942 322.229,356.109 323.5,354.5C 323.866,353.305 324.699,352.639 326,352.5C 330.797,353.643 334.63,355.31 337.5,357.5 Z"/></g>
<g><path style="opacity:0.078" fill="#cdaadb" d="M 344.5,388.5 C 340.767,394.28 335.767,397.946 329.5,399.5C 329.369,398.624 329.702,397.957 330.5,397.5C 335.554,394.981 340.22,391.981 344.5,388.5 Z"/></g>
<g><path style="opacity:0.188" fill="#cba9dc" d="M 367.5,391.5 C 367.489,393.017 366.823,394.184 365.5,395C 360.67,398.651 355.67,402.151 350.5,405.5C 351.598,404.603 351.598,403.77 350.5,403C 353.224,400.151 356.224,398.484 359.5,398C 361.143,394.074 363.81,391.907 367.5,391.5 Z"/></g>
<g><path style="opacity:0.004" fill="#fefffe" d="M 386.5,399.5 C 386.833,399.5 387.167,399.5 387.5,399.5C 387.315,400.17 386.981,400.17 386.5,399.5 Z"/></g>
<g><path style="opacity:0.982" fill="#ba98d3" d="M 185.5,403.5 C 187.833,405.167 189.833,407.167 191.5,409.5C 194.112,411.052 195.445,413.386 195.5,416.5C 191.901,415.301 188.235,414.301 184.5,413.5C 182.016,413.541 179.682,412.541 177.5,410.5C 180.906,409.606 184.24,410.273 187.5,412.5C 188.631,410.926 188.798,409.259 188,407.5C 186.519,406.529 185.685,405.196 185.5,403.5 Z"/></g>
<g><path style="opacity:0.004" fill="#8080ff" d="M 372.5,412.5 C 372.833,412.5 373.167,412.5 373.5,412.5C 373.315,413.17 372.981,413.17 372.5,412.5 Z"/></g>
<g><path style="opacity:0.004" fill="#fefffe" d="M 371.5,413.5 C 371.833,413.5 372.167,413.5 372.5,413.5C 372.315,414.17 371.981,414.17 371.5,413.5 Z"/></g>
<g><path style="opacity:0.004" fill="#fefffe" d="M 116.5,414.5 C 115.833,415.167 115.833,415.167 116.5,414.5 Z"/></g>
<g><path style="opacity:0.004" fill="#fefffe" d="M 363.5,419.5 C 363.833,419.5 364.167,419.5 364.5,419.5C 364.315,420.17 363.981,420.17 363.5,419.5 Z"/></g>
<g><path style="opacity:0.004" fill="#fe82ff" d="M 124.5,420.5 C 123.833,421.167 123.833,421.167 124.5,420.5 Z"/></g>
<g><path style="opacity:0.004" fill="#fefffe" d="M 176.5,447.5 C 175.833,448.167 175.833,448.167 176.5,447.5 Z"/></g>
<g><path style="opacity:0.004" fill="#fefffe" d="M 310.5,447.5 C 311.833,448.167 311.833,448.167 310.5,447.5 Z"/></g>
<g><path style="opacity:0.004" fill="#5a00ff" d="M 194.5,453.5 C 195.833,454.167 195.833,454.167 194.5,453.5 Z"/></g>
<g><path style="opacity:0.004" fill="#fe00ff" d="M 291.5,453.5 C 292.833,454.167 292.833,454.167 291.5,453.5 Z"/></g>
<g><path style="opacity:0.004" fill="#fefffe" d="M 239.5,460.5 C 241.966,459.366 244.633,459.199 247.5,460C 244.854,460.497 242.187,460.664 239.5,460.5 Z"/></g>
</svg>
