<?xml version="1.0" standalone="no"?>
<!DOCTYPE svg PUBLIC "-//W3C//DTD SVG 20010904//EN"
 "http://www.w3.org/TR/2001/REC-SVG-20010904/DTD/svg10.dtd">
<svg version="1.0" xmlns="http://www.w3.org/2000/svg"
 width="4032.000000pt" height="3024.000000pt" viewBox="0 0 4032.000000 3024.000000"
 preserveAspectRatio="xMidYMid meet">

<g transform="translate(0.000000,3024.000000) scale(0.100000,-0.100000)"
fill="#000000" stroke="none">
<path d="M19286 24890 c-26 -5 -55 -12 -65 -16 -9 -3 -81 -10 -161 -15 -85 -5
-162 -14 -185 -23 -22 -8 -68 -15 -103 -16 -40 0 -88 -9 -134 -25 -39 -14 -93
-25 -119 -25 -26 0 -68 -9 -94 -20 -26 -11 -62 -20 -80 -20 -18 0 -52 -9 -76
-20 -24 -11 -59 -20 -77 -20 -18 0 -51 -9 -73 -20 -22 -12 -59 -25 -82 -30
-60 -13 -136 -38 -177 -59 -19 -10 -51 -21 -71 -25 -21 -4 -42 -13 -48 -20 -7
-8 -24 -17 -39 -20 -15 -4 -40 -13 -57 -21 -61 -28 -141 -64 -165 -74 -14 -6
-32 -15 -40 -20 -28 -16 -189 -91 -197 -91 -16 0 -371 -186 -394 -206 -8 -8
-19 -14 -22 -14 -6 0 -178 -97 -272 -153 -37 -22 -337 -222 -400 -267 -159
-113 -204 -148 -360 -278 -11 -10 -34 -26 -52 -37 -34 -22 -267 -248 -454
-443 -118 -122 -286 -321 -370 -439 -26 -35 -58 -76 -71 -91 -14 -15 -43 -53
-64 -86 -22 -32 -50 -76 -64 -96 -14 -21 -34 -53 -45 -71 -11 -18 -29 -47 -40
-65 -49 -80 -149 -242 -169 -274 -38 -62 -159 -292 -218 -415 -21 -44 -47 -97
-58 -117 -11 -20 -20 -46 -20 -56 0 -11 -7 -25 -15 -32 -8 -7 -15 -19 -15 -26
0 -8 -20 -56 -44 -107 -25 -51 -48 -106 -52 -122 -4 -17 -13 -39 -20 -50 -8
-11 -14 -29 -14 -40 0 -11 -11 -42 -24 -70 -31 -67 -57 -141 -66 -190 -4 -22
-15 -53 -24 -70 -9 -16 -16 -43 -16 -60 0 -16 -9 -49 -20 -72 -10 -23 -22 -64
-26 -90 -3 -26 -13 -61 -21 -76 -7 -15 -16 -56 -19 -90 -3 -34 -14 -86 -25
-115 -10 -29 -19 -78 -19 -108 0 -30 -9 -94 -19 -142 -47 -210 -47 -1317 -1
-1525 11 -49 20 -123 20 -166 0 -42 7 -101 16 -131 8 -30 20 -93 25 -140 6
-47 16 -98 24 -115 7 -16 16 -59 20 -95 4 -36 16 -82 26 -102 11 -21 19 -54
19 -75 0 -21 9 -58 20 -82 11 -24 20 -61 20 -82 0 -21 9 -58 19 -81 10 -24 23
-61 29 -83 6 -22 22 -71 37 -110 15 -38 33 -91 40 -116 7 -26 20 -60 29 -77 9
-17 16 -39 16 -49 0 -10 9 -33 20 -51 11 -18 20 -37 20 -43 0 -6 12 -36 26
-67 14 -31 35 -77 46 -102 12 -25 29 -64 39 -87 32 -72 62 -137 70 -153 5 -8
23 -42 39 -75 17 -32 35 -64 39 -70 5 -5 34 -59 66 -120 32 -60 73 -135 93
-165 116 -179 114 -175 160 -248 50 -80 61 -96 124 -179 35 -45 83 -110 108
-143 54 -73 134 -170 255 -311 121 -141 512 -528 605 -599 41 -32 91 -74 110
-94 19 -20 88 -75 153 -123 65 -49 146 -109 180 -136 65 -49 294 -207 301
-207 3 0 37 -22 78 -48 111 -74 273 -171 368 -220 47 -24 90 -48 95 -53 9 -7
111 -61 250 -132 22 -11 47 -24 55 -29 8 -4 22 -11 30 -14 8 -4 43 -19 77 -35
34 -16 67 -29 73 -29 7 0 24 -6 38 -13 89 -45 255 -117 270 -117 5 0 15 -7 22
-15 7 -8 25 -15 40 -15 15 0 48 -11 74 -25 26 -14 59 -25 74 -25 15 0 41 -9
57 -20 17 -11 45 -20 63 -20 18 0 49 -8 70 -19 20 -10 60 -21 89 -24 28 -3 70
-15 92 -26 22 -12 58 -21 79 -21 22 0 68 -9 102 -20 34 -11 84 -20 110 -20 26
0 67 -7 91 -15 24 -9 71 -18 104 -21 62 -5 150 -18 245 -35 84 -15 460 -33
695 -33 316 -1 800 22 860 40 28 9 102 17 170 19 87 3 137 9 180 24 34 12 86
21 122 21 38 0 82 8 113 20 28 11 74 20 104 20 30 0 83 11 124 25 39 14 83 25
96 25 14 0 48 9 76 20 28 11 68 20 88 20 21 0 48 7 60 16 12 8 48 18 80 21 31
3 71 13 87 23 17 9 50 20 74 24 24 3 55 13 70 20 15 8 43 17 64 21 20 4 54 16
74 26 21 11 45 19 56 19 10 0 35 9 57 20 22 11 45 20 52 20 8 0 31 9 53 20 22
11 44 20 50 20 5 0 33 11 60 25 28 13 56 25 63 25 8 0 25 9 39 20 14 11 33 20
42 20 15 0 142 59 261 121 30 15 87 45 125 65 39 20 107 59 153 88 46 28 98
60 117 71 113 66 350 242 439 325 39 36 114 102 166 147 52 44 140 131 195
193 55 62 116 130 135 150 69 73 167 186 190 220 13 19 44 58 68 85 25 28 64
79 88 115 23 36 54 76 68 89 14 14 26 28 26 32 0 8 107 165 149 220 11 14 30
46 44 70 13 24 36 64 52 89 47 74 215 372 215 381 0 5 13 33 28 63 16 29 32
62 35 72 4 10 11 26 16 34 6 8 31 60 56 115 26 55 78 163 115 240 173 357 261
568 244 585 -7 7 -725 10 -2145 10 -2218 0 -2192 0 -2449 40 -36 5 -113 10
-171 10 -72 0 -130 6 -184 20 -43 11 -104 20 -134 20 -31 0 -82 9 -114 20 -31
11 -72 20 -91 20 -20 0 -60 11 -90 25 -30 14 -70 25 -88 25 -19 0 -51 9 -73
20 -22 11 -53 20 -70 20 -16 0 -39 7 -50 16 -11 8 -38 19 -60 25 -22 6 -47 17
-55 24 -8 7 -31 15 -51 19 -21 4 -42 13 -49 21 -6 7 -26 17 -43 21 -18 3 -43
15 -56 25 -13 11 -29 19 -36 19 -7 0 -18 7 -26 16 -7 9 -39 29 -71 45 -32 16
-75 44 -96 62 -20 18 -57 46 -82 61 -108 69 -327 315 -412 463 -45 79 -128
252 -128 268 0 8 -9 32 -20 52 -11 21 -20 43 -20 49 0 6 -11 46 -25 88 -14 42
-25 90 -25 106 0 16 -8 51 -19 77 -45 118 -46 734 0 845 10 26 19 62 19 80 0
18 9 52 19 74 10 23 22 57 26 75 4 19 16 50 26 69 11 19 19 40 19 47 0 7 20
49 45 94 25 45 45 83 45 85 0 7 110 166 148 214 88 112 281 282 427 375 50 32
277 145 291 145 7 0 34 11 60 25 26 14 58 25 71 25 13 0 41 9 63 20 22 11 59
20 85 20 25 0 62 8 83 19 37 18 234 35 422 35 140 0 365 -17 405 -30 22 -8 65
-17 95 -20 30 -4 75 -17 100 -30 25 -13 61 -24 80 -24 20 0 45 -7 58 -15 12
-9 41 -22 64 -30 74 -23 115 -40 129 -52 8 -6 25 -14 39 -18 26 -8 201 -105
210 -116 3 -3 19 -13 36 -22 27 -14 65 -41 219 -156 64 -47 276 -262 345 -348
34 -43 73 -91 87 -108 14 -16 32 -46 41 -65 9 -19 22 -42 28 -50 16 -20 42
-90 60 -164 9 -33 21 -71 28 -85 7 -14 16 -57 19 -96 4 -38 13 -88 21 -111 8
-23 20 -113 25 -200 12 -173 26 -278 47 -344 12 -36 24 21 24 115 0 62 6 121
16 155 14 45 18 121 21 410 5 335 4 360 -16 441 -12 48 -21 103 -21 123 0 20
-11 69 -25 108 -14 39 -25 82 -25 95 0 13 -6 34 -14 46 -8 12 -19 40 -25 62
-12 50 -55 153 -70 168 -6 6 -11 18 -11 27 0 8 -8 29 -19 46 -10 17 -22 41
-26 55 -4 13 -18 38 -31 56 -13 17 -24 34 -24 37 0 11 -124 191 -145 211 -12
11 -44 47 -71 80 -138 166 -355 350 -591 500 -81 52 -286 160 -350 185 -18 7
-38 18 -44 26 -6 8 -19 14 -28 14 -9 0 -33 9 -54 20 -20 11 -47 20 -59 20 -13
0 -36 9 -53 20 -16 11 -43 20 -60 20 -16 0 -52 12 -80 25 -27 14 -63 25 -80
25 -16 0 -43 9 -60 20 -20 14 -47 20 -83 20 -31 0 -68 8 -90 19 -20 10 -65 21
-100 24 -35 4 -73 12 -85 19 -12 7 -65 18 -117 24 -52 7 -113 19 -135 28 -22
8 -67 15 -100 16 -33 0 -80 8 -105 17 -25 9 -87 19 -138 23 -102 7 -137 24
-116 58 13 21 95 69 132 79 15 3 47 17 71 30 24 12 53 23 65 23 12 1 39 9 61
20 22 11 59 19 81 20 23 0 61 7 85 16 24 8 103 19 174 24 72 5 190 14 264 21
113 10 168 9 340 -4 113 -9 247 -19 298 -22 50 -3 113 -12 140 -19 26 -8 80
-16 118 -19 39 -3 90 -13 115 -22 25 -9 74 -19 109 -21 40 -3 76 -11 96 -24
18 -11 50 -20 73 -20 22 0 61 -9 87 -20 26 -11 63 -20 83 -20 20 0 51 -9 67
-20 17 -11 41 -20 55 -20 14 0 39 -9 56 -19 17 -10 46 -22 65 -25 35 -7 112
-37 161 -62 15 -8 45 -21 68 -29 22 -8 64 -30 93 -49 52 -35 106 -60 114 -53
8 8 -31 84 -64 125 -19 24 -49 63 -67 87 -73 103 -262 307 -383 413 -98 86
-205 169 -321 249 -26 18 -60 42 -77 53 -75 52 -348 197 -521 276 -87 40 -106
47 -209 85 -27 9 -63 25 -80 33 -16 9 -39 16 -50 16 -11 0 -38 9 -60 20 -22
11 -53 19 -68 20 -15 0 -44 8 -65 19 -20 10 -59 21 -86 25 -27 3 -59 12 -70
20 -12 7 -48 16 -81 20 -33 4 -70 13 -82 21 -13 9 -60 19 -105 25 -98 11 -243
38 -278 52 l-25 10 24 19 c13 10 35 19 50 19 14 0 64 9 111 20 75 17 124 19
400 20 245 0 331 -4 385 -16 39 -8 124 -19 190 -23 76 -6 141 -17 179 -30 37
-13 84 -21 125 -21 41 0 89 -8 124 -20 31 -11 81 -20 111 -20 36 0 71 -8 107
-24 31 -14 72 -25 95 -24 22 0 54 -6 70 -15 16 -8 57 -18 91 -22 34 -4 79 -15
100 -26 20 -10 54 -19 76 -19 21 0 54 -8 75 -19 20 -10 59 -21 85 -24 27 -4
58 -14 70 -22 12 -8 35 -15 52 -15 17 0 48 -9 70 -20 22 -11 51 -20 66 -20 14
0 47 -11 73 -25 26 -14 57 -25 69 -25 12 0 36 -9 52 -20 17 -11 40 -20 52 -20
12 0 43 -11 69 -25 26 -14 53 -25 61 -25 8 0 27 -6 41 -14 15 -8 50 -24 77
-36 132 -58 223 -102 320 -155 28 -15 82 -44 120 -64 39 -20 81 -44 95 -54 14
-10 61 -40 105 -67 90 -55 121 -76 286 -193 129 -92 231 -172 334 -263 39 -34
87 -77 108 -95 86 -76 176 -156 218 -195 53 -50 264 -274 305 -324 15 -19 51
-60 79 -90 58 -63 186 -229 230 -299 17 -27 47 -67 68 -91 22 -23 44 -54 50
-69 7 -15 25 -44 40 -66 55 -79 87 -130 87 -141 0 -5 12 -26 26 -45 24 -31 52
-80 97 -165 9 -19 22 -34 27 -34 14 0 13 57 -2 83 -6 12 -20 49 -29 82 -24 82
-54 164 -73 200 -9 17 -16 42 -16 56 0 14 -7 34 -15 45 -8 10 -15 25 -15 33 0
13 -65 155 -111 243 -10 20 -19 43 -19 50 0 8 -8 29 -18 48 -71 135 -127 237
-137 250 -6 8 -33 53 -60 100 -52 91 -203 323 -248 380 -14 19 -66 89 -114
155 -47 66 -107 145 -133 175 -25 30 -80 95 -121 145 -114 139 -539 558 -687
681 -153 125 -312 248 -392 303 -30 20 -99 67 -152 104 -54 37 -100 67 -104
67 -3 0 -20 11 -37 24 -46 34 -314 190 -437 254 -288 150 -576 290 -642 311
-21 7 -40 17 -43 22 -4 5 -14 9 -24 9 -17 0 -73 22 -176 69 -22 11 -61 28 -86
40 -25 12 -52 21 -59 21 -7 0 -27 9 -44 19 -17 11 -48 22 -68 26 -21 4 -42 13
-48 21 -7 7 -33 16 -58 20 -26 3 -55 13 -64 21 -9 8 -36 17 -60 20 -24 3 -50
11 -58 18 -15 12 -109 46 -185 67 -22 6 -49 19 -61 29 -12 12 -35 19 -60 19
-21 0 -54 9 -72 20 -18 11 -49 20 -70 20 -21 0 -55 9 -77 20 -22 11 -53 20
-70 20 -17 0 -65 11 -105 25 -45 15 -96 25 -131 25 -35 0 -79 8 -109 20 -37
15 -75 20 -138 20 -48 0 -138 9 -201 20 -103 18 -156 20 -560 19 -245 -1 -468
-5 -495 -9z"/>
<path d="M3810 11220 c-41 -3 -82 -9 -90 -13 -8 -4 -42 -11 -75 -16 -183 -28
-427 -141 -570 -265 -68 -58 -208 -202 -214 -219 -2 -7 -19 -32 -36 -57 -63
-90 -185 -341 -185 -381 0 -10 -7 -30 -15 -46 -8 -15 -24 -73 -35 -128 -12
-55 -25 -111 -30 -125 -5 -14 -11 -67 -15 -119 -3 -52 -10 -102 -15 -112 -13
-24 -13 -560 0 -593 5 -15 12 -70 15 -124 4 -53 12 -124 20 -157 7 -33 21 -96
30 -140 9 -44 23 -93 31 -108 8 -16 14 -38 14 -50 0 -58 140 -339 232 -464 51
-70 184 -203 244 -244 27 -18 51 -36 54 -39 11 -15 206 -110 226 -110 8 0 25
-6 37 -14 12 -7 56 -21 97 -31 41 -9 101 -23 132 -31 82 -20 377 -19 466 2 76
17 183 50 210 62 9 5 35 17 57 28 124 57 309 212 406 339 63 82 91 129 148
242 72 147 88 184 94 225 5 36 4 38 -29 44 -19 3 -51 15 -71 25 -21 11 -43 19
-50 19 -7 0 -27 -29 -43 -65 -17 -36 -44 -95 -61 -132 -94 -205 -304 -431
-469 -504 -111 -50 -166 -61 -315 -63 -134 -2 -197 5 -252 30 -17 8 -36 14
-42 14 -23 0 -143 63 -203 107 -76 56 -178 152 -178 167 0 6 -13 25 -28 41
-29 31 -132 198 -132 214 0 5 -6 22 -14 38 -58 120 -113 309 -137 473 -5 36
-14 90 -20 120 -16 81 -23 586 -10 705 19 186 32 270 47 308 7 20 14 48 14 62
0 29 67 236 80 249 6 6 10 16 10 24 0 23 68 151 121 227 110 160 237 260 439
348 56 25 167 46 270 52 236 15 441 -45 546 -158 52 -56 104 -136 116 -177 4
-14 18 -59 32 -100 14 -41 26 -83 26 -93 0 -10 5 -27 10 -37 6 -11 15 -54 20
-96 6 -43 15 -93 22 -112 12 -32 15 -33 53 -29 22 3 62 10 88 17 l49 12 -6 37
c-3 20 -10 72 -16 116 -6 44 -13 87 -16 95 -6 16 -29 170 -44 300 -4 41 -13
91 -19 110 -6 19 -11 56 -11 81 0 43 -3 49 -37 69 -50 29 -115 53 -223 81 -25
6 -58 17 -75 24 -31 13 -131 30 -265 45 -85 10 -299 10 -410 0z"/>
<path d="M18895 11154 c-17 -17 -20 -89 -6 -128 9 -23 15 -25 98 -29 156 -7
197 -38 227 -174 16 -72 17 -177 14 -1418 -4 -1407 -4 -1409 -48 -1480 -29
-46 -53 -56 -174 -70 -61 -8 -112 -14 -113 -14 -2 -1 -3 -37 -3 -81 l0 -80
434 0 c277 0 436 4 438 10 2 5 1 42 -2 82 l-5 73 -84 8 c-47 4 -102 12 -123
17 -47 13 -88 64 -102 128 -6 31 -11 514 -12 1379 -3 1282 -2 1332 15 1321 10
-6 31 -36 47 -67 24 -50 87 -159 114 -201 6 -8 13 -22 17 -30 3 -8 29 -55 56
-105 27 -49 63 -115 80 -145 16 -30 46 -84 67 -120 98 -172 117 -206 124 -220
3 -8 16 -31 28 -50 11 -19 41 -73 66 -120 24 -47 52 -96 60 -110 9 -14 30 -52
47 -85 18 -33 58 -105 90 -160 32 -55 71 -125 87 -155 17 -30 34 -59 38 -65 4
-5 31 -54 59 -108 28 -54 63 -116 77 -138 13 -22 29 -50 34 -62 6 -12 14 -29
20 -37 19 -29 82 -142 163 -290 13 -25 44 -80 68 -123 24 -43 58 -104 75 -135
17 -31 63 -114 103 -184 39 -70 71 -130 71 -132 0 -3 20 -39 45 -79 25 -41 45
-79 45 -84 0 -5 10 -19 23 -31 21 -20 34 -22 148 -22 84 0 129 4 137 12 9 9
12 363 12 1528 1 1555 3 1650 39 1720 20 38 53 70 72 70 9 0 22 7 29 15 9 11
33 15 89 15 42 0 82 4 89 9 9 5 12 29 10 82 l-3 74 -424 3 c-305 2 -427 -1
-437 -9 -9 -8 -14 -34 -14 -79 0 -80 0 -80 108 -80 52 -1 83 -5 96 -15 11 -8
27 -15 36 -15 20 0 80 -61 80 -82 0 -8 7 -32 15 -52 13 -31 15 -191 13 -1281
-2 -806 -6 -1245 -13 -1246 -10 -1 -86 130 -106 184 -6 15 -15 27 -20 27 -5 0
-9 5 -9 10 0 6 -29 62 -64 126 -36 64 -75 134 -86 157 -12 23 -31 60 -44 82
-70 125 -87 156 -122 220 -21 39 -48 88 -60 110 -45 79 -51 91 -94 170 -24 44
-49 91 -57 105 -8 14 -26 45 -39 70 -14 25 -43 79 -65 120 -22 41 -44 82 -49
90 -5 8 -44 78 -85 155 -42 77 -80 147 -85 155 -6 8 -13 22 -17 30 -8 18 -99
184 -142 260 -18 30 -39 69 -47 85 -8 17 -25 48 -37 70 -13 22 -40 72 -62 110
-76 139 -137 251 -181 330 -12 22 -39 72 -59 110 -21 39 -43 73 -49 77 -6 5
-176 8 -378 7 -314 0 -370 -3 -383 -15z"/>
<path d="M6389 10526 c-4 -4 -52 -11 -108 -15 -56 -5 -107 -14 -114 -19 -7 -5
-28 -13 -47 -17 -36 -7 -56 -15 -150 -59 -114 -53 -233 -147 -311 -246 -50
-63 -129 -193 -129 -212 0 -8 -4 -18 -9 -24 -15 -15 -81 -190 -81 -213 0 -12
-7 -38 -16 -59 -8 -20 -18 -66 -21 -102 -3 -36 -9 -69 -13 -75 -33 -42 -38
-707 -6 -792 8 -21 17 -71 20 -112 4 -40 13 -83 21 -94 8 -12 15 -35 15 -51 0
-27 49 -179 70 -216 5 -8 24 -45 44 -81 52 -98 79 -136 155 -214 55 -58 179
-155 196 -155 3 0 27 -13 53 -30 27 -16 57 -30 66 -30 10 0 27 -6 39 -12 33
-19 126 -37 277 -55 113 -13 153 -14 245 -4 120 13 232 36 282 57 17 8 35 14
40 14 12 0 132 62 180 92 60 39 193 174 235 238 75 116 168 323 168 375 0 8 6
29 14 47 14 32 32 135 57 323 12 90 16 536 5 554 -3 5 -10 47 -15 93 -20 177
-74 382 -133 498 -15 30 -28 59 -28 63 0 5 -24 46 -54 90 -62 95 -146 185
-231 249 -71 53 -234 134 -290 144 -22 3 -45 11 -52 16 -21 17 -361 47 -374
34z m224 -169 c82 -23 129 -39 147 -52 8 -5 31 -18 51 -28 77 -39 189 -167
241 -277 55 -114 68 -146 68 -166 0 -10 6 -36 14 -59 29 -84 43 -169 66 -385
11 -111 11 -514 0 -610 -20 -164 -30 -231 -50 -311 -12 -46 -25 -102 -31 -124
-5 -22 -16 -53 -23 -70 -8 -16 -22 -50 -32 -75 -73 -180 -218 -318 -394 -378
-53 -17 -91 -22 -190 -23 -69 -1 -143 2 -165 6 -110 21 -274 129 -352 233 -68
91 -133 235 -152 337 -4 23 -11 47 -15 54 -17 27 -45 203 -66 421 -26 268 11
778 66 908 8 18 14 43 14 56 0 33 89 239 110 256 3 3 16 21 28 41 30 50 116
128 187 171 145 86 331 115 478 75z"/>
<path d="M13180 10520 c-30 -4 -79 -8 -109 -9 -30 -1 -84 -10 -120 -22 -36
-11 -88 -27 -116 -36 -120 -37 -286 -136 -390 -232 -53 -49 -175 -197 -175
-213 0 -4 -13 -26 -28 -50 -62 -96 -140 -298 -162 -423 -5 -27 -13 -67 -18
-88 -26 -101 -36 -325 -22 -530 7 -111 18 -215 25 -232 6 -16 15 -55 19 -85
14 -111 104 -347 179 -465 70 -112 206 -256 302 -319 67 -45 190 -106 213
-106 10 0 23 -5 29 -11 25 -25 245 -63 368 -63 137 0 315 28 377 60 14 8 34
14 44 14 22 0 148 61 233 113 62 37 194 138 205 155 3 5 6 132 6 283 2 355 6
365 154 376 43 3 81 11 87 19 5 7 9 34 7 61 l-3 48 -430 0 -430 0 0 -60 0 -60
90 -6 c130 -9 165 -24 192 -79 21 -43 22 -58 23 -300 0 -288 9 -256 -88 -323
-67 -46 -167 -92 -239 -111 -69 -18 -277 -22 -315 -7 -13 5 -48 17 -78 26
-164 50 -355 231 -444 420 -10 22 -23 48 -28 58 -18 36 -71 204 -85 267 -45
210 -56 333 -50 580 4 200 11 264 39 380 6 25 13 61 16 80 2 19 11 44 18 55 8
11 14 29 14 40 0 27 63 173 103 239 165 273 393 406 694 406 59 0 120 -4 137
-9 205 -61 273 -108 335 -234 46 -93 85 -223 96 -319 10 -82 19 -86 124 -64
26 6 43 25 37 41 -2 6 -11 60 -20 120 -10 61 -24 142 -32 180 -8 39 -14 93
-14 122 0 70 -18 151 -39 172 -9 9 -53 29 -96 45 -44 15 -88 32 -97 37 -10 5
-28 9 -40 9 -13 1 -41 8 -63 16 -73 27 -339 48 -435 34z"/>
<path d="M16639 10526 c-3 -3 -52 -11 -109 -16 -56 -5 -108 -14 -114 -19 -6
-5 -26 -12 -45 -16 -46 -10 -171 -63 -188 -81 -8 -8 -19 -14 -24 -14 -22 0
-202 -146 -229 -186 -107 -156 -180 -284 -180 -317 0 -7 -4 -17 -10 -23 -12
-12 -50 -130 -50 -156 0 -11 -5 -28 -11 -39 -13 -25 -37 -162 -50 -289 -19
-186 -11 -646 12 -691 4 -9 13 -53 18 -99 6 -46 15 -88 21 -94 5 -5 10 -22 10
-37 0 -14 12 -57 26 -95 14 -38 29 -80 34 -94 4 -14 15 -38 24 -55 9 -16 16
-36 16 -42 0 -7 4 -13 9 -13 5 0 12 -9 16 -19 9 -31 93 -152 133 -195 37 -38
195 -166 205 -166 4 0 29 -14 57 -30 28 -16 61 -30 73 -30 12 0 31 -6 42 -14
11 -7 34 -16 50 -19 17 -3 48 -10 70 -15 75 -19 272 -35 342 -28 241 26 327
48 458 116 109 56 152 88 237 176 172 179 280 443 329 809 17 123 23 536 10
600 -6 28 -15 88 -21 135 -11 106 -50 275 -76 335 -7 17 -22 55 -34 85 -64
160 -130 260 -247 373 -46 43 -77 67 -168 124 -39 25 -167 83 -183 83 -9 1
-35 8 -57 16 -58 23 -381 55 -396 40z m221 -167 c122 -25 251 -98 337 -193 48
-53 130 -184 139 -224 4 -15 10 -32 15 -37 8 -11 21 -56 45 -161 7 -34 18 -74
24 -89 5 -14 10 -52 10 -83 0 -31 7 -70 15 -86 13 -24 15 -88 15 -388 0 -239
-4 -366 -11 -380 -6 -11 -15 -63 -20 -116 -5 -53 -13 -100 -19 -106 -5 -5 -10
-21 -10 -35 0 -61 -74 -264 -134 -366 -58 -99 -172 -199 -291 -255 -85 -40
-186 -52 -334 -40 -91 7 -109 12 -196 54 -75 37 -110 61 -169 120 -41 41 -80
85 -87 99 -58 108 -82 165 -109 252 -11 39 -26 84 -32 100 -5 17 -14 58 -19
93 -4 35 -11 67 -14 72 -15 24 -35 305 -35 485 1 204 21 482 40 545 5 19 10
51 10 70 0 19 6 47 14 61 7 14 16 42 20 62 21 114 115 283 207 377 88 87 161
128 299 166 30 8 55 16 56 17 6 6 187 -5 234 -14z"/>
<path d="M22974 10495 c-7 -19 -14 -40 -14 -48 0 -7 -4 -17 -10 -23 -5 -5 -14
-30 -19 -54 -9 -43 -34 -122 -51 -165 -20 -50 -40 -112 -40 -124 0 -7 -6 -27
-14 -44 -19 -44 -66 -184 -77 -231 -5 -21 -16 -51 -24 -67 -8 -15 -15 -37 -15
-47 0 -11 -7 -33 -15 -48 -8 -16 -15 -37 -15 -46 0 -10 -6 -32 -14 -50 -20
-50 -37 -99 -46 -138 -11 -47 -68 -211 -80 -232 -6 -10 -10 -28 -10 -40 -1
-13 -9 -41 -20 -63 -11 -22 -19 -51 -20 -65 0 -15 -4 -30 -9 -35 -11 -12 -51
-130 -51 -149 0 -8 -6 -27 -14 -43 -17 -36 -76 -214 -76 -232 0 -7 -6 -27 -14
-44 -7 -18 -23 -66 -36 -107 -13 -41 -27 -79 -31 -84 -5 -6 -9 -22 -9 -36 0
-14 -6 -34 -14 -45 -7 -11 -17 -36 -20 -55 -4 -19 -11 -44 -16 -55 -5 -11 -18
-49 -30 -85 -12 -36 -30 -84 -41 -107 -22 -45 -80 -103 -104 -103 -9 0 -23 -4
-33 -9 -9 -5 -25 -12 -34 -15 -15 -4 -18 -17 -18 -66 l0 -60 293 2 292 3 0 60
c0 59 0 60 -30 63 -59 6 -135 34 -145 52 -24 45 -9 159 36 283 8 20 14 46 14
57 0 11 7 34 14 52 8 18 24 67 36 108 12 41 25 84 30 95 5 11 11 36 15 57 3
20 13 39 21 42 23 9 1007 7 1021 -2 6 -4 15 -20 18 -35 4 -15 11 -30 16 -33 5
-3 9 -16 9 -30 0 -14 6 -35 12 -47 7 -12 18 -40 24 -62 6 -22 35 -105 64 -185
58 -157 75 -267 48 -303 -13 -18 -56 -33 -133 -45 l-40 -7 -3 -63 -3 -62 393
2 393 3 1 45 c1 61 -8 76 -56 88 -50 12 -102 47 -116 76 -6 11 -19 39 -31 61
-33 64 -52 108 -59 138 -3 15 -10 30 -15 33 -5 3 -9 15 -9 28 0 12 -7 31 -15
42 -8 10 -15 27 -15 37 0 11 -7 33 -15 50 -17 38 -62 158 -76 204 -5 18 -16
45 -24 60 -8 15 -15 36 -15 45 0 9 -6 29 -14 45 -19 37 -51 121 -105 278 -18
50 -38 104 -45 120 -8 17 -28 71 -46 120 -17 50 -38 106 -45 125 -8 19 -19 52
-25 72 -6 21 -16 40 -21 43 -5 4 -9 15 -9 25 0 11 -6 34 -14 52 -8 18 -22 53
-31 78 -9 25 -23 59 -30 75 -7 17 -22 57 -33 90 -34 101 -44 128 -63 171 -11
23 -19 46 -19 52 0 11 -22 67 -41 104 -5 10 -9 26 -9 35 0 10 -7 32 -16 48 -9
17 -20 44 -24 60 -5 17 -18 55 -30 85 -12 30 -25 66 -30 80 -8 23 -33 89 -59
153 -10 27 -12 27 -101 27 l-91 0 -15 -35z m51 -477 c4 -18 10 -37 14 -43 4
-5 18 -44 31 -85 13 -41 30 -86 37 -100 7 -14 13 -34 13 -45 0 -11 6 -29 14
-40 7 -11 16 -31 19 -45 6 -32 27 -89 40 -115 6 -11 14 -33 18 -50 4 -16 24
-75 44 -130 20 -55 40 -115 45 -133 4 -18 12 -38 18 -45 5 -7 13 -28 17 -47 4
-19 11 -39 15 -45 4 -5 15 -35 25 -65 22 -67 53 -153 72 -200 7 -19 15 -48 16
-65 l2 -30 -439 -3 c-242 -1 -443 1 -448 6 -8 8 5 59 25 97 6 11 14 38 18 60
4 22 19 72 33 110 14 39 26 76 26 83 0 8 6 28 14 45 7 18 23 66 36 107 12 41
33 107 46 147 13 39 24 77 24 85 0 7 9 30 20 51 11 20 20 46 20 58 0 22 24
101 47 156 7 17 13 42 13 56 0 13 6 30 14 36 8 7 16 28 19 49 8 67 53 172 73
172 7 0 16 -15 19 -32z"/>
<path d="M25615 10521 c-16 -5 -61 -9 -100 -10 -40 -1 -82 -7 -99 -16 -15 -8
-36 -15 -46 -15 -21 0 -179 -60 -230 -87 -237 -127 -394 -318 -513 -628 -9
-22 -19 -58 -22 -80 -4 -22 -10 -44 -15 -50 -18 -24 -70 -414 -70 -530 0 -50
13 -203 30 -355 15 -135 48 -289 75 -355 7 -16 16 -45 20 -62 3 -18 11 -35 16
-38 5 -4 9 -14 9 -24 0 -10 7 -24 15 -31 8 -7 15 -19 15 -27 0 -9 16 -43 37
-77 76 -128 159 -222 274 -312 56 -43 186 -114 209 -114 7 0 24 -6 38 -14 40
-21 152 -43 287 -56 122 -12 220 -4 354 30 58 14 204 85 226 110 10 11 24 20
30 20 16 0 152 132 192 185 42 55 105 162 138 231 65 138 76 174 54 174 -7 0
-32 10 -56 22 -31 16 -49 19 -59 13 -16 -11 -21 -18 -78 -135 -41 -84 -66
-129 -81 -146 -5 -6 -25 -33 -44 -60 -81 -118 -259 -231 -398 -254 -134 -21
-332 5 -410 56 -12 8 -28 14 -34 14 -7 0 -19 7 -28 15 -9 8 -39 34 -67 57
-147 124 -270 333 -319 543 -9 39 -23 93 -31 121 -8 28 -14 75 -14 105 0 30
-7 79 -15 109 -18 68 -21 472 -4 517 6 15 15 69 19 118 5 50 18 122 30 160 11
39 23 86 27 105 3 19 11 46 18 60 7 14 29 61 50 105 47 100 93 170 153 232 46
48 124 113 135 113 4 0 23 11 43 25 36 25 50 30 174 66 79 23 254 25 350 5 82
-17 166 -56 218 -101 42 -37 102 -147 122 -225 7 -25 18 -63 25 -85 8 -22 17
-64 20 -94 4 -30 14 -70 22 -89 14 -34 15 -34 64 -30 75 8 83 20 70 109 -5 41
-15 115 -22 164 -6 50 -18 107 -25 128 -8 20 -14 73 -14 117 0 43 -4 90 -10
104 -12 32 -52 57 -127 81 -32 9 -65 21 -73 25 -9 4 -36 11 -60 15 -25 4 -50
12 -57 17 -24 19 -385 43 -438 29z"/>
<path d="M28920 10521 c-14 -5 -51 -9 -82 -10 -32 -1 -75 -7 -95 -15 -21 -8
-69 -24 -108 -36 -229 -74 -421 -247 -542 -490 -37 -73 -88 -215 -99 -274 -4
-22 -13 -51 -20 -65 -8 -14 -14 -51 -14 -81 0 -31 -4 -60 -9 -65 -5 -6 -15
-73 -22 -150 -13 -155 -6 -539 11 -615 6 -25 14 -79 19 -120 4 -41 12 -84 18
-95 6 -11 14 -40 18 -65 4 -25 11 -49 15 -55 4 -5 10 -23 14 -40 7 -29 34 -92
81 -191 36 -74 114 -181 180 -246 79 -78 262 -198 302 -198 8 0 27 -6 41 -14
50 -25 289 -66 391 -66 63 0 213 19 306 38 149 30 305 111 425 219 70 63 160
186 204 279 21 43 42 87 47 96 14 28 39 101 39 118 0 8 7 28 15 44 9 17 20 55
25 85 5 31 13 81 19 111 25 143 31 232 31 448 0 225 -17 435 -40 506 -6 16
-10 38 -10 50 0 22 -36 149 -51 178 -5 10 -9 23 -9 29 0 22 -100 226 -117 241
-7 6 -13 14 -13 19 0 11 -52 80 -100 133 -88 97 -320 238 -416 253 -22 3 -44
10 -51 15 -25 20 -360 44 -403 29z m246 -161 c21 -6 53 -16 69 -22 17 -5 41
-12 54 -15 27 -7 118 -68 166 -112 129 -120 203 -264 260 -511 25 -110 36
-207 47 -420 10 -208 0 -505 -22 -650 -17 -117 -43 -234 -57 -262 -7 -15 -13
-38 -13 -51 0 -12 -4 -27 -8 -33 -4 -5 -19 -36 -32 -69 -67 -168 -171 -284
-321 -358 -114 -56 -169 -66 -339 -56 -113 6 -131 10 -190 38 -101 50 -119 62
-188 126 -60 56 -162 206 -162 238 0 7 -7 22 -15 33 -8 10 -15 30 -15 44 0 14
-6 34 -14 45 -47 68 -100 466 -100 755 -1 304 50 695 102 787 6 12 12 27 12
34 0 11 43 101 87 184 9 17 50 64 92 106 92 91 161 128 324 172 58 16 209 14
263 -3z"/>
<path d="M33828 10508 c-7 -13 -24 -57 -37 -98 -12 -41 -29 -91 -36 -110 -7
-19 -27 -82 -45 -140 -18 -58 -38 -118 -46 -133 -8 -16 -14 -37 -14 -47 0 -10
-5 -31 -12 -47 -23 -58 -47 -128 -48 -141 0 -8 -6 -28 -14 -45 -7 -18 -30 -86
-51 -152 -21 -66 -49 -151 -62 -190 -13 -38 -33 -99 -44 -135 -12 -36 -27 -81
-34 -100 -29 -81 -37 -108 -49 -155 -7 -27 -23 -75 -35 -105 -11 -30 -21 -61
-21 -68 0 -8 -6 -28 -14 -45 -8 -18 -31 -86 -51 -152 -21 -66 -44 -132 -51
-147 -8 -14 -14 -39 -14 -55 0 -16 -5 -34 -11 -40 -6 -6 -14 -26 -19 -44 -9
-38 -27 -88 -47 -136 -7 -17 -13 -37 -13 -45 0 -17 -65 -206 -82 -238 -34 -65
-70 -99 -121 -116 -74 -24 -78 -29 -75 -88 l3 -51 295 0 295 0 0 48 c0 27 -3
54 -7 60 -4 6 -34 17 -68 24 -34 7 -73 19 -86 28 -43 28 -43 103 0 245 9 30
21 73 27 95 6 22 14 47 18 55 5 9 12 31 16 50 4 19 20 73 36 120 16 46 29 94
29 107 0 12 9 27 19 33 30 15 1013 14 1029 -2 7 -7 12 -22 12 -34 0 -13 5 -26
10 -29 6 -3 10 -14 10 -23 0 -9 7 -30 15 -46 9 -16 20 -46 25 -65 5 -20 25
-81 45 -136 20 -55 40 -114 44 -130 4 -17 13 -40 19 -51 6 -12 14 -50 18 -85
9 -94 -10 -111 -169 -144 -27 -5 -28 -7 -25 -63 l3 -57 390 0 390 0 6 50 c8
60 2 67 -70 90 -30 10 -62 25 -72 34 -19 19 -70 104 -86 146 -32 84 -73 194
-84 225 -7 19 -18 49 -24 65 -40 95 -75 193 -75 206 0 8 -7 24 -15 35 -8 10
-15 28 -15 39 0 11 -6 31 -13 45 -7 14 -23 55 -36 93 -12 37 -29 79 -37 95 -7
15 -14 34 -14 43 0 8 -4 19 -9 25 -5 5 -14 25 -19 44 -6 19 -20 60 -32 90 -12
30 -25 66 -30 80 -5 14 -25 68 -45 120 -20 52 -40 109 -44 125 -5 17 -16 44
-25 60 -9 17 -16 37 -16 46 0 8 -11 39 -25 67 -14 29 -25 59 -25 67 0 9 -7 29
-15 44 -8 16 -24 57 -35 92 -12 35 -28 78 -36 96 -8 17 -14 40 -14 51 0 11 -6
25 -14 31 -8 6 -16 24 -19 39 -3 15 -15 52 -27 82 -12 30 -26 71 -32 90 -5 19
-14 39 -19 45 -5 5 -9 15 -9 23 0 8 -6 28 -14 45 -7 18 -30 79 -50 137 -21 58
-45 121 -56 140 l-18 35 -85 3 c-78 3 -85 1 -99 -20z m38 -475 c3 -16 10 -37
15 -48 14 -32 40 -108 46 -135 3 -14 12 -34 19 -45 8 -11 14 -30 14 -43 0 -13
6 -36 14 -50 8 -15 24 -55 35 -90 12 -34 25 -70 30 -80 4 -9 18 -48 31 -87 37
-116 81 -238 96 -267 8 -14 14 -33 14 -41 0 -8 13 -48 30 -88 16 -41 30 -83
30 -94 0 -12 4 -25 9 -30 13 -14 70 -188 65 -197 -8 -13 -882 -10 -889 3 -7
10 36 165 54 199 5 9 12 31 16 50 4 19 11 40 15 45 4 6 10 27 14 47 4 20 13
50 21 65 8 15 15 38 15 49 0 12 7 35 15 50 8 16 15 36 15 44 0 8 12 47 26 85
14 39 29 87 34 108 4 21 13 44 19 50 6 6 11 22 11 37 1 14 7 36 15 50 8 14 14
36 15 48 0 13 6 38 13 55 8 18 24 66 37 107 12 41 26 82 30 90 4 9 11 31 15
50 8 39 35 90 47 90 4 0 10 -12 14 -27z"/>
<path d="M7804 10456 c-3 -7 -4 -38 -2 -67 l3 -54 90 -11 c110 -14 138 -27
165 -80 20 -42 20 -46 18 -1186 l-3 -1145 -27 -35 c-30 -39 -71 -54 -178 -66
l-65 -7 -3 -63 -3 -62 902 2 903 3 23 115 c13 63 28 146 34 185 6 38 14 76 19
85 4 8 11 47 15 85 4 39 11 75 15 80 13 17 20 69 12 83 -6 9 -29 12 -78 10
l-69 -3 -7 -50 c-4 -27 -17 -81 -28 -120 -12 -38 -25 -85 -30 -103 -14 -57
-63 -143 -93 -164 -54 -39 -92 -42 -482 -45 -382 -4 -449 1 -476 33 -26 32
-30 201 -27 1244 3 883 7 1082 18 1113 21 58 59 80 164 92 86 9 91 11 100 37
6 17 6 42 0 65 l-9 38 -448 3 c-373 2 -448 0 -453 -12z"/>
<path d="M9914 10456 c-3 -7 -4 -38 -2 -67 l3 -54 87 -10 c112 -13 138 -31
167 -116 21 -62 21 -71 21 -1139 0 -1065 0 -1076 -21 -1135 -11 -33 -28 -68
-36 -78 -19 -20 -73 -36 -157 -45 l-61 -7 -3 -63 -3 -62 898 2 898 3 12 70 c7
39 20 108 28 155 9 47 21 117 27 155 5 39 16 87 24 108 8 20 14 58 14 82 l0
45 -65 0 c-61 0 -65 -1 -80 -30 -8 -16 -15 -41 -15 -56 0 -30 -24 -120 -46
-172 -8 -18 -14 -39 -14 -47 0 -16 -52 -97 -72 -112 -43 -32 -96 -36 -479 -40
-420 -5 -454 -2 -485 45 -18 25 -19 58 -19 587 l0 560 294 3 c216 2 301 -1
322 -10 48 -21 67 -77 75 -223 4 -71 11 -136 17 -142 5 -8 33 -13 68 -13 l59
0 -2 468 -3 467 -53 3 c-30 2 -59 -2 -66 -7 -9 -7 -15 -55 -20 -137 -7 -143
-25 -192 -79 -221 -28 -15 -65 -17 -315 -18 -240 0 -284 2 -293 15 -6 10 -9
194 -7 512 3 487 3 497 24 525 l21 28 394 2 394 2 39 -27 c41 -28 80 -91 96
-152 5 -19 22 -84 38 -145 l29 -110 69 0 c68 0 69 0 72 28 2 16 -2 34 -8 42
-6 8 -14 49 -17 92 -3 43 -10 87 -16 98 -6 11 -14 47 -18 80 -13 101 -38 229
-51 253 l-11 22 -834 0 c-696 0 -834 -2 -839 -14z"/>
<path d="M14457 10463 c-4 -3 -7 -34 -7 -68 l0 -62 91 -7 c67 -5 103 -13 133
-30 37 -20 43 -29 58 -87 16 -59 17 -156 18 -1144 0 -1049 -1 -1082 -20 -1134
-10 -29 -26 -62 -35 -71 -18 -20 -124 -48 -195 -52 l-45 -3 -5 -53 c-3 -29 -3
-57 0 -63 4 -6 182 -8 476 -7 l469 3 0 54 c0 64 -1 65 -113 80 -107 14 -132
26 -159 81 l-23 44 0 1130 c0 1055 1 1132 18 1166 24 51 77 77 176 85 58 4 83
11 93 23 15 20 17 61 3 96 l-10 26 -458 0 c-252 0 -462 -3 -465 -7z"/>
<path d="M26761 10456 c-7 -8 -11 -37 -9 -68 l3 -53 95 -10 c91 -10 144 -28
167 -57 30 -36 33 -145 33 -1212 0 -1132 0 -1124 -43 -1188 -15 -22 -33 -30
-90 -42 -40 -9 -92 -17 -117 -18 l-45 -3 0 -60 0 -60 475 0 475 0 3 48 c4 60
-9 77 -58 77 -46 0 -136 16 -173 32 -18 7 -36 27 -50 57 l-22 46 0 1130 c0
1073 1 1132 18 1168 10 21 29 42 42 47 13 5 26 13 29 18 3 6 49 13 101 17 74
6 97 11 103 24 13 26 7 102 -9 112 -8 5 -216 9 -465 9 -378 0 -453 -2 -463
-14z"/>
<path d="M30354 10456 c-3 -7 -4 -38 -2 -67 l3 -54 85 -10 c48 -6 96 -18 111
-28 57 -38 54 28 54 -1226 l0 -1156 -23 -36 c-25 -40 -66 -57 -170 -68 l-57
-6 0 -60 0 -60 345 0 345 0 2 49 c3 60 -9 76 -54 76 -18 0 -62 7 -97 16 -57
14 -66 20 -87 57 l-24 42 -5 1060 c-3 583 -1 1068 3 1078 13 28 25 20 53 -35
15 -29 29 -55 33 -58 3 -3 24 -39 46 -80 21 -41 49 -93 62 -115 12 -22 26 -47
30 -55 4 -8 26 -48 50 -88 24 -40 43 -74 43 -77 0 -2 14 -27 30 -55 17 -28 47
-81 67 -118 20 -37 47 -85 59 -107 12 -22 34 -60 47 -85 14 -25 34 -61 45 -80
11 -19 33 -57 48 -85 38 -68 51 -93 81 -145 14 -25 36 -65 49 -90 14 -25 29
-52 34 -60 17 -25 130 -233 130 -238 0 -2 23 -41 50 -87 28 -46 50 -85 50 -88
0 -3 20 -40 45 -81 25 -42 45 -79 45 -81 0 -3 11 -22 23 -43 13 -20 42 -71 64
-112 22 -41 50 -93 63 -115 53 -92 75 -133 101 -180 l27 -50 118 0 119 0 5
1280 c5 1164 6 1283 21 1310 30 55 54 68 142 79 l82 11 0 65 0 65 -329 3
c-234 2 -333 -1 -342 -9 -18 -14 -19 -103 -1 -117 6 -5 43 -13 82 -17 45 -5
83 -16 106 -31 79 -50 81 -73 77 -1164 -3 -889 -4 -925 -21 -925 -18 0 -62 71
-134 215 -15 30 -30 57 -33 60 -3 3 -19 30 -35 60 -30 58 -53 100 -70 128 -6
9 -42 76 -80 147 -38 72 -74 137 -80 146 -5 10 -22 39 -36 66 -14 27 -40 73
-56 103 -17 30 -47 87 -68 125 -21 39 -41 75 -45 80 -4 6 -23 39 -42 75 -20
36 -50 92 -68 125 -19 33 -42 75 -52 94 -10 19 -22 39 -28 45 -5 5 -10 17 -10
25 0 8 -6 22 -14 30 -7 9 -30 48 -50 86 -20 39 -41 77 -46 85 -5 8 -33 58 -61
110 -101 185 -112 205 -125 221 -8 8 -14 21 -14 27 0 6 -13 33 -28 59 -16 26
-31 55 -35 63 -13 27 -32 57 -46 74 -12 14 -50 16 -308 16 -239 0 -295 -3
-299 -14z"/>
<path d="M35334 10456 c-3 -7 -4 -38 -2 -67 l3 -54 90 -10 c102 -12 148 -33
167 -79 10 -25 13 -263 13 -1182 l0 -1151 -27 -35 c-32 -42 -72 -58 -172 -67
l-71 -6 -3 -62 -3 -63 901 0 c862 0 900 1 900 18 0 10 7 27 15 38 8 10 15 33
15 49 0 30 33 209 50 275 5 19 12 61 15 94 3 32 9 66 14 75 5 9 11 34 12 56
l4 40 -67 3 c-76 3 -79 1 -97 -83 -20 -100 -31 -141 -45 -180 -8 -22 -15 -48
-16 -57 0 -10 -4 -18 -8 -18 -5 0 -16 -18 -26 -40 -20 -46 -78 -90 -118 -90
-15 0 -30 -4 -33 -10 -4 -6 -147 -10 -395 -10 -346 0 -393 2 -425 17 -22 10
-38 27 -43 43 -4 14 -7 540 -7 1170 0 923 3 1151 13 1176 22 52 57 70 151 78
47 4 91 12 98 18 16 13 17 100 1 116 -19 19 -897 17 -904 -2z"/>
<path d="M9981 7025 c-5 -5 -16 -32 -26 -60 -10 -27 -24 -64 -31 -82 -8 -17
-14 -40 -14 -50 0 -11 -7 -28 -15 -39 -8 -10 -15 -28 -15 -39 0 -12 -13 -59
-30 -105 -16 -47 -30 -95 -30 -107 0 -12 -6 -28 -13 -35 -8 -7 -17 -31 -21
-53 -4 -22 -11 -44 -16 -50 -4 -5 -17 -44 -29 -85 -13 -41 -26 -84 -31 -95 -4
-11 -31 -94 -60 -185 -28 -91 -58 -178 -65 -195 -7 -16 -16 -41 -18 -55 -5
-28 -22 -77 -43 -128 -8 -18 -14 -42 -14 -53 0 -12 -6 -33 -14 -47 -8 -15 -24
-58 -36 -97 -12 -38 -25 -79 -29 -90 -19 -48 -43 -123 -51 -155 -9 -39 -26
-88 -46 -138 -8 -18 -14 -39 -14 -46 0 -8 -7 -27 -15 -42 -8 -16 -15 -38 -15
-49 0 -11 -6 -31 -13 -45 -7 -14 -21 -56 -31 -95 -11 -38 -25 -82 -32 -97 -8
-15 -14 -35 -14 -45 -1 -10 -9 -36 -20 -58 -11 -22 -19 -48 -20 -58 0 -9 -4
-25 -9 -35 -15 -26 -51 -140 -51 -160 0 -9 -7 -26 -15 -36 -8 -11 -15 -32 -15
-46 0 -14 -4 -30 -9 -36 -4 -5 -18 -43 -30 -84 -13 -41 -29 -88 -37 -103 -8
-16 -14 -35 -14 -43 0 -8 -9 -42 -20 -75 -19 -55 -29 -78 -51 -119 -5 -8 -15
-28 -23 -45 -29 -62 -79 -97 -156 -110 -25 -4 -50 -12 -57 -17 -15 -12 -15
-140 1 -150 6 -4 174 -8 373 -8 410 0 374 -9 368 90 -2 30 -4 61 -4 68 -1 7
-14 12 -33 12 -17 0 -60 5 -95 11 -101 18 -133 68 -113 174 21 113 86 341 109
384 6 11 11 31 11 45 0 14 6 40 14 58 8 18 24 69 37 113 12 44 26 87 30 95 4
8 10 23 13 33 5 16 45 17 644 17 684 0 653 2 665 -50 9 -40 57 -183 73 -213 8
-16 14 -39 14 -51 0 -12 6 -30 14 -41 7 -11 16 -31 19 -45 7 -34 35 -111 47
-132 6 -10 10 -26 10 -35 0 -10 7 -31 16 -48 16 -31 30 -88 41 -164 12 -88
-35 -130 -162 -146 -33 -4 -66 -12 -72 -17 -18 -15 -17 -132 1 -147 9 -8 148
-10 497 -9 l484 3 0 79 0 79 -65 16 c-63 16 -140 55 -140 71 0 5 -6 15 -14 23
-16 16 -86 154 -86 170 0 10 -48 139 -75 202 -7 17 -16 39 -18 50 -3 11 -31
85 -62 165 -31 80 -60 159 -65 175 -7 28 -14 45 -46 122 -8 17 -14 37 -14 45
0 8 -5 19 -11 25 -6 6 -14 26 -19 44 -5 19 -18 59 -30 89 -12 30 -24 66 -27
80 -3 14 -9 30 -13 35 -4 6 -19 42 -33 80 -14 39 -35 95 -47 125 -28 73 -79
216 -92 260 -5 19 -16 42 -24 51 -8 8 -14 27 -14 42 0 14 -4 28 -10 32 -5 3
-14 20 -19 38 -5 18 -19 57 -31 87 -12 30 -25 69 -29 85 -4 17 -13 39 -19 50
-13 25 -72 187 -72 201 -1 5 -9 27 -20 49 -11 22 -19 47 -20 55 0 9 -4 20 -8
25 -5 6 -19 39 -31 75 -13 36 -29 79 -36 95 -7 17 -18 46 -24 65 -7 19 -26 71
-42 115 -17 44 -33 89 -36 100 -8 29 -62 175 -78 210 -8 17 -22 50 -30 75 -9
25 -25 71 -37 103 -11 31 -23 57 -26 58 -60 6 -226 2 -231 -6z m31 -597 c7
-13 25 -57 38 -98 14 -41 29 -78 34 -81 4 -4 12 -24 16 -45 9 -42 53 -170 76
-221 8 -17 14 -37 14 -45 0 -7 14 -46 30 -87 17 -40 30 -78 30 -85 0 -6 6 -23
14 -38 8 -15 17 -41 21 -59 4 -19 11 -40 16 -49 5 -8 20 -46 33 -85 43 -125
49 -140 58 -160 4 -11 12 -33 17 -50 5 -16 19 -55 31 -85 12 -30 26 -68 30
-85 21 -74 47 -146 74 -208 9 -21 16 -46 16 -55 0 -10 7 -27 15 -38 8 -10 15
-29 15 -42 l0 -22 -562 2 c-494 3 -563 5 -561 18 3 20 19 78 32 115 6 17 25
77 42 135 17 58 37 119 44 135 8 17 16 44 18 60 3 17 17 62 31 100 14 39 26
77 26 85 0 8 6 27 14 41 7 14 16 42 20 62 4 20 13 49 21 64 8 15 15 34 15 41
0 14 26 103 40 137 12 29 39 112 55 172 8 29 24 78 35 110 11 31 20 64 20 71
0 8 6 28 14 45 8 18 31 85 51 150 20 64 41 117 45 117 4 0 14 -10 22 -22z"/>
<path d="M1472 6957 c-11 -13 -11 -131 0 -143 4 -3 46 -10 95 -14 173 -16 212
-43 236 -165 16 -77 22 -2633 7 -2755 -15 -121 -37 -172 -85 -194 -39 -19
-133 -35 -202 -36 -30 0 -45 -5 -51 -17 -14 -27 -11 -131 4 -144 8 -7 224 -9
696 -6 571 3 705 6 818 20 74 10 156 24 181 32 26 8 55 15 65 15 11 0 51 12
89 26 39 14 81 28 94 31 13 3 44 17 70 31 25 13 69 36 96 50 79 41 183 123
270 214 116 120 186 230 265 413 12 28 25 57 29 65 5 9 12 31 16 50 4 19 10
40 14 45 3 6 11 33 18 60 6 28 16 68 21 90 10 38 26 132 53 305 16 100 16 551
0 660 -7 47 -18 117 -26 155 -7 39 -16 88 -20 110 -3 22 -12 58 -20 80 -7 22
-21 67 -31 99 -9 33 -23 71 -30 85 -8 14 -14 33 -14 42 0 9 -7 22 -15 29 -8 7
-15 18 -15 25 0 6 -11 32 -25 56 -13 24 -29 54 -35 67 -14 32 -88 140 -124
182 -65 75 -183 185 -232 216 -125 80 -268 145 -362 165 -24 5 -48 12 -54 15
-18 11 -180 34 -308 44 -69 5 -429 9 -801 10 -536 0 -679 -3 -687 -13z m1386
-198 c86 -6 159 -16 176 -25 16 -8 41 -14 55 -14 14 -1 44 -9 66 -20 22 -11
46 -19 54 -20 7 0 58 -29 112 -66 107 -71 191 -158 255 -264 21 -36 45 -71 51
-78 7 -7 13 -19 13 -26 0 -7 11 -34 25 -60 14 -26 25 -53 25 -59 0 -7 9 -30
20 -52 11 -22 20 -50 20 -63 0 -12 6 -35 13 -50 14 -28 36 -143 62 -318 21
-143 21 -697 0 -826 -29 -178 -47 -263 -61 -292 -8 -16 -14 -40 -14 -53 0 -14
-7 -37 -15 -51 -8 -15 -28 -61 -45 -103 -17 -42 -54 -111 -82 -154 -56 -86
-56 -86 -125 -164 -48 -54 -195 -171 -216 -171 -6 0 -18 -6 -26 -14 -19 -17
-162 -72 -211 -81 -19 -4 -49 -13 -66 -21 -43 -19 -540 -32 -601 -15 -85 23
-78 -113 -78 1531 0 1629 -6 1502 71 1526 50 15 331 17 522 3z"/>
<path d="M24323 6962 c-7 -4 -11 -33 -10 -77 l2 -70 75 -8 c146 -16 198 -42
226 -116 17 -43 18 -125 24 -1156 6 -1102 10 -1241 42 -1330 6 -16 14 -52 17
-80 4 -27 12 -59 18 -70 6 -11 19 -42 29 -70 27 -77 107 -204 166 -265 64 -65
107 -104 128 -113 8 -4 29 -16 45 -26 49 -32 106 -57 180 -82 39 -12 79 -26
90 -30 11 -4 52 -12 90 -18 39 -6 90 -15 115 -20 75 -17 416 -13 483 4 32 8
66 15 76 15 34 0 172 49 254 90 115 57 241 167 308 270 44 67 99 169 99 184 0
6 7 24 15 40 18 34 55 170 55 201 0 11 4 25 10 31 19 19 30 488 30 1372 0 562
4 911 10 932 6 19 10 52 10 73 0 51 32 112 67 125 53 20 98 31 153 38 30 4 58
12 62 18 12 18 9 121 -4 134 -14 14 -794 17 -816 3 -9 -5 -12 -28 -10 -77 l3
-69 82 -10 c45 -5 85 -13 89 -17 4 -5 17 -8 30 -8 27 0 81 -59 90 -98 3 -15
10 -37 15 -50 13 -32 12 -2129 -1 -2201 -34 -193 -48 -262 -58 -275 -5 -6 -14
-29 -20 -51 -20 -69 -92 -177 -170 -254 -58 -56 -95 -82 -158 -112 -46 -21
-92 -39 -102 -39 -11 0 -37 -8 -58 -17 -56 -24 -378 -24 -444 0 -25 9 -53 17
-62 17 -16 0 -56 17 -133 57 -93 49 -225 192 -261 283 -3 8 -12 26 -19 40 -8
14 -27 79 -44 144 -27 102 -33 148 -41 320 -12 241 -12 1883 -1 2043 13 171
36 193 226 217 l90 11 0 75 0 75 -540 2 c-297 2 -545 -1 -552 -5z"/>
<path d="M29290 6961 c-11 -7 -15 -25 -13 -73 1 -34 2 -66 2 -70 1 -3 40 -9
89 -13 103 -7 188 -30 218 -59 11 -12 28 -40 38 -64 15 -39 16 -168 16 -1463
0 -1373 -1 -1421 -19 -1457 -38 -74 -85 -97 -221 -107 -128 -10 -130 -11 -130
-90 0 -53 3 -66 19 -75 21 -11 1127 -15 1155 -4 20 8 23 136 4 152 -7 5 -56
13 -108 16 -105 8 -184 37 -209 78 -8 12 -22 65 -32 118 -18 89 -19 171 -19
1374 0 1141 2 1288 16 1370 19 102 34 139 67 160 39 26 110 44 196 50 46 3 86
8 89 10 9 10 8 131 -1 144 -7 9 -134 12 -576 12 -311 0 -573 -5 -581 -9z"/>
<path d="M21950 6315 c-58 -7 -118 -17 -135 -23 -16 -6 -55 -18 -85 -28 -30
-9 -64 -23 -75 -31 -11 -7 -25 -13 -33 -13 -7 0 -25 -8 -40 -19 -15 -10 -52
-35 -82 -54 -115 -75 -224 -202 -295 -342 -11 -22 -25 -47 -30 -55 -13 -19
-29 -65 -61 -165 -38 -123 -42 -137 -49 -185 -4 -25 -11 -52 -16 -61 -16 -31
-32 -264 -32 -464 0 -220 19 -423 52 -549 12 -43 21 -86 21 -95 1 -9 9 -34 20
-56 11 -22 19 -48 20 -58 0 -11 6 -31 14 -45 8 -15 29 -58 47 -97 69 -143 180
-277 289 -350 25 -16 47 -33 48 -37 2 -5 8 -8 12 -8 5 0 31 -13 58 -29 27 -16
60 -32 73 -35 13 -4 33 -11 44 -16 44 -19 143 -42 229 -53 211 -26 426 -5 606
61 197 72 391 245 488 437 43 84 82 175 82 189 0 9 6 30 14 48 70 164 108 558
86 897 -6 108 -17 214 -22 236 -6 22 -17 69 -24 105 -30 151 -44 194 -118 351
-38 79 -113 192 -176 263 -42 47 -186 156 -206 156 -8 0 -17 7 -20 15 -4 8
-12 15 -19 15 -7 0 -43 13 -81 29 -93 39 -140 50 -269 66 -130 16 -194 16
-335 0z m300 -150 c106 -22 214 -73 289 -138 49 -42 117 -124 136 -163 8 -18
19 -36 24 -38 5 -3 12 -18 16 -33 3 -15 10 -30 14 -33 8 -6 67 -192 76 -240 3
-19 12 -62 20 -95 21 -92 40 -360 39 -555 -1 -189 -25 -461 -49 -550 -8 -30
-15 -64 -15 -75 -1 -28 -65 -214 -79 -228 -6 -6 -11 -21 -11 -33 0 -13 -4 -25
-9 -29 -6 -3 -20 -27 -33 -53 -13 -26 -57 -81 -99 -123 -90 -92 -206 -154
-322 -174 -279 -47 -531 64 -671 296 -19 31 -37 67 -41 80 -4 13 -12 29 -17
36 -6 7 -14 27 -18 45 -5 18 -20 67 -34 108 -14 41 -26 86 -26 101 0 15 -6 42
-14 60 -27 67 -49 404 -43 654 7 234 26 438 46 488 6 16 11 40 11 54 0 33 54
192 93 272 17 35 50 90 73 122 43 58 167 169 190 169 6 0 22 8 35 18 13 10 53
26 89 36 36 10 76 22 90 26 30 9 191 6 240 -5z"/>
<path d="M36944 6303 c-4 -16 -13 -37 -20 -48 -8 -11 -14 -27 -14 -37 0 -9 -6
-32 -14 -50 -20 -50 -37 -99 -46 -138 -10 -40 -32 -107 -66 -200 -13 -36 -24
-71 -24 -79 0 -7 -6 -27 -14 -44 -8 -18 -31 -86 -51 -152 -20 -66 -43 -134
-51 -152 -8 -17 -14 -40 -14 -51 0 -11 -7 -33 -15 -49 -16 -31 -60 -165 -76
-228 -5 -22 -13 -49 -19 -60 -5 -11 -23 -65 -40 -120 -18 -55 -40 -122 -50
-150 -43 -123 -72 -213 -80 -248 -4 -21 -13 -44 -19 -50 -6 -6 -11 -21 -11
-34 0 -12 -6 -37 -14 -55 -8 -18 -24 -67 -37 -108 -12 -41 -26 -79 -31 -84 -4
-6 -8 -21 -8 -35 -1 -15 -9 -44 -20 -66 -11 -22 -19 -50 -20 -62 0 -12 -4 -25
-10 -28 -5 -3 -10 -16 -10 -28 0 -12 -6 -34 -14 -48 -7 -14 -16 -39 -20 -55
-7 -28 -21 -64 -57 -134 -21 -42 -67 -76 -123 -91 -23 -6 -44 -16 -48 -23 -12
-18 -9 -91 4 -104 9 -9 86 -12 284 -12 150 0 279 3 288 6 12 5 16 21 16 65 0
58 0 59 -28 59 -48 0 -136 31 -154 53 -26 33 -21 120 14 222 5 17 16 53 23 80
8 28 21 75 30 105 9 30 20 71 25 91 5 19 16 49 25 65 8 16 15 37 15 47 0 10 7
33 14 52 l15 35 510 0 510 0 15 -22 c9 -12 16 -32 16 -43 0 -11 6 -32 14 -46
7 -15 24 -60 36 -100 12 -41 26 -78 30 -84 4 -5 10 -23 14 -40 4 -16 13 -43
21 -60 18 -40 56 -160 65 -210 13 -64 -15 -107 -83 -128 -29 -9 -63 -17 -73
-17 -31 0 -44 -20 -44 -71 0 -33 5 -49 16 -53 9 -3 183 -6 388 -6 276 0 375 3
384 12 16 16 15 80 0 100 -7 9 -40 26 -73 37 -52 19 -65 29 -95 74 -33 49 -53
90 -87 182 -8 22 -21 55 -29 73 -8 18 -14 37 -14 43 0 6 -7 27 -16 47 -9 21
-22 52 -30 70 -8 18 -14 42 -14 53 0 11 -9 37 -20 57 -17 32 -57 135 -101 262
-7 19 -26 71 -42 115 -16 44 -36 98 -44 120 -9 22 -20 51 -26 65 -17 41 -67
182 -76 215 -5 17 -16 44 -25 60 -9 17 -16 38 -16 47 0 9 -4 20 -10 23 -5 3
-10 14 -10 23 0 9 -7 30 -15 45 -8 15 -19 42 -24 60 -5 18 -19 57 -31 87 -46
120 -52 136 -57 160 -3 14 -12 34 -19 45 -8 11 -14 26 -14 35 0 8 -6 27 -14
42 -8 15 -17 40 -21 57 -4 17 -11 33 -16 36 -5 4 -9 14 -9 23 0 15 -24 83 -56
159 -8 17 -14 35 -14 41 0 5 -7 23 -15 38 -8 16 -15 36 -15 45 0 8 -5 20 -11
26 -6 6 -14 26 -19 44 -17 65 -65 196 -79 213 -11 13 -32 16 -102 16 -88 0
-89 0 -95 -27z m38 -475 c7 -13 24 -57 39 -98 14 -41 29 -82 32 -90 7 -16 25
-67 62 -175 13 -38 40 -115 60 -170 20 -55 40 -115 45 -133 4 -18 12 -38 17
-45 5 -7 20 -46 32 -87 13 -41 28 -79 32 -85 5 -5 9 -18 9 -28 0 -10 7 -33 15
-50 16 -36 35 -89 70 -195 13 -41 29 -80 36 -88 6 -7 9 -24 6 -36 l-6 -23
-433 3 c-238 1 -439 4 -445 7 -16 5 -17 39 -3 63 10 17 63 184 81 255 5 21 13
45 18 55 11 19 67 201 77 247 4 17 10 35 14 40 8 10 55 161 72 230 6 22 16 54
22 70 12 29 23 63 61 190 10 33 23 76 30 95 8 19 16 43 19 53 7 23 23 21 38
-5z"/>
<path d="M4583 6259 c-16 -16 -17 -101 -1 -117 7 -7 41 -12 81 -12 86 0 137
-26 167 -86 20 -42 20 -46 18 -1180 l-3 -1139 -23 -37 c-29 -46 -64 -60 -197
-77 l-50 -6 -3 -57 c-3 -53 -1 -58 20 -63 13 -3 214 -4 448 -3 l425 3 6 38
c12 75 5 84 -69 90 -66 6 -120 23 -156 51 -44 35 -50 177 -46 1089 0 4 74 7
164 7 l164 0 29 -47 c16 -27 32 -55 36 -63 4 -8 18 -33 30 -55 13 -22 40 -71
61 -110 21 -38 57 -103 80 -145 24 -41 46 -82 49 -90 4 -8 17 -31 28 -50 12
-19 35 -60 51 -90 16 -30 42 -77 59 -105 16 -27 34 -60 39 -72 5 -12 20 -39
33 -60 13 -21 41 -69 62 -108 21 -38 58 -105 82 -149 23 -43 43 -82 43 -87 0
-5 9 -18 20 -29 19 -19 33 -20 263 -20 133 0 248 4 255 9 9 5 12 25 10 62 -3
51 -5 54 -33 59 -110 20 -152 46 -227 140 -34 43 -139 211 -159 255 -11 22
-21 40 -61 100 -14 23 -39 65 -54 93 -16 29 -33 61 -39 70 -5 10 -54 94 -109
187 -54 94 -107 182 -117 197 -11 15 -19 32 -19 37 0 5 -6 16 -14 23 -21 22
-57 96 -48 102 4 2 25 7 46 11 21 4 62 17 90 27 28 11 60 22 71 25 47 13 183
103 239 158 63 61 136 162 136 187 0 7 6 22 14 33 7 11 17 35 21 53 3 18 13
45 20 60 27 55 24 336 -4 390 -5 9 -17 38 -26 65 -33 94 -132 219 -215 273
-69 44 -169 94 -189 94 -9 0 -22 5 -28 11 -14 14 -126 37 -248 50 -49 6 -342
12 -650 15 -444 4 -563 3 -572 -7z m1092 -169 c104 -10 156 -24 233 -62 83
-41 160 -120 204 -211 46 -92 62 -169 60 -281 -3 -129 -16 -198 -57 -296 -24
-59 -108 -157 -170 -199 -109 -74 -268 -107 -555 -117 -125 -5 -159 -3 -174 8
-18 14 -18 37 -17 533 1 285 5 523 9 529 3 6 9 29 12 51 4 34 9 41 35 46 43 9
326 9 420 -1z"/>
<path d="M11844 6257 c-3 -8 -4 -39 -2 -68 l3 -54 85 -6 c102 -7 140 -26 167
-84 17 -38 18 -92 18 -1182 l0 -1141 -31 -39 c-24 -30 -44 -42 -90 -55 -32 -9
-81 -17 -107 -17 l-48 -1 3 -62 3 -63 445 0 445 0 0 60 0 60 -61 7 c-84 9
-146 31 -166 59 -39 54 -49 187 -46 649 l3 435 166 3 c163 2 167 2 181 -20 16
-25 54 -94 113 -203 20 -38 41 -75 46 -81 5 -6 27 -47 50 -90 22 -44 48 -92
59 -109 10 -16 31 -52 45 -80 14 -27 36 -68 49 -90 12 -22 37 -67 55 -100 181
-328 272 -488 286 -497 14 -11 487 -10 503 1 9 5 12 25 10 61 l-3 54 -58 13
c-119 27 -175 78 -285 262 -41 69 -81 133 -89 142 -7 8 -13 21 -13 27 0 6 -13
30 -29 54 -33 49 -69 112 -106 182 -14 27 -39 69 -55 93 -17 24 -30 46 -30 47
0 4 -143 250 -160 276 -6 8 -15 26 -22 40 -7 14 -18 33 -26 42 -17 21 -8 38
20 38 65 0 277 97 375 170 65 50 136 136 170 207 13 29 29 55 34 58 5 4 9 15
9 26 0 10 9 45 19 76 11 32 22 91 25 131 6 81 -9 241 -24 256 -6 6 -10 19 -10
30 0 10 -17 53 -37 95 -51 102 -157 209 -273 273 -47 27 -94 48 -105 48 -12 0
-26 5 -32 11 -14 14 -121 36 -243 50 -47 6 -343 12 -658 15 -492 5 -573 3
-578 -9z m1091 -167 c167 -17 264 -55 349 -137 36 -35 106 -133 106 -149 0 -3
6 -20 14 -37 35 -80 48 -274 26 -377 -15 -71 -43 -154 -57 -171 -7 -8 -13 -20
-13 -26 0 -22 -171 -183 -194 -183 -4 0 -26 -9 -50 -20 -44 -19 -142 -40 -296
-61 -92 -12 -333 -9 -347 4 -13 13 -16 907 -4 1014 13 112 25 141 60 146 48 7
325 5 406 -3z"/>
<path d="M14123 6258 c-9 -15 -28 -141 -42 -288 -6 -58 -18 -143 -27 -190 -8
-47 -14 -101 -12 -120 l3 -35 59 0 60 0 18 80 c10 44 26 114 35 155 10 41 27
98 40 127 19 44 30 56 73 78 l50 25 253 -2 252 -3 0 -1181 c0 -1068 -2 -1184
-16 -1200 -9 -11 -19 -26 -22 -35 -8 -24 -92 -49 -189 -57 l-83 -7 0 -60 0
-60 493 -3 c270 -1 492 1 493 5 8 64 7 102 -3 110 -7 6 -53 13 -103 16 -134 8
-184 38 -206 122 -16 65 -26 2285 -10 2328 l11 27 255 0 c206 0 262 -3 284
-15 35 -17 86 -81 94 -115 3 -14 17 -70 31 -125 14 -55 26 -118 26 -140 0 -62
10 -70 82 -70 l63 0 -2 40 c-5 86 -31 292 -42 325 -6 19 -11 66 -11 105 -1 87
-14 155 -31 166 -8 5 -431 9 -941 9 -731 0 -929 -3 -935 -12z"/>
<path d="M16233 6262 c-17 -11 -27 -86 -14 -109 9 -17 23 -21 91 -25 66 -4 85
-9 105 -28 57 -54 55 -13 55 -939 0 -891 3 -957 46 -1146 18 -77 26 -98 75
-199 39 -79 168 -218 234 -251 22 -11 46 -24 53 -29 16 -12 108 -43 181 -62
138 -36 363 -48 521 -26 322 43 543 230 633 532 51 175 51 168 57 1125 6 1009
2 959 77 1002 27 16 55 22 99 23 69 0 74 5 74 70 0 75 24 70 -336 70 -364 0
-344 4 -344 -77 0 -53 14 -63 83 -63 61 0 113 -18 141 -49 9 -10 23 -58 32
-108 13 -79 15 -196 11 -880 -3 -433 -7 -806 -9 -828 -11 -98 -22 -162 -34
-192 -8 -18 -14 -44 -14 -58 0 -14 -7 -28 -15 -31 -8 -4 -15 -14 -15 -23 0
-22 -41 -91 -87 -147 -38 -46 -175 -144 -201 -144 -8 0 -35 -6 -61 -14 -105
-33 -164 -37 -294 -21 -172 21 -264 60 -353 150 -64 64 -137 198 -149 275 -4
25 -14 62 -21 84 -12 32 -14 206 -14 970 l0 931 35 39 c34 39 36 39 117 44 46
3 86 10 90 16 9 13 10 88 2 110 -5 14 -52 16 -423 16 -229 0 -421 -4 -428 -8z"/>
<path d="M18713 6264 c-14 -6 -18 -101 -5 -120 4 -7 42 -13 88 -15 70 -4 85
-8 117 -32 20 -15 39 -40 43 -55 3 -15 10 -38 15 -52 14 -38 7 -2215 -8 -2263
-22 -74 -70 -102 -201 -116 l-57 -6 0 -60 0 -60 425 -3 c234 -1 435 0 448 3
21 5 23 10 20 63 l-3 57 -63 7 c-68 7 -129 24 -150 41 -8 6 -22 27 -32 48 -18
35 -20 66 -20 536 0 274 0 504 0 511 0 10 37 12 166 10 l166 -3 29 -50 c16
-27 32 -57 36 -65 3 -8 29 -55 56 -105 28 -49 64 -115 81 -145 16 -30 40 -73
52 -95 12 -22 34 -60 47 -85 14 -25 34 -61 45 -80 12 -19 40 -71 63 -115 23
-44 45 -84 49 -90 4 -5 31 -53 60 -105 29 -52 64 -115 78 -140 13 -25 40 -74
60 -110 19 -36 39 -71 44 -77 8 -10 72 -13 258 -13 137 0 255 3 264 6 11 4 16
19 16 49 0 59 -8 75 -36 75 -50 0 -149 41 -187 78 -32 31 -137 174 -137 187 0
3 -154 269 -200 345 -73 121 -150 252 -150 255 0 2 -34 61 -75 130 -41 70 -75
131 -75 135 0 4 -7 13 -15 20 -21 17 -20 60 2 60 51 0 235 76 330 136 184 117
304 347 306 589 1 218 -85 405 -245 533 -67 53 -176 112 -206 112 -10 0 -23 5
-29 11 -14 14 -121 36 -243 50 -89 11 -1206 22 -1227 13z m1170 -182 c7 -5 28
-12 48 -15 98 -15 231 -113 292 -215 55 -93 71 -166 70 -327 -1 -99 -6 -153
-17 -185 -9 -25 -16 -52 -16 -60 0 -27 -99 -168 -143 -203 -88 -72 -179 -110
-307 -128 -36 -5 -90 -14 -121 -19 -66 -12 -329 -13 -347 -1 -10 6 -13 118
-13 562 l1 554 32 29 32 29 239 -6 c131 -3 244 -10 250 -15z"/>
<path d="M30682 6258 c-7 -7 -12 -33 -12 -58 0 -25 5 -51 12 -58 7 -7 40 -12
80 -12 72 0 128 -21 164 -61 18 -20 19 -62 19 -1188 0 -1097 -1 -1168 -18
-1194 -26 -40 -73 -60 -167 -72 l-85 -10 0 -60 0 -60 891 -3 c720 -2 894 0
902 11 11 13 21 49 46 177 8 41 20 100 26 130 6 30 17 91 25 135 8 44 18 103
23 130 12 64 3 75 -59 75 -52 0 -89 -24 -89 -56 0 -59 -49 -225 -93 -312 -60
-121 -59 -121 -558 -122 -399 -1 -410 -1 -438 19 -26 19 -30 28 -36 94 -3 39
-5 565 -3 1167 3 1025 4 1097 21 1127 25 47 82 73 161 73 93 0 96 2 96 70 0
44 -4 59 -16 64 -9 3 -210 6 -448 6 -323 0 -435 -3 -444 -12z"/>
<path d="M32772 6258 c-7 -7 -12 -33 -12 -58 0 -25 5 -51 12 -58 7 -7 39 -12
75 -12 111 0 166 -39 183 -131 14 -74 14 -2191 -1 -2257 -18 -85 -51 -108
-184 -126 l-80 -11 -3 -54 c-2 -37 1 -57 10 -62 7 -5 408 -9 890 -9 l878 0 16
25 c15 23 33 101 54 233 5 29 13 74 19 100 6 26 15 72 21 102 5 30 15 80 22
111 16 80 10 89 -56 89 -66 0 -80 -15 -102 -112 -33 -142 -43 -173 -80 -254
-28 -59 -55 -87 -106 -109 -32 -13 -101 -15 -456 -15 l-418 0 -30 31 -29 30 0
1147 c0 1104 1 1149 19 1190 27 59 75 82 171 82 63 0 76 3 85 19 14 27 13 94
-2 109 -17 17 -879 17 -896 0z"/>
<path d="M34834 6256 c-3 -7 -4 -38 -2 -67 l3 -54 85 -5 c91 -6 147 -27 170
-63 38 -61 39 -101 40 -1202 0 -1094 0 -1093 -38 -1175 -21 -42 -81 -67 -186
-78 l-71 -7 0 -60 0 -60 459 -3 c330 -1 463 1 472 9 8 7 14 31 14 60 0 55 3
53 -102 63 -32 4 -79 14 -105 24 -40 15 -52 25 -70 62 l-23 45 0 1130 c0 1083
1 1132 19 1171 26 57 65 76 176 83 l90 6 3 59 c2 41 -1 62 -10 67 -7 5 -217 9
-466 9 -374 0 -454 -2 -458 -14z"/>
<path d="M7215 3986 c-79 -22 -165 -110 -165 -168 0 -9 -4 -20 -10 -23 -15 -9
-12 -124 5 -173 34 -98 80 -144 179 -177 46 -16 53 -16 101 0 74 23 128 72
165 152 28 58 31 76 28 128 -7 108 -73 216 -153 250 -46 20 -106 24 -150 11z"/>
<path d="M27771 3987 c-32 -7 -59 -25 -98 -64 -29 -29 -53 -61 -53 -71 0 -9
-7 -26 -15 -36 -10 -13 -15 -44 -15 -93 0 -132 71 -239 184 -277 53 -18 58
-18 109 -2 100 31 164 110 184 224 11 58 -3 146 -30 197 -50 97 -161 148 -266
122z"/>
</g>
</svg>
