<?xml version="1.0" standalone="no"?>
<!DOCTYPE svg PUBLIC "-//W3C//DTD SVG 20010904//EN"
 "http://www.w3.org/TR/2001/REC-SVG-20010904/DTD/svg10.dtd">
<svg version="1.0" xmlns="http://www.w3.org/2000/svg"
 width="4032.000000pt" height="3024.000000pt" viewBox="0 0 4032.000000 3024.000000"
 preserveAspectRatio="xMidYMid meet">

<g transform="translate(0.000000,3024.000000) scale(0.100000,-0.100000)"
fill="#000000" stroke="none">
<path d="M2062 20476 c-97 -32 -171 -103 -201 -194 l-21 -62 0 -5327 c0 -5253
0 -5329 19 -5396 16 -54 29 -77 63 -110 54 -53 139 -104 192 -118 27 -6 1871
-9 5471 -7 4805 3 5433 5 5457 18 136 77 145 84 186 141 25 35 47 79 52 107 7
31 9 1865 8 5388 l-3 5340 -40 60 c-64 95 -117 139 -199 163 l-71 21 -5420 0
-5420 -1 -73 -23z m10933 -97 c54 -15 124 -65 137 -97 6 -15 23 -57 39 -93
l29 -66 -2 -5254 -3 -5254 -33 -65 c-19 -36 -39 -76 -46 -90 -8 -18 -29 -31
-71 -45 -33 -11 -73 -29 -90 -40 -29 -20 -46 -20 -5390 -20 l-5360 0 -44 24
c-25 13 -63 29 -85 35 -31 9 -48 23 -78 66 -20 30 -42 76 -48 102 -7 34 -10
1703 -10 5306 0 4699 2 5264 15 5317 21 79 89 151 161 171 66 17 10816 20
10879 3z"/>
<path d="M2665 19552 c-50 -16 -173 -133 -189 -180 -6 -16 -11 -336 -13 -766
-4 -688 -3 -740 13 -757 16 -18 27 -19 108 -13 50 4 102 11 116 17 28 12 102
22 270 38 443 41 487 46 565 64 33 7 157 19 275 25 118 6 222 13 230 16 39 14
238 37 470 54 140 11 280 24 311 30 30 5 80 10 111 10 31 0 71 6 89 14 23 9
126 17 329 26 162 6 311 17 330 22 54 16 475 46 755 53 77 2 298 9 490 15 443
15 775 15 1230 0 198 -7 430 -14 515 -16 288 -6 706 -34 775 -52 22 -6 180
-15 350 -22 171 -6 326 -16 345 -22 19 -6 75 -15 125 -20 49 -5 131 -13 180
-17 50 -5 180 -14 290 -20 110 -6 220 -16 245 -21 25 -5 72 -12 105 -15 33 -4
78 -11 100 -15 22 -5 144 -14 270 -21 127 -6 253 -15 280 -21 100 -20 312 -43
594 -63 118 -8 218 -15 223 -15 4 0 17 9 28 20 20 20 20 33 20 703 l0 682 -35
72 c-19 40 -35 77 -35 83 0 6 -20 25 -45 42 -25 18 -45 35 -45 39 0 4 -18 14
-40 23 -37 15 -455 16 -4878 15 -2660 -1 -4846 -4 -4857 -7z"/>
<path d="M5360 16814 c-63 -13 -142 -29 -175 -35 -34 -7 -74 -22 -94 -36 -18
-14 -53 -32 -78 -39 -25 -8 -56 -24 -68 -36 -13 -13 -49 -45 -82 -73 -53 -45
-78 -73 -163 -176 -16 -20 -39 -57 -50 -84 -11 -26 -31 -60 -44 -76 -13 -16
-27 -48 -31 -76 -4 -26 -20 -75 -35 -108 -23 -48 -31 -84 -40 -180 -6 -66 -16
-138 -22 -160 -7 -22 -13 -137 -16 -255 -3 -169 0 -230 12 -285 9 -38 22 -127
30 -197 10 -84 22 -140 36 -167 11 -22 27 -71 36 -108 8 -38 26 -81 38 -98 13
-16 29 -47 35 -68 7 -21 23 -50 35 -65 13 -15 32 -45 44 -67 18 -36 114 -139
217 -233 19 -18 50 -38 68 -44 18 -6 50 -24 72 -39 22 -15 54 -31 70 -35 17
-3 61 -20 98 -36 61 -26 86 -30 223 -39 219 -13 438 2 525 35 37 14 98 30 135
37 38 6 96 25 129 42 33 16 71 35 85 41 l25 12 3 192 c1 121 -1 200 -8 212
-14 27 -44 25 -67 -3 -10 -13 -31 -32 -48 -42 -16 -11 -42 -29 -57 -41 -15
-12 -44 -28 -65 -34 -21 -7 -53 -24 -71 -37 -23 -18 -67 -31 -150 -48 -179
-35 -215 -37 -301 -15 -42 10 -92 21 -112 24 -20 4 -54 20 -74 36 -21 17 -42
30 -47 30 -7 0 -76 61 -110 97 -45 49 -79 95 -92 128 -9 22 -28 56 -41 75 -14
20 -28 62 -34 96 -5 34 -18 79 -29 100 -10 22 -22 51 -26 66 -14 60 -27 325
-26 536 2 297 12 421 43 503 14 36 30 92 37 125 6 32 20 70 29 84 10 14 29 46
41 70 34 67 102 137 178 184 67 41 68 41 167 41 l100 0 73 -44 c40 -25 78 -54
84 -65 6 -12 23 -35 39 -51 22 -24 34 -53 50 -125 12 -52 24 -119 26 -148 7
-83 4 -82 308 -82 268 0 289 3 296 40 2 8 -5 56 -14 105 -10 50 -23 113 -28
142 -6 28 -18 62 -28 75 -10 13 -28 43 -40 68 -35 74 -187 219 -253 242 -18 6
-50 24 -71 39 -24 17 -56 29 -90 33 -28 4 -81 13 -117 21 -237 52 -320 55
-490 19z"/>
<path d="M2480 16810 c-19 -5 -43 -18 -52 -30 -17 -21 -18 -93 -18 -1350 0
-1222 1 -1329 17 -1341 12 -11 69 -15 244 -17 219 -4 228 -3 248 17 21 21 21
27 21 614 0 591 0 594 21 613 20 18 46 19 461 24 421 5 440 6 454 24 22 31 20
259 -3 277 -13 11 -103 15 -454 19 -422 5 -439 6 -458 25 -19 19 -20 35 -22
394 -1 332 1 375 15 390 15 14 67 16 464 18 246 2 457 5 470 8 36 9 52 61 52
166 0 90 0 91 -34 125 l-34 34 -678 -1 c-374 -1 -695 -5 -714 -9z"/>
<path d="M7808 16800 c-48 -26 -63 -51 -78 -125 -6 -33 -23 -83 -36 -112 -13
-28 -31 -82 -40 -119 -8 -37 -24 -85 -35 -106 -11 -22 -29 -75 -40 -119 -11
-44 -28 -96 -39 -117 -11 -20 -26 -68 -35 -106 -9 -38 -27 -90 -39 -115 -13
-25 -29 -73 -36 -106 -6 -33 -23 -76 -36 -96 -14 -21 -30 -68 -39 -113 -8 -42
-26 -96 -39 -119 -13 -23 -31 -77 -39 -120 -9 -42 -25 -90 -37 -107 -11 -16
-27 -63 -35 -105 -8 -42 -26 -95 -39 -118 -13 -23 -31 -77 -39 -120 -9 -42
-25 -90 -37 -107 -11 -16 -27 -63 -35 -105 -8 -42 -26 -95 -39 -118 -13 -23
-31 -77 -39 -120 -9 -42 -25 -90 -36 -106 -11 -16 -26 -53 -32 -82 -5 -30 -17
-71 -24 -91 -28 -72 5 -81 259 -76 201 3 200 3 212 87 4 25 20 79 36 119 16
39 33 97 39 129 6 31 21 80 34 108 12 29 26 68 30 86 22 111 49 181 83 210
l34 30 407 -3 c223 -2 413 -7 423 -11 20 -11 35 -48 44 -112 3 -27 19 -79 34
-115 15 -36 33 -94 39 -130 7 -36 22 -81 33 -100 11 -19 28 -78 38 -132 11
-53 24 -107 30 -118 23 -43 64 -50 302 -50 190 0 227 2 247 16 28 20 24 55
-13 111 -15 22 -32 70 -40 113 -8 41 -26 95 -39 120 -14 25 -31 74 -37 110 -6
36 -22 84 -36 107 -13 23 -31 76 -39 117 -7 42 -25 95 -39 118 -13 24 -30 72
-36 108 -6 36 -22 84 -36 107 -13 23 -31 76 -39 117 -7 42 -25 95 -39 118 -13
24 -29 69 -35 100 -6 31 -21 74 -35 95 -15 22 -32 70 -40 116 -8 43 -24 91
-36 106 -11 16 -27 64 -36 108 -9 43 -27 96 -40 119 -13 22 -30 75 -38 117 -9
43 -25 91 -36 107 -11 16 -27 64 -36 107 -8 42 -26 96 -39 119 -14 24 -32 77
-40 119 -8 42 -23 88 -33 103 -11 15 -27 52 -36 83 -9 31 -23 63 -32 70 -13
11 -68 15 -238 17 -206 2 -224 1 -258 -18z m241 -625 c28 -53 45 -102 57 -163
9 -48 27 -108 40 -133 12 -25 28 -77 35 -115 6 -38 24 -100 39 -139 15 -38 33
-101 39 -139 7 -38 24 -92 38 -120 16 -31 28 -74 30 -111 8 -100 18 -97 -320
-93 -264 3 -287 4 -306 22 -26 24 -27 59 -2 100 11 17 25 62 31 100 6 37 22
89 35 116 13 26 30 85 39 132 8 47 26 108 40 134 13 27 30 77 36 112 6 35 24
96 40 136 16 40 32 100 36 132 15 128 36 134 93 29z"/>
<path d="M11198 16805 c-15 -9 -32 -24 -38 -35 -7 -13 -10 -448 -10 -1341 -1
-1188 1 -1324 15 -1338 23 -24 415 -29 469 -7 20 8 36 21 36 28 0 7 1 276 3
596 l2 584 28 24 28 24 429 0 c414 0 430 1 440 19 15 29 13 263 -3 284 -11 16
-46 18 -439 17 l-426 0 -29 24 -28 24 -3 371 -3 370 28 18 c25 16 66 18 485
23 356 4 460 8 470 18 16 16 29 204 16 249 -5 18 -19 38 -31 45 -17 10 -179
14 -717 15 -602 2 -699 1 -722 -12z"/>
<path d="M9641 15809 c-50 -19 -51 -79 -1 -172 15 -29 33 -77 40 -107 7 -30
23 -76 36 -102 13 -26 29 -71 35 -100 6 -29 24 -78 39 -108 15 -30 35 -88 44
-128 9 -40 27 -90 41 -110 13 -21 29 -67 35 -105 7 -39 22 -82 37 -104 15 -22
31 -68 40 -117 14 -74 14 -86 -2 -156 -10 -41 -29 -96 -42 -122 -13 -26 -30
-80 -38 -119 -8 -39 -24 -82 -35 -96 -24 -30 -26 -66 -5 -83 32 -27 201 -25
239 3 11 8 23 42 32 87 8 41 23 88 35 103 11 16 27 63 36 105 8 42 26 96 39
119 13 23 31 76 39 117 7 42 25 95 39 118 13 24 30 72 36 108 6 36 22 84 36
107 13 23 31 76 39 117 7 42 25 95 39 118 13 24 30 72 36 108 6 36 22 84 36
107 13 23 30 75 38 115 8 40 28 99 45 132 35 66 42 135 15 157 -24 20 -183 13
-207 -9 -28 -25 -66 -105 -78 -164 -5 -29 -23 -82 -39 -118 -15 -36 -34 -92
-40 -125 -7 -33 -23 -80 -35 -106 -13 -25 -26 -63 -30 -85 -15 -88 -25 -114
-45 -114 -13 0 -24 15 -39 55 -12 31 -30 73 -40 94 -11 21 -25 69 -32 107 -6
38 -23 88 -37 112 -13 24 -31 77 -39 119 -8 42 -25 98 -39 124 -13 27 -24 55
-24 63 0 7 -8 23 -17 34 -16 18 -31 21 -131 24 -62 2 -121 0 -131 -3z"/>
<path d="M9200 13740 c-19 -11 -71 -27 -114 -36 -52 -10 -93 -26 -118 -44 -22
-16 -52 -31 -67 -35 -16 -3 -39 -17 -52 -32 -13 -14 -45 -36 -71 -49 -26 -13
-51 -30 -55 -38 -4 -8 -25 -24 -45 -36 -20 -12 -40 -30 -43 -40 -3 -11 -16
-27 -29 -37 -12 -10 -33 -34 -47 -54 -51 -75 -126 -150 -160 -159 -19 -6 -83
-10 -142 -10 l-109 0 -76 75 c-43 41 -93 89 -112 108 -19 19 -53 44 -76 55
-22 11 -46 27 -53 36 -7 8 -29 20 -49 27 -20 6 -54 23 -75 37 -49 33 -175 60
-327 71 -102 8 -130 6 -245 -16 -90 -17 -146 -33 -180 -53 -27 -15 -63 -30
-78 -34 -16 -4 -40 -18 -54 -32 -14 -14 -44 -34 -67 -44 -25 -10 -88 -63 -161
-135 -112 -111 -136 -139 -215 -255 -17 -24 -36 -48 -43 -52 -7 -4 -71 -12
-142 -18 -71 -6 -183 -22 -249 -35 -67 -13 -191 -29 -276 -34 -156 -11 -229
-21 -330 -46 -30 -8 -109 -19 -175 -25 -214 -20 -289 -31 -345 -50 -34 -12
-112 -23 -207 -30 -85 -6 -172 -18 -195 -26 -54 -20 -266 -54 -335 -54 -29 0
-79 -9 -110 -20 -62 -21 -207 -45 -338 -55 -44 -4 -102 -16 -130 -26 -27 -11
-117 -29 -200 -40 -157 -20 -194 -27 -285 -53 -30 -9 -111 -23 -180 -31 -72
-8 -155 -25 -195 -40 -38 -13 -85 -25 -103 -25 -18 0 -40 -8 -52 -20 -19 -19
-20 -33 -20 -547 0 -617 4 -645 71 -589 17 14 34 26 37 26 4 0 25 16 46 35 22
19 45 35 51 35 7 0 32 16 56 34 24 19 54 38 67 41 13 3 45 21 72 39 27 18 61
37 76 40 15 4 43 20 61 36 18 16 50 32 70 36 44 8 70 20 98 44 11 10 43 25 72
33 29 9 71 27 95 41 24 13 66 30 93 37 28 7 73 25 100 40 28 15 76 32 107 38
31 5 80 22 108 36 29 15 84 33 124 40 40 8 95 26 123 41 40 20 71 27 136 31
89 6 104 0 92 -36 -7 -24 -52 -40 -134 -48 -47 -5 -71 -12 -93 -31 -18 -15
-60 -32 -105 -43 -41 -10 -83 -25 -93 -34 -10 -9 -52 -26 -94 -40 -43 -13 -86
-31 -96 -40 -10 -9 -46 -25 -80 -35 -35 -10 -72 -28 -84 -38 -11 -11 -44 -27
-73 -36 -28 -10 -63 -26 -77 -37 -13 -11 -44 -26 -68 -35 -24 -8 -59 -26 -78
-39 -19 -13 -51 -31 -71 -39 -19 -8 -42 -23 -50 -32 -8 -10 -34 -26 -59 -37
-25 -11 -61 -33 -81 -48 -20 -16 -42 -29 -48 -29 -6 0 -28 -15 -48 -34 -21
-18 -53 -41 -70 -50 -18 -9 -33 -20 -33 -25 0 -5 -28 -27 -63 -50 -94 -62
-131 -91 -142 -109 -12 -22 -19 -355 -8 -406 12 -58 34 -67 72 -30 17 16 48
44 68 61 21 18 54 47 73 65 19 18 49 42 66 53 45 29 109 75 159 115 107 85
256 190 269 190 7 0 25 14 41 30 16 17 34 30 41 30 7 0 33 16 58 35 25 19 63
42 83 50 21 9 47 24 58 35 11 10 43 28 70 40 28 12 59 30 70 40 11 10 42 28
69 40 27 11 62 32 78 45 16 14 35 25 42 25 7 0 34 14 60 30 26 17 71 39 98 50
28 10 58 25 67 33 9 8 45 24 80 36 36 11 75 30 87 42 13 12 51 28 85 36 35 8
75 25 90 37 15 13 52 29 81 36 29 7 76 25 103 40 28 15 72 33 99 39 27 7 69
23 95 36 26 13 76 29 111 36 36 7 90 25 120 41 39 19 80 31 138 37 63 7 89 14
106 30 31 29 78 41 161 41 83 0 106 -10 85 -35 -20 -24 -55 -35 -139 -45 -57
-6 -78 -13 -90 -29 -20 -26 -52 -37 -127 -46 -37 -4 -72 -16 -96 -32 -20 -13
-67 -31 -105 -40 -37 -8 -90 -28 -118 -43 -27 -15 -75 -33 -106 -39 -32 -7
-65 -21 -74 -32 -10 -10 -50 -29 -89 -40 -39 -12 -80 -29 -91 -39 -11 -10 -47
-25 -80 -35 -33 -9 -76 -28 -96 -41 -20 -14 -54 -30 -75 -35 -22 -6 -48 -19
-60 -30 -11 -10 -49 -30 -84 -44 -35 -14 -70 -31 -79 -39 -9 -8 -34 -23 -56
-33 -22 -10 -54 -28 -70 -39 -17 -12 -52 -31 -78 -42 -27 -12 -62 -33 -79 -47
-16 -14 -35 -25 -41 -25 -7 0 -38 -18 -71 -40 -32 -22 -63 -40 -68 -40 -6 0
-28 -16 -51 -35 -22 -19 -45 -35 -51 -35 -6 0 -31 -16 -55 -35 -24 -19 -48
-35 -52 -35 -5 0 -25 -15 -45 -32 -20 -18 -52 -42 -69 -53 -60 -37 -181 -129
-239 -180 -19 -16 -57 -50 -86 -75 -130 -112 -359 -344 -365 -370 -14 -64 38
-168 95 -189 45 -17 164 -41 201 -41 43 0 117 53 151 109 28 44 317 332 375
372 22 16 55 41 71 56 17 16 54 46 82 68 28 22 67 55 86 73 19 17 39 32 44 32
6 0 27 15 47 34 21 18 54 41 73 51 19 10 41 26 48 37 7 10 29 25 49 33 19 8
51 28 69 45 19 16 42 30 50 30 8 0 31 15 50 34 20 19 48 38 63 41 15 3 42 19
59 35 18 16 48 34 68 39 19 5 50 23 69 40 19 17 53 35 75 41 22 6 44 19 50 30
6 11 33 26 62 35 31 9 63 27 79 44 17 20 40 31 70 36 31 5 51 15 69 36 19 23
38 31 79 38 43 7 58 15 78 40 23 29 29 31 89 31 50 0 64 -3 64 -15 0 -27 -36
-52 -86 -60 -36 -5 -55 -14 -74 -36 -18 -21 -39 -32 -74 -38 -31 -6 -57 -18
-72 -34 -21 -23 -78 -47 -111 -47 -7 0 -19 -13 -28 -30 -11 -22 -24 -31 -53
-35 -63 -11 -73 -16 -82 -40 -6 -17 -23 -28 -52 -36 -24 -7 -55 -25 -69 -40
-15 -15 -43 -32 -63 -38 -20 -5 -46 -21 -57 -36 -12 -14 -37 -32 -56 -40 -19
-8 -50 -28 -68 -44 -19 -16 -44 -32 -56 -36 -13 -4 -32 -18 -42 -32 -10 -13
-33 -31 -50 -40 -18 -8 -49 -30 -69 -47 -20 -17 -58 -47 -83 -66 -79 -59 -330
-292 -384 -354 -9 -11 -27 -29 -40 -40 -12 -12 -30 -29 -40 -39 -9 -10 -46
-50 -84 -89 -68 -71 -84 -111 -54 -136 7 -6 89 -11 202 -13 184 -2 191 -1 230
22 22 13 124 107 226 209 102 102 206 202 230 222 24 21 60 51 79 68 67 59
131 110 138 110 7 0 49 32 152 115 46 37 123 89 169 114 14 7 40 26 56 40 17
15 49 36 73 46 23 10 48 25 54 33 7 8 33 23 57 34 24 10 59 32 78 48 18 17 40
30 47 30 7 0 31 12 52 27 21 14 61 35 88 45 28 11 64 32 82 47 17 16 47 31 66
35 19 3 45 17 58 31 13 13 48 32 79 41 30 9 68 27 84 40 17 14 47 26 79 30 37
5 60 15 81 36 32 30 42 33 117 42 24 2 46 9 48 14 13 41 93 73 132 52 45 -24
16 -57 -56 -66 -37 -5 -55 -13 -74 -36 -20 -23 -37 -31 -84 -37 -48 -7 -62
-13 -82 -39 -19 -23 -36 -33 -70 -38 -41 -6 -84 -34 -84 -55 0 -5 -23 -15 -52
-24 -29 -8 -63 -26 -78 -39 -14 -13 -42 -29 -63 -36 -21 -7 -53 -24 -70 -40
-18 -15 -49 -33 -70 -39 -20 -7 -41 -21 -47 -30 -5 -10 -34 -29 -65 -41 -31
-12 -61 -30 -68 -40 -7 -9 -30 -26 -53 -38 -22 -11 -46 -28 -54 -37 -8 -9 -32
-26 -54 -37 -23 -11 -56 -32 -73 -47 -18 -14 -53 -42 -78 -61 -25 -19 -66 -52
-91 -72 -25 -21 -49 -38 -53 -38 -12 0 -131 -99 -234 -195 -27 -25 -52 -45
-56 -45 -4 0 -13 -11 -20 -24 -7 -13 -23 -29 -36 -36 -13 -7 -29 -23 -36 -37
-7 -13 -25 -31 -40 -40 -15 -9 -33 -26 -39 -39 -7 -12 -22 -27 -35 -34 -13 -7
-28 -22 -34 -34 -7 -11 -27 -31 -46 -44 -27 -17 -35 -29 -35 -51 0 -60 9 -62
262 -59 l229 3 65 70 c126 135 144 156 144 165 0 5 9 11 20 15 11 3 27 19 36
34 9 16 29 35 43 44 15 9 33 27 40 40 7 14 23 30 36 37 13 7 28 22 35 34 6 13
24 30 38 38 15 9 39 27 54 40 15 13 52 43 83 68 30 25 78 63 105 85 126 102
218 169 269 194 22 12 44 27 48 35 4 7 26 23 49 34 22 11 47 28 54 37 8 9 35
27 61 41 26 13 51 29 55 35 3 6 30 22 58 34 28 13 64 34 81 49 16 14 42 28 57
31 15 4 43 19 63 35 20 16 58 36 84 45 27 9 57 25 67 36 9 11 41 26 70 35 29
8 58 22 65 30 17 21 57 40 101 48 21 4 44 16 52 27 16 23 77 48 119 49 15 0
35 9 45 21 27 32 67 49 116 49 40 0 47 4 60 29 18 35 33 41 97 41 36 0 51 -4
56 -16 9 -25 -18 -43 -82 -55 -47 -8 -65 -17 -83 -40 -18 -22 -34 -30 -74 -35
-38 -5 -58 -15 -83 -39 -21 -22 -46 -35 -74 -40 -25 -4 -57 -20 -82 -41 -23
-19 -52 -34 -66 -34 -30 0 -55 -13 -87 -45 -13 -13 -42 -29 -65 -35 -22 -6
-45 -19 -51 -29 -5 -11 -31 -27 -57 -37 -27 -10 -62 -30 -80 -45 -17 -15 -42
-30 -54 -34 -12 -4 -42 -22 -66 -41 -25 -19 -51 -34 -59 -34 -8 0 -31 -15 -51
-33 -21 -18 -49 -38 -63 -44 -14 -5 -45 -27 -68 -47 -24 -20 -50 -36 -57 -36
-8 0 -21 -10 -29 -21 -8 -12 -30 -31 -49 -43 -53 -33 -209 -159 -320 -258 -41
-37 -354 -346 -423 -419 -35 -37 -44 -78 -21 -97 7 -7 100 -11 244 -13 l232
-2 33 29 c63 55 148 143 148 153 0 14 188 203 230 232 19 13 63 52 97 86 34
35 66 63 71 63 5 0 42 32 83 70 40 39 77 70 81 70 5 0 25 15 45 34 21 18 54
41 73 51 19 10 52 32 72 49 85 71 111 90 146 109 20 10 46 27 57 37 11 10 38
26 60 35 22 9 51 27 65 40 14 13 43 31 65 40 22 9 49 25 60 35 11 11 41 26 65
35 25 9 56 27 70 40 14 13 48 29 75 35 33 7 59 21 77 41 23 25 34 29 77 29 44
0 51 -3 51 -20 0 -23 -31 -45 -76 -54 -17 -4 -40 -20 -52 -35 -13 -19 -36 -32
-66 -40 -29 -7 -52 -20 -61 -35 -9 -13 -30 -30 -48 -37 -18 -7 -50 -28 -71
-46 -22 -18 -46 -33 -53 -33 -7 0 -30 -15 -50 -34 -21 -18 -48 -36 -60 -40
-13 -4 -41 -23 -64 -42 -22 -19 -45 -34 -49 -34 -5 0 -29 -17 -54 -37 -25 -21
-69 -56 -97 -78 -28 -22 -68 -54 -88 -71 -20 -17 -50 -39 -68 -48 -17 -9 -38
-24 -45 -33 -7 -10 -29 -30 -49 -45 -20 -14 -135 -126 -257 -247 -182 -181
-222 -226 -222 -249 0 -15 4 -33 8 -40 7 -10 695 -12 3491 -12 l3484 0 84 26
c74 23 87 30 113 66 17 23 30 45 30 50 0 5 12 27 28 50 l27 42 3 1466 c2 1257
0 1469 -12 1485 -12 17 -25 19 -98 17 -51 -2 -96 2 -114 9 -35 15 -353 27
-974 37 -500 8 -492 7 -511 76 -6 23 -15 55 -20 71 -5 17 -37 61 -72 97 -56
60 -69 68 -133 87 -89 26 -154 27 -236 1 -54 -16 -74 -30 -116 -74 -29 -30
-52 -60 -52 -65 0 -21 -46 -10 -72 17 -25 26 -68 61 -172 138 -27 19 -67 42
-89 50 -22 8 -54 25 -71 38 -18 14 -70 32 -125 45 -52 13 -107 29 -122 37 -21
11 -70 14 -206 13 -155 0 -182 -3 -213 -19z m376 -95 c27 -8 78 -20 114 -26
39 -6 83 -21 110 -38 25 -16 61 -34 81 -40 20 -6 46 -22 59 -35 12 -14 36 -30
53 -37 18 -7 48 -29 68 -48 20 -20 43 -42 50 -50 72 -70 90 -92 107 -133 12
-27 26 -48 31 -48 6 0 22 -22 36 -49 13 -28 32 -54 40 -59 9 -4 22 -32 30 -60
7 -29 27 -68 43 -86 24 -27 31 -47 36 -99 6 -51 14 -74 35 -101 32 -40 47
-107 31 -136 -6 -11 -29 -24 -53 -31 -23 -6 -59 -25 -79 -43 -67 -55 -147
-135 -159 -157 -6 -12 -26 -42 -45 -66 -19 -25 -34 -52 -34 -60 0 -9 -14 -38
-31 -65 -25 -38 -33 -65 -39 -121 -4 -40 -13 -84 -20 -97 -16 -28 -15 -249 0
-310 5 -19 13 -70 19 -113 7 -57 15 -85 30 -101 25 -27 43 -83 35 -108 -3 -10
-18 -25 -34 -33 -16 -8 -34 -24 -40 -35 -6 -12 -34 -31 -63 -44 -29 -12 -59
-31 -67 -40 -13 -17 -112 -66 -131 -66 -14 0 -36 52 -42 102 -4 25 -17 62 -30
82 -14 19 -28 55 -31 79 -4 29 -16 53 -32 68 -14 13 -34 41 -45 61 -10 20 -37
52 -60 70 -22 18 -56 46 -75 61 -22 19 -56 33 -98 42 -35 7 -82 23 -105 34
-53 27 -93 26 -144 -3 -23 -14 -62 -28 -87 -32 -53 -8 -64 -13 -108 -51 -73
-62 -135 -130 -152 -168 -9 -22 -26 -47 -36 -56 -44 -38 -96 -31 -109 13 -4
13 -19 39 -35 58 -15 20 -36 53 -48 75 -11 22 -29 45 -40 52 -10 6 -25 32 -32
58 -7 26 -25 61 -38 77 -21 25 -28 49 -38 129 -9 81 -17 107 -40 142 l-29 42
-3 284 -3 283 35 72 c22 44 36 88 37 112 1 78 16 134 42 162 14 15 31 49 38
75 7 28 20 54 31 60 11 7 32 37 48 67 15 30 37 63 48 73 11 10 25 31 32 46 6
16 22 33 36 40 13 6 29 22 36 36 6 14 15 25 19 25 5 0 31 20 59 45 28 25 55
45 60 45 5 0 25 14 44 30 18 17 52 36 74 44 22 8 57 26 79 40 22 14 67 30 105
36 37 7 87 18 110 25 60 19 252 19 314 0z m-2073 -176 c43 -6 92 -22 122 -39
28 -15 62 -30 76 -34 15 -3 46 -21 68 -40 23 -19 51 -38 64 -42 12 -3 36 -19
52 -35 120 -115 209 -208 221 -231 8 -15 23 -32 35 -38 11 -6 29 -32 40 -58
11 -26 32 -60 47 -75 25 -27 27 -34 26 -117 -2 -128 -34 -200 -87 -200 -8 0
-52 35 -97 79 -62 59 -91 80 -117 84 -20 4 -54 19 -76 34 l-40 28 -176 0
c-174 0 -176 0 -211 -26 -19 -15 -52 -32 -73 -39 -21 -7 -53 -25 -70 -40 -18
-15 -42 -31 -55 -34 -12 -4 -33 -24 -46 -44 -13 -20 -33 -45 -44 -56 -12 -10
-27 -35 -33 -55 -7 -20 -26 -52 -43 -72 -17 -19 -36 -44 -42 -55 -10 -17 -28
-20 -160 -26 -276 -14 -419 -26 -474 -42 -71 -21 -143 -21 -161 0 -22 26 -13
131 16 187 14 27 30 79 35 115 8 46 20 80 40 109 17 23 33 57 37 75 7 38 17
61 37 80 8 8 25 37 39 64 14 28 33 56 42 64 9 7 23 27 32 44 20 39 246 262
287 283 17 9 44 26 59 39 15 13 51 30 80 39 28 8 67 26 87 40 24 17 58 28 105
34 101 12 275 13 358 0z m3163 -12 c16 -8 52 -42 81 -76 45 -53 53 -69 62
-128 17 -101 2 -222 -33 -264 -15 -17 -36 -49 -46 -70 -23 -45 -82 -69 -128
-53 -36 13 -89 85 -97 134 -4 23 -19 56 -34 73 -16 18 -33 47 -39 64 -6 18
-26 51 -44 74 -29 37 -33 48 -33 101 1 57 3 63 35 90 52 45 77 60 113 69 44
11 129 4 163 -14z m-2884 -806 c70 -7 82 -12 118 -45 22 -20 47 -36 55 -36 27
0 134 -114 150 -159 8 -24 28 -55 43 -69 26 -25 29 -35 35 -118 4 -51 11 -104
17 -119 5 -14 15 -57 21 -95 8 -56 7 -79 -5 -122 -8 -29 -22 -90 -30 -136 -11
-60 -23 -92 -41 -114 -14 -17 -32 -44 -40 -62 -29 -65 -176 -194 -237 -207
-24 -5 -74 -23 -111 -40 -55 -25 -76 -30 -109 -25 -55 9 -114 41 -135 74 -9
15 -32 44 -50 65 -18 20 -33 42 -33 47 0 9 -29 26 -140 80 -25 12 -52 25 -60
29 -8 4 -22 28 -30 53 -8 25 -27 59 -41 76 -24 28 -27 40 -34 156 -4 69 -4
182 0 251 7 118 9 128 36 161 16 20 33 52 38 70 11 38 131 178 170 199 14 7
40 27 58 43 30 29 41 33 148 45 55 7 129 6 207 -2z m3041 -115 c23 -12 73 -28
111 -35 74 -13 103 -32 209 -138 91 -91 117 -122 117 -137 0 -9 14 -31 30 -50
21 -23 34 -52 41 -91 13 -73 6 -101 -30 -119 -16 -9 -38 -30 -50 -48 -11 -18
-30 -46 -41 -63 -19 -27 -20 -43 -18 -156 l3 -126 36 -40 c63 -70 58 -166 -14
-242 -86 -90 -135 -134 -172 -151 -22 -11 -52 -29 -67 -41 -33 -27 -94 -38
-224 -38 -138 -1 -201 12 -239 49 -17 17 -36 30 -43 30 -22 0 -174 154 -192
195 -9 22 -29 57 -43 78 -14 20 -28 56 -32 80 -4 23 -21 74 -39 112 -29 66
-31 76 -30 190 0 108 3 126 28 185 16 36 34 94 41 129 10 49 20 71 44 93 17
16 31 35 31 42 0 22 118 149 157 169 21 11 52 32 68 47 20 19 48 32 85 39 30
6 77 22 104 36 61 31 76 31 129 1z m-4883 -446 c8 -5 11 -12 8 -15 -9 -10 -76
-10 -85 -1 -10 9 16 26 42 26 11 0 27 -4 35 -10z m-207 -69 c28 -28 -45 -50
-165 -51 -60 0 -78 3 -78 14 0 18 21 35 57 46 37 12 171 6 186 -9z m-980 -8
c19 -12 -11 -21 -88 -27 -92 -7 -124 4 -90 30 16 13 35 14 94 9 41 -3 79 -9
84 -12z m-280 -60 c15 -9 6 -30 -18 -41 -38 -18 -205 -16 -205 2 0 22 25 37
77 46 44 7 128 3 146 -7z m1777 -23 c0 -5 -11 -10 -25 -10 -14 0 -25 5 -25 10
0 6 11 10 25 10 14 0 25 -4 25 -10z m5297 -43 c43 -24 80 -84 87 -139 8 -74
-5 -120 -54 -178 -33 -39 -49 -50 -73 -52 -65 -3 -83 4 -126 46 -52 52 -67
109 -51 193 13 72 33 107 72 126 39 19 114 21 145 4z m-5490 -21 c14 -13 -14
-26 -57 -26 -54 0 -74 15 -38 30 22 9 85 7 95 -4z m-208 -70 c26 -31 -77 -61
-133 -40 -21 8 -20 31 2 43 26 16 118 13 131 -3z m-231 -62 c16 -5 22 -13 20
-28 -4 -27 -63 -43 -110 -30 -82 24 6 80 90 58z m787 -24 c4 -6 -7 -10 -24
-10 -17 0 -31 5 -31 10 0 6 11 10 24 10 14 0 28 -4 31 -10z m-963 -56 c15 -9
8 -33 -11 -44 -11 -5 -45 -10 -75 -10 -50 0 -56 2 -56 20 0 38 98 61 142 34z
m1468 -4 c13 -9 12 -13 -9 -30 -17 -15 -38 -20 -77 -20 -47 0 -54 3 -54 20 0
10 8 24 18 29 22 13 103 14 122 1z m-677 -7 c13 -13 -16 -33 -49 -33 -34 0
-50 12 -39 30 7 11 78 14 88 3z m-966 -69 c10 -27 -23 -47 -87 -52 -59 -4 -60
-4 -60 21 0 30 32 45 98 46 30 1 44 -4 49 -15z m4084 -16 c20 -16 42 -28 49
-28 15 0 140 -124 140 -140 0 -6 14 -32 32 -56 28 -39 32 -54 39 -140 4 -52 4
-146 0 -209 -7 -108 -8 -114 -39 -149 -18 -20 -32 -41 -32 -47 0 -13 -105
-124 -143 -151 -36 -26 -183 -48 -246 -37 -25 5 -61 11 -79 14 -24 4 -56 30
-121 94 -73 73 -90 97 -100 136 -6 26 -21 60 -33 75 -14 20 -24 55 -31 112 -9
76 -8 88 13 143 13 33 33 91 46 129 13 37 37 84 54 102 16 19 36 47 44 63 10
18 31 34 59 45 25 9 59 31 77 47 32 31 32 31 133 27 93 -3 105 -5 138 -30z
m-3304 6 c9 -23 -15 -34 -74 -34 -46 0 -53 3 -53 19 0 24 12 29 73 30 35 1 49
-3 54 -15z m-947 -74 c0 -25 -22 -36 -92 -45 -57 -7 -58 -7 -58 17 0 38 19 48
87 48 56 0 63 -2 63 -20z m2224 -63 c16 -11 26 -30 31 -59 4 -24 16 -59 25
-79 12 -23 15 -40 9 -50 -5 -8 -18 -39 -30 -69 -26 -69 -42 -87 -90 -100 -46
-13 -120 2 -134 26 -5 9 -23 32 -39 51 -55 64 -52 172 6 244 18 23 42 45 53
50 30 13 141 4 169 -14z m-379 -98 c0 -8 -10 -15 -22 -17 -25 -4 -33 22 -10
31 18 8 32 2 32 -14z"/>
<path d="M15705 19990 c-53 -21 -50 50 -50 -1238 l0 -1195 25 -18 c21 -15 48
-19 154 -21 116 -2 130 0 142 17 12 15 14 116 14 566 0 514 1 548 18 569 l18
23 371 -2 c392 -2 440 2 468 42 25 35 20 120 -9 154 l-24 28 -404 2 c-400 2
-403 2 -420 24 -17 19 -18 55 -18 419 0 329 2 400 14 409 10 9 128 12 430 11
271 0 423 3 436 10 34 18 41 44 30 117 -6 44 -15 72 -26 80 -14 10 -142 13
-583 12 -311 0 -575 -4 -586 -9z"/>
<path d="M22142 19990 c-19 -4 -39 -13 -45 -19 -9 -9 -13 -319 -15 -1209 -2
-1029 0 -1200 12 -1217 12 -17 30 -21 118 -26 120 -6 153 2 165 39 4 15 6 564
3 1220 -6 1379 10 1223 -124 1221 -45 -1 -96 -5 -114 -9z"/>
<path d="M26739 19989 c-14 -5 -31 -21 -38 -35 -8 -17 -11 -155 -11 -459 0
-481 5 -450 -64 -421 -18 7 -43 28 -56 46 -12 17 -56 53 -97 80 -88 57 -134
65 -321 58 -116 -5 -118 -6 -207 -52 -49 -25 -97 -54 -105 -64 -8 -9 -30 -28
-47 -40 -18 -13 -33 -29 -33 -35 0 -7 -18 -36 -39 -65 -22 -28 -43 -66 -47
-84 -3 -18 -20 -58 -36 -89 -26 -49 -31 -74 -39 -176 -5 -65 -15 -147 -21
-183 -14 -82 -14 -148 0 -230 7 -36 16 -120 21 -187 7 -98 13 -130 31 -160 12
-21 29 -60 37 -88 8 -27 27 -66 42 -85 15 -19 35 -49 45 -67 9 -18 26 -38 39
-44 12 -7 38 -25 57 -40 20 -16 82 -44 143 -64 130 -42 243 -48 313 -16 23 10
67 26 98 35 36 11 68 29 91 51 19 19 39 35 45 35 5 0 21 18 35 40 14 22 33 40
43 40 10 0 27 7 38 15 10 8 23 15 27 15 4 0 7 -36 6 -81 -3 -75 -1 -82 21 -99
18 -14 47 -20 105 -22 99 -4 131 5 142 40 4 15 6 564 3 1220 -6 1376 9 1223
-119 1221 -42 0 -88 -5 -102 -10z m-377 -941 c47 -18 74 -39 133 -100 41 -42
77 -89 81 -105 3 -15 19 -52 35 -80 19 -34 33 -79 39 -125 5 -40 17 -111 27
-157 16 -78 16 -89 0 -175 -10 -50 -22 -131 -27 -180 -7 -66 -16 -99 -33 -125
-13 -20 -30 -52 -38 -71 -29 -78 -93 -151 -179 -208 -48 -32 -64 -37 -128 -40
-117 -7 -134 0 -216 83 -59 59 -76 84 -85 121 -7 26 -19 60 -27 76 -60 116
-60 669 0 785 8 16 21 54 29 86 10 39 28 71 56 103 23 26 41 50 41 55 0 10 65
50 109 65 54 20 117 17 183 -8z"/>
<path d="M29209 19985 c-15 -8 -30 -27 -34 -42 -4 -15 -6 -218 -5 -451 1 -382
-1 -423 -15 -429 -27 -10 -84 24 -101 61 -10 20 -31 40 -53 51 -20 9 -58 31
-86 48 l-50 32 -170 0 -171 0 -90 -44 c-93 -47 -179 -114 -203 -160 -8 -14
-26 -40 -41 -58 -16 -18 -33 -53 -39 -82 -6 -28 -22 -73 -36 -100 -38 -73 -45
-139 -45 -456 0 -332 8 -403 50 -483 16 -31 30 -65 30 -75 0 -24 24 -70 46
-88 9 -8 23 -29 31 -46 7 -18 25 -40 41 -50 15 -9 41 -29 58 -44 18 -15 78
-41 143 -62 143 -47 240 -50 329 -13 31 13 75 29 98 35 22 6 56 26 75 44 19
18 41 38 49 43 9 5 23 21 33 36 17 27 94 69 111 60 4 -2 5 -35 2 -73 -7 -65
-6 -70 18 -94 22 -22 35 -25 98 -27 105 -2 118 -1 139 18 18 17 19 56 19 1211
0 1204 -1 1223 -34 1245 -20 14 -169 8 -197 -7z m-357 -941 c67 -25 82 -39
165 -141 17 -22 36 -58 42 -80 6 -22 20 -52 31 -66 12 -15 25 -50 30 -79 5
-29 16 -91 24 -138 28 -155 30 -194 13 -246 -8 -27 -18 -83 -21 -124 -8 -90
-22 -146 -46 -180 -9 -14 -24 -47 -33 -74 -22 -63 -86 -134 -177 -194 -48 -31
-65 -36 -128 -40 -117 -7 -133 -1 -217 84 -63 65 -75 83 -85 127 -6 28 -20 67
-31 86 -31 53 -41 169 -37 423 4 213 6 238 27 293 12 33 31 91 41 129 11 38
29 80 43 95 13 14 33 39 43 55 9 15 34 39 55 51 80 51 162 57 261 19z"/>
<path d="M23219 19741 c-13 -10 -44 -27 -69 -38 -25 -11 -61 -37 -80 -57 l-35
-37 0 -169 c0 -219 4 -213 -161 -220 -112 -5 -117 -6 -140 -33 -31 -36 -31
-78 0 -114 24 -27 27 -28 150 -33 83 -3 129 -9 138 -18 10 -10 13 -138 15
-625 1 -615 4 -681 28 -727 23 -45 120 -128 161 -139 21 -6 64 -17 95 -25 30
-7 75 -20 100 -28 31 -11 81 -14 168 -13 l123 2 36 36 c30 30 36 44 40 89 6
78 0 81 -166 83 -139 3 -188 12 -198 40 -4 9 -19 22 -35 30 -20 11 -31 27 -39
58 -6 23 -18 65 -26 93 -11 41 -14 150 -14 575 0 288 4 529 8 535 19 29 56 34
244 34 140 0 199 4 211 13 25 18 33 97 13 135 l-17 32 -200 0 -201 0 -29 30
-30 30 2 231 c2 246 1 248 -47 249 -12 0 -32 -8 -45 -19z"/>
<path d="M17452 19249 c-30 -5 -72 -20 -95 -33 -23 -13 -58 -29 -77 -35 -56
-18 -149 -117 -194 -206 -48 -96 -56 -150 -28 -185 19 -24 23 -24 138 -21 65
1 126 7 136 12 24 13 63 91 82 165 8 32 23 64 32 69 9 6 36 26 60 47 37 31 53
37 108 43 37 4 92 3 126 -3 53 -10 70 -19 125 -67 58 -51 65 -62 76 -113 6
-31 17 -77 25 -101 9 -28 14 -90 14 -164 0 -104 -3 -124 -21 -153 -11 -19 -30
-39 -41 -45 -12 -6 -91 -15 -177 -20 -198 -11 -287 -25 -326 -49 -17 -11 -56
-25 -86 -31 -105 -21 -267 -151 -289 -231 -6 -21 -22 -61 -35 -90 -34 -72 -34
-163 -1 -233 12 -28 28 -67 35 -87 8 -25 38 -61 90 -109 74 -69 84 -74 182
-105 137 -44 192 -50 249 -29 25 9 82 27 128 40 72 20 91 31 152 85 59 52 74
61 102 58 32 -3 33 -4 36 -53 4 -74 23 -85 145 -85 93 0 133 9 149 34 4 6 8
270 8 586 0 456 -3 592 -14 655 -8 44 -19 109 -25 144 -7 44 -18 72 -35 90
-13 14 -30 38 -37 52 -22 40 -87 91 -173 134 l-79 40 -206 2 c-113 1 -230 -2
-259 -8z m502 -980 c24 -19 26 -26 26 -97 0 -41 -7 -101 -15 -131 -8 -31 -19
-74 -25 -96 -14 -57 -96 -159 -161 -201 -98 -62 -114 -67 -221 -62 -93 4 -99
5 -130 35 -18 17 -43 36 -55 42 -29 15 -78 166 -68 211 23 107 107 208 197
239 29 10 69 28 89 40 36 21 142 37 275 40 48 1 67 -3 88 -20z"/>
<path d="M19150 19250 c-86 -15 -250 -106 -299 -165 -9 -10 -31 -33 -48 -50
-18 -17 -33 -36 -33 -41 0 -5 -16 -34 -35 -65 -19 -30 -39 -77 -45 -102 -5
-26 -21 -75 -33 -109 -47 -124 -43 -482 6 -633 14 -44 29 -96 32 -115 3 -20
21 -60 40 -90 19 -30 35 -60 35 -67 0 -23 176 -192 222 -213 24 -11 54 -29 68
-40 15 -12 75 -29 154 -45 71 -15 140 -31 155 -37 42 -16 262 -13 318 5 26 9
84 23 127 33 101 21 131 47 121 102 -8 45 -34 74 -66 74 -13 0 -77 -5 -141
-12 -154 -16 -291 -4 -345 32 -21 13 -58 32 -83 41 -77 29 -198 159 -232 249
-11 29 -29 63 -40 74 -19 21 -26 52 -65 289 -13 77 -7 243 10 315 9 36 19 90
22 121 4 35 13 64 25 76 10 11 30 44 45 72 21 42 40 61 100 100 84 55 144 68
233 51 77 -14 177 -94 192 -153 6 -23 18 -62 25 -86 8 -25 15 -55 15 -69 0
-33 28 -78 57 -91 13 -6 73 -11 133 -11 117 0 134 6 146 56 11 43 -13 163 -39
202 -14 21 -28 48 -32 62 -12 39 -132 158 -174 171 -20 7 -50 23 -68 36 -20
16 -54 28 -95 33 -75 11 -345 11 -408 0z"/>
<path d="M24384 19250 c-23 -5 -64 -20 -90 -34 -27 -14 -60 -28 -74 -31 -27
-6 -107 -79 -156 -141 -31 -40 -74 -155 -74 -200 0 -14 11 -35 25 -48 23 -22
37 -24 143 -28 64 -2 122 -3 129 0 16 5 31 47 41 112 16 104 127 213 231 225
87 10 176 -8 217 -45 19 -16 39 -30 44 -30 5 0 28 -37 51 -82 l42 -83 7 -155
c11 -256 7 -261 -243 -272 -200 -9 -264 -19 -327 -52 -26 -13 -67 -27 -93 -31
-26 -4 -63 -19 -83 -34 -60 -44 -148 -123 -171 -156 -12 -16 -30 -40 -39 -53
-12 -17 -18 -52 -22 -136 -6 -138 3 -213 29 -252 79 -118 149 -181 226 -201
31 -8 75 -24 98 -36 58 -31 179 -28 261 6 32 14 76 28 97 32 22 4 58 22 82 40
23 18 52 36 64 40 12 3 33 24 47 46 41 65 81 42 77 -43 -2 -41 2 -54 23 -75
20 -20 32 -24 56 -19 17 3 61 6 98 6 50 0 74 5 89 18 l22 17 -1 658 c0 619 -1
661 -19 695 -10 20 -26 62 -36 92 -22 71 -98 151 -180 191 -33 16 -73 37 -90
47 -25 14 -63 17 -245 19 -118 1 -234 -2 -256 -7z m522 -972 c19 -14 22 -52
14 -166 -6 -93 -11 -115 -39 -166 -17 -32 -31 -64 -31 -70 -1 -17 -106 -126
-122 -126 -8 0 -25 -11 -38 -25 -31 -33 -78 -45 -178 -45 -102 0 -133 13 -195
78 -60 66 -67 84 -67 192 l0 89 61 71 c34 39 75 77 93 84 171 72 213 83 351
93 103 8 132 7 151 -9z"/>
<path d="M30320 19251 c-19 -4 -55 -19 -80 -33 -25 -14 -61 -31 -80 -37 -41
-13 -194 -154 -205 -189 -4 -13 -20 -38 -35 -56 -17 -19 -34 -54 -40 -82 -6
-27 -23 -85 -37 -129 -26 -78 -27 -87 -27 -310 1 -216 2 -233 23 -280 12 -27
29 -84 37 -125 8 -41 23 -83 33 -95 10 -11 30 -43 44 -71 14 -27 33 -56 42
-64 9 -7 25 -30 35 -50 11 -22 31 -42 50 -50 17 -7 35 -22 41 -32 6 -11 36
-31 67 -45 32 -13 66 -33 77 -43 12 -12 66 -29 140 -45 66 -14 135 -30 153
-36 44 -14 269 -14 307 1 17 6 79 22 139 35 60 13 116 31 125 40 19 19 20 89
2 124 -11 19 -18 22 -44 18 -18 -3 -87 -11 -153 -18 -145 -15 -321 -1 -362 28
-14 10 -46 29 -73 43 -98 51 -219 192 -249 290 -9 30 -27 71 -38 90 -14 23
-29 83 -43 175 -28 172 -28 211 0 239 21 21 29 21 498 26 l477 5 15 27 c23 41
-6 262 -41 316 -14 20 -30 54 -37 74 -20 62 -135 168 -237 219 l-87 43 -201 2
c-111 2 -217 0 -236 -5z m291 -151 c29 -6 62 -19 73 -29 12 -10 35 -26 52 -34
18 -9 41 -31 52 -49 12 -18 30 -44 42 -58 14 -17 22 -47 26 -99 6 -65 5 -76
-11 -87 -25 -19 -620 -20 -660 -2 -27 12 -30 30 -15 87 5 20 11 47 14 61 7 33
88 119 156 166 72 49 164 64 271 44z"/>
<path d="M20261 19189 l-31 -31 0 -607 c0 -497 3 -616 14 -657 8 -27 18 -70
21 -97 4 -26 18 -62 31 -80 13 -17 31 -45 40 -61 24 -43 105 -122 134 -131 14
-4 46 -18 72 -31 62 -31 198 -37 278 -11 30 9 87 26 126 37 64 18 79 27 139
86 36 37 78 84 92 105 13 20 31 40 39 43 8 3 22 22 30 41 16 40 41 55 55 34 5
-8 9 -73 9 -145 0 -172 -2 -170 156 -166 51 1 78 7 93 20 l22 17 0 805 0 805
-31 28 c-28 25 -36 27 -118 27 -92 0 -117 -10 -141 -57 -7 -15 -11 -144 -11
-410 0 -226 -4 -403 -10 -423 -5 -19 -15 -73 -21 -120 -8 -60 -19 -100 -39
-136 -16 -28 -34 -71 -40 -95 -6 -24 -23 -55 -36 -69 -13 -14 -50 -53 -83 -88
-50 -54 -67 -66 -122 -82 -81 -25 -120 -25 -195 0 -84 29 -140 94 -177 208
l-27 83 0 565 0 566 -29 29 c-28 28 -33 29 -119 29 -88 0 -91 -1 -121 -31z"/>
<path d="M16530 16663 c-19 -2 -66 -10 -105 -18 -38 -8 -92 -17 -119 -20 -53
-7 -195 -76 -251 -121 -31 -26 -125 -117 -174 -169 -10 -11 -29 -40 -41 -65
-13 -25 -33 -57 -45 -72 -12 -15 -26 -43 -30 -64 -3 -21 -19 -63 -35 -94 -26
-51 -45 -131 -70 -298 -6 -35 -15 -73 -21 -83 -15 -28 -15 -439 0 -467 6 -11
11 -42 11 -67 0 -25 5 -56 11 -67 6 -12 18 -66 25 -122 10 -66 23 -114 39
-143 13 -24 31 -67 39 -97 9 -30 27 -67 39 -83 13 -15 29 -43 35 -61 13 -38
62 -99 148 -186 74 -74 145 -125 201 -147 23 -9 56 -27 73 -39 24 -17 59 -26
142 -36 61 -8 127 -18 147 -24 53 -15 222 -12 267 4 22 7 81 17 132 21 75 6
104 13 148 36 30 16 76 34 103 40 55 12 71 26 93 84 22 57 16 194 -8 212 -30
22 -63 15 -101 -22 -19 -19 -57 -41 -84 -50 -27 -9 -51 -21 -55 -26 -12 -20
-65 -39 -136 -49 -40 -6 -102 -15 -137 -22 -46 -8 -77 -8 -115 0 -28 6 -85 16
-126 22 -47 7 -84 18 -100 31 -14 11 -44 29 -68 40 -41 19 -152 120 -152 138
0 4 -13 25 -29 45 -17 21 -35 54 -42 74 -7 20 -23 51 -36 68 -15 20 -29 61
-38 110 -9 44 -27 108 -41 144 -24 59 -27 84 -33 259 -10 254 2 555 24 607 9
22 27 81 41 133 14 56 34 104 48 122 13 16 27 42 31 58 4 18 37 60 86 109 63
63 92 85 132 98 28 9 66 26 84 36 26 16 54 20 126 22 82 1 98 -2 142 -25 28
-15 70 -33 94 -40 35 -10 54 -26 98 -82 35 -44 62 -90 73 -125 10 -32 24 -73
33 -92 8 -19 18 -56 21 -81 11 -77 21 -81 196 -77 148 3 152 4 172 28 17 21
19 33 13 85 -3 33 -17 78 -29 100 -13 22 -28 62 -35 89 -15 60 -40 94 -155
207 -60 60 -102 93 -130 102 -22 8 -58 26 -79 40 -25 17 -57 28 -95 32 -31 3
-91 14 -132 24 -70 18 -134 22 -220 14z"/>
<path d="M17656 16615 c-13 -13 -16 -39 -16 -140 0 -131 8 -168 37 -182 10 -5
68 -7 130 -5 103 3 113 6 127 26 20 31 27 279 8 298 -9 9 -54 14 -141 16 -108
3 -131 1 -145 -13z"/>
<path d="M23368 16619 c-16 -9 -18 -27 -18 -148 0 -189 -2 -186 151 -183 107
3 115 4 137 28 20 23 22 34 22 154 0 164 3 160 -160 160 -63 0 -123 -5 -132
-11z"/>
<path d="M28316 16614 c-9 -8 -19 -27 -22 -42 -4 -15 -18 -47 -31 -71 -14 -24
-31 -72 -39 -108 -7 -35 -22 -77 -34 -93 -11 -16 -27 -64 -36 -107 -8 -42 -20
-84 -28 -92 -24 -28 -36 -59 -47 -118 -6 -31 -22 -79 -35 -105 -13 -26 -30
-74 -38 -105 -7 -32 -25 -82 -40 -110 -14 -29 -33 -84 -41 -123 -8 -39 -26
-93 -40 -120 -14 -27 -30 -73 -36 -102 -6 -29 -22 -71 -35 -94 -13 -22 -30
-75 -39 -119 -8 -43 -21 -85 -29 -94 -22 -24 -43 -79 -50 -133 -4 -26 -15 -57
-25 -70 -21 -27 -37 -74 -46 -138 -4 -25 -18 -62 -32 -82 -14 -21 -32 -68 -39
-105 -8 -37 -26 -89 -39 -115 -23 -44 -39 -93 -52 -161 -10 -50 7 -57 137 -57
147 0 162 9 179 101 5 33 21 84 35 113 13 28 32 82 40 119 9 37 25 85 35 105
11 21 29 75 40 120 21 86 60 173 94 210 l20 22 413 0 413 0 36 -31 c47 -42 60
-69 75 -156 7 -42 20 -83 32 -98 11 -14 28 -59 39 -100 10 -41 28 -93 40 -117
12 -24 28 -71 35 -106 16 -74 56 -157 83 -172 11 -5 78 -10 149 -10 103 0 132
3 142 15 18 21 5 85 -30 153 -16 32 -34 86 -40 121 -6 35 -24 87 -40 115 -15
28 -33 75 -39 104 -6 29 -22 74 -35 100 -13 27 -27 66 -31 88 -4 21 -22 73
-40 114 -18 41 -39 102 -45 134 -7 33 -23 76 -35 95 -13 20 -29 63 -35 96 -6
33 -24 85 -40 115 -15 31 -31 78 -35 105 -4 28 -20 73 -36 100 -15 28 -34 83
-43 122 -8 40 -24 85 -35 100 -11 15 -27 58 -35 95 -9 37 -27 89 -40 115 -13
27 -30 75 -36 108 -7 33 -25 83 -40 110 -16 28 -33 76 -39 107 -5 31 -21 79
-35 106 -13 26 -28 65 -32 86 -13 72 -24 76 -198 76 -127 0 -157 -3 -170 -16z
m188 -406 c8 -13 19 -54 25 -91 5 -38 21 -87 35 -111 14 -23 30 -74 37 -112 6
-38 24 -91 39 -119 15 -27 33 -81 39 -118 7 -39 22 -85 36 -105 14 -21 29 -67
36 -107 6 -39 24 -92 39 -120 34 -61 47 -142 27 -169 -12 -17 -34 -18 -362
-17 -272 0 -350 3 -357 13 -14 23 -8 59 21 126 16 37 32 87 36 111 4 24 20 71
36 105 16 34 34 88 40 121 6 33 22 81 35 107 13 26 29 71 35 100 5 29 23 83
40 119 16 36 34 92 40 125 13 70 22 89 62 132 37 38 42 39 61 10z"/>
<path d="M35420 16623 c-47 -9 -50 -18 -50 -150 0 -124 0 -125 29 -154 29 -28
32 -29 136 -29 104 0 107 1 136 29 29 29 29 30 29 148 0 65 -4 123 -8 130 -14
23 -64 33 -155 32 -51 -1 -103 -4 -117 -6z"/>
<path d="M18802 15875 c-34 -8 -75 -23 -90 -33 -15 -11 -43 -26 -62 -34 -60
-25 -158 -118 -185 -174 -13 -28 -31 -57 -40 -64 -8 -7 -22 -38 -31 -69 -8
-31 -27 -83 -42 -116 l-27 -60 0 -265 0 -265 28 -63 c15 -35 32 -87 38 -115 5
-29 22 -70 37 -92 15 -22 35 -56 45 -75 30 -60 162 -181 236 -218 14 -7 37
-19 51 -27 72 -42 112 -54 202 -64 53 -5 106 -14 117 -20 29 -16 247 -14 296
3 22 8 79 18 127 24 49 5 98 16 112 25 32 22 52 85 40 128 -15 52 -34 57 -111
29 -61 -23 -83 -25 -218 -25 -145 0 -152 1 -199 27 -26 15 -65 32 -85 38 -51
13 -168 109 -199 162 -14 24 -35 54 -47 68 -13 14 -26 39 -30 57 -3 17 -19 51
-35 75 -22 34 -31 63 -40 130 -6 48 -17 102 -25 122 -8 19 -14 52 -14 73 1 21
-1 52 -5 69 -5 24 -2 34 15 50 20 18 42 19 505 22 483 3 484 3 495 24 8 14 10
61 7 139 -4 101 -8 123 -31 163 -14 25 -31 62 -37 83 -7 21 -25 52 -40 68 -15
17 -39 46 -54 67 -15 20 -50 48 -79 62 -29 15 -66 35 -83 46 -16 11 -61 24
-100 30 -99 14 -367 11 -442 -5z m350 -151 c20 -3 47 -16 60 -28 13 -12 35
-30 50 -39 16 -10 35 -32 43 -50 8 -17 25 -45 37 -60 19 -23 23 -41 23 -91 0
-102 20 -96 -334 -96 -327 0 -353 4 -359 49 -2 13 4 52 14 87 15 55 26 74 79
128 34 35 75 72 89 82 46 29 169 37 298 18z"/>
<path d="M20795 15884 c-11 -2 -43 -9 -72 -15 -28 -5 -57 -17 -64 -25 -7 -9
-31 -25 -53 -36 -55 -28 -143 -109 -184 -169 -18 -26 -41 -50 -52 -53 -11 -3
-29 -9 -40 -12 -19 -5 -20 0 -21 98 0 130 -13 169 -57 184 -52 17 -180 11
-200 -10 -16 -15 -17 -81 -20 -840 -2 -743 -1 -826 13 -840 21 -21 241 -23
269 -3 16 12 17 43 17 427 -1 457 9 590 48 653 12 20 29 59 37 89 9 29 26 64
38 78 13 14 32 40 42 58 10 17 25 34 34 37 9 3 24 18 33 35 10 16 22 30 28 30
5 0 27 16 48 36 33 29 52 37 103 44 105 16 159 12 207 -12 38 -20 51 -35 88
-107 l43 -84 0 -632 c0 -599 1 -633 18 -648 15 -14 41 -17 133 -17 79 0 121 4
133 13 17 12 18 52 16 675 l-1 662 -35 107 c-34 105 -36 108 -112 181 -42 41
-88 79 -102 84 -26 11 -299 21 -335 12z"/>
<path d="M22238 15876 c-43 -6 -84 -19 -95 -28 -10 -10 -43 -28 -73 -42 -132
-59 -278 -263 -301 -419 -5 -40 -17 -92 -25 -116 -19 -60 -19 -317 0 -414 8
-40 20 -108 26 -151 7 -58 18 -92 39 -125 16 -25 33 -59 37 -76 4 -16 21 -47
38 -69 58 -73 201 -207 226 -213 14 -3 49 -19 79 -35 40 -22 80 -34 154 -44
55 -8 116 -18 136 -24 45 -12 228 -13 267 -1 16 5 72 14 124 21 113 15 135 22
151 51 17 33 14 118 -5 137 -14 15 -22 14 -93 -3 -58 -15 -112 -20 -213 -20
-131 0 -137 1 -200 32 -36 17 -76 34 -90 38 -46 14 -169 126 -197 180 -8 17
-28 42 -43 56 -16 15 -30 42 -34 65 -5 21 -21 67 -38 101 -27 56 -31 77 -41
222 -8 125 -8 189 2 288 11 118 16 135 56 218 33 70 58 104 107 151 56 54 69
62 126 73 63 12 152 8 200 -10 85 -32 171 -165 176 -274 2 -33 4 -67 5 -76 0
-8 10 -25 21 -37 19 -20 30 -22 141 -22 l119 0 20 33 c22 36 25 85 10 173 -12
68 -29 114 -41 114 -5 0 -18 18 -29 40 -27 54 -91 116 -143 141 -23 11 -58 29
-77 39 -19 11 -64 24 -100 29 -84 14 -324 12 -422 -3z"/>
<path d="M24446 15875 c-50 -9 -86 -21 -100 -33 -11 -11 -37 -27 -56 -35 -52
-22 -190 -171 -190 -204 0 -9 -7 -46 -16 -81 -16 -63 -16 -65 5 -86 19 -19 35
-21 147 -24 146 -4 158 1 169 76 12 82 95 199 160 227 50 22 146 28 210 15 67
-14 125 -56 162 -118 12 -20 30 -50 40 -67 15 -25 19 -60 21 -215 4 -239 10
-230 -144 -241 -60 -4 -127 -12 -149 -17 -22 -6 -89 -15 -149 -21 -92 -9 -121
-16 -180 -46 -39 -19 -79 -35 -88 -35 -10 0 -32 -13 -50 -29 -18 -15 -52 -38
-74 -49 -28 -14 -47 -33 -59 -59 -10 -21 -29 -54 -43 -73 -37 -49 -54 -158
-41 -275 7 -64 15 -97 29 -115 11 -14 29 -42 40 -62 11 -20 36 -50 56 -65 20
-15 51 -40 68 -54 37 -32 173 -71 266 -76 45 -3 90 2 145 16 43 12 89 21 101
21 12 0 35 10 51 23 15 13 47 35 71 49 24 14 54 42 68 62 44 64 84 39 84 -53
0 -31 5 -62 12 -69 18 -18 262 -17 277 2 9 11 11 184 9 683 l-3 668 -32 70
c-17 39 -34 79 -37 90 -8 27 -85 108 -122 129 -16 9 -43 27 -61 40 -23 17 -56
26 -121 35 -116 15 -376 12 -476 -4z m520 -943 c25 -17 34 -56 34 -154 0 -57
-5 -121 -10 -144 -21 -89 -137 -235 -210 -264 -19 -8 -51 -24 -70 -37 -28 -19
-48 -23 -105 -23 -38 0 -80 6 -91 13 -12 6 -39 22 -61 34 -22 12 -50 37 -62
55 -11 18 -30 47 -41 63 -27 41 -29 177 -2 216 51 75 96 119 140 135 26 10 58
25 72 35 35 23 89 37 196 47 50 5 99 14 110 20 22 13 83 15 100 4z"/>
<path d="M25958 15876 c-47 -7 -88 -20 -105 -32 -15 -12 -44 -29 -63 -39 -40
-20 -120 -94 -120 -110 0 -7 -15 -34 -32 -61 -32 -47 -33 -54 -37 -162 -4
-154 2 -191 47 -248 61 -78 134 -144 188 -170 28 -13 59 -33 69 -44 10 -11 42
-27 70 -36 29 -8 62 -26 75 -39 13 -13 44 -31 71 -40 26 -9 53 -23 61 -32 7
-9 32 -25 56 -35 71 -32 176 -129 190 -175 42 -140 -16 -250 -164 -312 -66
-28 -83 -31 -176 -31 -68 1 -116 6 -143 16 -22 9 -76 27 -120 40 -44 14 -99
38 -122 54 -43 32 -81 38 -101 18 -17 -17 -16 -190 2 -232 17 -42 53 -55 166
-62 47 -3 104 -12 127 -20 57 -21 252 -14 406 14 92 16 129 27 166 51 26 17
53 31 59 31 16 0 113 95 137 135 11 18 28 43 37 56 29 41 44 184 31 300 -10
89 -15 107 -50 161 -21 33 -47 69 -58 79 -48 46 -103 86 -143 104 -24 10 -47
26 -53 36 -5 10 -31 25 -59 34 -28 9 -63 27 -78 40 -15 13 -46 28 -67 34 -22
6 -58 24 -80 39 -22 16 -56 35 -76 41 -20 6 -47 23 -60 37 -13 14 -38 34 -56
45 -44 27 -67 90 -61 169 6 77 26 104 103 136 94 40 115 45 195 46 62 1 84 -3
126 -25 28 -14 75 -29 103 -33 32 -4 66 -17 89 -34 46 -33 86 -44 112 -30 18
9 20 21 20 96 0 93 -17 146 -52 165 -66 35 -460 51 -630 25z"/>
<path d="M30062 15875 c-43 -10 -74 -24 -98 -44 -19 -17 -40 -31 -47 -31 -23
0 -187 -192 -187 -218 0 -9 -16 -48 -35 -87 -28 -58 -36 -88 -45 -176 -6 -58
-15 -120 -20 -138 -14 -50 -16 -252 -2 -278 7 -12 12 -41 12 -65 0 -76 28
-218 49 -246 10 -15 26 -52 35 -83 29 -100 177 -264 260 -289 23 -7 52 -20 66
-30 41 -29 139 -43 260 -38 101 5 113 8 155 36 26 17 59 34 75 37 28 6 90 60
90 77 0 14 63 48 88 48 l23 0 -4 -137 c-5 -196 -28 -323 -71 -387 -18 -28 -41
-63 -50 -78 -9 -15 -31 -35 -49 -44 -17 -9 -49 -30 -69 -46 -31 -24 -52 -31
-125 -39 -149 -18 -339 3 -394 42 -16 11 -52 28 -81 38 -29 10 -68 27 -85 37
-25 15 -37 17 -50 8 -15 -9 -18 -29 -21 -123 -1 -62 2 -119 7 -130 17 -31 93
-69 163 -81 41 -7 163 -10 334 -8 256 3 271 4 306 25 21 12 68 31 106 42 38
12 77 30 88 42 10 12 35 30 55 40 21 10 47 34 59 54 12 19 26 35 31 35 6 0 24
28 40 63 17 34 39 77 49 95 37 68 41 188 38 1129 -3 837 -4 904 -20 919 -21
22 -145 28 -198 10 -41 -13 -59 -52 -59 -133 -1 -29 -3 -53 -5 -53 -2 0 -19 6
-37 14 -39 16 -64 41 -74 74 -4 13 -21 30 -38 37 -18 7 -49 27 -70 43 -26 21
-57 33 -100 41 -86 15 -278 13 -355 -4z m398 -204 c71 -38 152 -117 165 -161
4 -14 22 -55 40 -91 27 -53 36 -87 45 -170 7 -57 18 -122 25 -144 14 -42 9
-128 -13 -225 -6 -25 -13 -76 -17 -113 -5 -50 -16 -87 -41 -133 -19 -35 -34
-71 -34 -79 0 -8 -35 -50 -77 -93 -67 -68 -86 -82 -135 -96 -112 -32 -208 -12
-273 56 -89 95 -96 106 -135 219 -47 137 -59 207 -60 359 -1 172 15 306 43
370 13 30 30 78 36 107 7 28 22 60 33 70 11 10 31 35 45 56 13 21 35 42 49 47
13 5 37 19 54 31 65 48 149 45 250 -10z"/>
<path d="M32218 15876 c-32 -7 -68 -22 -80 -33 -13 -11 -36 -28 -53 -36 -37
-19 -164 -151 -187 -195 -18 -33 -32 -39 -58 -22 -11 7 -16 37 -20 124 -3 75
-10 120 -18 128 -16 16 -207 29 -240 17 -12 -5 -27 -20 -32 -34 -6 -17 -10
-332 -10 -840 0 -795 0 -815 19 -825 29 -15 243 -13 264 3 14 11 16 63 20 512
4 519 7 559 48 616 11 15 25 43 31 61 16 47 104 131 179 171 74 40 107 48 194
51 93 3 95 6 95 152 0 169 -12 180 -152 150z"/>
<path d="M32945 15884 c-83 -12 -129 -26 -158 -48 -18 -13 -47 -28 -64 -34
-39 -13 -127 -98 -138 -133 -4 -13 -23 -52 -41 -87 -38 -71 -44 -130 -18 -157
14 -14 37 -16 146 -13 l130 3 28 32 c20 22 33 54 45 107 16 71 19 77 71 120
59 48 102 61 199 60 111 -1 142 -12 199 -68 49 -47 56 -59 76 -136 16 -61 24
-126 27 -226 l5 -142 -35 -38 -36 -39 -72 3 c-41 1 -103 -4 -139 -13 -36 -8
-119 -21 -185 -28 -99 -11 -127 -18 -158 -40 -20 -14 -55 -28 -77 -32 -24 -4
-57 -21 -80 -40 -22 -19 -49 -37 -60 -40 -11 -4 -20 -10 -20 -15 0 -5 -16 -26
-36 -46 -28 -27 -46 -62 -76 -147 -43 -126 -44 -160 -4 -251 13 -28 26 -64 30
-81 4 -16 22 -44 39 -60 18 -17 39 -40 48 -50 51 -60 96 -84 210 -109 138 -31
167 -32 284 -5 122 28 181 59 250 128 55 55 109 50 107 -11 -2 -86 17 -98 161
-98 77 0 108 4 125 16 l22 15 0 601 c0 493 -3 610 -14 652 -8 28 -19 84 -25
125 -7 53 -16 80 -32 97 -13 14 -35 46 -49 72 -18 34 -37 53 -70 70 -25 12
-57 31 -71 41 -48 35 -99 43 -309 46 -113 2 -218 1 -235 -1z m467 -973 c30
-27 33 -34 36 -104 5 -98 -34 -238 -85 -306 -44 -58 -120 -131 -136 -131 -6 0
-32 -14 -57 -31 -43 -29 -49 -30 -130 -27 -82 3 -88 5 -153 48 -58 38 -69 50
-78 85 -5 22 -17 60 -26 83 -15 42 -14 48 7 120 19 63 31 85 69 122 25 24 78
61 117 81 60 31 91 39 197 54 70 9 139 20 154 25 44 13 51 12 85 -19z"/>
<path d="M34940 15880 c-54 -10 -83 -22 -130 -56 -54 -38 -180 -165 -207 -207
-47 -75 -83 -29 -83 109 0 125 -2 127 -132 135 -125 8 -143 2 -157 -48 -7 -25
-11 -307 -11 -834 0 -758 1 -797 18 -812 24 -22 238 -25 266 -4 17 12 18 39
17 418 -1 222 3 456 9 519 9 105 13 121 53 205 58 117 109 169 219 223 76 38
96 43 167 46 53 3 90 10 106 20 24 16 25 20 25 136 l0 120 -32 20 c-35 21 -55
23 -128 10z"/>
<path d="M36501 15879 c-44 -5 -86 -17 -105 -29 -17 -11 -50 -29 -73 -39 -42
-20 -143 -112 -143 -131 0 -5 -13 -24 -29 -42 -20 -23 -33 -52 -40 -93 -15
-80 -14 -92 9 -115 18 -18 33 -20 138 -20 135 0 157 9 168 68 18 92 108 222
169 241 57 18 143 22 211 10 65 -11 72 -14 123 -68 29 -31 60 -72 69 -91 18
-43 34 -380 19 -423 -13 -38 -39 -50 -137 -58 -47 -4 -128 -14 -180 -22 -52
-8 -125 -18 -162 -22 -37 -3 -84 -16 -105 -27 -21 -11 -64 -28 -95 -38 -77
-24 -199 -126 -238 -200 -8 -15 -24 -43 -35 -61 -27 -47 -35 -248 -11 -299 29
-64 54 -102 99 -148 80 -83 133 -119 184 -127 27 -3 70 -13 97 -21 57 -16 169
-19 196 -4 10 5 51 17 91 25 45 10 85 25 108 43 20 15 48 33 63 40 15 6 34 25
43 42 12 23 22 30 46 30 35 0 51 -30 42 -83 -9 -56 18 -67 158 -67 89 0 119 3
129 14 8 11 11 163 11 613 -1 653 -8 800 -39 842 -10 14 -27 42 -37 61 -24 49
-84 109 -125 126 -19 8 -45 24 -57 36 -14 13 -50 26 -90 34 -76 15 -355 16
-472 3z m502 -971 c37 -50 24 -294 -20 -355 -10 -14 -27 -39 -38 -57 -39 -59
-100 -111 -176 -149 -67 -33 -84 -37 -150 -37 -71 0 -79 2 -137 41 -35 22 -67
50 -72 63 -4 12 -20 40 -34 61 -37 55 -37 140 2 202 42 70 103 134 147 155 22
10 54 27 72 39 22 14 66 24 155 34 67 8 137 19 153 24 46 15 76 9 98 -21z"/>
<path d="M38005 15879 c-38 -5 -85 -18 -105 -28 -19 -11 -53 -28 -75 -39 -59
-28 -118 -93 -161 -175 -36 -69 -38 -77 -41 -187 -4 -102 -2 -119 16 -150 12
-19 32 -58 45 -86 18 -40 40 -63 97 -106 41 -31 84 -59 97 -62 12 -4 35 -18
51 -32 16 -13 49 -31 72 -40 24 -8 55 -25 69 -38 14 -13 48 -31 77 -40 28 -9
54 -24 57 -32 3 -8 35 -28 71 -44 36 -16 65 -33 65 -37 0 -4 19 -20 43 -35 36
-23 47 -38 70 -98 l28 -72 -26 -78 c-14 -43 -34 -84 -43 -93 -9 -8 -56 -33
-103 -56 -84 -40 -89 -41 -193 -41 -97 0 -115 3 -174 29 -37 16 -88 32 -114
35 -27 4 -60 17 -75 30 -39 33 -68 46 -97 46 -40 0 -49 -30 -44 -147 6 -136
12 -142 140 -155 51 -5 127 -15 168 -23 87 -17 253 -20 296 -5 16 6 77 16 137
24 96 13 111 18 142 45 20 17 42 31 50 31 19 0 107 77 124 109 7 14 24 38 37
52 17 18 31 55 46 125 24 109 25 130 9 189 -5 22 -15 65 -21 95 -7 40 -20 67
-45 94 -19 22 -37 47 -40 56 -3 9 -16 22 -30 28 -13 6 -31 23 -41 37 -9 14
-37 34 -63 46 -25 11 -57 31 -71 44 -14 13 -37 27 -52 30 -14 4 -50 22 -79 41
-29 19 -61 34 -70 34 -9 0 -34 12 -55 26 -21 15 -57 35 -80 44 -23 10 -54 30
-70 45 -128 119 -134 128 -134 197 0 75 23 104 118 149 89 42 176 63 221 53
14 -3 49 -14 76 -24 28 -9 81 -25 119 -35 39 -9 86 -28 105 -41 46 -31 89 -32
99 -1 5 12 6 64 2 115 -8 124 -13 129 -156 147 -119 16 -378 18 -489 4z"/>
<path d="M17785 15863 c-105 -5 -113 -8 -124 -51 -7 -24 -11 -313 -11 -834 l0
-797 22 -15 c28 -20 237 -23 256 -4 9 9 12 209 12 840 0 815 0 828 -20 848
-11 11 -30 19 -42 18 -13 -1 -54 -3 -93 -5z"/>
<path d="M23478 15861 c-51 -4 -92 -11 -100 -19 -10 -10 -14 -179 -16 -840 -2
-770 -1 -828 15 -839 11 -9 56 -13 135 -13 106 0 118 2 128 19 13 26 14 1602
0 1650 -11 39 -25 51 -55 49 -11 -1 -59 -4 -107 -7z"/>
<path d="M35464 15862 c-12 -2 -30 -12 -40 -24 -18 -19 -19 -59 -24 -832 l-5
-811 23 -23 c22 -21 31 -22 130 -20 103 3 107 4 117 28 7 16 8 301 5 837 -6
938 6 847 -113 848 -39 0 -82 -1 -93 -3z"/>
<path d="M18290 13147 c-15 -7 -28 -25 -31 -42 -4 -17 -7 -559 -8 -1206 l-1
-1176 21 -19 c19 -17 37 -19 161 -19 136 0 140 1 159 24 19 23 20 43 19 559
-2 515 -1 536 18 561 l19 26 387 1 388 2 28 27 c48 46 45 134 -7 175 -25 19
-38 20 -408 20 l-382 0 -22 24 -22 24 0 383 c0 211 0 391 1 400 1 37 40 40
467 38 332 -1 416 1 429 12 13 11 15 28 12 91 -3 42 -10 84 -18 92 -11 14 -80
16 -599 16 -452 0 -592 -3 -611 -13z"/>
<path d="M28233 13148 c-12 -6 -27 -24 -32 -41 -8 -20 -11 -409 -11 -1208 l0
-1178 26 -20 c23 -18 41 -21 125 -21 87 0 101 2 124 23 l26 22 -1 1183 c0
1279 2 1231 -52 1246 -37 9 -181 6 -205 -6z"/>
<path d="M25717 12910 c-14 -12 -45 -29 -69 -40 -24 -10 -64 -39 -90 -63 l-48
-44 0 -162 c0 -91 -4 -171 -10 -181 -14 -27 -77 -41 -165 -38 -67 2 -78 -1
-98 -20 -17 -18 -22 -34 -21 -73 1 -70 18 -85 97 -81 80 3 160 -6 181 -21 14
-11 16 -78 20 -617 2 -333 8 -626 13 -651 10 -47 27 -75 97 -155 50 -57 56
-60 185 -96 87 -25 131 -31 246 -35 128 -4 143 -3 172 16 45 28 69 123 43 171
-9 18 -22 19 -133 18 -69 -1 -139 4 -162 11 -54 16 -134 91 -148 139 -6 23
-12 247 -14 604 l-4 568 26 26 25 25 196 -2 c226 -3 227 -3 228 80 1 39 -4 55
-21 72 -21 21 -28 22 -207 20 -115 -1 -192 2 -205 8 -36 20 -43 69 -40 299 1
120 -1 224 -5 230 -11 19 -61 14 -89 -8z"/>
<path d="M20275 12423 c-118 -6 -164 -14 -198 -37 -19 -13 -57 -31 -84 -40
-27 -9 -62 -30 -77 -45 -16 -16 -39 -32 -52 -35 -13 -4 -31 -21 -40 -39 -9
-17 -27 -43 -40 -57 -12 -14 -33 -47 -45 -75 -12 -27 -31 -62 -41 -76 -10 -14
-25 -62 -33 -108 -8 -45 -17 -86 -20 -91 -2 -4 -13 -52 -23 -106 -29 -152 -16
-399 26 -504 5 -14 13 -50 17 -80 9 -65 25 -110 48 -129 9 -7 21 -30 27 -50
12 -47 111 -156 165 -183 22 -11 51 -31 65 -44 24 -22 101 -45 220 -64 25 -4
58 -12 73 -19 51 -20 177 -13 304 18 65 16 133 32 151 36 19 4 48 19 65 35 18
15 41 30 52 34 19 6 85 66 147 133 15 16 33 45 39 64 7 19 25 52 40 74 15 22
30 60 34 85 6 45 24 131 51 247 8 34 14 100 14 148 0 81 -8 132 -45 290 -8 33
-17 84 -21 113 -4 31 -17 69 -32 90 -14 20 -31 52 -39 70 -17 40 -120 182
-132 182 -5 0 -32 18 -60 40 -28 22 -56 40 -63 40 -8 0 -47 16 -88 36 -66 31
-89 37 -190 45 -63 5 -124 8 -135 7 -11 -1 -47 -3 -80 -5z m235 -181 c19 -12
54 -30 77 -41 24 -11 48 -32 57 -49 8 -16 25 -36 38 -44 15 -10 31 -38 42 -74
10 -33 28 -72 39 -88 63 -88 61 -771 -2 -856 -10 -15 -29 -49 -41 -78 -14 -31
-44 -71 -78 -105 -47 -44 -70 -58 -130 -76 -103 -31 -190 -38 -229 -18 -17 9
-52 21 -78 27 -61 14 -131 83 -178 176 -51 102 -57 129 -69 291 -13 190 -13
214 1 423 11 169 12 177 46 246 19 39 35 78 35 88 0 9 18 34 40 56 22 22 40
43 40 48 0 5 12 15 28 22 15 8 42 25 60 38 49 36 77 42 177 39 74 -2 97 -7
125 -25z"/>
<path d="M22252 12420 c-29 -4 -70 -19 -90 -32 -20 -13 -57 -34 -82 -46 -41
-19 -112 -88 -180 -172 -17 -20 -35 -31 -55 -33 l-30 -2 -5 98 c-5 93 -7 100
-33 123 -25 22 -37 24 -121 24 -88 0 -94 -1 -119 -28 l-27 -28 0 -799 -1 -800
26 -22 c23 -21 37 -23 124 -23 84 0 102 3 124 21 l26 20 4 477 c3 438 5 484
24 560 11 45 29 93 40 105 12 12 29 38 38 57 10 19 38 53 63 75 68 60 226 117
316 113 71 -2 76 9 76 163 0 121 -1 129 -22 143 -12 9 -27 15 -33 15 -5 -1
-34 -5 -63 -9z"/>
<path d="M23027 12420 c-80 -6 -105 -12 -136 -33 -21 -14 -56 -31 -79 -38 -48
-14 -201 -158 -222 -208 -7 -17 -16 -31 -21 -31 -15 0 -38 -56 -54 -135 -9
-43 -25 -100 -36 -127 -17 -43 -19 -75 -19 -258 0 -193 2 -215 24 -287 13 -43
29 -103 36 -133 6 -30 22 -71 35 -91 13 -20 30 -53 38 -72 22 -52 197 -224
253 -247 25 -11 57 -29 70 -39 14 -11 44 -22 67 -26 23 -4 98 -20 167 -37 110
-27 136 -30 225 -25 56 3 161 19 240 36 163 37 180 49 172 119 -8 70 -21 77
-119 64 -190 -26 -365 -21 -430 14 -18 9 -55 28 -82 41 -65 33 -172 128 -185
165 -6 17 -24 45 -41 64 -16 19 -30 41 -30 48 0 8 -16 48 -35 89 -28 57 -38
96 -46 168 -6 52 -17 117 -24 146 -15 60 -11 88 18 121 l20 22 469 0 c455 0
469 1 488 20 23 23 25 56 9 198 -7 63 -17 108 -29 127 -11 17 -30 53 -44 80
-35 73 -136 167 -231 216 -74 38 -89 41 -195 50 -126 9 -132 9 -273 -1z m278
-174 c89 -51 107 -67 146 -124 34 -53 42 -73 46 -125 4 -50 2 -65 -11 -76 -20
-17 -642 -19 -658 -3 -13 13 -12 111 1 145 10 26 89 112 126 137 12 8 34 23
49 34 39 28 81 35 181 32 64 -1 99 -7 120 -20z"/>
<path d="M24426 12420 c-97 -7 -123 -12 -147 -29 -15 -11 -52 -32 -81 -45 -32
-14 -75 -46 -109 -82 -68 -72 -95 -146 -105 -287 -6 -90 -5 -97 26 -175 29
-72 41 -89 99 -141 36 -32 83 -66 104 -74 20 -9 40 -23 43 -31 3 -8 31 -25 61
-36 30 -11 69 -31 86 -44 18 -13 43 -27 57 -31 14 -4 41 -19 60 -34 19 -15 50
-33 69 -39 19 -7 50 -24 70 -40 19 -15 48 -34 64 -42 38 -19 106 -130 113
-184 4 -29 0 -51 -13 -73 -10 -17 -28 -49 -40 -71 -13 -22 -33 -44 -45 -48
-13 -4 -36 -17 -51 -30 -44 -37 -99 -47 -242 -42 -120 3 -135 6 -200 35 -38
18 -88 37 -110 42 -22 6 -56 22 -75 36 -36 27 -84 33 -97 13 -8 -14 -6 -201 3
-231 7 -24 49 -44 109 -52 28 -4 72 -13 98 -22 27 -8 60 -13 75 -10 14 3 43
-2 64 -10 95 -38 475 19 551 83 15 13 48 32 72 43 28 12 52 33 68 58 13 21 31
44 40 51 9 8 24 37 33 65 9 29 25 68 34 87 10 19 21 59 25 89 6 46 2 69 -31
171 -36 113 -41 122 -99 180 -98 101 -108 108 -155 125 -25 9 -56 26 -70 39
-14 13 -43 29 -65 36 -22 7 -55 23 -73 37 -17 13 -54 31 -80 38 -27 8 -57 24
-68 36 -10 12 -37 30 -59 39 -22 10 -58 36 -80 58 -108 106 -121 162 -57 249
34 49 42 54 118 78 92 28 164 32 244 11 30 -8 81 -17 113 -21 38 -5 68 -15 85
-30 39 -32 67 -45 99 -45 46 0 53 15 53 117 0 87 -2 95 -27 123 -24 26 -40 33
-108 44 -106 18 -302 25 -449 16z"/>
<path d="M26965 12420 c-94 -6 -119 -11 -170 -37 -33 -17 -71 -34 -85 -38 -30
-10 -140 -103 -140 -120 0 -6 -11 -22 -25 -35 -30 -28 -55 -107 -57 -176 -1
-75 17 -84 163 -84 l119 0 20 33 c11 17 20 42 20 55 0 57 64 153 136 204 l59
43 101 0 c80 0 105 -4 125 -18 13 -10 38 -27 55 -38 17 -11 49 -47 69 -81 35
-57 39 -70 46 -162 15 -190 14 -272 -4 -300 -29 -44 -73 -59 -177 -61 -164 -4
-292 -21 -361 -48 -35 -14 -82 -30 -105 -36 -23 -6 -56 -22 -75 -36 -19 -13
-45 -29 -59 -35 -35 -15 -109 -89 -125 -125 -8 -16 -25 -43 -37 -58 -21 -26
-23 -40 -26 -180 l-3 -152 51 -77 c28 -43 61 -83 73 -89 12 -7 37 -25 54 -40
18 -16 52 -33 75 -40 24 -6 70 -22 103 -36 52 -22 70 -25 140 -20 44 2 98 12
120 22 22 9 68 25 102 34 63 18 105 46 173 114 58 58 90 46 90 -33 0 -74 18
-84 155 -88 106 -3 114 -2 125 17 7 15 10 215 8 698 l-3 678 -32 60 c-18 33
-33 66 -33 73 0 21 -113 128 -148 140 -18 6 -45 20 -60 31 -15 10 -45 24 -67
29 -57 15 -261 21 -390 12z m410 -970 c41 -16 46 -45 31 -191 -11 -100 -19
-138 -34 -158 -11 -15 -29 -44 -40 -66 -25 -49 -86 -108 -132 -129 -19 -8 -48
-26 -63 -38 -25 -21 -39 -23 -130 -23 l-102 0 -49 40 c-26 22 -63 64 -82 93
-31 48 -34 59 -34 127 0 66 4 80 30 122 42 66 117 131 165 144 22 6 62 22 89
36 36 18 80 28 165 38 155 16 156 16 186 5z"/>
<path d="M29453 12420 c-85 -6 -111 -12 -160 -37 -32 -17 -74 -35 -93 -42 -32
-10 -100 -69 -176 -152 -17 -19 -39 -56 -49 -82 -10 -27 -27 -59 -37 -72 -18
-23 -26 -58 -59 -255 -16 -96 -12 -333 6 -430 8 -41 19 -101 24 -133 6 -32 19
-71 30 -86 11 -15 28 -50 39 -77 21 -57 35 -74 152 -191 46 -47 100 -91 120
-99 19 -8 44 -23 55 -33 23 -21 44 -29 130 -47 33 -7 80 -18 105 -24 102 -26
135 -30 224 -30 52 0 107 5 123 11 15 7 48 15 73 20 157 26 205 39 217 55 18
25 16 105 -3 133 -17 24 -15 24 -119 1 -62 -13 -261 -17 -337 -7 -35 5 -73 19
-100 37 -24 16 -55 31 -70 35 -34 9 -176 149 -194 190 -7 17 -24 42 -37 57
-15 16 -30 50 -38 85 -7 32 -23 80 -36 106 -25 51 -43 163 -43 275 0 112 -48
102 486 102 551 0 534 -3 534 103 0 66 -48 269 -71 297 -11 14 -31 48 -44 77
-14 29 -33 54 -44 58 -11 3 -30 19 -41 35 -12 17 -39 35 -67 44 -26 9 -64 28
-84 42 -32 22 -53 26 -155 34 -66 5 -128 9 -139 8 -11 0 -66 -4 -122 -8z m288
-192 c92 -62 130 -109 149 -184 19 -75 16 -110 -12 -125 -12 -6 -137 -11 -335
-11 -350 -1 -333 -4 -333 68 0 30 8 52 29 81 16 22 36 54 45 71 16 31 136 117
186 133 14 5 68 7 121 6 91 -2 98 -4 150 -39z"/>
<path d="M30850 12420 c-88 -6 -115 -12 -165 -37 -33 -17 -71 -33 -85 -36 -49
-13 -174 -152 -192 -214 -15 -51 -15 -268 0 -319 19 -66 138 -194 212 -230 25
-11 51 -28 58 -37 8 -9 30 -21 50 -28 20 -7 51 -22 67 -35 17 -12 52 -32 80
-44 27 -12 58 -30 67 -40 10 -11 37 -24 61 -30 23 -7 56 -24 72 -40 17 -15 38
-31 47 -36 10 -5 38 -33 63 -63 l45 -53 0 -85 0 -86 -53 -51 c-29 -28 -75 -64
-102 -81 -45 -27 -60 -30 -152 -33 -122 -5 -218 10 -281 44 -26 13 -66 29 -89
34 -23 6 -55 22 -71 35 -34 28 -68 32 -99 10 -20 -14 -21 -21 -17 -108 8 -143
19 -157 124 -173 25 -3 54 -11 65 -17 54 -28 343 -44 435 -24 211 47 257 60
279 75 13 9 38 26 56 37 40 24 135 121 135 137 0 6 15 34 33 62 l32 51 0 152
c0 141 -1 153 -22 180 -12 15 -31 46 -41 68 -10 22 -41 59 -68 83 -27 24 -61
54 -76 68 -15 13 -46 33 -70 43 -24 10 -49 25 -56 34 -8 9 -36 23 -63 32 -27
9 -63 28 -78 41 -16 13 -49 31 -72 39 -24 9 -53 24 -64 35 -11 11 -40 26 -63
34 -101 36 -204 172 -183 242 18 57 52 115 74 123 72 29 164 51 210 51 70 0
296 -47 326 -68 49 -35 67 -42 91 -36 45 10 50 22 50 110 0 80 -1 84 -33 117
-41 44 -86 56 -242 68 -131 9 -142 9 -295 -1z"/>
<path d="M17075 12381 c-44 -18 -93 -87 -106 -147 -6 -33 -25 -85 -40 -116
-16 -32 -35 -86 -43 -121 -8 -36 -24 -80 -35 -98 -11 -19 -29 -69 -39 -112
-11 -43 -27 -86 -36 -96 -9 -9 -24 -51 -35 -92 -11 -41 -31 -96 -45 -123 -14
-27 -26 -59 -26 -70 0 -12 -12 -48 -26 -81 -14 -33 -33 -84 -43 -114 -21 -69
-44 -85 -72 -52 -10 13 -19 31 -19 41 0 9 -13 41 -29 71 -15 30 -34 79 -40
108 -6 30 -22 69 -36 86 -13 18 -31 61 -40 96 -9 35 -27 78 -39 94 -13 17 -29
55 -35 85 -7 30 -23 72 -38 92 -14 21 -31 65 -38 98 -7 33 -24 77 -38 98 -15
20 -31 61 -38 91 -6 30 -24 73 -39 97 -15 24 -30 61 -34 82 -10 68 -30 77
-176 80 l-129 4 -17 -27 c-15 -23 -16 -31 -5 -59 7 -17 19 -53 26 -80 8 -26
25 -65 39 -85 14 -20 30 -61 36 -90 6 -30 21 -68 34 -85 13 -18 31 -60 40 -94
9 -35 27 -78 40 -95 13 -18 29 -56 35 -86 6 -30 25 -77 40 -105 16 -28 33 -68
36 -89 4 -21 18 -53 31 -72 13 -19 31 -61 40 -93 9 -31 26 -75 39 -97 13 -22
30 -65 38 -95 7 -30 26 -72 40 -93 14 -21 30 -61 37 -90 6 -28 22 -68 35 -89
13 -20 33 -72 45 -116 18 -73 19 -83 5 -122 -8 -23 -15 -50 -15 -59 0 -9 -14
-45 -31 -81 -16 -35 -35 -87 -41 -115 -5 -27 -21 -68 -33 -91 -13 -22 -29 -63
-35 -90 -6 -27 -21 -68 -32 -90 -12 -23 -18 -48 -15 -57 9 -23 70 -37 159 -37
71 0 78 2 97 26 12 15 21 34 21 43 0 9 11 33 24 52 14 20 32 67 41 103 8 37
26 86 40 110 13 23 29 66 36 96 6 30 24 74 39 98 16 24 31 65 35 92 4 28 17
65 30 84 13 19 33 69 44 111 12 42 32 97 45 123 13 26 29 72 35 102 7 30 23
71 36 90 14 20 30 63 36 95 6 33 21 74 34 91 13 17 31 61 40 98 8 37 26 86 40
110 13 23 29 66 36 96 6 30 22 71 35 92 13 20 30 66 39 103 8 37 26 85 40 109
13 23 29 66 36 96 6 30 22 73 35 95 13 23 35 81 49 129 24 82 24 90 10 112
-14 21 -23 24 -83 24 -37 0 -76 2 -87 5 -11 2 -29 0 -40 -4z"/>
</g>
</svg>
