<?xml version="1.0" standalone="no"?>
<!DOCTYPE svg PUBLIC "-//W3C//DTD SVG 20010904//EN"
 "http://www.w3.org/TR/2001/REC-SVG-20010904/DTD/svg10.dtd">
<svg version="1.0" xmlns="http://www.w3.org/2000/svg"
 width="4032.000000pt" height="3024.000000pt" viewBox="0 0 4032.000000 3024.000000"
 preserveAspectRatio="xMidYMid meet">

<g transform="translate(0.000000,3024.000000) scale(0.100000,-0.100000)"
fill="#000000" stroke="none">
<path d="M13490 15109 l0 -5371 160 4 c89 2 164 8 170 14 7 7 9 1761 7 5364
l-2 5355 -167 3 -168 2 0 -5371z"/>
<path d="M28880 19940 c-300 -39 -571 -119 -815 -240 -125 -62 -145 -74 -232
-127 -172 -106 -413 -320 -539 -477 -138 -172 -275 -400 -350 -579 -14 -34
-32 -75 -39 -92 -17 -38 -40 -109 -70 -210 -98 -336 -130 -579 -129 -970 0
-217 5 -292 29 -485 27 -211 93 -466 178 -680 19 -48 129 -271 168 -340 99
-175 289 -395 470 -546 72 -59 220 -164 232 -164 3 0 25 -13 49 -29 42 -28
250 -131 264 -131 4 0 37 -12 73 -26 140 -57 363 -110 581 -139 472 -62 1090
3 1483 157 85 34 85 33 68 124 -5 27 -12 67 -15 89 -4 23 -31 189 -62 370 -31
182 -56 335 -57 342 0 8 -6 9 -18 3 -80 -44 -301 -100 -499 -129 -334 -49
-637 -32 -890 50 -80 26 -247 106 -316 151 -150 98 -304 259 -397 413 -27 46
-105 203 -112 228 -4 12 -13 36 -20 52 -36 80 -86 297 -106 455 -15 124 -15
499 0 620 21 162 63 346 111 476 19 53 95 212 130 273 25 45 123 172 180 234
68 75 242 204 340 253 49 24 119 54 127 54 4 0 21 7 38 16 65 33 243 69 423
85 307 26 698 -41 967 -166 32 -15 45 -12 45 12 0 8 18 88 39 176 22 89 56
230 76 312 19 83 40 166 45 185 6 19 17 65 25 102 8 37 18 73 21 81 12 32
-265 132 -493 177 -200 39 -334 52 -598 56 -213 3 -286 0 -405 -16z"/>
<path d="M3192 19868 c-6 -18 -24 -58 -41 -88 -16 -30 -36 -66 -43 -80 -7 -14
-16 -29 -21 -35 -4 -5 -42 -58 -85 -116 -114 -158 -199 -258 -457 -534 -169
-181 -316 -353 -358 -418 -141 -214 -140 -407 4 -812 23 -66 48 -142 55 -169
l13 -49 -69 -159 c-39 -87 -70 -165 -70 -173 0 -8 -4 -15 -9 -15 -5 0 -13 -17
-19 -37 -10 -33 -46 -136 -65 -183 -14 -36 -66 -204 -83 -270 -2 -8 -11 -40
-19 -70 -64 -225 -124 -574 -140 -825 -10 -159 -19 -177 -47 -97 -42 120 -63
321 -48 457 15 130 67 385 126 610 94 362 96 372 91 470 -3 50 -7 97 -9 105
-3 8 -10 35 -17 60 -12 43 -98 219 -111 230 -4 3 -9 10 -11 15 -2 6 -38 67
-79 135 l-75 125 -6 -145 c-10 -227 -67 -538 -163 -890 -14 -52 -44 -162 -66
-245 -22 -82 -53 -199 -70 -260 -38 -144 -44 -195 -30 -280 27 -173 96 -289
291 -490 132 -136 176 -184 195 -211 10 -15 17 -79 25 -230 9 -190 22 -321 49
-521 15 -111 68 -367 99 -478 16 -55 32 -113 36 -130 13 -59 126 -365 170
-461 26 -57 40 -101 34 -103 -14 -4 -71 51 -117 114 -20 28 -39 52 -42 55 -10
9 -66 105 -97 165 -72 144 -141 376 -192 650 -11 61 -30 162 -41 225 -21 110
-55 223 -82 272 -19 33 -89 120 -118 144 -14 12 -38 34 -55 48 -16 14 -35 26
-42 26 -6 0 -13 4 -15 8 -7 18 -324 199 -333 191 -2 -2 11 -29 29 -59 28 -48
51 -101 101 -230 55 -141 134 -494 225 -1005 43 -239 59 -303 96 -381 45 -95
98 -161 175 -216 108 -77 174 -104 509 -208 58 -18 112 -40 122 -49 9 -9 33
-47 54 -86 49 -93 92 -172 118 -217 107 -189 311 -479 456 -649 36 -42 80 -96
99 -120 47 -60 217 -226 321 -312 47 -39 90 -76 95 -83 8 -9 113 -95 150 -122
6 -4 38 -29 73 -55 34 -26 64 -47 67 -47 10 0 95 -64 95 -72 0 -28 -196 30
-330 98 -58 30 -135 77 -173 105 -84 64 -243 232 -431 459 -208 250 -241 285
-315 334 -95 63 -179 86 -336 93 -174 8 -400 -5 -365 -21 106 -47 382 -297
571 -517 115 -134 212 -250 250 -299 63 -82 251 -305 273 -323 186 -158 345
-179 726 -97 52 12 140 28 196 37 l101 16 90 -51 c50 -29 95 -52 101 -52 6 0
12 -4 14 -9 2 -7 267 -139 343 -171 11 -5 45 -19 75 -33 30 -13 82 -34 115
-47 33 -12 76 -29 95 -36 34 -13 264 -87 365 -117 46 -14 184 -47 345 -82 68
-15 313 -50 413 -60 141 -13 167 -17 167 -26 0 -14 -41 -28 -150 -51 -206 -44
-468 -22 -709 58 -103 34 -347 126 -386 144 -128 62 -374 92 -495 61 -99 -26
-266 -105 -392 -187 -37 -24 -82 -51 -100 -61 l-33 -18 105 -7 c175 -12 433
-75 745 -181 227 -78 350 -122 355 -127 3 -3 28 -13 55 -22 28 -9 104 -35 170
-58 66 -23 129 -43 140 -45 102 -16 118 -16 190 0 42 9 98 27 123 38 46 22
122 66 132 77 3 3 23 19 45 35 22 16 81 67 130 113 121 113 222 193 270 216
58 28 206 34 276 11 47 -15 160 -90 181 -120 4 -5 8 -7 8 -3 0 3 15 -8 32 -24
54 -50 233 -202 257 -218 13 -8 33 -22 45 -31 47 -36 167 -87 221 -94 6 0 27
-5 49 -9 51 -11 150 7 280 50 55 19 110 38 121 43 11 5 40 16 65 24 83 28 245
87 265 96 76 37 510 168 630 191 33 6 80 16 105 22 25 5 91 12 147 15 l102 6
-97 61 c-53 34 -142 85 -197 113 -288 146 -446 145 -830 -7 -361 -143 -532
-184 -755 -183 -138 1 -308 28 -366 58 -36 19 -18 26 94 36 312 28 704 104
925 179 31 11 62 20 68 20 6 0 25 6 42 14 18 7 68 26 112 41 73 26 170 63 220
85 213 93 281 124 335 153 124 64 205 109 230 127 55 38 89 43 190 26 52 -8
138 -25 190 -36 302 -67 439 -65 590 8 103 50 220 171 440 455 13 18 61 75
106 127 44 52 92 108 105 124 108 130 304 328 405 407 77 61 162 118 178 120
37 5 -133 17 -256 18 -150 1 -284 -11 -328 -30 -138 -60 -224 -135 -385 -334
-107 -132 -337 -396 -390 -448 -50 -49 -176 -134 -264 -178 -91 -45 -252 -104
-305 -111 -39 -5 -33 14 15 48 24 16 76 52 114 79 39 26 84 60 101 74 17 14
84 71 150 126 220 184 480 460 629 669 11 16 30 40 41 55 38 46 154 221 154
230 0 5 3 11 8 13 13 6 134 198 125 198 -5 0 -3 4 2 8 11 7 41 63 108 194 43
83 57 93 187 133 186 57 332 108 376 132 114 62 131 74 185 130 118 121 142
193 229 673 48 265 115 584 139 665 56 183 79 251 115 334 24 54 53 113 65
130 12 17 18 31 12 31 -13 0 -243 -129 -333 -187 -108 -70 -178 -141 -225
-229 -53 -102 -72 -176 -124 -489 -27 -160 -117 -489 -160 -581 -10 -22 -19
-43 -19 -46 0 -3 -21 -43 -47 -89 -65 -118 -208 -296 -230 -288 -6 2 15 60 44
129 50 115 120 294 128 330 2 8 13 42 24 75 19 59 83 301 95 360 66 332 106
678 106 912 0 112 5 120 153 273 155 160 190 200 234 265 88 131 123 234 123
370 0 79 -13 135 -120 520 -58 212 -79 291 -96 365 -7 36 -16 71 -19 78 -3 8
-19 82 -35 165 -39 192 -60 373 -60 505 0 110 -6 118 -40 54 -11 -20 -39 -66
-61 -102 -95 -149 -167 -291 -193 -380 -32 -108 -27 -245 15 -382 53 -172 152
-600 180 -783 15 -92 5 -334 -16 -411 -25 -92 -46 -145 -55 -139 -4 3 -11 53
-15 112 -12 195 -60 506 -114 738 -25 105 -23 98 -51 195 -12 41 -26 91 -31
110 -6 19 -13 42 -16 50 -4 8 -7 17 -8 20 -1 3 -4 12 -8 20 -3 8 -19 58 -36
110 -17 52 -36 104 -41 115 -5 11 -23 54 -39 95 -30 78 -90 214 -116 263 -8
16 -15 35 -15 43 0 22 69 242 91 289 5 11 17 45 25 75 81 284 77 457 -14 614
-36 63 -112 166 -147 201 -11 11 -30 33 -43 49 -13 17 -80 91 -150 165 -184
197 -231 248 -297 326 -33 39 -68 79 -79 90 -108 117 -326 455 -326 506 0 8
-3 9 -9 4 -16 -17 -32 -182 -33 -337 0 -176 22 -280 85 -402 48 -93 82 -136
324 -411 48 -55 106 -122 128 -148 22 -27 51 -60 63 -75 117 -134 249 -439
267 -617 3 -33 8 -70 11 -82 9 -45 -22 -23 -55 40 -19 34 -48 85 -66 112 -17
28 -51 82 -76 120 -44 70 -100 152 -161 234 -18 25 -46 64 -63 87 -135 189
-444 527 -513 560 -38 18 -67 10 -67 -18 0 -24 120 -171 235 -289 112 -114
272 -304 349 -414 178 -252 349 -545 319 -545 -2 0 -28 9 -58 21 -100 38 -182
116 -253 241 -15 26 -33 53 -40 60 -14 15 -14 16 -114 159 -122 175 -134 191
-203 274 -79 94 -226 240 -290 288 -153 115 -338 119 -661 14 l-70 -23 73 -28
c40 -16 106 -48 147 -72 40 -24 76 -44 78 -44 12 0 157 -127 230 -201 86 -89
143 -157 234 -280 31 -41 65 -84 75 -94 11 -10 18 -20 16 -22 -2 -2 33 -50 77
-107 92 -119 176 -200 247 -238 67 -36 207 -68 302 -68 74 -1 299 -23 306 -31
7 -7 57 -111 93 -194 148 -336 241 -646 321 -1070 35 -184 85 -706 69 -721
-13 -13 -110 115 -149 196 -38 80 -56 157 -74 320 -23 216 -61 465 -84 555
-12 44 -28 109 -37 144 -34 138 -100 243 -205 324 -64 50 -177 108 -258 132
-30 9 -64 21 -75 25 -20 9 -193 50 -208 50 -5 0 -1 -7 8 -16 86 -87 183 -237
244 -380 77 -178 123 -350 186 -689 14 -77 31 -162 36 -190 6 -27 13 -63 16
-80 9 -53 53 -157 88 -210 49 -74 100 -115 330 -265 50 -32 112 -79 138 -104
l47 -46 0 -98 c0 -273 -60 -691 -144 -1012 -74 -282 -248 -760 -276 -760 -13
0 -39 84 -51 161 -17 107 -4 175 86 442 124 371 195 657 195 786 0 132 -59
266 -185 420 -57 69 -251 251 -268 251 -3 0 -4 -10 -1 -22 40 -179 45 -236 40
-408 -6 -189 -21 -315 -60 -480 -38 -165 -98 -403 -107 -425 -15 -40 -39 -187
-39 -243 1 -132 39 -234 184 -482 36 -63 74 -139 83 -167 l17 -53 -39 -72
c-118 -226 -286 -483 -419 -647 -189 -231 -611 -659 -762 -773 -147 -111 -246
-178 -255 -173 -11 7 16 111 45 177 28 62 55 92 354 377 177 168 311 309 369
386 13 17 37 48 54 70 135 175 142 419 22 765 -32 91 -40 102 -49 64 -34 -146
-130 -358 -216 -474 -97 -131 -178 -221 -404 -445 -232 -230 -267 -269 -302
-335 -62 -119 -67 -153 -64 -415 3 -280 1 -297 -41 -318 -37 -19 -90 -50 -97
-57 -27 -27 -361 -194 -510 -254 -36 -15 -74 -31 -85 -36 -19 -9 -63 -25 -195
-70 -175 -60 -434 -124 -630 -155 -243 -38 -520 -57 -520 -36 0 8 41 44 125
109 32 25 238 94 320 107 281 45 662 149 808 220 130 64 215 200 266 425 22
99 52 292 45 299 -2 2 -42 -33 -90 -78 -48 -45 -98 -90 -113 -99 -14 -9 -28
-19 -31 -22 -32 -34 -292 -163 -385 -191 -39 -11 -173 -48 -300 -81 -495 -129
-521 -147 -780 -553 -90 -142 -94 -145 -186 -145 -59 0 -82 4 -94 17 -24 23
-95 119 -95 127 0 3 -16 29 -35 56 -19 27 -35 52 -35 54 0 20 -118 170 -172
221 -114 105 -243 154 -673 256 -93 22 -287 94 -382 141 -119 60 -217 130
-327 237 l-78 76 6 -60 c13 -111 56 -320 81 -388 54 -149 129 -245 228 -291
89 -41 121 -54 152 -62 17 -4 68 -19 115 -34 118 -38 313 -86 450 -109 232
-40 358 -82 445 -149 76 -59 95 -76 95 -84 0 -22 -293 0 -545 42 -143 23 -381
76 -445 99 -14 5 -65 21 -115 36 -86 26 -286 100 -350 129 -16 8 -61 28 -100
44 -153 67 -451 230 -495 272 l-31 29 1 243 c1 266 1 267 -24 350 -35 121 -65
159 -349 437 -332 326 -453 483 -542 703 -14 35 -29 70 -34 78 -4 8 -16 48
-25 88 -10 39 -20 72 -22 72 -12 0 -63 -147 -96 -275 -19 -74 -23 -116 -23
-235 0 -131 2 -151 24 -205 32 -79 61 -124 135 -215 161 -198 374 -415 548
-558 56 -47 103 -96 133 -141 44 -66 85 -170 85 -219 0 -22 0 -22 -32 -6 -34
17 -63 39 -216 156 -48 37 -98 76 -112 87 -119 92 -610 615 -712 758 -177 250
-290 430 -388 620 l-21 41 27 64 c14 34 59 119 99 188 139 239 160 299 159
445 -1 90 -8 128 -71 375 -109 423 -133 568 -133 800 0 164 10 266 36 354 8
27 14 51 14 54 0 8 -150 -122 -206 -180 -77 -79 -164 -188 -164 -205 0 -7 -4
-13 -10 -13 -5 0 -10 -5 -10 -11 0 -6 -11 -34 -25 -61 -14 -28 -32 -86 -39
-130 -12 -69 -12 -94 0 -177 12 -75 56 -276 78 -346 1 -5 8 -30 15 -55 7 -25
46 -146 87 -270 87 -258 103 -335 92 -436 -8 -77 -37 -176 -53 -181 -5 -1 -21
23 -34 55 -13 31 -30 71 -37 87 -7 17 -26 68 -44 115 -17 47 -35 94 -40 105
-5 11 -14 38 -20 60 -6 22 -15 49 -20 60 -43 103 -151 547 -179 740 -14 94
-38 362 -46 511 l-7 121 31 36 c34 38 175 142 261 192 155 89 269 221 301 347
18 73 56 256 84 403 61 323 110 490 197 675 47 98 130 226 188 288 22 24 40
45 40 48 0 3 -12 3 -27 0 -16 -4 -38 -8 -51 -11 -32 -6 -42 -9 -162 -46 -268
-83 -424 -210 -483 -394 -35 -109 -65 -236 -97 -400 -5 -27 -21 -151 -35 -275
-29 -255 -51 -354 -96 -437 -55 -102 -122 -188 -138 -179 -5 3 -7 27 -5 53 32
417 36 457 79 713 37 222 116 512 204 752 76 207 184 452 204 465 16 10 224
32 307 33 154 1 294 49 397 136 39 33 154 169 203 240 100 146 284 371 381
466 81 80 214 183 284 221 64 35 141 69 168 74 15 3 29 9 32 13 5 9 -178 65
-284 86 -59 11 -115 15 -190 12 -155 -6 -204 -34 -390 -221 -116 -117 -324
-367 -305 -367 3 0 -1 -6 -8 -14 -7 -8 -29 -38 -48 -66 -19 -29 -57 -81 -84
-117 -27 -37 -59 -83 -70 -104 -50 -87 -147 -183 -211 -208 -5 -2 -21 -8 -35
-14 -41 -16 -50 -16 -50 2 0 16 119 233 173 316 147 224 274 387 456 585 53
57 116 127 141 154 25 28 50 55 56 61 6 5 28 32 49 58 35 44 37 50 25 72 -7
14 -20 25 -27 25 -8 0 -47 -30 -87 -67 -40 -38 -98 -90 -128 -118 -58 -53 -93
-94 -277 -321 -116 -143 -310 -431 -420 -621 -23 -40 -47 -73 -53 -73 -23 0
12 199 59 339 40 121 156 326 225 401 13 14 50 57 83 95 56 67 239 277 278
320 36 39 118 153 138 191 62 119 89 248 89 423 0 106 -22 326 -34 338 -2 3
-9 -10 -14 -29z"/>
<path d="M14733 18273 c4 -1783 0 -1677 71 -2076 81 -450 301 -879 573 -1114
150 -130 352 -246 508 -293 22 -6 49 -15 60 -20 45 -21 250 -60 395 -76 258
-28 601 -5 830 56 317 84 586 239 790 457 64 68 160 187 160 198 0 3 15 27 33
53 40 56 163 304 173 347 4 17 10 35 14 40 17 21 83 261 110 395 11 52 29 167
42 255 22 159 22 168 25 1773 l4 1612 -521 0 -520 0 0 -1577 c0 -1320 -3
-1599 -15 -1708 -16 -147 -41 -290 -54 -320 -5 -11 -15 -42 -22 -70 -7 -27
-24 -77 -39 -110 -128 -302 -336 -464 -633 -494 -287 -29 -508 59 -689 276
-95 112 -182 346 -230 613 l-22 125 -6 1630 -5 1630 -518 3 -518 2 4 -1607z"/>
<path d="M19697 19873 c-4 -3 -7 -1155 -7 -2560 l0 -2553 475 0 475 0 0 1223
c0 1146 -6 1511 -36 2358 -4 103 -4 194 -1 203 11 28 37 4 57 -50 9 -27 29
-80 42 -119 14 -38 35 -90 46 -115 11 -25 35 -81 52 -125 17 -44 37 -93 45
-110 7 -16 25 -57 40 -90 14 -33 33 -73 40 -90 8 -16 29 -64 46 -105 17 -41
53 -120 79 -175 52 -110 84 -179 125 -270 31 -70 927 -1868 935 -1875 3 -3 79
-152 168 -332 l164 -328 544 0 544 0 0 28 c0 15 0 1166 0 2557 l0 2530 -475 3
-475 2 0 -937 c0 -822 9 -1452 25 -1833 5 -129 34 -584 39 -627 2 -15 7 -76
11 -135 8 -122 -2 -140 -36 -60 -11 26 -24 56 -29 67 -5 11 -14 37 -20 58 -7
22 -18 51 -26 65 -8 15 -14 31 -14 35 0 5 -6 23 -14 40 -7 18 -35 86 -61 152
-26 66 -56 138 -65 160 -9 22 -36 87 -60 145 -71 174 -143 337 -247 560 -51
111 -346 704 -352 710 -4 3 -40 73 -82 155 -86 170 -245 479 -357 695 -78 150
-145 280 -285 556 -46 89 -89 169 -96 178 -12 14 -74 16 -611 16 -328 0 -600
-3 -603 -7z"/>
<path d="M24710 17320 l0 -2560 518 2 517 3 0 2555 0 2555 -517 3 -518 2 0
-2560z"/>
<path d="M31280 17320 l0 -2560 1475 0 1475 0 0 470 0 470 -957 2 -958 3 0
610 0 610 858 3 857 2 0 465 0 465 -857 2 -858 3 0 535 0 535 910 5 910 5 0
465 0 465 -1427 3 -1428 2 0 -2560z"/>
<path d="M35209 17335 c-1 -1400 -2 -2551 -3 -2557 -1 -10 102 -14 477 -16
l477 -2 0 962 c0 1120 -13 2050 -36 2502 -13 254 -13 320 -3 326 19 12 37 1
44 -28 4 -15 13 -40 20 -57 8 -16 28 -67 44 -112 17 -45 34 -90 40 -100 5 -10
21 -49 36 -88 25 -63 38 -95 80 -190 8 -16 37 -84 66 -150 138 -319 329 -717
606 -1270 81 -159 316 -627 523 -1040 l376 -750 547 -3 547 -2 0 2560 0 2560
-472 -2 -473 -3 0 -1215 c0 -1289 8 -1601 56 -2169 23 -278 22 -251 5 -251 -8
0 -24 27 -37 63 -13 34 -29 73 -36 87 -7 14 -13 29 -13 33 0 5 -6 23 -14 40
-7 18 -19 48 -26 67 -7 19 -16 44 -20 55 -5 11 -23 56 -40 100 -17 44 -37 93
-44 110 -8 16 -44 104 -81 195 -70 171 -80 194 -139 323 -20 43 -36 80 -36 82
0 3 -13 33 -29 67 -110 240 -208 439 -401 813 -224 438 -304 592 -370 720 -37
72 -101 195 -143 275 -41 80 -128 250 -193 377 l-119 233 -607 0 -608 0 -1
-2545z"/>
<path d="M6305 19174 c-257 -12 -505 -55 -807 -138 -220 -60 -555 -204 -773
-332 -73 -43 -265 -166 -290 -186 -5 -4 -66 -51 -135 -105 -69 -53 -150 -120
-180 -147 -30 -28 -74 -69 -98 -91 -80 -74 -249 -263 -332 -370 -29 -38 -64
-83 -77 -100 -35 -45 -33 -42 -104 -150 -122 -186 -145 -225 -225 -385 -62
-124 -96 -202 -143 -325 -24 -60 -47 -119 -51 -130 -35 -85 -120 -398 -145
-537 -45 -244 -57 -374 -62 -669 -5 -315 4 -458 48 -724 32 -187 119 -528 159
-620 5 -11 25 -63 44 -115 64 -175 168 -389 276 -570 33 -54 157 -246 172
-265 5 -5 38 -48 73 -95 109 -142 300 -357 387 -435 19 -16 67 -60 108 -97
252 -225 626 -462 935 -591 50 -21 99 -42 110 -47 155 -72 536 -175 775 -210
133 -19 388 -40 490 -40 237 0 573 42 810 100 145 35 398 116 485 154 17 7 80
35 140 62 61 26 140 65 177 86 37 21 70 38 74 38 8 0 226 130 234 140 3 3 25
19 50 35 152 100 371 278 522 425 65 64 263 289 303 344 11 16 36 49 56 75 99
127 322 486 311 500 -2 2 0 7 5 10 11 8 113 214 113 228 0 6 7 24 15 40 24 46
53 117 61 148 4 17 10 35 14 40 28 38 147 477 166 610 1 11 9 63 18 115 81
509 50 1108 -84 1590 -12 41 -25 91 -30 110 -17 64 -107 314 -134 371 -14 31
-26 59 -26 63 0 9 -63 140 -71 146 -3 3 -10 16 -14 30 -4 14 -25 56 -46 93
-22 38 -39 70 -39 72 0 2 -22 40 -50 85 -27 45 -50 85 -50 90 0 5 -4 10 -8 12
-4 2 -34 41 -65 88 -165 247 -398 507 -637 712 -131 113 -133 115 -200 163
-30 22 -59 43 -65 47 -27 21 -115 80 -150 101 -22 13 -71 43 -110 67 -133 82
-529 267 -609 285 -6 1 -24 7 -41 14 -38 16 -246 77 -310 91 -27 7 -59 14 -70
17 -210 53 -635 90 -900 77z m518 -119 c345 -41 618 -109 917 -228 129 -51
410 -192 505 -252 39 -24 86 -53 105 -65 140 -82 386 -280 571 -460 74 -72
190 -207 270 -315 41 -55 77 -101 82 -103 4 -2 7 -9 7 -14 0 -6 17 -34 38 -62
22 -28 46 -65 56 -81 17 -31 29 -51 57 -95 55 -86 163 -299 216 -425 162 -386
243 -694 295 -1115 16 -135 17 -686 0 -790 -6 -41 -14 -97 -17 -124 -13 -123
-47 -297 -92 -466 -29 -109 -97 -320 -119 -367 -8 -17 -14 -34 -14 -38 0 -34
-207 -460 -259 -534 -12 -16 -21 -32 -21 -36 0 -3 -13 -26 -30 -50 -16 -24
-30 -48 -30 -53 0 -6 -3 -12 -7 -14 -12 -5 -73 -95 -73 -106 0 -6 -3 -12 -7
-14 -5 -2 -42 -48 -83 -103 -41 -55 -87 -113 -101 -130 -74 -85 -145 -162
-163 -178 -12 -10 -55 -51 -96 -91 -125 -122 -331 -282 -503 -390 -157 -99
-410 -236 -436 -236 -6 0 -11 -4 -11 -10 0 -5 -6 -10 -13 -10 -7 0 -58 -18
-112 -41 -88 -35 -278 -103 -324 -115 -9 -2 -50 -13 -91 -24 -426 -113 -971
-142 -1390 -74 -149 25 -382 76 -425 95 -11 4 -40 13 -65 19 -150 38 -512 193
-675 291 -27 16 -61 35 -75 42 -14 6 -29 15 -35 20 -5 4 -46 31 -90 59 -115
74 -315 223 -410 307 -87 78 -293 290 -342 354 -100 131 -229 308 -253 348
-14 23 -43 70 -64 103 -38 59 -194 361 -228 441 -35 82 -108 276 -108 286 0 6
-6 25 -14 42 -12 27 -28 83 -86 297 -24 89 -55 267 -80 460 -27 206 -27 672 0
865 41 294 69 431 136 665 8 30 19 64 24 75 5 11 16 43 24 70 12 44 49 140
104 270 33 79 189 381 227 440 21 33 63 98 93 145 49 76 105 153 236 324 97
125 422 423 598 549 171 121 293 195 459 279 125 63 141 71 279 128 41 17 84
35 95 39 93 40 377 119 535 150 91 17 257 42 370 54 92 10 535 4 643 -8z"/>
<path d="M6151 18732 c-67 -33 -82 -76 -63 -179 7 -42 17 -60 47 -89 37 -34
42 -36 88 -30 61 7 91 26 105 65 10 28 9 31 -10 31 -12 0 -36 -16 -55 -35 -19
-19 -41 -35 -50 -35 -8 0 -33 17 -54 39 -36 36 -39 43 -39 95 0 51 3 60 35 91
41 42 54 43 93 10 49 -41 93 -28 58 17 -29 39 -101 48 -155 20z"/>
<path d="M6404 18608 c-1 -146 2 -158 39 -158 15 0 17 14 17 150 l0 150 -28 0
-27 0 -1 -142z"/>
<path d="M6578 18713 c-21 -21 -38 -46 -38 -55 0 -9 -4 -20 -10 -23 -26 -16 4
-120 48 -167 35 -38 79 -45 133 -20 78 35 111 81 111 154 -1 82 -58 137 -150
145 -56 5 -58 4 -94 -34z m142 -13 c43 -22 55 -47 53 -114 -2 -42 -23 -78 -64
-108 -25 -19 -26 -18 -72 7 -56 32 -72 72 -56 144 11 50 24 69 54 81 31 13 43
12 85 -10z"/>
<path d="M6907 18698 c-13 -53 -38 -259 -32 -268 12 -20 45 -11 47 13 0 12 2
27 3 32 1 6 5 36 9 68 13 89 18 84 80 -78 29 -75 33 -80 61 -80 l30 0 12 85
c7 47 16 112 21 145 10 63 8 75 -12 75 -7 0 -17 -27 -25 -62 -24 -112 -27
-123 -41 -123 -7 0 -19 18 -27 40 -53 154 -64 175 -93 175 -21 0 -29 -6 -33
-22z"/>
<path d="M5846 18693 c-4 -5 -13 -8 -19 -8 -12 0 -20 -28 -35 -135 -24 -163
-25 -190 -9 -190 15 0 27 28 27 67 0 17 8 24 38 32 92 23 88 23 119 -15 26
-33 32 -35 52 -25 14 8 19 17 14 24 -9 13 -29 43 -113 175 -52 81 -60 89 -74
75z m46 -113 c15 -30 28 -58 28 -62 0 -7 -65 -28 -88 -28 -9 0 -12 9 -8 28 2
15 8 49 11 75 8 60 21 57 57 -13z"/>
<path d="M5592 18638 c-7 -9 -6 -28 4 -67 7 -30 17 -77 20 -105 l7 -50 -29 22
c-16 11 -58 48 -94 81 -36 33 -68 61 -71 61 -4 0 -11 -6 -17 -13 -8 -10 -6
-29 8 -73 10 -32 29 -93 41 -134 26 -85 35 -101 45 -76 4 10 -5 54 -20 99 -28
87 -31 107 -17 107 4 0 45 -34 89 -75 71 -65 123 -97 137 -83 2 2 -5 37 -16
78 -11 41 -29 109 -39 150 -22 82 -32 97 -48 78z"/>
<path d="M7304 18540 c-32 -45 -76 -103 -97 -130 -25 -32 -34 -50 -24 -50 7 0
22 10 33 21 17 19 27 21 79 16 89 -9 95 -12 95 -63 0 -34 5 -46 21 -54 11 -7
23 -9 26 -6 3 3 0 47 -6 98 -7 51 -16 123 -20 159 -14 116 -28 117 -107 9z
m66 -60 c0 -45 -3 -60 -14 -60 -23 0 -66 19 -66 28 0 14 59 92 70 92 6 0 10
-27 10 -60z"/>
<path d="M7579 18483 c-11 -27 -24 -57 -29 -68 -5 -11 -18 -42 -28 -70 -11
-27 -23 -57 -26 -66 -6 -14 10 -26 78 -59 77 -38 116 -46 116 -23 0 4 -28 24
-63 43 -53 31 -61 40 -59 60 2 14 7 30 12 35 4 6 13 27 20 48 7 22 18 51 26
65 17 33 18 54 2 70 -20 20 -28 14 -49 -35z"/>
<path d="M5080 18428 c-82 -37 -110 -48 -119 -48 -6 0 -11 -5 -11 -10 0 -12
38 -104 81 -198 16 -35 29 -67 29 -72 0 -23 25 -18 73 14 30 20 59 36 64 36
15 0 43 35 43 53 0 9 4 17 9 17 18 0 21 37 6 66 -8 16 -15 36 -15 45 0 9 -18
37 -41 63 -43 49 -69 56 -119 34z m82 -65 c43 -49 63 -138 39 -167 -11 -13
-89 -42 -95 -35 -2 2 -22 44 -45 93 l-43 90 24 18 c31 23 100 24 120 1z"/>
<path d="M7962 18322 c-11 -20 -44 -81 -75 -134 l-55 -98 61 -36 c114 -66 110
-65 165 -30 50 32 69 54 87 105 19 54 19 81 0 117 -13 27 -30 39 -127 93 l-36
21 -20 -38z m117 -71 c28 -39 27 -101 -1 -151 -22 -38 -25 -40 -75 -40 -41 0
-57 5 -73 22 -11 12 -20 26 -20 30 0 5 19 45 41 89 39 74 44 79 75 79 25 0 38
-7 53 -29z"/>
<path d="M4737 18234 c-27 -15 -29 -28 -10 -84 2 -8 13 -64 24 -124 10 -60 23
-114 28 -119 5 -5 17 -4 30 3 17 8 20 16 15 33 -16 48 -10 60 49 95 l58 35 25
-24 24 -23 23 23 c22 22 22 22 2 36 -11 8 -25 19 -32 25 -7 5 -15 10 -18 10
-3 0 -47 29 -98 64 -89 62 -93 63 -120 50z m100 -95 c29 -23 53 -45 53 -50 0
-9 -54 -49 -67 -49 -12 0 -29 34 -42 85 -18 69 -17 70 56 14z"/>
<path d="M8263 18143 c-10 -16 -22 -32 -26 -38 -26 -32 -127 -178 -124 -181 1
-2 43 -32 92 -68 124 -89 137 -71 17 24 -38 29 -40 55 -9 93 l22 29 67 -46
c36 -25 68 -42 72 -39 15 15 2 33 -45 64 -80 51 -84 57 -58 85 22 23 54 32 61
17 2 -5 25 -23 51 -42 34 -23 52 -30 59 -23 15 15 7 24 -82 91 l-80 61 -17
-27z"/>
<path d="M6260 18073 c-19 -2 -87 -11 -150 -19 -114 -15 -139 -20 -255 -50
-140 -35 -181 -47 -190 -54 -5 -4 -23 -10 -40 -14 -16 -4 -43 -13 -60 -21 -16
-7 -55 -23 -85 -35 -338 -136 -676 -388 -936 -696 -52 -61 -94 -115 -94 -118
0 -4 -7 -14 -15 -22 -18 -18 -132 -191 -165 -249 -36 -63 -140 -273 -140 -282
0 -4 -6 -20 -14 -35 -19 -37 -91 -247 -116 -343 -65 -244 -85 -405 -85 -695 0
-248 7 -328 46 -530 21 -107 24 -119 80 -300 124 -403 350 -774 663 -1085 206
-205 399 -343 661 -472 28 -14 58 -29 67 -33 108 -57 362 -136 586 -181 193
-39 503 -49 724 -24 129 15 347 56 398 74 14 5 72 24 130 42 58 18 107 36 110
39 3 4 18 10 33 14 15 3 57 20 93 36 35 17 69 30 73 30 5 0 11 3 13 8 2 4 26
18 53 32 81 40 234 137 330 210 33 25 66 50 73 55 126 92 383 371 491 534 129
194 163 254 271 486 45 96 120 331 154 480 95 419 79 942 -41 1330 -55 177
-82 252 -130 354 -14 30 -33 72 -44 95 -170 373 -526 789 -872 1019 -426 282
-920 430 -1420 425 -89 0 -178 -3 -197 -5z m545 -97 c152 -24 319 -66 455
-114 117 -42 333 -146 402 -193 14 -11 29 -19 32 -19 4 0 73 -46 145 -98 139
-99 341 -290 493 -467 213 -248 388 -568 481 -880 189 -628 142 -1288 -130
-1865 -75 -159 -183 -336 -279 -458 -89 -113 -310 -347 -389 -413 -16 -13 -59
-48 -94 -77 -300 -249 -740 -438 -1143 -492 -197 -26 -533 -21 -683 10 -22 4
-74 15 -115 23 -104 21 -317 85 -385 116 -121 55 -243 116 -299 150 -37 22
-72 41 -76 41 -5 0 -10 3 -12 8 -1 4 -34 28 -73 55 -126 86 -244 189 -395 347
-82 85 -163 173 -180 195 -17 22 -36 47 -43 55 -7 8 -45 65 -85 125 -39 61
-75 115 -79 120 -14 17 -143 280 -143 290 -1 6 -9 28 -20 50 -11 22 -19 43
-20 47 0 4 -5 19 -12 35 -6 15 -12 33 -14 38 -105 354 -123 462 -131 785 -6
257 7 391 61 639 9 41 29 113 43 160 15 47 27 89 27 93 1 3 4 10 9 14 4 4 7
14 7 23 0 9 6 27 13 41 7 14 21 47 31 74 21 55 99 213 146 294 100 175 235
346 420 533 140 141 203 198 310 282 8 7 56 38 105 69 50 32 95 61 100 66 10
8 267 134 320 157 170 73 454 139 685 159 87 8 426 -4 515 -18z"/>
<path d="M6925 17608 c-38 -33 -98 -84 -132 -114 -34 -30 -65 -54 -70 -54 -4
0 -49 41 -99 91 -106 106 -100 105 -185 7 -50 -58 -196 -222 -278 -313 -20
-22 -63 -72 -96 -110 -33 -39 -64 -73 -70 -77 -5 -4 -198 -8 -427 -8 l-418 0
0 -1698 c0 -1627 1 -1699 18 -1708 10 -5 82 -76 161 -159 163 -172 195 -192
269 -169 79 23 115 55 136 118 l19 57 -43 62 c-115 165 -105 139 -103 260 3
124 14 178 47 210 30 30 99 150 126 218 23 56 24 153 4 167 -6 4 -32 43 -59
87 -26 44 -61 99 -76 123 -37 58 -46 100 -25 120 14 15 18 14 43 -5 70 -55
184 -129 253 -165 14 -7 27 -15 30 -18 6 -7 170 -87 240 -118 89 -38 137 -52
260 -73 105 -18 148 -21 270 -15 193 8 314 30 475 88 118 43 208 94 450 258
28 18 142 126 254 238 175 176 208 214 232 268 47 103 55 176 42 390 -12 196
-15 204 -61 204 -12 0 -30 4 -40 9 -9 5 -42 21 -73 35 -44 20 -68 41 -108 94
l-52 67 3 125 c3 124 3 125 40 186 21 34 45 68 54 75 41 34 64 88 64 148 0 73
-15 93 -143 192 -95 74 -108 88 -150 161 -15 26 -33 53 -40 60 -8 7 -20 31
-27 53 -24 74 -64 119 -355 406 l-290 287 -70 -60z m114 -99 c20 -18 79 -73
132 -123 52 -50 151 -142 218 -205 123 -115 176 -183 215 -276 51 -120 64
-137 216 -270 36 -32 75 -61 88 -66 42 -16 20 -104 -43 -169 -60 -63 -96 -147
-102 -238 -16 -228 104 -420 281 -449 19 -3 37 -12 41 -21 3 -9 9 -95 12 -192
5 -153 4 -181 -10 -210 -10 -18 -17 -38 -17 -45 0 -36 -114 -171 -305 -360
-125 -125 -333 -298 -340 -285 -2 3 -12 -3 -22 -13 -22 -19 -119 -68 -197 -98
-185 -71 -498 -106 -703 -78 -88 12 -235 52 -303 82 -188 83 -386 197 -486
278 l-72 58 -31 -23 c-54 -40 -71 -70 -71 -123 1 -67 32 -127 153 -284 52 -69
24 -187 -75 -311 -76 -96 -114 -228 -97 -341 14 -92 27 -122 95 -222 65 -95
63 -108 -16 -144 -43 -20 -49 -20 -77 -6 -17 8 -92 79 -167 156 l-136 141 2
1636 3 1637 401 5 400 5 73 80 c84 93 143 159 271 305 112 128 161 180 171
180 4 0 45 -40 91 -90 47 -49 89 -90 95 -90 8 0 157 111 173 129 19 22 83 71
92 71 5 0 27 -14 47 -31z"/>
<path d="M5992 16708 c-3 -40 10 -48 80 -48 l57 0 3 -170 c2 -108 -1 -170 -7
-171 -5 0 -159 0 -342 0 -325 0 -332 -1 -339 -21 -3 -11 -2 -24 3 -29 4 -4 67
-10 138 -11 l130 -3 3 -478 c2 -474 2 -478 -19 -507 -26 -35 -49 -42 -164 -49
-88 -6 -90 -7 -90 -31 l0 -25 315 -3 c173 -1 320 0 326 2 6 2 9 15 7 29 -5 24
-8 25 -103 29 -108 5 -144 20 -160 64 -13 34 -13 894 0 894 5 0 58 -35 118
-77 59 -43 125 -89 145 -103 l38 -25 -5 -60 c-18 -196 -18 -337 -1 -433 33
-188 96 -329 189 -430 40 -43 125 -100 168 -112 90 -26 205 1 285 66 l45 37
38 -38 c64 -62 70 -51 70 124 l0 150 34 37 c19 21 40 35 47 31 8 -3 77 -50
154 -106 125 -91 144 -101 182 -101 l43 0 0 524 c0 428 2 527 14 538 28 28 94
47 189 53 l98 7 -3 26 -3 27 -320 1 -320 2 1 146 c0 138 2 147 23 170 16 17
37 26 65 28 40 3 41 4 44 41 l3 37 -176 0 -176 0 3 -37 c3 -37 4 -38 48 -41
52 -4 65 -13 90 -62 17 -34 19 -65 20 -384 0 -284 -2 -346 -13 -346 -11 0
-404 253 -504 325 -19 13 -23 25 -23 74 0 57 0 57 42 81 42 24 106 31 161 18
35 -9 106 -50 129 -74 34 -38 89 -164 102 -230 8 -48 17 -69 27 -69 12 0 14
35 17 208 2 199 2 207 -17 207 -12 0 -30 -17 -48 -45 -15 -24 -31 -44 -36 -45
-4 0 -32 20 -61 44 -52 42 -125 74 -176 77 -14 1 -51 -1 -82 -6 l-58 -7 0 115
0 116 63 3 62 3 3 38 3 37 -288 0 -289 0 -2 -32z m1238 -475 c73 -29 70 -17
70 -310 0 -177 -3 -263 -10 -263 -18 0 -60 24 -160 92 l-95 65 -3 209 c-1 115
0 214 3 222 6 16 143 6 195 -15z m-684 -557 c49 -36 112 -81 139 -101 28 -20
82 -58 120 -85 39 -27 81 -58 94 -67 13 -10 28 -21 34 -24 16 -11 0 -37 -25
-41 -17 -2 -24 -11 -26 -31 -2 -15 -14 -34 -27 -43 -36 -24 -123 -44 -191 -44
-53 0 -68 4 -109 33 -57 38 -91 98 -105 183 -12 72 -13 284 -2 284 5 0 48 -29
98 -64z m281 -516 c-6 -17 -15 -30 -19 -30 -4 0 -8 -6 -8 -14 0 -21 -38 -65
-79 -90 -86 -55 -196 -51 -262 7 -62 54 -91 132 -46 122 90 -20 118 -25 162
-25 56 0 174 28 220 52 38 21 46 15 32 -22z"/>
<path d="M4447 18008 c-36 -29 -66 -58 -66 -65 -1 -15 178 -219 189 -216 5 1
33 21 64 44 48 36 56 47 61 83 9 57 -8 116 -42 147 -83 77 -117 78 -206 7z
m156 -25 c9 -9 17 -20 17 -26 0 -5 11 -22 24 -38 28 -33 25 -57 -12 -106 -27
-37 -50 -42 -72 -15 -8 10 -36 43 -62 74 -27 31 -48 63 -48 71 0 8 14 27 32
42 26 22 37 25 67 20 20 -4 44 -14 54 -22z"/>
<path d="M8539 17938 c-8 -7 -57 -57 -109 -111 l-94 -97 74 -75 c57 -57 77
-72 87 -63 21 17 16 30 -39 85 l-52 53 34 37 c19 21 37 40 40 43 59 56 99 110
94 124 -7 19 -15 20 -35 4z"/>
<path d="M4292 17865 c-10 -12 0 -29 62 -102 104 -124 120 -137 135 -119 7 9
9 21 5 28 -16 25 -176 208 -183 208 -3 -1 -12 -7 -19 -15z"/>
<path d="M4150 17724 c-65 -45 -81 -119 -35 -163 29 -27 48 -24 130 14 66 32
95 25 95 -20 0 -27 -6 -37 -34 -54 -18 -12 -45 -21 -58 -21 -25 0 -56 -25 -45
-36 3 -3 23 -8 44 -11 29 -4 46 1 72 19 19 12 37 30 41 38 4 8 15 32 25 53
l18 38 -33 34 c-40 41 -84 46 -118 15 -12 -12 -41 -28 -64 -36 -39 -14 -44
-13 -55 3 -18 23 -17 27 13 62 15 18 35 31 49 31 27 0 53 26 38 41 -19 19 -48
16 -83 -7z"/>
<path d="M8782 17583 c-45 -22 -99 -95 -107 -144 -6 -36 -3 -47 26 -87 41 -59
46 -62 91 -62 41 0 52 11 43 39 -4 14 -15 18 -46 17 -53 -1 -79 28 -79 88 0
34 6 48 29 70 31 30 92 47 136 38 33 -6 58 -53 50 -93 -8 -36 18 -52 40 -23
22 29 18 51 -17 97 -64 83 -97 94 -166 60z"/>
<path d="M3948 17467 c-7 -8 -21 -25 -31 -38 -9 -13 -28 -39 -42 -58 -14 -19
-25 -38 -25 -42 0 -4 26 -26 58 -50 31 -23 59 -45 62 -49 16 -19 108 -79 114
-73 13 14 4 29 -34 57 -75 56 -44 96 73 96 66 0 78 3 87 20 9 16 7 20 -13 25
-47 12 -63 12 -101 -1 l-38 -14 6 28 c4 15 9 34 12 43 2 9 -5 28 -17 42 -16
21 -29 27 -59 27 -21 0 -45 -6 -52 -13z m80 -49 c17 -17 15 -53 -4 -69 -8 -7
-22 -25 -30 -41 -18 -35 -30 -35 -66 -1 -31 30 -36 51 -13 60 9 3 22 18 31 34
11 21 22 29 42 29 16 0 33 -5 40 -12z"/>
<path d="M8970 17294 c-47 -35 -100 -75 -118 -90 l-33 -25 38 -52 c20 -29 40
-54 43 -57 3 -3 13 -17 23 -32 10 -16 26 -28 37 -28 26 0 25 5 -7 49 -38 50
-53 77 -53 99 0 19 49 72 67 72 6 0 28 -27 49 -60 22 -33 42 -60 47 -60 11 0
10 2 -23 68 -35 72 -36 78 -11 92 32 17 38 13 77 -50 20 -33 43 -60 51 -60 26
0 25 30 -4 67 -16 21 -42 57 -58 81 -15 24 -31 44 -34 46 -3 2 -44 -25 -91
-60z"/>
<path d="M3759 17197 c-14 -23 -42 -68 -63 -99 l-36 -58 52 -31 c89 -52 121
-71 165 -100 l42 -27 60 94 c64 100 70 114 47 114 -8 0 -27 -24 -42 -54 -14
-29 -35 -64 -45 -77 l-18 -24 -46 24 c-25 13 -45 28 -45 34 0 5 18 38 40 73
22 35 40 66 40 69 0 3 -8 5 -17 5 -11 0 -34 -25 -57 -63 -22 -34 -41 -63 -42
-65 -1 -2 -12 1 -23 7 -31 17 -37 55 -14 88 11 15 29 44 41 64 21 34 21 37 4
52 -16 15 -19 13 -43 -26z"/>
<path d="M9106 17006 c-66 -35 -121 -67 -123 -72 -2 -6 2 -18 9 -27 12 -16 18
-14 73 23 33 22 65 44 72 50 7 5 19 10 27 10 18 0 11 -20 -52 -133 -31 -57
-41 -83 -36 -102 3 -14 9 -27 13 -29 3 -2 31 11 61 30 30 18 83 49 117 69 70
41 80 52 65 67 -8 8 -35 -2 -92 -31 -45 -24 -84 -40 -88 -37 -3 4 18 53 48
110 48 93 59 138 33 135 -4 0 -62 -29 -127 -63z"/>
<path d="M3618 16938 c-3 -7 35 -57 85 -110 85 -93 90 -104 47 -100 -26 2
-179 32 -192 37 -13 5 -20 0 -28 -20 -6 -15 -9 -30 -7 -32 7 -6 297 -46 302
-41 3 2 7 18 10 34 5 26 -4 39 -97 131 -57 57 -106 105 -109 109 -4 3 -9 -1
-11 -8z"/>
<path d="M9383 16752 c-6 -4 -10 -24 -9 -45 1 -38 0 -39 -59 -63 -139 -57
-155 -66 -155 -90 0 -23 0 -23 53 -7 28 8 57 19 62 23 19 15 127 42 135 34 5
-5 16 -22 24 -38 18 -36 51 -46 43 -13 -6 27 -60 166 -73 189 -5 9 -14 14 -21
10z"/>
<path d="M3486 16627 c-3 -12 -6 -25 -6 -29 0 -8 53 -33 155 -72 39 -15 80
-32 93 -39 19 -9 25 -8 32 3 21 32 9 45 -63 73 -75 30 -82 33 -159 65 l-46 20
-6 -21z"/>
<path d="M3432 16462 c2 -11 32 -27 91 -47 60 -21 87 -34 85 -44 -2 -8 -12
-15 -23 -17 -30 -3 -135 -24 -176 -35 -36 -9 -59 -43 -40 -62 6 -6 273 -87
288 -87 2 0 3 12 1 27 -3 26 -9 29 -86 47 -45 11 -81 25 -79 30 2 6 51 26 110
45 95 31 107 38 116 63 8 21 7 30 -2 33 -11 3 -225 50 -270 60 -13 2 -17 -2
-15 -13z"/>
<path d="M9351 16405 c-149 -50 -166 -68 -60 -63 l74 3 -2 -35 c-2 -24 -10
-40 -28 -53 -35 -26 -58 -73 -50 -104 l6 -26 29 28 c16 15 36 43 45 61 9 19
19 34 24 34 4 0 20 -13 36 -30 40 -42 68 -39 104 10 28 39 31 68 10 96 -5 6
-11 36 -15 67 -8 70 -4 69 -173 12z m140 -32 c5 -15 9 -50 7 -77 -3 -49 -4
-51 -33 -51 -24 0 -33 7 -47 35 -10 19 -18 49 -18 67 0 25 5 33 28 41 43 16
52 14 63 -15z"/>
<path d="M3350 16131 c0 -5 -3 -16 -6 -24 -4 -12 13 -17 83 -28 147 -21 198
-72 142 -143 -17 -21 -29 -26 -67 -26 -26 0 -76 9 -112 20 -81 25 -80 25 -80
-4 0 -22 6 -26 48 -31 26 -4 70 -13 99 -21 28 -8 61 -14 73 -14 25 0 93 66 87
84 -2 6 0 19 4 28 5 9 6 36 3 60 -7 48 -32 68 -88 68 -17 0 -60 9 -94 20 -70
22 -92 25 -92 11z"/>
<path d="M9410 16093 c-52 -19 -90 -83 -90 -151 0 -86 56 -132 158 -132 69 0
101 20 131 78 32 64 11 160 -43 196 -25 16 -122 22 -156 9z m155 -80 c42 -62
30 -115 -30 -137 -36 -14 -128 -16 -142 -4 -28 23 -45 69 -38 104 5 27 14 37
48 53 23 11 63 20 89 20 44 1 49 -2 73 -36z"/>
<path d="M3508 14617 c-144 -47 -134 -33 -101 -145 19 -64 45 -93 100 -111 40
-13 46 -12 99 12 46 20 62 34 83 71 24 41 25 48 12 78 -7 18 -18 57 -24 86 -7
37 -15 52 -26 51 -9 0 -73 -19 -143 -42z m142 -90 c0 -50 -4 -66 -20 -80 -11
-9 -20 -14 -20 -12 0 3 -14 -2 -31 -10 -16 -9 -46 -15 -66 -13 -30 3 -40 9
-59 43 -26 45 -30 70 -12 81 10 6 178 51 201 53 4 1 7 -27 7 -62z"/>
<path d="M9246 14577 c-23 -61 -20 -116 8 -150 23 -28 23 -28 62 -12 28 12 49
31 74 71 38 60 67 70 92 32 25 -39 -6 -108 -47 -108 -22 0 -35 -17 -35 -46 0
-31 62 -5 107 46 17 19 22 38 23 76 0 44 -5 57 -29 83 -16 17 -39 31 -50 31
-27 0 -71 -28 -71 -45 0 -6 -9 -20 -20 -30 -11 -10 -20 -23 -20 -30 0 -22 -37
-47 -60 -40 -18 6 -21 13 -18 53 3 43 5 47 31 50 18 2 32 13 42 33 l16 29 -44
0 c-43 0 -45 -1 -61 -43z"/>
<path d="M3621 14314 c-74 -35 -136 -66 -139 -68 -8 -9 97 -191 112 -194 20
-4 15 22 -21 112 -13 32 -23 59 -21 61 2 1 13 7 25 14 43 22 57 14 88 -54 24
-52 33 -63 45 -55 13 8 11 17 -13 65 -34 69 -34 83 -1 95 44 17 52 12 78 -57
33 -87 38 -94 55 -83 12 7 7 26 -23 107 -21 54 -41 103 -44 110 -5 7 -50 -9
-141 -53z"/>
<path d="M9134 14275 l-42 -95 136 -65 c75 -36 141 -64 147 -61 7 2 18 26 25
53 7 26 17 53 21 58 13 18 38 98 33 107 -11 17 -26 6 -40 -29 -38 -95 -55
-125 -69 -119 -7 2 -30 8 -50 12 -41 7 -41 13 2 97 23 46 23 67 2 67 -6 0 -24
-29 -40 -65 -30 -66 -39 -72 -83 -55 -29 11 -32 25 -14 67 6 15 12 30 13 33 1
3 7 18 13 33 15 37 15 57 -1 57 -6 0 -31 -43 -53 -95z"/>
<path d="M9057 14070 c-15 -12 -27 -28 -27 -35 0 -8 -16 -42 -36 -76 -35 -58
-36 -62 -18 -73 84 -50 237 -125 245 -121 20 13 6 33 -41 59 -54 29 -60 44
-33 76 14 16 30 20 84 20 67 0 99 16 99 49 0 14 -93 11 -139 -4 -21 -7 -23 -6
-17 10 6 17 -9 82 -23 96 -3 4 -20 10 -37 13 -23 5 -37 1 -57 -14z m66 -51
c18 -25 9 -63 -23 -108 -19 -27 -23 -29 -50 -19 -17 5 -32 14 -35 18 -7 12 24
82 48 108 26 28 42 28 60 1z"/>
<path d="M3787 13917 c-103 -63 -117 -75 -112 -94 7 -30 85 -153 96 -153 22 0
18 30 -10 86 -35 69 -40 60 79 142 78 54 101 81 75 88 -5 2 -63 -29 -128 -69z"/>
<path d="M8905 13824 c-9 -14 -13 -29 -8 -33 4 -4 44 -31 88 -61 44 -29 97
-67 118 -83 32 -25 41 -28 48 -16 13 20 11 40 -5 53 -47 37 -203 154 -212 159
-7 4 -19 -5 -29 -19z"/>
<path d="M4055 13700 c-31 -14 -182 -58 -220 -66 -40 -7 -40 -7 -19 -39 14
-21 22 -24 53 -19 33 5 39 2 69 -35 37 -46 39 -61 15 -102 -16 -27 -16 -30 -1
-45 15 -16 18 -14 37 17 11 19 25 39 30 46 6 7 11 15 11 19 0 4 10 21 23 38
13 17 38 55 55 84 31 50 32 54 17 82 -16 30 -34 36 -70 20z m5 -57 c0 -5 -11
-28 -24 -53 -28 -55 -56 -63 -76 -23 -20 40 -19 42 25 63 42 19 75 25 75 13z"/>
<path d="M8780 13639 c-13 -24 1 -59 72 -181 24 -40 49 -85 57 -100 12 -24 15
-25 29 -11 14 14 14 18 -1 45 -24 43 -22 51 28 101 42 42 47 45 78 36 27 -8
34 -6 49 13 9 13 13 27 9 31 -5 5 -40 17 -80 28 -39 10 -104 28 -143 39 -90
24 -85 24 -98 -1z m163 -78 c11 -11 -32 -83 -47 -78 -12 4 -65 77 -66 91 0 10
101 -2 113 -13z"/>
<path d="M4285 13418 c-10 -12 -57 -62 -103 -110 -72 -74 -83 -90 -72 -103 15
-18 34 -6 56 37 8 15 20 28 27 28 7 0 33 -20 57 -45 48 -49 79 -56 129 -30 48
24 57 107 16 145 -13 12 -36 40 -51 61 -15 22 -30 39 -33 39 -4 0 -15 -10 -26
-22z m95 -123 c11 -20 10 -26 -3 -39 -23 -24 -86 -20 -114 6 -31 29 -29 40 13
78 l36 31 28 -26 c15 -14 33 -37 40 -50z"/>
<path d="M8556 13356 c-21 -12 -42 -28 -46 -36 -4 -8 -15 -32 -25 -53 -18 -37
-18 -38 2 -65 36 -48 64 -50 127 -8 60 39 100 45 119 15 26 -42 -27 -114 -78
-106 -16 2 -36 2 -42 0 -18 -7 -16 -30 3 -37 34 -13 64 -4 113 35 45 36 51 45
51 78 0 30 -8 46 -36 75 -40 41 -52 41 -114 0 -19 -13 -49 -26 -67 -30 -39 -8
-47 14 -24 65 15 30 18 33 53 28 49 -7 69 14 43 43 -22 24 -29 24 -79 -4z"/>
<path d="M4454 13183 c-34 -41 -99 -115 -142 -161 -11 -12 -10 -18 4 -34 17
-18 19 -17 62 27 25 25 49 45 53 45 4 0 18 -14 30 -31 19 -28 21 -36 11 -63
-16 -44 -15 -101 2 -115 20 -17 28 0 35 73 6 64 10 67 58 52 30 -10 83 47 83
89 0 24 -10 37 -51 68 -29 20 -49 37 -46 37 3 0 -7 14 -21 30 -15 17 -29 30
-33 30 -4 0 -24 -21 -45 -47z m86 -41 c0 -5 11 -15 25 -22 21 -11 25 -21 25
-57 0 -37 -3 -43 -22 -43 -51 0 -148 85 -111 97 6 2 19 10 29 18 21 16 54 20
54 7z"/>
<path d="M8330 13137 c-36 -18 -82 -92 -87 -141 -4 -35 0 -47 26 -80 17 -21
31 -43 31 -48 0 -5 19 -17 41 -27 52 -24 84 -16 146 35 78 64 81 130 10 208
-59 63 -113 81 -167 53z m119 -61 c27 -28 34 -43 38 -94 6 -60 6 -61 -28 -81
-19 -12 -44 -21 -56 -21 -34 0 -100 64 -105 102 -17 111 78 169 151 94z"/>
<path d="M4725 12990 c-3 -5 -15 -10 -25 -10 -11 0 -25 -10 -31 -22 -7 -13
-15 -25 -18 -28 -22 -18 -53 -97 -53 -133 1 -37 6 -47 49 -84 48 -43 95 -60
130 -49 27 9 107 91 114 118 4 13 7 44 8 70 1 43 -2 48 -48 87 -63 53 -112 73
-126 51z m91 -68 c30 -24 35 -45 24 -105 -18 -95 -102 -136 -161 -78 -66 67
-13 201 81 201 19 0 44 -8 56 -18z"/>
<path d="M8120 12960 c-11 -7 -7 -19 22 -62 46 -67 71 -118 63 -126 -3 -3 -52
17 -108 46 -112 57 -119 59 -137 38 -9 -12 -2 -29 37 -87 26 -39 62 -93 80
-119 36 -54 51 -66 64 -53 6 6 -8 41 -40 94 -27 46 -46 88 -42 92 7 7 38 -4
143 -52 50 -22 75 -26 96 -13 9 6 6 18 -15 48 -16 22 -52 74 -80 116 -59 86
-63 90 -83 78z"/>
<path d="M4986 12838 c-17 -54 -26 -92 -36 -148 -5 -36 -16 -82 -22 -104 -11
-34 -10 -40 7 -52 28 -20 46 -17 80 14 17 15 67 58 113 96 45 37 82 71 82 75
0 4 -11 14 -26 21 -24 14 -28 11 -106 -68 -83 -84 -112 -101 -103 -59 29 135
39 223 26 232 -6 3 -13 0 -15 -7z"/>
<path d="M7813 12772 c-45 -26 -84 -50 -88 -54 -5 -4 106 -249 121 -267 2 -2
178 93 193 106 3 2 0 8 -7 15 -12 12 -72 -7 -72 -23 0 -5 -6 -9 -14 -9 -7 0
-25 -9 -39 -20 -14 -11 -30 -20 -36 -20 -11 0 -51 80 -51 101 0 9 121 69 140
69 5 0 10 5 10 10 0 23 -34 21 -91 -4 -70 -32 -93 -31 -97 6 -3 23 5 31 67 68
39 22 71 47 71 55 0 24 -20 18 -107 -33z"/>
<path d="M5225 12643 c-15 -32 -42 -90 -61 -129 -38 -78 -40 -89 -20 -97 18
-7 28 6 48 58 9 22 30 69 46 105 41 88 49 120 29 120 -9 0 -27 -24 -42 -57z"/>
<path d="M7610 12666 c0 -8 14 -48 30 -89 50 -125 37 -197 -37 -197 -31 0 -63
26 -63 51 0 8 -14 51 -32 97 -23 57 -38 82 -49 82 -21 0 -41 -24 -30 -36 4 -5
23 -52 42 -105 18 -54 41 -101 50 -107 8 -6 41 -13 72 -17 56 -7 56 -7 91 31
42 46 47 91 17 151 -10 21 -29 64 -42 95 -22 53 -49 77 -49 44z"/>
<path d="M5342 12637 c-6 -12 -18 -40 -25 -62 -8 -22 -28 -76 -44 -121 -29
-77 -30 -81 -12 -92 31 -20 35 -15 48 56 14 70 26 102 40 102 4 0 20 -46 36
-102 27 -99 50 -138 80 -138 11 0 18 14 30 60 0 3 4 14 7 25 61 195 62 198 42
212 -10 7 -21 13 -24 13 -8 0 -25 -57 -35 -112 -7 -37 -29 -66 -38 -51 -5 8
-30 94 -50 171 -13 53 -39 71 -55 39z"/>
<path d="M7220 12534 c-70 -25 -74 -31 -55 -100 9 -32 18 -68 20 -78 5 -23 24
-85 32 -106 4 -8 5 -19 4 -23 -3 -17 32 -18 86 -1 57 18 133 74 133 99 0 21
-31 74 -51 89 -16 11 -19 20 -13 53 5 35 3 42 -21 61 -32 26 -72 27 -135 6z
m119 -46 c10 -26 -7 -52 -51 -74 -40 -21 -63 -17 -76 11 -19 42 -15 65 11 65
12 0 29 5 37 10 28 18 70 12 79 -12z m33 -115 c23 -20 23 -55 1 -75 -10 -9
-39 -19 -64 -22 l-46 -7 -12 45 c-14 58 -15 56 12 56 12 0 29 5 37 10 23 15
51 12 72 -7z"/>
<path d="M5658 12507 c-40 -23 -78 -90 -78 -135 0 -48 29 -118 53 -129 74 -34
94 -35 136 -9 27 17 39 31 35 41 -8 19 -33 19 -40 0 -4 -10 -21 -15 -55 -15
-72 0 -90 36 -72 143 4 29 14 44 42 63 49 33 75 31 108 -11 34 -42 53 -45 53
-7 0 67 -109 102 -182 59z"/>
<path d="M5927 12473 c-3 -5 -13 -63 -22 -129 -8 -65 -18 -129 -20 -142 -4
-17 0 -25 17 -31 30 -11 36 -5 41 44 3 22 10 81 16 130 18 136 18 130 -6 133
-11 2 -24 -1 -26 -5z"/>
<path d="M6827 12459 c-38 -4 -70 -9 -72 -11 -1 -2 7 -72 18 -157 l21 -153 51
6 c27 4 64 11 80 15 17 5 42 12 58 15 15 4 27 13 27 22 0 13 -8 15 -37 10 -21
-3 -62 -8 -90 -12 l-53 -6 0 41 c0 38 2 41 38 50 20 6 51 11 69 11 37 0 47 11
38 41 -6 19 -12 20 -53 14 -26 -3 -54 -8 -62 -10 -24 -7 -38 7 -45 46 l-7 36
49 7 c85 12 103 17 103 32 0 16 -23 16 -133 3z"/>
<path d="M6112 12408 c-52 -111 -72 -158 -91 -206 l-21 -52 24 0 c19 0 26 7
31 30 9 40 17 43 82 35 53 -6 56 -8 71 -46 12 -30 20 -39 39 -39 26 0 26 -1
-4 110 -8 30 -24 90 -35 133 -19 73 -22 77 -48 77 -23 0 -32 -7 -48 -42z m69
-85 c9 -28 15 -54 11 -57 -3 -3 -25 -6 -49 -6 -30 0 -43 4 -43 14 0 27 40 108
52 104 6 -2 19 -27 29 -55z"/>
<path d="M6465 12288 c4 -79 9 -146 12 -150 6 -12 151 -10 173 2 57 31 77 144
40 224 -26 55 -52 66 -152 66 l-80 0 7 -142z m175 85 c17 -15 20 -30 20 -92 0
-70 -2 -77 -27 -99 -21 -18 -37 -22 -73 -20 l-45 3 -3 113 -3 112 56 0 c37 0
61 -5 75 -17z"/>
<path d="M21445 13313 c-56 -9 -55 -6 -55 -274 0 -137 -2 -249 -5 -249 -3 0
-29 17 -58 38 -85 63 -122 76 -212 76 -212 -1 -347 -154 -373 -423 -23 -241
48 -447 183 -525 132 -77 316 -51 444 64 24 22 48 37 52 34 5 -3 9 -27 9 -53
0 -30 6 -53 14 -60 19 -16 153 -16 172 0 20 16 21 1341 1 1357 -15 13 -128 22
-172 15z m-172 -634 c18 -13 51 -43 74 -68 l43 -46 0 -155 0 -155 -54 -57
c-66 -69 -112 -91 -182 -86 -67 6 -106 35 -140 106 -25 52 -27 68 -28 177 -1
97 3 130 19 174 21 57 82 127 118 135 44 9 118 -3 150 -25z"/>
<path d="M23390 13313 c-50 -10 -50 -9 -50 -274 0 -161 -4 -249 -10 -249 -6 0
-24 12 -41 28 -46 41 -125 80 -178 87 -56 8 -154 -8 -203 -33 -182 -90 -266
-361 -203 -656 28 -131 94 -224 193 -273 50 -25 68 -28 152 -28 84 0 101 3
150 28 30 16 78 48 106 73 29 24 55 44 58 44 3 0 6 -22 6 -48 0 -68 18 -82
102 -82 37 0 73 3 82 6 14 6 16 75 16 679 0 538 -3 675 -13 683 -15 13 -130
23 -167 15z m-188 -627 c50 -26 94 -65 120 -104 15 -23 18 -51 18 -177 l0
-151 -61 -61 c-68 -68 -119 -90 -191 -80 -56 8 -88 33 -123 102 -29 56 -30 64
-30 189 0 115 3 137 23 182 51 114 146 152 244 100z"/>
<path d="M30513 13310 c-13 -5 -23 -17 -23 -27 0 -10 0 -312 0 -672 0 -468 3
-658 11 -668 13 -15 185 -18 209 -3 13 8 15 95 15 679 0 516 -3 673 -12 682
-16 16 -170 23 -200 9z"/>
<path d="M31945 13314 c-11 -3 -30 -7 -42 -10 l-23 -4 0 -250 c0 -155 -4 -250
-10 -250 -5 0 -41 20 -79 45 -89 58 -150 71 -245 56 -148 -25 -248 -125 -296
-296 -38 -135 -27 -369 23 -487 8 -18 33 -56 55 -85 127 -159 360 -164 528
-11 20 18 41 33 47 33 7 0 13 -22 15 -57 3 -65 8 -68 95 -69 71 -1 93 6 101
34 7 29 8 1285 0 1314 -3 12 -12 24 -19 27 -22 8 -128 15 -150 10z m-209 -624
c23 -12 65 -45 93 -75 l51 -54 0 -154 0 -154 -59 -60 c-67 -67 -121 -90 -193
-80 -56 8 -88 33 -123 102 -28 55 -30 64 -30 184 0 143 10 185 62 248 51 63
124 79 199 43z"/>
<path d="M33280 13314 c-40 -16 -40 -14 -40 -695 0 -584 2 -659 16 -673 11
-12 36 -16 97 -16 45 0 92 3 105 6 l22 6 0 672 c0 381 -4 677 -9 685 -10 15
-161 27 -191 15z"/>
<path d="M16857 13280 c-64 -12 -82 -39 -82 -121 0 -65 2 -73 28 -95 25 -21
38 -24 106 -24 64 0 83 4 104 20 49 39 47 165 -3 201 -29 20 -99 29 -153 19z"/>
<path d="M20430 13277 c-65 -17 -80 -55 -71 -175 1 -7 13 -24 27 -37 24 -22
36 -25 100 -25 40 0 84 5 97 11 63 29 62 193 -1 217 -46 18 -105 21 -152 9z"/>
<path d="M27168 13281 c-20 -4 -44 -13 -52 -21 -23 -19 -38 -85 -30 -136 10
-67 37 -84 135 -84 67 0 82 3 105 23 22 19 28 34 31 78 5 63 -7 102 -39 123
-29 18 -102 27 -150 17z"/>
<path d="M34445 13229 c-22 -5 -49 -13 -60 -18 -11 -5 -36 -15 -55 -22 -46
-16 -151 -90 -184 -129 -46 -56 -95 -148 -121 -232 -48 -152 -46 -408 5 -559
86 -255 323 -388 622 -350 102 13 222 57 257 95 25 26 38 110 27 170 -8 44
-28 47 -80 11 -20 -14 -40 -25 -44 -25 -4 0 -20 -7 -35 -15 -45 -23 -143 -38
-210 -32 -160 15 -265 121 -296 299 -25 146 -7 331 44 435 61 128 192 195 338
174 70 -10 194 -64 230 -100 22 -22 35 -10 46 38 13 64 1 145 -28 175 -12 13
-41 31 -64 41 -23 10 -51 21 -62 26 -65 28 -243 38 -330 18z"/>
<path d="M14575 13222 l-40 -7 -3 -453 c-2 -487 0 -511 51 -621 22 -47 107
-137 149 -158 141 -70 297 -90 460 -59 98 19 173 54 236 111 67 60 87 89 119
172 l27 68 4 461 c3 423 2 462 -14 475 -12 9 -45 14 -111 14 -82 0 -97 -3
-109 -20 -11 -15 -14 -97 -15 -449 -1 -489 -1 -493 -77 -570 -52 -53 -108 -71
-208 -70 -113 2 -189 47 -236 142 -23 47 -23 50 -28 494 -3 284 -9 451 -15
457 -13 13 -138 21 -190 13z"/>
<path d="M24169 13194 l-24 -26 -3 -603 c-3 -677 -8 -634 71 -636 74 -2 121 3
140 13 18 9 19 31 15 494 -2 336 0 484 8 484 5 0 18 -19 29 -42 38 -88 142
-294 235 -463 34 -63 92 -171 160 -300 29 -55 70 -118 91 -140 l39 -40 115 0
c106 0 116 2 137 23 l23 23 3 593 c1 378 -1 603 -8 620 -9 26 -11 26 -105 26
-95 0 -96 0 -106 -27 -7 -19 -10 -174 -8 -460 2 -259 -1 -434 -6 -434 -11 -2
-3 -17 -108 196 -46 94 -98 195 -114 225 -17 30 -56 104 -88 165 -32 60 -71
131 -87 158 -15 26 -28 51 -28 55 0 18 -64 94 -91 107 -20 11 -62 15 -147 15
-114 0 -119 -1 -143 -26z"/>
<path d="M37100 13123 c-75 -12 -70 -2 -70 -123 0 -81 -3 -110 -12 -111 -7 0
-35 -2 -63 -2 -63 -2 -78 -25 -72 -111 4 -72 20 -86 93 -86 l53 0 3 -300 c2
-222 6 -302 16 -312 6 -6 12 -19 12 -28 0 -21 75 -99 108 -112 92 -35 265 -27
310 15 20 19 22 29 20 97 -3 84 5 78 -90 64 -59 -8 -98 7 -121 45 -15 25 -17
62 -17 279 l0 250 105 4 c80 2 108 7 115 18 5 8 10 45 10 81 0 92 -9 98 -130
97 l-95 -2 -5 106 c-3 59 -8 109 -12 113 -18 18 -100 27 -158 18z"/>
<path d="M16227 12901 c-60 -13 -142 -61 -211 -123 -35 -32 -46 -23 -46 35 0
29 -5 58 -12 65 -7 7 -41 12 -83 12 -113 0 -105 38 -105 -483 0 -392 2 -447
16 -461 12 -12 36 -16 100 -16 135 0 124 -30 124 326 l0 305 53 53 c72 73 107
89 176 84 49 -4 59 -9 87 -42 20 -23 37 -57 43 -87 6 -29 11 -171 11 -334 0
-331 -11 -305 124 -305 64 0 88 4 100 16 14 13 16 54 16 297 0 156 -5 321 -10
367 -17 138 -74 226 -175 271 -47 21 -154 31 -208 20z"/>
<path d="M18371 12899 c-72 -12 -184 -73 -228 -123 -108 -125 -152 -376 -99
-574 62 -229 279 -330 600 -277 49 8 113 24 142 35 56 23 64 39 64 119 0 68
-6 69 -128 37 -285 -74 -452 -3 -452 190 l0 44 288 0 289 0 23 25 c22 23 23
29 17 127 -11 189 -81 308 -220 371 -71 32 -193 43 -296 26z m180 -173 c19 -8
44 -25 56 -38 26 -29 56 -116 51 -154 l-3 -29 -192 -3 -193 -2 0 44 c0 63 45
145 96 173 46 27 133 31 185 9z"/>
<path d="M19424 12901 c-42 -10 -84 -41 -132 -96 -54 -62 -72 -60 -72 8 0 29
-5 58 -12 65 -19 19 -153 16 -172 -4 -14 -14 -16 -70 -16 -469 0 -526 -13
-475 120 -475 130 0 120 -26 120 305 l0 284 25 38 c66 102 108 124 223 121
l87 -3 1 -66 c1 -71 26 -130 76 -176 28 -26 116 -78 149 -88 54 -16 151 -66
174 -89 27 -27 34 -90 15 -125 -23 -44 -149 -65 -235 -39 -22 6 -42 12 -45 13
-3 0 -31 14 -64 29 -72 35 -78 29 -74 -71 3 -64 6 -75 28 -90 14 -10 27 -18
30 -19 3 0 19 -6 35 -13 103 -43 304 -36 409 14 198 94 223 361 44 476 -28 18
-98 52 -156 75 -124 50 -162 80 -162 131 0 19 5 43 10 54 30 55 150 65 265 23
39 -14 77 -28 86 -30 11 -4 18 2 22 18 10 34 8 93 -2 121 -21 55 -187 95 -323
77 -113 -14 -202 -64 -248 -139 -33 -54 -50 -53 -48 2 3 86 -2 112 -21 124
-25 16 -100 23 -137 14z"/>
<path d="M22065 12899 c-107 -16 -225 -65 -251 -104 -20 -30 -15 -118 8 -141
13 -13 24 -11 96 21 110 48 221 65 299 45 78 -21 97 -48 101 -149 l4 -78 -144
-6 c-205 -8 -299 -41 -372 -131 -77 -93 -72 -248 9 -343 20 -23 61 -54 93 -70
51 -24 68 -28 157 -28 94 0 105 2 168 33 37 18 67 37 67 41 0 7 43 31 55 31 3
0 5 -12 5 -26 0 -55 14 -64 98 -64 47 0 83 5 90 12 9 9 12 100 12 348 0 295
-2 343 -18 402 -37 131 -118 190 -285 208 -104 11 -109 11 -192 -1z m255 -638
l0 -90 -42 -34 c-75 -60 -128 -75 -203 -56 -64 16 -85 46 -85 120 0 50 4 63
28 90 34 38 104 57 220 58 l82 1 0 -89z"/>
<path d="M25663 12899 c-72 -9 -172 -43 -224 -75 -28 -18 -38 -31 -42 -61 -12
-71 23 -141 57 -115 6 5 49 24 96 42 72 28 98 33 175 34 151 2 184 -28 188
-166 l2 -63 -135 -6 c-206 -10 -299 -41 -378 -128 -40 -45 -57 -98 -55 -179 4
-131 79 -223 209 -257 134 -35 259 -7 351 78 36 34 53 29 53 -16 0 -18 4 -38
9 -45 10 -17 147 -18 167 -1 13 11 15 63 12 378 l-3 366 -27 56 c-48 99 -121
142 -266 159 -96 11 -101 11 -189 -1z m255 -633 c3 -75 1 -81 -25 -108 -70
-74 -172 -102 -250 -69 -81 33 -84 174 -5 223 47 29 89 36 192 35 l85 -2 3
-79z"/>
<path d="M26649 12900 c-181 -23 -304 -138 -354 -330 -17 -65 -24 -225 -13
-290 36 -214 145 -333 333 -362 122 -19 260 11 347 75 27 20 28 23 28 114 0
110 -2 112 -92 53 -131 -85 -281 -62 -340 52 -40 76 -48 254 -17 357 7 23 30
62 51 86 30 34 49 46 88 54 77 17 170 -7 239 -60 53 -42 71 -20 71 89 0 56 -3
66 -27 88 -38 35 -107 63 -183 74 -36 5 -67 9 -70 8 -3 0 -30 -4 -61 -8z"/>
<path d="M27855 12900 c-154 -23 -270 -102 -333 -226 -101 -199 -66 -521 70
-650 93 -89 254 -129 424 -106 260 35 394 207 394 506 0 184 -36 283 -134 374
-97 90 -252 127 -421 102z m178 -194 c49 -20 103 -89 118 -149 18 -75 15 -245
-6 -307 -35 -104 -104 -153 -213 -149 -87 3 -134 26 -172 85 -50 80 -65 265
-29 382 16 55 78 126 121 139 48 16 143 15 181 -1z"/>
<path d="M28993 12900 c-62 -13 -164 -72 -207 -119 -33 -36 -46 -27 -46 32 0
64 -11 73 -100 76 -110 3 -101 45 -101 -478 0 -325 4 -457 12 -467 14 -17 180
-20 210 -4 18 10 19 24 19 318 l0 307 38 41 c56 62 113 94 168 94 61 0 107
-29 133 -84 20 -40 21 -59 21 -348 0 -364 -10 -338 127 -338 67 0 94 4 103 15
17 20 17 626 0 713 -7 34 -17 62 -23 62 -6 0 -8 3 -4 6 9 9 -17 55 -50 91 -65
69 -194 105 -300 83z"/>
<path d="M29840 12903 c-19 -2 -77 -16 -129 -30 -123 -35 -161 -67 -161 -141
0 -33 6 -57 18 -72 l19 -23 64 30 c101 48 138 57 234 57 105 1 143 -14 168
-66 14 -32 21 -83 18 -139 l-1 -26 -142 -6 c-188 -7 -271 -33 -351 -106 -53
-48 -72 -97 -72 -186 0 -90 17 -138 69 -193 113 -121 368 -119 497 4 33 31 39
30 39 -7 0 -60 12 -69 98 -69 47 0 83 5 90 12 15 15 17 607 3 705 -11 76 -34
126 -79 170 -48 48 -110 72 -216 83 -92 10 -103 10 -166 3z m231 -560 c0 -5 2
-42 3 -83 l2 -75 -39 -38 c-54 -52 -93 -70 -152 -71 -60 0 -109 18 -128 48
-57 88 -6 194 104 215 56 11 209 13 210 4z"/>
<path d="M32600 12899 c-30 -4 -69 -15 -85 -23 -17 -9 -35 -16 -41 -16 -22 0
-140 -119 -162 -161 -58 -117 -67 -156 -66 -304 0 -114 4 -151 21 -201 53
-156 149 -239 310 -270 96 -18 188 -18 295 1 112 19 175 47 188 81 13 33 10
122 -4 133 -6 5 -52 -4 -111 -21 -204 -60 -361 -35 -420 66 -18 30 -29 66 -32
106 l-6 60 290 0 c280 0 291 1 309 21 41 45 23 255 -31 351 -79 142 -248 208
-455 177z m199 -189 c50 -36 81 -101 81 -166 l0 -44 -195 0 -195 0 0 28 c0 54
29 127 62 158 49 47 67 53 139 54 58 0 71 -4 108 -30z"/>
<path d="M35343 12899 c-167 -28 -290 -149 -338 -330 -34 -133 -17 -345 38
-453 83 -166 293 -237 568 -192 100 16 172 45 188 74 17 32 14 131 -4 138 -8
3 -60 -6 -116 -21 -171 -45 -299 -37 -369 23 -49 42 -71 86 -77 160 l-5 52
289 0 c316 0 312 -1 332 59 13 39 1 165 -23 244 -17 55 -76 146 -113 173 -96
69 -232 96 -370 73z m180 -175 c61 -31 97 -95 97 -174 l0 -50 -195 0 -195 0 0
38 c0 57 42 136 91 171 36 27 50 31 106 31 39 0 76 -6 96 -16z"/>
<path d="M36430 12898 c-47 -11 -161 -80 -194 -116 -33 -37 -46 -28 -46 31 0
48 -3 55 -25 65 -34 16 -148 15 -163 0 -9 -9 -12 -127 -12 -468 0 -341 3 -459
12 -468 8 -8 46 -12 103 -12 76 0 95 3 108 18 15 16 17 54 17 318 l1 299 27
31 c15 18 49 48 75 68 62 46 131 50 189 11 65 -44 71 -82 75 -429 2 -230 5
-301 15 -308 19 -11 176 -10 199 2 18 10 19 24 19 323 0 172 -5 340 -10 375
-9 64 -46 149 -81 187 -56 61 -207 97 -309 73z"/>
<path d="M38001 12899 c-19 -6 -64 -40 -104 -80 -39 -38 -75 -69 -79 -69 -4 0
-8 26 -8 58 0 32 -5 63 -12 70 -17 17 -148 15 -170 -2 -17 -12 -18 -47 -18
-469 0 -529 -13 -477 124 -477 64 0 88 4 100 16 14 13 16 54 16 298 l0 283 29
39 c16 21 45 55 65 74 37 35 38 35 124 34 54 -1 90 3 94 10 4 6 8 52 8 103 0
79 -3 94 -18 102 -29 16 -114 21 -151 10z"/>
<path d="M38560 12899 c-64 -10 -163 -45 -168 -59 -2 -6 -10 -10 -17 -10 -23
0 -112 -96 -138 -148 -108 -216 -74 -533 72 -664 91 -83 248 -121 410 -101
261 33 402 209 403 503 2 348 -214 532 -562 479z m183 -193 c49 -20 103 -89
118 -149 16 -66 16 -238 -1 -297 -6 -25 -25 -61 -41 -81 -45 -57 -84 -75 -166
-78 -127 -4 -191 49 -223 188 -15 62 -8 224 11 284 17 51 80 121 121 134 48
16 143 15 181 -1z"/>
<path d="M16813 12878 l-23 -11 0 -458 c0 -531 -14 -479 124 -479 64 0 88 4
100 16 14 14 16 70 16 464 l0 450 -22 14 c-28 17 -163 20 -195 4z"/>
<path d="M17116 12875 c-15 -11 -17 -21 -11 -52 4 -21 10 -42 14 -48 4 -5 13
-30 20 -55 6 -25 16 -54 21 -65 5 -11 22 -63 39 -115 59 -184 169 -516 186
-557 10 -25 25 -43 38 -47 12 -3 77 -6 143 -6 144 0 164 10 184 87 6 27 12 50
12 53 0 3 3 10 7 15 4 6 31 84 61 175 29 91 58 179 65 195 7 17 16 46 20 65 4
19 11 41 16 50 16 28 89 256 89 276 0 36 -20 44 -110 44 -100 0 -122 -13 -141
-83 -6 -23 -17 -60 -24 -82 -7 -22 -27 -87 -45 -145 -30 -102 -39 -130 -95
-312 -17 -55 -33 -88 -41 -88 -8 0 -14 5 -14 12 0 12 -55 197 -69 233 -5 11
-20 58 -34 105 -76 249 -102 325 -119 342 -15 15 -34 18 -105 18 -60 -1 -94
-5 -107 -15z"/>
<path d="M20393 12873 l-23 -15 0 -454 c0 -438 1 -454 19 -464 28 -14 194 -13
209 2 9 9 12 127 12 468 l0 457 -25 11 c-38 18 -165 14 -192 -5z"/>
<path d="M27140 12883 c-39 -14 -40 -22 -40 -485 0 -432 1 -448 19 -458 21
-11 161 -14 199 -4 l22 6 0 463 0 462 -25 11 c-26 12 -147 15 -175 5z"/>
<path d="M17060 11353 c-14 -3 -28 -10 -32 -17 -4 -6 -8 -336 -8 -732 0 -565
3 -724 13 -732 19 -15 125 -12 142 5 13 12 15 115 15 732 0 577 -3 721 -13
729 -16 14 -83 22 -117 15z"/>
<path d="M15223 11343 c-10 -3 -13 -72 -13 -294 0 -225 -3 -289 -12 -289 -7 0
-33 19 -58 41 -25 23 -70 53 -100 67 -48 23 -67 26 -150 26 -80 -1 -104 -5
-152 -27 -195 -90 -293 -382 -229 -685 34 -157 92 -240 211 -303 39 -21 59
-24 150 -24 90 0 112 3 155 24 47 22 118 73 158 113 35 35 47 23 47 -45 0 -36
5 -68 12 -75 7 -7 33 -12 58 -12 25 0 51 5 58 12 9 9 12 187 12 739 0 654 -2
727 -16 733 -18 7 -113 7 -131 -1z m-198 -608 c22 -11 72 -51 112 -89 l73 -69
0 -202 0 -202 -77 -74 c-96 -92 -132 -110 -221 -111 -88 -1 -138 24 -181 89
-50 75 -65 140 -65 288 -1 170 21 249 93 329 60 66 176 84 266 41z"/>
<path d="M27202 11338 c-9 -9 -12 -87 -12 -289 0 -178 -4 -280 -10 -284 -6 -4
-32 12 -58 35 -75 67 -142 93 -237 94 -114 1 -181 -24 -260 -96 -34 -32 -68
-72 -76 -90 -7 -18 -16 -35 -20 -38 -3 -3 -17 -41 -30 -85 -32 -112 -33 -324
-1 -436 39 -138 94 -213 202 -270 40 -21 58 -24 155 -24 100 0 114 2 162 27
28 15 79 50 112 78 34 28 66 48 71 45 6 -3 10 -32 10 -64 0 -31 5 -62 12 -69
15 -15 82 -16 109 -2 19 10 19 29 19 739 0 655 -2 729 -16 735 -28 11 -120 6
-132 -6z m-221 -593 c51 -17 122 -73 174 -135 l35 -42 0 -197 0 -197 -62 -62
c-98 -97 -129 -115 -203 -120 -92 -6 -130 4 -176 46 -74 66 -101 155 -102 327
0 189 36 296 122 353 68 45 133 54 212 27z"/>
<path d="M22507 11280 c-57 -7 -77 -25 -84 -76 -10 -78 27 -116 110 -116 21 1
49 8 62 16 29 19 41 82 25 130 -13 42 -45 54 -113 46z"/>
<path d="M24792 11279 c-38 -11 -52 -39 -52 -105 0 -61 24 -84 91 -84 50 0 87
12 101 34 4 6 8 35 8 64 0 59 -23 92 -64 92 -13 0 -30 2 -38 4 -7 2 -28 0 -46
-5z"/>
<path d="M36675 11264 c-16 -12 -20 -27 -20 -73 0 -80 19 -101 92 -101 30 0
63 5 73 10 42 23 46 137 6 165 -27 20 -125 19 -151 -1z"/>
<path d="M35873 11245 c-17 -7 -34 -24 -38 -37 -3 -12 -10 -32 -16 -43 -9 -20
-66 -177 -96 -265 -8 -25 -21 -58 -28 -75 -7 -16 -18 -50 -25 -74 -6 -24 -16
-51 -20 -60 -5 -9 -16 -36 -24 -61 -8 -25 -25 -70 -36 -100 -12 -30 -29 -77
-37 -105 -9 -27 -19 -54 -23 -60 -4 -5 -15 -32 -23 -60 -9 -27 -32 -95 -52
-150 -113 -305 -113 -295 -10 -295 67 0 86 12 99 60 4 14 11 34 16 45 4 11 22
63 40 115 18 52 37 107 42 123 l10 27 298 0 298 0 12 -32 c6 -18 27 -78 46
-133 19 -55 38 -109 43 -120 5 -11 13 -32 19 -47 13 -32 38 -40 112 -36 78 4
80 14 31 149 -23 63 -45 123 -50 134 -5 11 -39 106 -76 210 -37 105 -73 204
-80 220 -7 17 -23 59 -35 95 -12 36 -58 164 -102 285 -44 121 -85 233 -91 249
-18 51 -129 74 -204 41z m116 -267 c60 -169 121 -342 157 -448 19 -58 39 -113
45 -122 5 -10 9 -22 9 -28 0 -6 -88 -10 -250 -10 -275 0 -260 -4 -234 65 8 22
31 87 50 145 19 58 38 114 43 125 6 11 33 90 62 175 55 165 65 190 77 190 4 0
22 -42 41 -92z"/>
<path d="M18860 11239 c-13 -5 -28 -15 -32 -22 -4 -7 -8 -312 -8 -678 0 -599
2 -667 16 -673 28 -11 120 -6 137 7 15 11 17 42 19 267 l3 255 150 6 c172 7
240 23 324 76 129 82 191 200 191 362 0 90 -28 193 -66 244 -44 57 -145 123
-229 147 -53 16 -471 24 -505 9z m485 -160 c58 -28 109 -90 126 -152 18 -68 6
-183 -26 -249 -15 -32 -30 -58 -34 -58 -4 0 -16 -8 -27 -17 -45 -42 -116 -62
-235 -69 -64 -3 -126 -3 -138 1 -21 6 -21 9 -21 292 l0 285 153 -4 c135 -4
157 -7 202 -29z"/>
<path d="M29060 11237 c-13 -7 -27 -23 -31 -37 -11 -40 -10 -1240 1 -1281 16
-57 48 -63 302 -56 130 4 239 12 279 21 135 30 229 98 281 204 28 55 34 80 37
149 6 161 -63 281 -198 339 -34 15 -61 30 -61 34 0 3 22 21 49 39 28 17 53 41
56 51 4 11 10 20 15 20 20 0 51 109 52 184 0 75 -25 176 -45 176 -4 0 -6 4 -3
8 9 15 -78 90 -134 116 -71 33 -188 46 -405 46 -116 0 -178 -4 -195 -13z m507
-155 c28 -14 52 -38 70 -69 24 -41 28 -59 28 -123 0 -95 -30 -160 -94 -205
l-43 -30 -166 0 -167 0 -3 215 c-1 118 0 221 3 228 4 11 37 13 168 10 145 -3
167 -6 204 -26z m-10 -582 c63 -15 126 -58 158 -107 33 -54 46 -165 25 -228
-18 -54 -72 -109 -132 -135 -46 -20 -72 -23 -223 -25 -108 -2 -174 0 -182 7
-10 8 -13 69 -13 248 0 130 3 240 7 243 10 11 313 8 360 -3z"/>
<path d="M15925 10894 c-49 -8 -137 -46 -185 -80 -74 -53 -127 -133 -162 -247
-29 -96 -31 -300 -4 -392 50 -165 125 -248 273 -302 75 -28 312 -25 413 5 104
31 124 47 128 107 2 26 -1 52 -5 56 -5 5 -49 -5 -98 -22 -118 -41 -280 -52
-369 -24 -101 32 -170 117 -181 224 -3 31 -8 71 -11 89 l-5 32 326 0 c323 0
357 3 377 34 16 24 8 169 -13 240 -40 132 -117 217 -239 261 -46 16 -190 27
-245 19z m200 -144 c49 -23 64 -36 92 -75 27 -39 55 -135 51 -177 l-3 -33
-260 -3 c-143 -1 -265 0 -271 2 -8 3 -9 21 -2 63 18 118 84 201 188 236 8 3
49 6 90 6 54 0 86 -5 115 -19z"/>
<path d="M17685 10894 c-96 -16 -224 -67 -252 -103 -19 -22 -17 -110 2 -117 8
-3 43 9 77 28 108 58 222 79 322 58 108 -22 156 -95 156 -235 l0 -72 -152 -6
c-229 -9 -340 -48 -416 -144 -55 -71 -69 -162 -39 -264 20 -66 66 -118 140
-156 47 -25 62 -27 162 -28 98 0 116 3 165 26 30 14 75 42 98 62 24 21 48 37
53 37 5 0 9 -22 9 -48 0 -26 5 -53 12 -60 16 -16 100 -16 116 0 9 9 12 106 12
375 0 363 -3 404 -39 495 -17 44 -88 105 -147 128 -55 20 -215 34 -279 24z
m303 -666 l3 -108 -58 -55 c-116 -111 -268 -127 -355 -38 -32 33 -33 37 -33
118 0 75 2 86 25 111 55 60 144 82 315 80 l100 -1 3 -107z"/>
<path d="M20205 10892 c-50 -18 -104 -59 -149 -113 -27 -32 -53 -59 -57 -59
-5 0 -9 33 -9 74 l0 74 -34 12 c-34 11 -80 6 -103 -13 -10 -7 -13 -118 -13
-493 0 -550 -6 -514 85 -514 89 0 85 -16 85 351 0 361 -6 329 88 442 71 86
124 106 216 82 76 -20 86 -12 86 66 0 50 -3 61 -24 74 -26 17 -139 28 -171 17z"/>
<path d="M20795 10891 c-172 -34 -301 -148 -350 -311 -39 -132 -37 -332 6
-452 41 -117 101 -184 216 -240 67 -33 70 -33 208 -33 125 0 146 3 200 24 134
54 232 167 274 316 7 22 14 90 18 150 14 276 -77 447 -279 525 -59 23 -223 35
-293 21z m216 -142 c52 -18 117 -76 143 -128 31 -61 46 -143 46 -255 -1 -108
-11 -163 -47 -234 -51 -103 -134 -148 -273 -146 -196 1 -291 126 -293 384 -2
200 72 342 199 380 43 12 186 12 225 -1z"/>
<path d="M23264 10891 c-56 -14 -119 -50 -187 -106 -36 -30 -69 -55 -72 -55
-3 0 -5 31 -5 69 0 40 -5 73 -11 77 -6 3 -34 7 -61 7 -83 1 -79 30 -76 -521 3
-416 5 -484 18 -492 22 -14 124 -12 138 2 9 9 12 102 12 358 l0 346 58 60 c70
74 134 113 200 121 97 11 176 -39 212 -133 19 -51 20 -77 20 -384 0 -189 4
-340 10 -354 9 -24 14 -26 74 -26 44 0 67 5 76 15 9 11 11 101 8 377 -5 397
-9 428 -68 513 -39 57 -68 81 -125 105 -54 24 -170 35 -221 21z"/>
<path d="M24230 10894 c-186 -32 -306 -147 -356 -339 -14 -51 -19 -105 -18
-200 0 -112 4 -142 27 -215 61 -192 193 -290 391 -290 120 0 249 44 304 103
29 31 39 95 20 130 l-13 27 -67 -45 c-84 -57 -135 -75 -213 -75 -148 0 -230
73 -267 235 -30 133 -8 338 46 423 47 74 119 112 216 112 76 0 139 -20 199
-64 73 -54 101 -47 101 24 0 68 -42 111 -151 150 -53 20 -170 33 -219 24z"/>
<path d="M25405 10891 c-109 -23 -226 -76 -245 -111 -14 -27 -12 -86 4 -99 10
-9 27 -5 72 18 100 48 162 65 254 65 169 2 230 -59 230 -229 l0 -82 -152 -6
c-213 -8 -315 -41 -396 -127 -46 -49 -64 -95 -65 -170 -2 -66 19 -160 34 -160
5 0 9 -6 9 -13 0 -22 62 -74 115 -98 42 -19 68 -23 155 -24 122 0 182 20 262
86 26 21 51 39 57 39 6 0 11 -21 11 -50 0 -58 17 -72 79 -68 29 1 43 8 51 24
9 16 11 120 8 385 -4 343 -6 368 -26 430 -28 81 -83 138 -162 169 -61 23 -226
35 -295 21z m313 -667 l3 -111 -56 -51 c-150 -137 -361 -115 -390 41 -19 101
27 177 126 209 70 23 94 26 214 24 l100 -1 3 -111z"/>
<path d="M27910 10894 c-47 -10 -144 -47 -158 -60 -7 -8 -17 -14 -21 -14 -19
0 -106 -102 -132 -155 -47 -98 -60 -166 -60 -305 1 -273 74 -393 300 -494 14
-6 89 -11 175 -11 157 0 231 13 319 57 36 18 37 20 37 73 0 29 -4 56 -9 59 -4
3 -48 -9 -97 -26 -83 -30 -98 -32 -224 -33 -133 0 -136 1 -190 31 -71 40 -113
102 -135 200 -9 41 -15 84 -13 97 l3 22 337 5 c297 4 339 7 354 22 13 13 16
34 15 103 -2 193 -78 324 -228 395 -54 26 -80 31 -156 35 -51 2 -103 1 -117
-1z m173 -135 c49 -13 115 -73 138 -124 10 -22 21 -71 25 -108 l7 -67 -274 2
-274 3 3 39 c8 104 86 222 165 249 50 18 157 21 210 6z"/>
<path d="M31475 10891 c-114 -21 -237 -114 -295 -222 -47 -89 -62 -164 -62
-309 0 -114 4 -140 35 -245 35 -115 150 -216 288 -251 130 -33 397 -3 478 55
26 19 31 29 31 65 0 66 -14 72 -90 39 -84 -36 -269 -53 -362 -34 -113 24 -185
111 -208 251 -5 36 -10 73 -10 82 0 16 27 17 341 20 397 3 369 -5 369 114 0
143 -40 252 -121 333 -27 26 -69 56 -92 66 -23 9 -50 21 -60 26 -24 13 -192
20 -242 10z m223 -145 c18 -9 42 -25 54 -34 32 -26 68 -118 75 -188 l6 -64
-271 0 c-161 0 -273 4 -277 10 -10 16 21 126 49 174 30 51 79 94 128 113 47
18 194 11 236 -11z"/>
<path d="M32561 10881 c-60 -23 -145 -78 -187 -122 -15 -16 -31 -29 -36 -29
-4 0 -8 29 -8 64 0 76 -11 89 -77 89 -33 0 -50 -5 -59 -18 -19 -26 -21 -974
-2 -993 7 -7 39 -12 73 -12 48 0 63 4 72 19 8 13 12 103 12 302 0 156 0 310 1
341 0 57 1 58 63 121 128 130 249 152 354 63 21 -17 38 -47 52 -88 20 -58 21
-84 21 -391 0 -207 4 -335 10 -348 9 -15 22 -19 70 -19 94 0 90 -13 90 313 -1
440 -16 534 -99 629 -73 84 -237 120 -350 79z"/>
<path d="M33570 10894 c-52 -11 -150 -47 -161 -60 -6 -8 -17 -14 -24 -14 -16
0 -106 -96 -132 -142 -50 -85 -68 -173 -67 -323 0 -118 3 -150 22 -204 55
-159 156 -257 303 -290 57 -13 211 -13 268 0 268 61 414 352 341 681 -39 177
-121 278 -268 329 -57 20 -227 34 -282 23z m206 -145 c55 -14 118 -75 151
-146 35 -76 50 -209 35 -318 -25 -185 -108 -281 -262 -300 -160 -19 -280 56
-326 205 -21 67 -24 272 -6 340 30 105 96 188 175 217 41 15 176 16 233 2z"/>
<path d="M34525 10894 c-16 -3 -44 -12 -62 -20 -17 -7 -33 -14 -37 -14 -21 0
-99 -69 -123 -108 -25 -42 -28 -56 -28 -139 0 -86 2 -94 30 -135 42 -59 113
-106 231 -152 168 -67 214 -110 214 -198 0 -85 -61 -138 -175 -153 -67 -9
-168 15 -252 60 -36 19 -69 32 -72 29 -3 -3 -6 -33 -6 -65 0 -70 12 -84 110
-121 51 -20 79 -23 190 -23 126 0 132 1 195 32 77 38 100 58 135 117 32 54 37
75 37 152 -1 113 -68 194 -209 254 -171 72 -212 93 -242 124 -41 42 -49 91
-27 150 23 60 75 86 172 86 69 0 173 -23 184 -41 4 -5 20 -12 38 -15 27 -5 32
-3 33 12 4 47 -3 90 -17 105 -38 42 -220 78 -319 63z"/>
<path d="M37450 10894 c-58 -22 -86 -42 -143 -104 -36 -39 -68 -70 -71 -70 -3
0 -6 26 -6 58 0 85 -6 99 -45 105 -19 3 -50 1 -70 -4 l-35 -10 0 -492 c0 -370
3 -496 12 -505 7 -7 37 -12 68 -12 94 0 90 -15 90 359 l0 322 55 74 c82 111
143 143 231 124 81 -17 86 -16 97 14 13 41 1 110 -24 125 -22 14 -135 25 -159
16z"/>
<path d="M38025 10890 c-175 -38 -291 -153 -341 -335 -36 -131 -26 -331 23
-453 35 -87 113 -167 208 -212 66 -31 78 -33 200 -38 112 -4 143 -1 220 18 94
24 149 50 159 76 10 25 7 79 -5 91 -8 8 -35 2 -97 -19 -113 -39 -277 -50 -365
-24 -111 32 -178 127 -192 274 l-7 71 340 3 c259 2 344 6 354 16 17 17 22 134
9 206 -25 133 -105 243 -217 296 -52 25 -79 31 -156 35 -51 2 -111 0 -133 -5z
m188 -131 c87 -24 156 -128 160 -237 l2 -57 -270 0 c-312 0 -292 -9 -254 109
27 84 90 158 154 181 48 17 155 19 208 4z"/>
<path d="M38922 10890 c-73 -15 -162 -71 -198 -123 -51 -74 -59 -172 -22 -259
34 -79 100 -126 273 -194 142 -56 185 -97 185 -178 0 -62 -15 -94 -58 -123
-58 -38 -131 -49 -216 -30 -79 17 -159 49 -189 75 -17 16 -20 15 -33 -3 -26
-35 -12 -114 24 -141 9 -7 44 -23 77 -36 52 -20 78 -23 190 -23 126 0 132 1
195 32 98 48 133 86 164 177 21 64 20 110 -2 169 -35 92 -103 143 -290 217
-147 58 -185 96 -183 182 1 61 20 94 72 121 27 15 52 17 124 15 76 -3 101 -9
158 -36 l68 -31 10 26 c16 43 2 97 -29 116 -76 44 -228 66 -320 47z"/>
<path d="M21440 10879 c-13 -5 -26 -12 -28 -14 -2 -2 19 -66 46 -142 28 -76
56 -156 63 -178 7 -22 16 -44 20 -50 4 -5 14 -32 23 -60 18 -60 40 -122 96
-275 23 -63 55 -150 71 -194 15 -43 29 -80 31 -81 35 -28 169 -35 204 -10 12
8 27 36 34 62 7 26 16 53 20 58 4 6 22 53 40 105 19 52 46 129 61 170 15 41
32 91 39 110 6 19 16 44 20 55 5 11 27 72 49 135 21 63 53 153 69 200 21 59
27 89 20 97 -16 20 -70 25 -113 11 -37 -12 -41 -18 -66 -85 -15 -40 -24 -73
-22 -73 3 0 1 -6 -4 -12 -6 -7 -16 -35 -23 -63 -7 -27 -17 -55 -21 -60 -4 -6
-13 -33 -20 -60 -6 -28 -15 -54 -19 -60 -4 -5 -38 -101 -75 -212 -42 -127 -73
-203 -81 -203 -7 0 -18 19 -24 41 -6 23 -16 53 -22 68 -6 14 -12 31 -14 36 -1
6 -19 57 -39 115 -20 58 -37 110 -39 115 -6 25 -39 121 -46 130 -3 6 -12 30
-19 55 -6 25 -16 54 -21 65 -5 11 -21 57 -36 103 -16 49 -35 87 -45 93 -29 15
-102 20 -129 8z"/>
<path d="M22480 10881 l-25 -7 0 -504 0 -505 63 -3 c38 -2 69 2 78 9 12 10 14
91 14 501 l0 489 -35 15 c-37 15 -55 16 -95 5z"/>
<path d="M24793 10879 l-33 -10 0 -492 c0 -370 3 -496 12 -505 7 -7 37 -12 68
-12 31 0 61 5 68 12 9 9 12 135 12 505 l0 492 -37 10 c-44 12 -47 12 -90 0z"/>
<path d="M30142 10879 l-33 -10 3 -387 c2 -263 7 -393 14 -407 6 -11 19 -37
27 -57 23 -53 81 -113 135 -140 40 -19 63 -23 147 -23 121 0 162 16 273 106
l72 59 0 -69 c0 -43 5 -72 13 -78 20 -16 112 -16 126 0 8 11 11 143 9 508 l-3
493 -39 8 c-22 5 -54 4 -77 -2 l-39 -11 0 -344 0 -343 -27 -34 c-35 -43 -88
-92 -137 -125 -44 -31 -141 -43 -198 -24 -44 14 -90 63 -114 121 -17 41 -19
78 -22 397 l-3 352 -37 11 c-43 11 -46 11 -90 -1z"/>
<path d="M36715 10883 c-46 -12 -45 1 -45 -512 0 -365 3 -490 12 -499 16 -16
119 -15 141 2 16 12 17 48 17 498 0 386 -3 488 -13 496 -16 13 -84 23 -112 15z"/>
</g>
</svg>
