<?xml version="1.0" standalone="no"?>
<!DOCTYPE svg PUBLIC "-//W3C//DTD SVG 20010904//EN"
 "http://www.w3.org/TR/2001/REC-SVG-20010904/DTD/svg10.dtd">
<svg version="1.0" xmlns="http://www.w3.org/2000/svg"
 width="4032.000000pt" height="3024.000000pt" viewBox="0 0 4032.000000 3024.000000"
 preserveAspectRatio="xMidYMid meet">
<metadata>
Created by potrace 1.16, written by Peter Selinger 2001-2019
</metadata>
<g transform="translate(0.000000,3024.000000) scale(0.100000,-0.100000)"
fill="#000000" stroke="none">
<path d="M19640 24663 c-78 -7 -157 -26 -195 -46 -33 -17 -65 -22 -185 -27
-139 -7 -148 -8 -207 -39 -51 -28 -75 -34 -150 -39 -82 -5 -90 -7 -116 -35
-24 -26 -41 -33 -109 -44 -67 -10 -87 -18 -112 -42 -24 -23 -44 -31 -90 -37
-48 -5 -65 -13 -86 -35 -18 -20 -41 -32 -79 -39 -35 -6 -65 -20 -87 -40 -19
-16 -47 -32 -62 -36 -50 -11 -79 -25 -101 -50 -13 -15 -37 -26 -63 -30 -31 -5
-52 -17 -74 -40 -18 -20 -44 -36 -65 -40 -45 -9 -70 -22 -92 -50 -10 -13 -37
-29 -60 -35 -23 -6 -55 -23 -72 -38 -16 -15 -44 -33 -61 -40 -17 -7 -37 -24
-45 -38 -8 -14 -35 -35 -64 -48 -27 -12 -56 -30 -64 -39 -8 -10 -28 -24 -45
-33 -17 -9 -44 -29 -61 -45 -16 -15 -51 -49 -77 -73 -26 -25 -52 -45 -58 -45
-6 0 -16 -12 -22 -26 -7 -14 -26 -33 -42 -41 -36 -18 -59 -39 -181 -161 -103
-103 -165 -173 -182 -207 -7 -13 -22 -26 -32 -30 -11 -3 -29 -21 -41 -40 -12
-19 -29 -36 -38 -39 -10 -3 -25 -19 -35 -35 -9 -16 -32 -45 -49 -64 -61 -65
-98 -119 -108 -158 -8 -27 -20 -43 -40 -54 -16 -8 -31 -24 -35 -35 -3 -11 -21
-37 -39 -59 -20 -23 -36 -56 -40 -80 -4 -30 -15 -47 -40 -66 -24 -18 -37 -39
-45 -71 -7 -25 -22 -56 -36 -68 -13 -12 -32 -45 -43 -74 -11 -28 -31 -65 -45
-81 -14 -17 -28 -49 -32 -71 -4 -23 -21 -57 -40 -80 -24 -29 -35 -54 -40 -92
-5 -40 -15 -61 -40 -88 -26 -28 -34 -46 -38 -90 -6 -63 -17 -93 -49 -133 -16
-20 -24 -47 -29 -97 -5 -58 -11 -74 -37 -105 -18 -20 -32 -41 -32 -48 -1 -7
-5 -55 -9 -107 -7 -78 -15 -107 -42 -158 l-32 -63 -8 -267 c-5 -147 -13 -340
-18 -429 -7 -108 -6 -192 0 -250 6 -48 14 -201 18 -338 l7 -250 33 -70 c29
-61 34 -85 40 -186 7 -106 11 -122 40 -173 27 -46 34 -72 41 -147 5 -54 15
-99 24 -112 9 -12 23 -32 32 -44 9 -12 20 -52 24 -89 6 -51 14 -72 34 -93 19
-19 31 -49 42 -102 11 -55 22 -82 44 -104 21 -22 32 -45 37 -80 5 -38 14 -56
39 -80 25 -22 36 -43 43 -79 6 -35 17 -55 34 -68 14 -11 33 -40 42 -68 9 -26
23 -54 31 -61 9 -7 27 -35 41 -63 14 -27 35 -58 48 -68 12 -9 28 -32 35 -50 7
-18 23 -44 36 -58 12 -14 30 -44 39 -68 11 -26 28 -48 46 -57 15 -8 31 -25 35
-37 3 -13 24 -42 45 -65 22 -24 39 -47 39 -52 0 -21 165 -209 333 -378 38 -39
195 -186 234 -221 24 -20 55 -49 70 -63 16 -14 50 -38 76 -54 27 -15 51 -34
54 -42 3 -8 23 -23 44 -33 21 -11 43 -29 49 -40 6 -11 29 -29 51 -40 22 -12
42 -27 45 -35 3 -7 27 -23 52 -35 26 -12 58 -32 72 -45 14 -13 42 -31 62 -39
20 -9 43 -24 50 -34 17 -24 51 -42 78 -42 13 0 38 -17 59 -39 28 -31 46 -40
83 -45 37 -6 52 -14 72 -40 17 -22 37 -36 60 -40 20 -4 48 -17 63 -30 38 -31
61 -42 106 -50 20 -4 53 -21 73 -38 27 -24 50 -34 92 -39 47 -7 61 -14 82 -39
22 -27 35 -33 88 -39 48 -6 69 -14 91 -35 31 -30 81 -45 147 -46 29 0 55 -9
88 -32 43 -28 61 -32 169 -43 95 -10 135 -19 181 -41 57 -26 70 -28 270 -36
116 -4 272 -17 347 -28 150 -22 372 -27 460 -10 105 20 237 32 449 39 203 7
218 9 265 33 63 32 83 36 227 47 102 8 123 12 170 39 43 24 69 31 137 36 50 3
92 12 105 21 12 8 31 22 43 31 13 9 59 20 105 25 77 9 85 12 115 44 28 31 38
35 82 35 44 0 56 5 89 34 27 25 53 37 95 45 37 7 71 21 95 40 20 16 62 36 93
45 31 9 63 23 70 33 8 9 37 27 66 39 29 13 57 32 62 43 6 10 31 26 57 35 25 8
64 31 85 51 21 19 45 35 52 35 8 0 24 12 38 26 13 14 41 35 61 45 21 11 51 31
67 47 17 15 54 47 82 72 113 98 385 384 408 428 8 15 29 44 47 65 19 20 34 43
34 49 0 7 16 29 35 48 96 97 113 117 119 138 4 12 22 41 40 65 17 23 37 56 44
73 8 17 26 41 43 53 21 15 31 33 36 63 4 29 16 52 39 72 17 17 37 47 43 67 6
20 22 46 36 59 13 12 29 44 36 72 6 28 24 65 40 82 15 18 33 54 39 80 6 26 24
64 40 84 16 21 34 59 40 86 6 28 23 64 40 82 15 18 35 57 44 87 9 30 23 61 32
68 24 20 44 72 44 114 0 27 8 44 35 71 28 28 35 42 35 74 0 26 -7 47 -19 59
-19 19 -58 20 -1783 23 l-1763 4 -115 36 c-76 24 -146 38 -205 43 -49 3 -101
13 -115 20 -66 37 -109 54 -159 60 -43 6 -61 14 -88 41 -27 28 -41 34 -75 34
-34 0 -46 6 -74 35 -21 23 -52 41 -84 51 -28 8 -54 23 -60 34 -6 11 -28 29
-50 40 -21 11 -41 29 -45 40 -4 11 -20 27 -36 36 -16 8 -35 26 -41 39 -6 14
-26 34 -45 45 -18 10 -33 26 -33 35 0 8 -15 32 -34 52 -18 21 -39 57 -46 81
-8 26 -25 51 -45 67 -28 21 -33 31 -37 80 -3 38 -11 62 -26 78 -32 34 -52 91
-52 149 0 74 -17 172 -41 243 -33 93 -30 255 4 356 18 52 29 112 36 194 9 114
10 119 40 147 17 16 34 41 37 56 12 54 16 64 43 95 15 18 33 47 41 65 7 18 21
37 31 43 11 5 29 29 40 52 32 62 207 224 271 252 18 7 43 27 55 43 18 24 32
31 72 37 30 4 56 14 68 27 27 30 49 39 121 49 44 6 80 19 110 39 24 16 63 32
86 35 22 4 172 5 332 3 l291 -3 39 -26 c52 -34 66 -39 147 -49 54 -6 75 -14
97 -35 16 -15 52 -33 86 -41 33 -9 70 -26 84 -39 14 -13 44 -31 68 -40 23 -10
47 -26 53 -36 5 -11 33 -31 61 -45 29 -15 60 -36 70 -49 9 -12 30 -28 46 -34
16 -7 35 -23 41 -35 7 -12 25 -30 41 -40 16 -9 39 -34 51 -56 13 -22 26 -40
30 -40 4 0 17 -16 30 -36 12 -20 39 -56 61 -81 21 -24 38 -50 38 -58 0 -7 14
-25 32 -40 30 -25 32 -32 44 -134 8 -70 21 -128 38 -169 22 -52 28 -85 35
-209 11 -180 31 -238 63 -180 17 32 29 473 19 735 -8 207 -9 213 -35 253 -17
24 -33 70 -42 115 -15 83 -23 101 -53 128 -11 10 -23 38 -27 64 -5 31 -17 57
-40 81 -18 20 -36 49 -39 64 -4 15 -20 36 -35 47 -15 11 -35 37 -43 57 -25 61
-255 286 -334 327 -18 9 -40 27 -49 41 -8 13 -31 29 -50 35 -18 6 -43 24 -54
40 -15 21 -34 31 -72 40 -37 7 -59 19 -78 41 -19 23 -37 32 -78 38 -38 6 -62
17 -85 38 -24 23 -47 33 -97 42 -43 7 -78 21 -106 40 -35 25 -55 31 -136 40
-67 7 -110 17 -145 34 -57 29 -81 34 -224 46 -71 6 -118 15 -145 29 -21 11
-59 23 -84 27 -55 9 -90 29 -90 54 0 31 26 43 105 51 59 6 84 14 117 36 l41
29 216 5 c119 3 329 3 466 0 l250 -6 72 -32 c62 -28 88 -33 183 -39 103 -6
115 -8 153 -36 35 -25 55 -31 125 -38 75 -7 88 -11 116 -38 21 -20 50 -34 94
-44 46 -11 73 -24 97 -47 26 -25 39 -31 66 -28 31 3 34 6 37 38 2 28 -5 44
-38 84 -22 26 -40 53 -40 59 0 10 -30 43 -102 112 -11 11 -27 27 -35 36 -19
20 -56 58 -117 117 -28 28 -91 84 -143 127 -22 20 -61 42 -86 51 -26 9 -53 26
-62 40 -9 14 -36 34 -61 44 -24 11 -47 26 -50 35 -4 8 -30 22 -58 30 -36 11
-63 27 -84 50 -24 28 -38 35 -67 35 -41 0 -71 13 -101 46 -15 16 -38 24 -80
29 -75 10 -102 20 -136 52 -23 22 -40 27 -113 34 -70 6 -93 13 -130 37 -40 27
-54 30 -162 36 -155 10 -206 39 -127 72 30 13 93 15 393 12 353 -3 356 -3 401
-27 69 -36 94 -41 240 -50 125 -7 140 -10 196 -40 51 -27 76 -33 161 -40 90
-7 106 -11 149 -39 26 -18 52 -32 58 -33 128 -7 178 -18 204 -42 19 -18 51
-32 101 -43 42 -10 84 -26 101 -40 16 -14 55 -30 96 -38 53 -11 74 -21 90 -42
17 -20 35 -29 75 -35 42 -6 60 -15 80 -39 18 -21 43 -36 79 -45 33 -9 61 -24
74 -39 12 -14 41 -33 66 -41 24 -9 54 -24 65 -35 11 -10 37 -26 57 -34 20 -9
46 -29 58 -46 12 -17 36 -36 53 -44 30 -12 73 -43 157 -114 19 -16 45 -33 58
-36 12 -4 29 -21 37 -37 9 -16 29 -36 46 -44 16 -9 35 -27 41 -40 6 -14 15
-25 19 -25 12 0 299 -288 299 -300 0 -5 13 -16 30 -25 16 -8 36 -28 44 -43 8
-15 26 -34 40 -41 14 -8 28 -23 32 -33 3 -10 23 -39 45 -64 21 -25 39 -52 39
-60 0 -7 15 -31 34 -51 18 -21 41 -52 50 -70 9 -18 25 -37 36 -43 11 -6 25
-28 31 -50 7 -22 27 -56 45 -77 18 -20 36 -48 39 -62 9 -37 34 -61 62 -61 16
0 27 -8 33 -24 12 -32 30 -42 30 -17 0 11 -8 24 -17 30 -13 7 -19 29 -24 90
-5 54 -13 90 -26 108 -46 64 -53 81 -59 136 -5 46 -13 66 -35 88 -29 29 -33
40 -43 101 -5 25 -17 44 -40 61 -27 21 -34 35 -40 76 -5 40 -13 55 -33 68 -14
9 -34 37 -44 61 -11 25 -30 57 -43 73 -14 16 -30 44 -36 64 -7 22 -23 41 -40
50 -21 11 -32 27 -40 58 -7 23 -22 53 -35 67 -12 14 -30 39 -39 57 -9 17 -29
41 -45 52 -17 12 -33 32 -36 44 -4 12 -21 36 -39 54 -69 70 -94 100 -118 138
-14 22 -33 47 -42 54 -10 8 -26 32 -37 53 -11 21 -24 38 -29 38 -13 0 -220
207 -220 220 0 5 -14 17 -31 26 -17 8 -65 43 -106 77 -41 34 -92 72 -113 85
-21 13 -42 32 -45 43 -4 10 -24 28 -45 39 -22 11 -44 29 -49 39 -6 10 -28 26
-50 34 -22 9 -54 29 -73 44 -18 16 -45 34 -60 40 -15 7 -34 23 -43 37 -10 15
-37 32 -65 41 -26 9 -56 25 -66 37 -11 11 -39 29 -63 39 -24 11 -52 30 -62 44
-14 16 -34 26 -67 31 -35 5 -55 15 -77 40 -22 23 -43 35 -73 40 -27 4 -58 19
-83 39 -27 24 -53 35 -90 40 -37 5 -60 15 -82 36 -16 16 -48 34 -71 39 -50 13
-92 33 -126 60 -15 12 -51 23 -88 28 -52 7 -68 14 -92 40 -23 25 -37 32 -67
32 -56 0 -103 16 -135 47 -24 22 -41 28 -99 34 -61 5 -74 10 -103 38 -29 28
-42 33 -122 42 -66 7 -98 16 -124 34 -52 35 -84 45 -153 45 -105 1 -193 16
-223 39 -22 16 -54 23 -129 31 -91 9 -822 12 -905 3z"/>
<path d="M22225 13608 c-30 -16 -45 -39 -45 -69 0 -15 6 -31 13 -36 6 -4 51
-10 98 -13 85 -6 86 -6 141 -54 31 -27 59 -60 63 -74 10 -42 24 -558 24 -907
0 -345 -13 -952 -25 -1105 -10 -133 -18 -140 -161 -140 -131 0 -153 -10 -153
-69 0 -22 8 -48 18 -60 17 -22 20 -22 414 -23 304 0 401 2 413 12 21 17 20
103 -1 124 -12 12 -37 16 -110 16 l-95 0 -47 44 -47 45 0 892 c0 838 1 892 18
903 21 13 45 1 67 -36 16 -28 45 -65 96 -126 17 -20 40 -51 50 -68 24 -40 70
-97 114 -143 19 -20 43 -48 52 -63 10 -14 27 -29 38 -33 11 -4 29 -24 41 -46
11 -22 27 -43 35 -46 8 -3 23 -22 33 -42 11 -20 29 -45 41 -56 12 -11 31 -38
42 -60 11 -21 31 -48 44 -58 14 -10 31 -32 39 -47 8 -16 24 -31 35 -35 11 -4
27 -20 36 -37 9 -18 30 -45 48 -62 17 -17 39 -45 48 -61 22 -37 79 -112 110
-143 13 -13 28 -32 33 -43 6 -10 41 -51 78 -91 37 -40 81 -93 97 -118 63 -94
79 -116 109 -145 17 -17 31 -34 31 -40 0 -5 19 -28 43 -51 23 -23 62 -64 87
-90 24 -27 56 -56 70 -65 14 -8 32 -31 41 -50 20 -41 144 -168 177 -180 13 -5
79 -9 147 -9 113 0 125 2 135 19 10 20 5 131 -25 489 -29 342 -19 1431 16
1737 17 155 59 195 202 195 49 0 97 5 108 10 29 16 25 65 -7 87 -31 20 -62 20
-334 7 -146 -8 -210 -7 -255 2 -33 6 -74 9 -92 7 -17 -3 -47 0 -66 6 -33 11
-39 9 -91 -24 -92 -59 -76 -86 59 -99 52 -6 91 -18 152 -48 46 -23 89 -48 95
-56 20 -23 19 -1802 -1 -1825 -22 -27 -39 -20 -68 26 -27 44 -65 93 -120 157
-18 21 -33 41 -33 46 0 5 -15 25 -35 44 -125 126 -236 261 -276 334 -12 22
-35 54 -53 72 -17 18 -49 54 -71 78 -22 25 -54 60 -72 78 -32 33 -40 44 -119
155 -23 32 -51 67 -63 77 -11 11 -21 24 -21 30 0 5 -19 29 -42 53 -24 23 -59
60 -78 83 -19 22 -49 55 -67 73 -18 18 -40 51 -49 72 -16 40 -41 73 -119 160
-110 123 -118 133 -184 235 -32 49 -67 91 -121 148 -20 20 -44 49 -53 64 -10
16 -32 35 -50 43 -17 8 -40 20 -49 27 -14 10 -23 10 -45 -3 -23 -12 -62 -15
-209 -13 -111 1 -188 6 -202 13 -26 14 -71 14 -97 -1z"/>
<path d="M1240 13530 c-17 -17 -41 -30 -55 -30 -22 0 -25 -4 -25 -39 l0 -38
61 -7 c34 -3 90 -6 125 -6 85 0 112 -12 130 -57 8 -21 26 -60 41 -88 l28 -50
2 -826 c1 -462 6 -861 12 -905 8 -66 14 -82 35 -99 14 -11 31 -36 37 -55 26
-74 129 -184 187 -199 24 -7 49 -22 58 -36 19 -29 29 -33 117 -45 49 -7 78
-17 99 -35 16 -14 42 -28 56 -33 15 -4 185 -7 378 -7 l351 0 54 34 c38 23 72
36 113 41 50 6 63 12 85 39 18 22 40 35 71 42 29 7 57 23 81 47 21 20 47 46
59 57 58 56 90 104 96 146 5 33 16 52 43 77 l36 33 8 147 c4 81 10 392 12 692
3 300 10 590 16 645 5 55 14 138 19 185 12 117 38 198 73 224 23 17 48 22 132
26 78 4 109 9 121 22 24 23 10 53 -42 89 -37 25 -51 30 -77 24 -62 -13 -285
-16 -463 -5 -205 12 -261 5 -294 -38 -25 -30 -25 -34 -1 -63 16 -20 30 -24
118 -29 l100 -6 62 -54 62 -54 -3 -815 -3 -816 -32 -49 c-23 -35 -33 -61 -33
-89 0 -39 -9 -52 -103 -144 -86 -85 -94 -90 -158 -97 -68 -8 -89 -16 -132 -52
-28 -24 -31 -24 -282 -24 -264 0 -287 3 -336 44 -18 15 -48 27 -81 31 -63 9
-85 19 -92 43 -3 9 -22 26 -41 36 -19 11 -35 23 -35 29 0 5 -18 26 -40 46 -35
32 -41 44 -46 91 -4 30 -14 73 -24 95 -40 89 -45 187 -44 905 l0 685 37 74
c20 41 37 81 37 88 0 25 40 33 159 33 127 0 151 8 151 51 0 32 -28 76 -52 83
-13 3 -69 6 -126 6 -76 0 -111 -4 -135 -16 -27 -15 -54 -16 -197 -10 -91 4
-181 10 -200 14 -19 5 -56 4 -82 -1 -36 -7 -63 -6 -112 7 -84 21 -80 21 -116
-14z"/>
<path d="M26190 12988 c-11 -18 -30 -45 -44 -60 -14 -15 -28 -44 -31 -65 -13
-73 -25 -111 -41 -124 -23 -19 -40 -58 -48 -108 -5 -30 -18 -57 -41 -83 -30
-32 -35 -45 -35 -86 0 -41 -5 -53 -34 -81 -26 -25 -35 -44 -40 -82 -5 -34 -16
-60 -37 -84 -20 -22 -36 -56 -45 -96 -8 -34 -25 -75 -39 -91 -26 -31 -45 -86
-45 -130 0 -19 -11 -38 -35 -59 -29 -26 -35 -39 -35 -71 0 -46 -13 -75 -47
-103 -17 -14 -26 -37 -33 -80 -5 -33 -19 -71 -30 -85 -25 -30 -47 -76 -54
-111 -3 -14 -19 -42 -35 -63 -16 -20 -32 -50 -36 -65 -8 -39 -32 -58 -84 -70
-23 -5 -53 -18 -64 -28 -12 -11 -34 -27 -49 -36 -33 -20 -36 -52 -9 -67 12 -6
125 -10 296 -10 288 0 345 7 345 44 0 24 -75 73 -124 80 -49 8 -89 42 -88 78
0 13 5 54 11 92 8 55 16 75 40 100 23 24 31 41 31 68 0 52 14 81 60 129 l41
42 366 1 c288 1 369 -2 384 -12 14 -10 19 -25 19 -58 0 -51 13 -80 46 -107 16
-12 25 -32 29 -65 13 -101 17 -113 45 -138 35 -31 42 -57 24 -82 -20 -29 -94
-62 -138 -62 -26 0 -44 -7 -61 -25 -29 -28 -31 -47 -9 -69 13 -14 58 -16 339
-16 336 0 375 4 375 41 0 24 -19 41 -93 83 -45 25 -68 45 -77 66 -7 17 -26 41
-43 54 -24 19 -31 35 -39 82 -6 42 -18 70 -40 98 -21 26 -35 60 -45 104 -9 44
-23 75 -42 97 -20 23 -31 49 -36 85 -5 36 -16 62 -37 85 -19 23 -32 51 -37 84
-5 34 -18 61 -39 85 -21 24 -33 51 -38 83 -9 66 -20 91 -54 130 -25 28 -30 43
-30 83 0 43 -5 54 -34 83 -26 26 -35 46 -41 85 -4 34 -17 64 -36 88 -28 35
-49 90 -49 127 0 24 -19 60 -37 71 -21 12 -43 69 -43 110 0 27 -9 44 -37 74
-21 22 -44 47 -51 56 -20 25 -40 19 -62 -16z m-4 -470 c9 -18 29 -47 44 -65
21 -23 30 -46 35 -93 6 -47 14 -69 36 -94 34 -40 49 -76 49 -121 0 -26 9 -43
35 -69 30 -30 35 -42 35 -80 0 -33 7 -52 25 -74 32 -38 32 -60 0 -72 -38 -15
-543 -14 -560 0 -32 26 -13 105 35 150 25 23 30 36 30 75 0 50 9 74 46 118 13
15 28 54 35 88 8 43 22 72 45 101 28 32 34 49 34 85 0 84 44 113 76 51z"/>
<path d="M28273 13011 c-52 -5 -82 -14 -110 -33 -25 -18 -59 -29 -98 -34 -76
-9 -103 -19 -131 -49 -12 -13 -40 -28 -61 -34 -22 -6 -48 -20 -59 -32 -10 -12
-42 -32 -71 -44 -31 -14 -54 -31 -58 -44 -3 -12 -20 -28 -36 -36 -16 -9 -38
-33 -49 -55 -11 -21 -27 -43 -36 -48 -8 -5 -24 -34 -34 -65 -11 -32 -31 -67
-46 -80 -21 -19 -28 -38 -39 -104 -9 -56 -21 -93 -41 -123 -29 -43 -29 -44
-29 -209 l0 -166 33 -52 c26 -40 35 -67 41 -122 6 -57 12 -74 33 -94 15 -14
32 -44 38 -68 7 -26 27 -59 47 -79 19 -19 62 -63 96 -98 105 -108 131 -129
169 -141 20 -7 42 -19 49 -27 20 -24 60 -41 114 -48 36 -5 58 -14 82 -38 32
-31 33 -31 175 -40 136 -7 486 -3 574 8 23 3 62 18 87 35 27 17 68 33 100 39
49 8 62 15 111 65 43 43 56 62 56 86 0 66 -44 92 -76 44 -11 -16 -35 -30 -69
-40 -29 -9 -60 -24 -70 -35 -10 -11 -31 -24 -49 -29 -48 -14 -327 -23 -503
-15 l-157 7 -30 32 c-23 24 -42 34 -76 38 -35 4 -52 13 -75 40 -16 19 -47 43
-68 52 -21 10 -50 35 -65 58 -15 22 -43 57 -63 76 -20 20 -40 47 -44 61 -4 14
-20 39 -35 56 -18 21 -30 49 -34 80 -4 27 -24 78 -44 114 l-36 65 -4 157 c-5
194 1 239 38 281 16 18 31 50 35 72 9 56 35 125 46 125 6 0 18 17 27 38 16 35
121 152 137 152 4 0 24 15 45 34 24 21 53 36 78 41 23 4 58 20 78 36 20 15 50
31 68 34 17 4 137 5 267 3 l236 -3 39 -27 c21 -15 63 -32 92 -39 30 -6 60 -18
68 -28 73 -88 74 -91 74 -165 0 -80 15 -120 47 -124 35 -5 53 33 53 114 0 60
5 80 30 127 45 85 41 192 -7 212 -10 4 -65 11 -123 15 -92 6 -113 11 -169 41
l-63 33 -217 2 c-119 1 -248 -1 -288 -5z"/>
<path d="M31050 13011 c-30 -4 -78 -19 -105 -34 -28 -15 -79 -31 -114 -35 -52
-7 -69 -14 -86 -36 -12 -15 -42 -33 -69 -41 -25 -8 -62 -29 -81 -47 -55 -53
-89 -87 -135 -133 -14 -14 -40 -40 -57 -58 -18 -18 -39 -53 -48 -77 -9 -25
-27 -57 -41 -71 -20 -21 -28 -43 -35 -99 -5 -40 -19 -92 -33 -118 -37 -72 -38
-76 -37 -256 1 -167 1 -170 31 -232 17 -36 34 -93 40 -136 9 -61 15 -78 40
-101 16 -15 34 -46 41 -70 6 -23 26 -58 44 -78 18 -20 36 -46 40 -58 3 -12 20
-28 36 -36 16 -9 35 -28 44 -44 15 -30 23 -34 82 -46 20 -4 41 -18 53 -35 13
-18 39 -35 69 -45 27 -9 56 -24 66 -35 22 -25 89 -37 255 -46 165 -9 155 -9
320 0 154 9 185 16 234 55 21 17 54 31 81 36 33 4 55 16 80 41 19 19 40 34 46
34 28 0 279 246 279 274 0 7 18 29 40 49 34 30 40 41 40 76 0 33 7 49 36 81
l35 39 14 208 c7 114 11 212 9 218 -2 5 -8 66 -13 133 -8 115 -11 127 -40 167
-17 23 -33 62 -37 86 -5 29 -18 54 -41 79 -19 19 -60 62 -91 95 -31 33 -69 68
-84 77 -14 10 -29 26 -33 37 -3 10 -20 24 -38 31 -50 19 -70 29 -104 54 -19
14 -53 26 -84 29 -30 4 -67 17 -88 31 -24 16 -62 28 -114 35 -82 12 -353 13
-447 2z m443 -185 c26 -19 63 -37 82 -40 20 -4 58 -27 92 -56 32 -28 61 -50
65 -50 3 0 21 -23 38 -52 18 -28 42 -60 55 -70 12 -9 27 -37 33 -60 6 -24 20
-52 30 -64 31 -33 42 -60 42 -104 0 -22 7 -100 16 -173 17 -134 16 -144 -9
-418 -11 -123 -15 -139 -39 -167 -14 -17 -32 -48 -39 -69 -6 -21 -28 -57 -48
-80 -20 -23 -49 -58 -65 -78 -16 -20 -43 -43 -60 -52 -17 -8 -45 -30 -61 -48
-27 -29 -38 -33 -105 -40 -41 -4 -111 -18 -154 -31 -99 -30 -113 -30 -184 0
-31 13 -84 27 -117 31 -100 11 -115 16 -150 48 -19 18 -63 56 -99 86 -36 30
-68 62 -71 71 -3 9 -18 26 -35 38 -18 14 -33 37 -40 62 -6 22 -24 54 -39 71
-28 31 -41 67 -41 117 0 14 -15 48 -32 76 l-33 50 -3 254 c-2 140 -1 265 2
277 3 13 17 37 31 53 13 16 30 54 36 83 6 32 23 70 41 92 16 20 36 53 44 72 8
20 25 40 39 45 13 5 36 23 52 40 16 19 44 35 71 42 25 6 59 23 76 38 17 15 40
30 51 33 11 2 124 5 250 6 l230 1 48 -34z"/>
<path d="M35656 12995 c-8 -8 -18 -36 -22 -62 -5 -34 -16 -56 -40 -80 -23 -23
-34 -43 -34 -63 0 -39 -17 -80 -45 -110 -14 -15 -30 -51 -39 -87 -7 -34 -28
-81 -44 -105 -19 -26 -33 -62 -38 -91 -4 -33 -17 -60 -40 -88 -27 -33 -34 -50
-34 -85 0 -36 -6 -51 -35 -83 -25 -27 -38 -54 -45 -92 -6 -30 -25 -74 -44
-103 -21 -32 -37 -69 -41 -100 -4 -32 -15 -56 -30 -70 -28 -26 -45 -66 -45
-107 0 -19 -12 -42 -34 -67 -24 -26 -36 -51 -41 -85 -5 -32 -18 -61 -40 -87
-21 -25 -35 -55 -39 -84 -5 -32 -15 -52 -35 -68 -15 -13 -38 -40 -50 -60 -17
-29 -35 -42 -79 -58 -87 -33 -110 -61 -76 -94 13 -13 56 -16 307 -15 190 0
296 4 304 11 17 14 17 63 -1 77 -7 6 -35 14 -62 17 -69 9 -142 48 -150 79 -10
39 5 95 31 119 30 28 45 66 45 116 0 30 8 48 31 74 17 20 35 52 41 73 19 73
-3 69 405 68 l368 -1 32 -54 c17 -30 39 -68 48 -83 9 -15 19 -51 22 -79 4 -37
14 -60 36 -85 34 -38 47 -95 36 -157 -8 -49 -30 -66 -85 -66 -67 0 -134 -35
-134 -70 0 -36 41 -40 389 -40 308 0 341 2 361 18 30 25 17 49 -44 78 -28 13
-62 31 -76 39 -14 8 -38 20 -55 27 -27 12 -31 20 -37 68 -5 47 -11 59 -42 83
-33 27 -36 33 -36 81 0 41 -6 61 -25 87 -32 44 -55 93 -55 119 0 29 -27 90
-39 90 -16 0 -41 55 -41 90 0 38 -15 68 -46 93 -18 13 -25 32 -30 77 -5 42
-13 67 -29 82 -30 31 -41 55 -50 108 -9 53 -19 76 -51 111 -17 18 -26 42 -30
80 -5 44 -12 59 -37 81 -24 22 -32 38 -38 83 -5 40 -15 65 -37 89 -19 21 -33
51 -37 78 -10 69 -24 103 -50 128 -16 15 -28 43 -36 82 -8 39 -19 64 -33 73
-27 19 -80 19 -100 0z m33 -488 c6 -8 17 -47 25 -86 11 -59 19 -77 41 -95 24
-19 30 -33 36 -86 6 -54 12 -66 38 -87 26 -20 31 -33 37 -85 5 -46 14 -68 36
-93 38 -44 53 -87 38 -114 -6 -12 -18 -21 -28 -22 -87 -3 -557 3 -568 8 -24 9
-16 51 15 78 21 20 30 38 34 75 6 50 21 85 57 130 11 14 24 53 29 88 8 50 16
69 41 92 20 18 30 38 30 57 0 58 19 100 58 126 42 29 65 33 81 14z"/>
<path d="M29362 12992 c-19 -12 -32 -70 -22 -96 10 -27 36 -36 101 -36 63 0
104 -16 118 -46 8 -18 11 -241 11 -794 0 -721 -1 -771 -17 -785 -96 -82 -101
-85 -139 -85 -48 0 -84 -23 -84 -54 0 -45 4 -46 371 -46 348 0 393 4 406 36
10 27 -20 45 -99 58 -42 7 -81 17 -88 21 -23 14 -48 90 -60 185 -28 226 -28
1148 -1 1370 16 125 26 140 90 140 57 0 115 16 131 35 17 21 5 60 -23 72 -15
7 -131 11 -320 12 -187 0 -304 4 -316 11 -23 12 -41 13 -59 2z"/>
<path d="M32447 12989 c-24 -14 -49 -73 -41 -94 9 -22 46 -35 97 -35 24 0 56
-8 74 -20 66 -40 63 0 63 -839 l0 -760 -26 -18 c-14 -10 -41 -30 -59 -45 -22
-19 -44 -28 -68 -28 -50 0 -86 -19 -94 -48 -12 -49 5 -52 322 -52 311 0 315 1
315 50 0 33 -28 60 -62 60 -26 0 -153 53 -162 68 -8 14 -11 1306 -3 1320 5 6
19 12 33 12 19 0 28 -8 40 -35 8 -19 26 -42 40 -51 14 -9 32 -30 40 -46 8 -16
25 -34 38 -39 13 -6 30 -26 39 -44 9 -19 27 -41 41 -50 14 -9 30 -31 36 -49 5
-18 26 -49 45 -69 19 -20 35 -41 35 -47 0 -8 32 -45 105 -119 91 -94 117 -126
140 -170 12 -25 32 -54 43 -64 11 -10 25 -31 32 -46 6 -15 24 -35 40 -45 17
-9 30 -22 30 -27 0 -10 43 -58 125 -139 19 -19 35 -40 35 -47 0 -6 18 -33 40
-60 22 -26 55 -66 74 -88 18 -22 40 -54 49 -72 9 -17 26 -34 36 -38 11 -3 29
-21 40 -41 11 -19 31 -39 44 -45 13 -6 31 -24 41 -39 18 -31 28 -34 148 -45
63 -6 69 -5 94 20 17 17 24 32 19 43 -19 47 -25 309 -22 947 3 741 4 762 49
786 12 7 53 15 92 19 80 9 101 26 92 75 -9 44 -42 68 -80 58 -39 -10 -310 -10
-433 -1 -86 7 -93 6 -103 -12 -15 -28 -16 -88 -1 -103 7 -7 49 -13 101 -15 73
-3 92 -7 107 -24 17 -19 18 -59 22 -674 1 -360 0 -665 -3 -679 -12 -47 -66
-43 -86 6 -7 16 -23 38 -36 48 -13 10 -32 38 -43 62 -10 24 -31 55 -46 69 -15
14 -33 37 -41 52 -8 15 -23 29 -34 33 -11 4 -29 24 -40 45 -11 21 -28 41 -38
44 -9 3 -26 21 -36 40 -10 18 -29 39 -42 46 -13 7 -26 22 -30 32 -3 10 -23 39
-44 63 -21 24 -42 55 -45 67 -4 13 -24 40 -44 60 -20 21 -54 58 -76 83 -22 25
-54 60 -71 78 -18 19 -40 49 -49 68 -17 33 -30 50 -120 157 -25 29 -45 57 -45
63 0 5 -11 14 -24 21 -14 6 -30 24 -37 40 -6 16 -24 39 -39 51 -15 12 -37 40
-48 63 -11 22 -28 46 -37 54 -9 8 -25 31 -36 51 -10 21 -29 44 -42 50 -12 6
-34 22 -48 35 l-26 24 -122 -11 c-86 -8 -129 -9 -145 -1 -38 17 -109 23 -129
11z"/>
<path d="M36870 12993 c-25 -9 -40 -35 -40 -70 0 -42 15 -49 115 -58 44 -4 88
-11 97 -16 17 -9 27 -49 47 -187 7 -45 11 -291 11 -651 0 -538 -1 -586 -20
-675 -22 -109 -35 -139 -79 -180 -33 -31 -41 -72 -19 -94 16 -16 1250 -17
1294 -2 23 8 38 26 63 78 30 61 34 78 43 207 11 174 2 235 -37 235 -17 0 -96
-107 -106 -145 -5 -16 -9 -49 -9 -73 0 -65 -23 -110 -67 -130 -34 -15 -80 -17
-408 -17 l-369 0 -13 25 c-19 37 -14 1583 5 1602 8 8 51 15 112 19 105 6 130
17 130 54 0 55 -61 91 -110 65 -13 -7 -58 -7 -137 -1 -83 7 -130 6 -160 -2
-30 -8 -55 -8 -95 1 -60 13 -225 23 -248 15z"/>
<path d="M4033 12930 c-27 -11 -30 -45 -7 -71 9 -10 56 -32 104 -50 70 -24 90
-36 100 -57 22 -48 32 -437 26 -942 -4 -267 -10 -523 -15 -569 -10 -105 -25
-121 -111 -121 -76 0 -110 -25 -110 -80 0 -37 2 -40 39 -51 25 -7 75 -9 147
-5 155 10 170 10 259 1 100 -9 157 4 173 40 29 63 1 95 -90 104 -35 4 -69 10
-75 14 -15 9 -46 113 -62 207 -8 44 -11 230 -10 575 1 281 -2 522 -6 538 -20
76 35 108 74 42 11 -19 27 -35 36 -35 9 0 25 -15 36 -34 11 -19 31 -42 45 -51
14 -9 32 -31 39 -49 8 -18 21 -39 30 -46 9 -7 28 -34 43 -59 28 -49 45 -70
117 -141 25 -25 45 -51 45 -58 0 -7 15 -22 34 -33 19 -11 39 -33 46 -50 7 -16
21 -34 31 -40 11 -5 30 -31 43 -57 13 -26 34 -56 46 -67 12 -11 31 -37 41 -57
10 -20 27 -39 38 -43 10 -3 24 -19 31 -36 7 -16 26 -37 42 -45 16 -8 35 -28
41 -43 11 -26 34 -56 119 -157 21 -25 43 -55 50 -67 6 -12 23 -34 37 -50 14
-15 44 -47 66 -72 22 -25 51 -55 64 -68 13 -12 29 -29 37 -37 7 -8 25 -26 39
-40 14 -14 41 -40 59 -58 31 -30 39 -33 118 -39 68 -5 87 -3 99 10 14 14 16
114 16 891 0 992 -8 906 84 925 53 12 129 47 141 65 15 21 9 64 -9 70 -10 3
-144 5 -298 5 -304 -1 -325 -4 -325 -54 0 -60 42 -95 112 -95 59 0 119 -22
128 -46 5 -13 10 -323 10 -690 2 -617 1 -669 -15 -680 -23 -17 -43 -8 -61 27
-8 16 -26 36 -40 45 -14 9 -31 32 -39 50 -12 29 -104 150 -125 164 -4 3 -16
19 -27 37 -10 17 -31 44 -46 60 -25 26 -66 71 -153 168 -61 69 -114 136 -114
145 0 5 -20 32 -44 59 -24 27 -47 58 -50 69 -4 10 -17 24 -31 30 -13 6 -33 29
-45 52 -11 22 -25 40 -30 40 -5 0 -20 17 -33 38 -14 20 -38 52 -56 71 -17 18
-31 40 -31 48 0 9 -15 30 -34 48 -18 17 -41 46 -50 63 -9 17 -25 36 -36 42
-10 5 -26 23 -35 38 -9 15 -30 35 -45 44 -18 10 -32 30 -39 53 -5 20 -25 54
-43 75 -18 22 -43 52 -55 67 l-21 28 -224 2 c-122 1 -233 -2 -245 -7z"/>
<path d="M6355 12920 c-36 -40 14 -110 79 -110 52 0 116 -36 136 -75 13 -26
15 -127 18 -683 3 -724 -2 -838 -39 -879 -33 -35 -83 -55 -123 -48 -49 10 -81
-21 -80 -76 1 -25 8 -47 17 -54 22 -16 674 -13 705 3 26 15 28 41 7 82 -16 30
-25 34 -107 45 -44 6 -50 10 -85 63 l-38 57 0 720 0 720 22 42 c27 49 67 83
99 83 53 0 124 46 124 82 0 44 -25 47 -382 47 -317 0 -336 -1 -353 -19z"/>
<path d="M7232 12928 c-18 -18 -14 -62 8 -90 13 -17 33 -27 60 -31 45 -6 76
-28 86 -61 4 -11 19 -35 34 -52 18 -21 29 -48 34 -80 6 -46 14 -64 58 -126 10
-13 22 -52 26 -86 7 -48 15 -69 37 -92 22 -23 30 -44 37 -92 4 -34 16 -73 26
-86 44 -62 51 -79 58 -130 5 -39 15 -63 34 -86 19 -21 32 -51 39 -89 11 -63
24 -91 53 -124 13 -14 23 -44 27 -82 6 -50 13 -67 39 -94 25 -26 33 -45 40
-94 6 -41 17 -73 34 -95 28 -37 48 -96 48 -144 0 -20 11 -45 30 -69 17 -21 33
-56 37 -78 9 -56 33 -77 88 -77 46 0 85 24 85 53 0 7 15 36 34 65 24 37 35 69
40 111 5 43 13 66 31 83 28 28 45 68 45 106 0 27 19 68 53 115 10 13 22 53 28
88 7 47 18 72 38 94 20 21 31 48 38 91 7 39 22 77 43 106 21 30 34 62 39 101
6 45 15 65 39 90 21 22 32 43 32 63 0 46 17 95 44 123 25 27 46 87 46 133 0
15 14 43 35 68 27 32 35 51 35 82 0 45 14 75 46 101 14 10 26 33 29 55 11 66
19 76 76 92 45 13 57 22 76 55 27 47 28 59 8 79 -13 12 -56 14 -275 13 -225
-2 -261 -4 -276 -18 -11 -12 -14 -25 -10 -45 13 -54 30 -66 118 -81 74 -13
118 -33 118 -53 0 -4 -13 -23 -29 -43 -24 -31 -29 -49 -35 -118 -7 -74 -10
-84 -39 -110 -26 -24 -32 -38 -39 -96 -5 -44 -15 -77 -28 -93 -31 -38 -48 -80
-55 -133 -4 -32 -16 -58 -35 -80 -19 -22 -32 -52 -39 -90 -11 -63 -24 -91 -53
-123 -11 -13 -23 -46 -28 -83 -6 -46 -16 -70 -38 -96 -21 -24 -32 -48 -37 -87
-9 -68 -29 -106 -61 -118 -62 -24 -81 -5 -99 98 -12 70 -19 88 -45 112 -22 20
-30 37 -30 62 0 52 -18 102 -50 143 -22 27 -31 52 -36 96 -5 43 -14 69 -35 95
-28 35 -33 50 -44 137 -5 35 -15 58 -36 80 -30 31 -35 43 -42 114 -3 25 -17
59 -37 86 -22 32 -34 62 -40 107 -7 52 -15 69 -40 93 -31 29 -39 67 -17 85 6
5 49 12 94 14 95 4 112 14 120 77 10 72 22 69 -351 70 -242 0 -336 -3 -344
-11z"/>
<path d="M9267 12929 c-27 -16 -22 -66 11 -98 19 -20 43 -30 77 -35 28 -5 64
-14 82 -21 65 -28 63 5 63 -824 0 -550 -3 -757 -12 -776 -13 -29 -85 -55 -154
-55 -33 0 -46 -5 -54 -19 -14 -27 -13 -74 4 -96 13 -18 44 -19 688 -22 667 -4
674 -4 700 17 40 31 65 96 77 195 17 144 14 238 -8 266 -17 21 -21 22 -42 11
-73 -40 -81 -54 -89 -152 -9 -105 -15 -114 -98 -156 l-57 -29 -298 -3 c-332
-3 -339 -2 -350 60 -4 18 -7 181 -8 362 l-2 330 23 18 c20 16 45 18 254 18
166 0 238 -4 256 -13 31 -16 49 -65 49 -139 1 -57 2 -58 41 -78 46 -23 73 -25
89 -6 7 9 11 103 12 292 2 290 -2 324 -39 324 -55 -1 -102 -65 -102 -140 0
-86 4 -85 -262 -88 -255 -4 -303 3 -318 43 -5 13 -7 86 -4 162 2 76 6 214 7
307 3 151 6 170 22 182 24 18 604 20 636 3 11 -5 33 -28 49 -51 25 -34 30 -51
30 -98 0 -51 3 -61 34 -94 41 -43 82 -49 95 -13 4 12 11 106 15 208 6 173 5
187 -12 202 -17 16 -75 17 -703 16 -423 0 -691 -4 -702 -10z"/>
<path d="M10928 12914 c-9 -19 -8 -32 5 -59 17 -36 19 -37 126 -54 36 -6 72
-18 80 -26 14 -14 16 -108 19 -809 3 -930 16 -836 -122 -845 -97 -7 -106 -13
-106 -73 0 -66 -11 -65 389 -64 398 1 381 -2 381 64 0 63 -10 69 -115 77 -83
6 -97 10 -108 29 -9 16 -12 207 -12 808 0 742 1 788 18 805 14 14 43 20 130
26 149 11 137 11 262 -2 109 -12 110 -13 146 -52 20 -21 42 -39 47 -39 19 0
32 -36 42 -117 6 -43 18 -94 26 -114 15 -34 14 -39 -4 -75 -11 -22 -23 -61
-27 -88 -6 -46 -14 -57 -98 -140 l-92 -91 -163 -5 c-184 -6 -192 -9 -192 -82
0 -31 7 -46 38 -77 20 -21 42 -43 47 -49 27 -29 64 -67 97 -100 20 -21 39 -49
43 -63 4 -15 24 -48 46 -74 21 -26 39 -51 39 -56 0 -8 43 -57 110 -124 16 -17
35 -46 41 -65 7 -19 27 -52 46 -73 18 -20 33 -43 33 -51 0 -8 18 -29 40 -46
22 -17 40 -38 40 -45 0 -7 13 -26 28 -41 15 -16 40 -46 56 -67 48 -66 60 -70
222 -72 145 -2 146 -2 157 22 7 15 7 36 1 60 -7 30 -19 43 -63 69 -37 21 -63
46 -80 75 -25 42 -50 72 -125 149 -19 19 -41 49 -50 66 -8 17 -22 34 -31 37
-8 4 -26 31 -39 60 -13 30 -31 57 -39 60 -9 3 -25 23 -36 44 -10 21 -31 45
-44 52 -14 8 -31 27 -38 43 -6 16 -24 37 -40 48 -15 11 -33 37 -40 58 -6 20
-27 54 -45 75 -19 20 -34 43 -34 50 0 28 36 47 85 47 41 0 54 5 81 31 18 17
50 35 73 40 30 7 58 25 101 68 33 32 60 63 60 68 0 6 14 24 31 41 27 27 32 41
50 152 20 119 20 127 3 219 l-17 96 -66 67 c-50 50 -77 69 -111 78 -25 6 -59
23 -76 36 -18 13 -52 28 -78 34 -28 6 -254 10 -591 10 l-546 -1 -11 -25z"/>
<path d="M13127 12930 c-15 -5 -41 -20 -58 -34 -17 -14 -37 -26 -46 -26 -8 0
-34 -19 -58 -42 -24 -24 -50 -49 -57 -56 -54 -52 -108 -113 -108 -121 0 -6
-15 -24 -32 -40 l-33 -31 -3 -192 c-4 -220 -1 -247 32 -279 13 -13 33 -43 45
-66 12 -24 26 -43 32 -43 6 0 28 -17 49 -38 37 -38 40 -39 125 -45 71 -5 95
-11 124 -31 42 -30 156 -45 331 -46 123 -1 178 -11 200 -38 8 -11 29 -27 46
-35 16 -9 49 -36 72 -61 l42 -46 0 -140 c0 -145 -12 -204 -44 -216 -8 -3 -21
-23 -30 -43 -10 -27 -24 -42 -48 -50 -52 -20 -70 -30 -107 -56 -39 -28 -99
-33 -376 -26 -155 4 -175 8 -211 47 -12 12 -40 28 -63 35 -23 7 -47 21 -53 32
-6 11 -12 59 -15 106 -8 142 -27 173 -98 155 -43 -11 -49 -37 -53 -229 -5
-214 -4 -215 86 -225 43 -6 71 -16 97 -35 44 -34 121 -43 360 -44 194 -1 263
9 309 44 23 18 55 29 92 34 46 7 62 14 83 39 14 16 43 35 64 42 53 17 145 110
164 166 8 24 25 52 37 62 34 26 43 50 50 137 4 44 12 108 18 141 9 51 8 69 -4
100 -9 22 -19 63 -23 93 -6 48 -13 61 -59 105 -28 28 -73 63 -101 77 -27 14
-65 33 -83 43 -25 14 -71 19 -205 25 -151 7 -180 12 -240 35 -41 16 -99 29
-145 33 -98 7 -133 22 -168 69 -15 22 -44 56 -63 77 l-36 38 3 117 c2 83 7
123 18 137 8 11 25 36 39 55 13 19 31 42 40 50 9 8 33 31 53 51 36 35 39 36
172 52 128 16 143 16 283 -2 139 -17 150 -20 176 -47 16 -16 40 -37 55 -47 25
-17 26 -22 26 -111 0 -77 3 -96 18 -109 10 -10 24 -17 30 -17 19 0 82 33 84
44 0 6 2 36 3 66 2 30 6 100 9 155 4 57 3 106 -2 114 -5 7 -37 20 -72 27 -34
8 -87 28 -117 44 l-56 30 -286 -1 c-157 0 -298 -4 -314 -9z"/>
<path d="M14235 12924 c-18 -18 -18 -22 -4 -63 13 -36 41 -55 69 -46 20 6 123
-27 147 -47 10 -8 13 -175 13 -792 0 -429 -3 -791 -6 -802 -8 -29 -42 -43
-127 -50 -81 -7 -97 -19 -97 -72 0 -73 -18 -69 337 -65 175 2 332 3 349 3 45
0 68 21 60 54 -12 47 -46 72 -111 81 -72 9 -82 12 -91 33 -19 45 -26 236 -31
792 -4 618 2 770 32 817 9 13 33 27 57 33 59 15 135 50 154 71 20 22 10 55
-19 62 -12 3 -178 6 -369 6 -296 0 -350 -3 -363 -15z"/>
<path d="M15140 12927 c-37 -19 -37 -50 2 -92 28 -31 42 -37 98 -45 38 -5 69
-16 76 -25 12 -16 28 -191 44 -480 9 -172 0 -678 -16 -920 -4 -55 -7 -124 -8
-154 -2 -44 -6 -57 -26 -72 -53 -39 -60 -49 -60 -88 0 -66 17 -75 130 -65 116
9 114 9 430 -1 283 -9 374 -1 444 39 31 18 62 25 125 29 79 5 85 7 120 40 22
22 51 38 74 42 23 5 53 21 74 41 20 19 41 34 46 34 6 0 30 19 53 43 23 23 48
48 55 55 67 66 109 112 109 121 0 5 11 21 25 34 16 14 32 46 41 80 8 32 29 78
46 102 30 42 33 53 38 149 4 75 11 110 24 131 14 21 16 37 11 71 -4 26 -1 59
5 79 10 30 8 43 -14 99 -19 46 -26 83 -26 131 0 72 -16 120 -49 149 -11 11
-26 36 -31 57 -6 21 -28 59 -50 84 -21 24 -44 52 -52 62 -20 27 -133 111 -170
126 -19 8 -48 28 -65 46 -25 25 -40 31 -75 31 -64 1 -130 16 -142 32 -32 43
-34 43 -661 46 -477 2 -605 0 -625 -11z m1142 -158 c13 -7 36 -23 51 -35 22
-18 41 -24 79 -24 51 0 63 -8 155 -103 10 -10 34 -35 54 -55 20 -20 42 -55 48
-76 5 -22 24 -53 41 -70 27 -29 31 -41 40 -126 5 -52 17 -120 27 -150 24 -79
22 -250 -5 -322 -10 -29 -22 -89 -26 -132 -7 -78 -27 -136 -47 -136 -5 0 -17
-17 -26 -37 -8 -21 -29 -55 -47 -75 -17 -21 -46 -56 -65 -79 -19 -22 -51 -49
-72 -59 -20 -11 -45 -31 -56 -45 -14 -20 -34 -30 -78 -39 -33 -7 -77 -24 -98
-39 -29 -20 -55 -27 -121 -32 -100 -9 -433 -2 -458 9 -10 5 -22 25 -28 46 -7
24 -9 308 -8 806 l3 768 22 12 c32 15 584 10 615 -7z"/>
<path d="M18213 12903 c-40 -43 -48 -60 -57 -123 -4 -29 -17 -58 -35 -79 -21
-24 -31 -49 -36 -88 -4 -33 -15 -64 -29 -81 -34 -40 -45 -65 -56 -124 -6 -31
-20 -62 -35 -78 -29 -30 -45 -70 -45 -111 0 -21 -10 -41 -32 -62 -24 -25 -34
-44 -39 -85 -6 -41 -16 -62 -43 -92 -25 -28 -36 -50 -36 -70 0 -35 -19 -80
-55 -128 -13 -19 -27 -53 -31 -78 -4 -26 -18 -59 -35 -81 -16 -20 -32 -48 -35
-62 -14 -70 -26 -102 -43 -111 -22 -11 -41 -60 -41 -103 0 -20 -10 -39 -34
-61 -18 -17 -39 -49 -46 -71 -18 -58 -35 -73 -99 -86 -103 -21 -111 -26 -111
-74 0 -70 -2 -70 299 -71 303 0 311 1 311 64 0 57 -17 73 -88 81 -91 11 -95
18 -80 131 10 80 16 98 44 131 17 21 35 55 38 76 4 21 9 50 12 66 4 18 25 42
65 73 66 50 110 59 170 33 29 -13 70 -14 259 -8 238 7 321 -2 346 -36 7 -9 15
-40 19 -68 5 -38 15 -60 36 -82 23 -24 30 -45 38 -101 13 -88 17 -99 46 -118
29 -19 37 -49 18 -75 -12 -18 -25 -21 -91 -21 -102 0 -122 -13 -122 -79 0 -27
6 -53 13 -58 7 -6 138 -10 340 -8 365 2 347 -2 347 71 0 52 -17 67 -84 74 -48
5 -52 7 -71 46 -11 22 -30 53 -42 68 -13 16 -28 47 -34 70 -5 22 -12 48 -15
58 -3 9 -18 32 -33 52 -20 25 -31 53 -36 91 -5 45 -12 59 -37 79 -27 21 -33
33 -39 85 -5 48 -13 68 -37 96 -17 19 -34 51 -37 72 -11 66 -25 99 -50 123
-13 12 -26 35 -29 51 -4 16 -9 43 -12 60 -3 17 -19 46 -36 65 -21 24 -32 49
-37 88 -5 39 -16 64 -38 89 -21 24 -32 49 -37 83 -6 46 -14 64 -59 126 -10 14
-20 49 -24 78 -5 41 -14 62 -40 90 -22 25 -33 47 -33 68 0 45 -13 72 -62 125
-54 58 -78 60 -125 10z m24 -456 c13 -25 34 -57 47 -70 17 -17 26 -41 31 -81
5 -38 15 -67 31 -86 30 -35 54 -91 54 -125 0 -33 15 -62 46 -89 19 -16 26 -35
30 -76 4 -31 15 -68 26 -84 25 -35 15 -58 -28 -67 -48 -11 -501 -10 -528 1
-23 8 -26 15 -26 55 0 50 23 115 40 115 15 0 36 55 45 118 5 39 16 63 41 93
26 31 34 50 34 81 0 42 10 68 45 110 12 14 25 46 29 70 8 49 32 91 49 86 7 -2
22 -25 34 -51z"/>
<path d="M19426 12925 c-33 -34 -12 -108 37 -125 16 -5 41 -10 54 -10 45 0 79
-27 104 -82 22 -51 24 -66 29 -338 6 -333 -5 -1107 -17 -1165 -7 -35 -14 -43
-58 -66 -29 -14 -56 -37 -63 -52 -16 -33 -7 -83 16 -96 10 -5 86 -6 172 -2 85
3 211 3 280 -2 69 -5 200 -7 291 -5 158 4 168 5 219 32 40 21 76 30 141 36 86
8 129 22 129 40 0 14 55 40 85 40 28 0 38 8 207 178 59 59 120 121 137 137 17
17 37 53 45 80 9 28 26 57 42 70 23 18 27 31 34 97 5 58 14 88 36 125 l29 48
0 185 0 185 -32 59 c-23 40 -33 71 -33 101 0 29 -8 52 -25 76 -14 19 -35 54
-46 79 -13 25 -62 83 -115 136 -74 72 -102 93 -131 99 -22 4 -52 20 -73 40
-31 28 -43 33 -101 38 -37 2 -81 12 -98 21 -17 9 -46 24 -63 34 -30 15 -84 17
-624 20 -536 3 -593 2 -608 -13z m1093 -149 c19 -3 51 -17 73 -31 21 -14 62
-30 90 -35 38 -8 61 -19 89 -48 20 -20 60 -58 87 -83 28 -26 56 -57 62 -70 7
-13 23 -36 37 -50 15 -17 29 -50 38 -92 7 -36 26 -84 42 -108 l28 -43 0 -226
0 -226 -28 -43 c-19 -28 -32 -65 -38 -106 -11 -79 -16 -90 -44 -109 -13 -9
-30 -37 -40 -66 -11 -34 -26 -55 -45 -67 -16 -9 -34 -28 -42 -41 -7 -14 -33
-33 -57 -44 -24 -10 -59 -31 -77 -47 -22 -20 -48 -31 -84 -36 -32 -4 -62 -16
-81 -32 -44 -37 -83 -42 -314 -43 -242 0 -238 -1 -282 88 l-28 57 -3 669 c-2
463 1 686 8 723 14 64 44 102 88 111 36 8 467 6 521 -2z"/>
<path d="M9988 9549 c-26 -15 -22 -62 7 -97 23 -27 33 -31 103 -37 42 -4 96
-15 120 -26 77 -33 73 35 70 -1083 l-3 -993 -38 -57 c-43 -64 -64 -76 -175
-99 -40 -9 -80 -21 -88 -28 -24 -20 -14 -72 16 -84 16 -7 162 -9 419 -5 361 5
395 6 405 23 26 41 -48 85 -186 112 -52 11 -93 24 -103 35 -8 9 -20 42 -25 73
-5 30 -17 70 -26 89 -17 30 -19 92 -24 808 -6 765 -4 827 25 824 6 -1 22 -24
37 -53 14 -28 36 -59 48 -69 14 -11 27 -41 36 -82 10 -41 25 -75 45 -97 17
-19 32 -51 35 -74 4 -24 20 -56 39 -79 21 -26 35 -55 39 -85 5 -33 17 -55 40
-78 25 -25 34 -45 39 -82 6 -38 15 -56 42 -81 29 -26 35 -39 35 -73 0 -33 7
-49 35 -80 24 -26 38 -54 44 -87 7 -36 17 -55 41 -74 26 -21 32 -35 39 -83 6
-46 14 -64 38 -86 23 -20 32 -39 37 -77 5 -41 13 -57 41 -81 29 -26 35 -38 35
-70 0 -38 31 -103 49 -103 10 0 26 -45 36 -103 3 -20 19 -52 35 -70 16 -19 35
-58 44 -91 8 -32 26 -70 39 -85 14 -14 32 -41 41 -58 10 -20 24 -33 36 -33 12
0 26 13 36 33 9 17 29 46 45 64 18 21 30 48 34 80 10 81 14 91 46 121 24 22
32 40 38 86 6 46 14 62 39 84 25 22 31 36 35 81 4 46 9 58 36 80 24 20 33 39
41 80 6 30 18 66 28 79 42 60 50 77 57 118 4 28 18 58 40 84 19 23 36 56 40
80 4 21 20 56 36 76 16 21 35 58 41 82 6 25 24 59 40 77 18 21 32 52 38 85 7
37 20 64 45 91 28 31 35 47 35 80 0 34 6 47 35 73 29 27 35 41 41 89 6 48 12
62 37 81 23 19 31 35 38 77 7 43 15 59 43 84 22 19 39 45 46 71 12 49 35 63
51 32 14 -26 13 -1556 -1 -1627 -42 -210 -49 -222 -138 -240 -31 -6 -67 -8
-78 -5 -28 8 -94 -49 -94 -81 0 -47 1 -47 497 -45 395 1 471 3 490 16 13 8 23
21 23 29 0 26 -71 74 -119 80 -98 13 -149 27 -165 43 -8 10 -29 51 -46 91
l-30 74 0 936 c0 597 4 949 10 972 6 20 29 57 53 82 41 43 44 45 119 52 125
11 224 83 172 126 -14 11 -82 15 -359 17 -395 3 -381 7 -392 -85 -4 -42 -13
-60 -39 -87 -24 -24 -34 -44 -34 -66 0 -37 -25 -100 -40 -100 -12 0 -33 -46
-49 -107 -6 -23 -22 -55 -35 -71 -14 -15 -32 -57 -41 -92 -10 -39 -28 -77 -46
-97 -23 -27 -29 -43 -29 -80 0 -40 -5 -50 -39 -82 -32 -29 -40 -44 -44 -83 -3
-38 -12 -54 -41 -81 -30 -29 -36 -41 -36 -76 0 -35 -6 -47 -35 -74 -28 -26
-37 -43 -44 -86 -6 -40 -16 -59 -40 -81 -24 -22 -31 -37 -31 -65 0 -43 -14
-73 -47 -100 -18 -15 -28 -36 -34 -75 -6 -39 -16 -61 -33 -76 -31 -27 -46 -56
-46 -88 0 -15 -14 -41 -34 -64 -21 -22 -37 -53 -41 -77 -10 -54 -22 -75 -44
-75 -27 0 -41 22 -50 77 -5 34 -16 57 -39 80 -27 26 -32 39 -32 77 0 46 -12
67 -54 91 -10 6 -20 31 -25 64 -7 44 -15 60 -41 81 -26 21 -33 35 -37 76 -4
41 -11 54 -40 80 -31 27 -36 38 -39 85 -4 46 -9 58 -38 84 -27 24 -35 40 -40
80 -5 40 -12 55 -37 75 -23 19 -32 37 -36 70 -6 50 -24 90 -47 110 -9 7 -23
36 -32 66 -8 29 -28 69 -44 89 -17 21 -34 59 -40 91 -7 34 -22 67 -40 87 -16
19 -35 58 -44 91 -8 34 -26 70 -42 87 -18 19 -29 45 -35 80 -7 41 -16 59 -44
84 -30 28 -35 39 -35 76 0 55 -8 67 -51 79 -46 13 -619 13 -641 -1z"/>
<path d="M24235 9540 c-44 -49 47 -112 180 -126 104 -10 109 -14 152 -101 l38
-78 3 -775 c1 -427 -1 -854 -6 -950 -9 -171 -10 -177 -43 -244 -32 -64 -38
-70 -84 -88 -29 -10 -73 -17 -105 -17 -64 2 -135 -28 -145 -60 -7 -23 10 -61
28 -61 7 0 246 -1 531 -1 555 -1 535 -2 536 49 0 34 -34 62 -77 62 -37 0 -152
24 -205 42 -27 10 -40 31 -74 123 -18 48 -19 95 -19 1000 l0 950 33 52 c18 28
40 57 49 64 20 17 290 29 445 19 112 -7 120 -9 212 -54 53 -26 96 -52 96 -58
0 -5 20 -29 44 -52 35 -35 45 -52 50 -92 4 -27 21 -72 37 -100 27 -47 29 -60
29 -149 0 -89 -2 -102 -29 -149 -16 -28 -34 -78 -40 -111 -8 -43 -18 -66 -36
-82 -14 -12 -33 -37 -43 -55 -14 -24 -30 -36 -62 -45 -24 -7 -59 -28 -78 -45
l-33 -33 -217 0 -216 0 -15 -26 c-12 -22 -12 -31 0 -69 12 -37 19 -45 47 -52
19 -5 134 -8 256 -6 l223 3 39 27 c22 16 63 35 90 43 28 8 59 23 68 34 10 11
42 29 71 41 32 13 57 30 60 41 4 11 19 27 33 36 34 21 132 119 132 132 0 6 14
26 31 46 23 25 36 55 46 102 7 37 26 88 40 113 25 41 27 54 28 150 0 101 -1
107 -32 161 -19 32 -33 70 -33 89 0 25 -9 42 -38 69 -21 20 -42 44 -45 54 -4
9 -22 27 -41 38 -19 11 -41 31 -50 44 -11 17 -32 27 -71 35 -30 6 -68 23 -85
36 -18 16 -50 28 -87 34 -33 6 -389 10 -829 10 -759 0 -771 0 -789 -20z"/>
<path d="M6567 9060 c-45 -35 -94 -50 -169 -51 -85 0 -141 -17 -146 -42 -6
-28 15 -45 75 -62 84 -25 103 -49 103 -132 0 -49 -6 -80 -20 -108 -31 -61 -50
-133 -50 -191 0 -35 -6 -59 -18 -75 -18 -22 -23 -22 -184 -20 -174 2 -216 -5
-248 -44 -8 -10 -33 -26 -55 -35 -43 -19 -205 -168 -205 -189 0 -7 -18 -30
-40 -52 -25 -24 -40 -49 -40 -64 0 -35 -18 -77 -47 -107 -21 -22 -27 -41 -35
-118 -7 -72 -16 -105 -41 -154 l-32 -61 0 -190 c0 -164 2 -194 17 -215 79
-114 68 -105 139 -108 56 -2 69 1 99 23 19 13 51 32 70 41 19 9 52 33 72 53
75 74 117 111 126 111 4 0 16 16 25 35 9 20 28 40 42 45 14 5 31 24 39 44 10
23 22 35 38 38 15 2 29 16 41 41 19 38 35 45 55 25 20 -20 14 -51 -20 -118
-30 -58 -33 -72 -37 -176 -3 -110 -2 -113 22 -138 21 -21 36 -26 76 -26 41 0
56 5 90 34 23 19 55 37 72 41 19 4 37 18 48 36 9 16 33 35 53 44 20 8 42 23
47 34 6 10 26 28 46 40 53 31 43 81 -17 81 -22 0 -33 -8 -46 -30 -29 -52 -121
-67 -148 -25 -27 41 -12 185 27 270 26 56 33 84 40 182 10 133 11 140 45 210
20 41 27 75 34 170 10 129 16 156 50 223 19 37 25 68 30 177 7 130 8 133 39
168 17 20 31 43 31 51 0 8 5 80 11 160 8 111 8 148 -1 160 -18 20 -73 17 -103
-6z m-379 -833 c108 -19 119 -29 104 -99 -6 -29 -14 -93 -17 -141 -6 -94 -15
-122 -48 -148 -15 -12 -22 -34 -28 -80 -6 -55 -12 -66 -42 -93 -20 -18 -38
-44 -42 -62 -3 -17 -20 -44 -37 -60 -17 -16 -37 -43 -44 -61 -8 -17 -26 -38
-41 -45 -14 -7 -34 -26 -43 -43 -10 -17 -28 -32 -46 -37 -16 -4 -50 -24 -74
-45 -40 -35 -49 -38 -104 -38 -86 0 -87 5 -78 232 7 176 8 181 36 224 24 35
31 61 39 134 9 83 12 93 43 125 26 27 34 45 34 73 0 29 9 47 46 89 26 29 48
54 49 56 2 2 36 12 76 22 79 20 89 20 217 -3z"/>
<path d="M14368 8948 c-45 -56 -54 -74 -63 -128 -8 -51 -18 -73 -50 -112 -13
-16 -27 -52 -33 -88 -9 -47 -18 -68 -42 -90 -18 -16 -30 -38 -30 -53 0 -49
-13 -85 -40 -116 -17 -18 -33 -51 -39 -81 -6 -29 -24 -68 -42 -89 -22 -28 -32
-55 -39 -99 -10 -70 -13 -78 -52 -110 -24 -20 -28 -31 -28 -74 0 -45 -4 -54
-35 -83 -30 -26 -37 -41 -42 -85 -5 -43 -13 -61 -38 -86 -24 -23 -34 -45 -40
-80 -8 -54 -25 -93 -49 -114 -9 -7 -23 -37 -32 -66 -8 -30 -26 -67 -40 -83
-13 -16 -29 -46 -36 -67 -16 -47 -91 -102 -161 -118 -59 -13 -85 -42 -64 -70
12 -17 37 -18 313 -18 185 0 309 4 327 11 55 21 23 60 -68 82 -105 25 -131 65
-115 181 10 68 30 118 49 118 15 0 31 50 31 97 0 42 5 50 49 94 l48 49 354 0
c265 0 360 -3 379 -13 21 -10 26 -23 33 -74 6 -46 16 -69 38 -94 32 -36 34
-40 48 -123 8 -40 19 -69 36 -86 35 -36 32 -71 -9 -114 -33 -35 -52 -41 -114
-36 -51 4 -98 -63 -60 -86 21 -13 677 -7 693 6 31 26 15 60 -35 75 -33 10
-115 80 -140 119 -10 17 -26 40 -35 51 -8 12 -19 45 -25 73 -6 32 -21 67 -39
90 -17 20 -35 59 -41 87 -6 27 -22 64 -36 82 -13 17 -31 62 -39 100 -12 52
-23 74 -46 93 -24 20 -31 35 -35 80 -5 45 -12 61 -39 85 -27 26 -33 40 -38 93
-7 64 -30 122 -48 122 -15 0 -39 64 -39 103 0 26 -8 41 -35 66 -29 26 -35 38
-35 72 0 45 -23 109 -40 109 -15 0 -36 54 -45 115 -5 36 -16 60 -39 86 -21 23
-35 51 -40 78 -3 24 -13 55 -21 70 -22 40 -74 91 -94 91 -10 0 -34 -19 -53
-42z m10 -449 c9 -17 30 -50 45 -74 17 -26 32 -68 38 -107 8 -52 16 -68 45
-94 26 -25 34 -40 34 -67 0 -44 15 -85 41 -113 11 -12 30 -59 41 -105 l20 -83
-22 -18 c-21 -17 -43 -18 -279 -16 l-256 3 -13 27 c-18 37 -1 95 37 132 22 21
30 40 36 82 5 40 14 64 35 88 20 22 34 55 45 104 10 44 27 84 42 102 15 18 27
47 30 73 11 97 47 127 81 66z"/>
<path d="M16365 8979 c-55 -3 -169 -14 -252 -23 -141 -16 -166 -16 -330 -2
-167 15 -179 15 -195 -2 -26 -27 -32 -66 -13 -86 12 -12 35 -16 84 -16 83 0
127 -14 135 -43 3 -12 6 -374 6 -805 0 -861 3 -825 -60 -857 -17 -9 -60 -19
-96 -24 -78 -9 -98 -28 -71 -65 13 -17 38 -18 380 -18 381 0 397 1 397 41 0
29 -22 41 -75 41 -67 1 -129 30 -151 71 -25 50 -31 212 -28 874 2 622 8 724
45 760 18 19 33 20 207 20 163 0 191 -2 212 -18 110 -78 147 -107 162 -128 30
-40 43 -176 28 -294 -15 -121 -21 -137 -63 -178 -17 -18 -39 -42 -49 -54 -9
-12 -37 -25 -67 -32 -28 -6 -76 -24 -107 -41 -51 -27 -66 -30 -150 -30 -71 0
-96 -4 -108 -16 -22 -22 -20 -51 5 -72 12 -9 28 -24 35 -32 40 -46 86 -110
104 -142 11 -21 29 -42 40 -48 11 -6 29 -28 39 -49 11 -21 31 -45 45 -54 13
-9 28 -27 31 -39 4 -13 20 -36 36 -53 15 -16 35 -46 43 -67 9 -20 27 -45 40
-56 14 -10 31 -31 37 -46 7 -14 27 -35 45 -45 20 -12 36 -31 40 -48 3 -15 19
-44 34 -63 15 -19 34 -50 44 -68 9 -18 26 -38 37 -45 11 -6 29 -28 39 -48 l19
-37 163 -4 c189 -5 208 -1 208 42 0 24 -7 35 -35 51 -19 12 -35 25 -35 30 0 5
-15 17 -34 26 -19 8 -39 27 -45 41 -11 24 -58 83 -115 145 -16 18 -35 48 -43
67 -15 35 -29 51 -118 140 -25 25 -45 51 -45 58 0 6 -14 21 -30 34 -20 14 -35
39 -45 70 -8 27 -29 64 -47 83 -18 19 -43 45 -55 57 -11 13 -28 29 -37 36 -52
42 29 142 116 142 53 0 78 11 93 40 8 15 27 32 42 39 15 6 36 25 45 41 9 17
28 35 42 42 14 6 28 19 31 29 4 10 22 32 42 48 34 28 36 33 44 118 5 48 6 138
2 198 -6 106 -7 111 -37 140 -17 17 -39 43 -49 58 -10 15 -26 31 -35 34 -9 3
-31 21 -48 41 -31 34 -33 35 -135 43 -57 5 -126 16 -154 26 -72 24 -127 29
-240 22z"/>
<path d="M29116 8968 c-9 -12 -16 -28 -16 -35 0 -7 -13 -27 -29 -45 -40 -47
-51 -71 -51 -117 0 -33 -7 -49 -34 -79 -26 -29 -36 -51 -42 -89 -5 -39 -14
-60 -39 -86 -23 -25 -34 -48 -40 -83 -8 -55 -18 -79 -47 -111 -11 -12 -27 -50
-35 -84 -9 -39 -25 -75 -42 -94 -20 -23 -30 -47 -34 -84 -5 -41 -14 -61 -42
-92 -26 -29 -35 -48 -35 -75 0 -38 -19 -83 -44 -103 -9 -8 -25 -44 -36 -82
-11 -37 -33 -82 -47 -100 -18 -21 -29 -49 -34 -88 -6 -45 -14 -61 -39 -82 -22
-18 -32 -38 -36 -65 -10 -73 -15 -85 -38 -95 -13 -6 -32 -29 -42 -51 -21 -47
-68 -85 -121 -99 -69 -18 -93 -31 -93 -50 0 -37 32 -41 335 -41 162 0 303 3
315 7 23 7 28 47 8 63 -7 5 -35 13 -63 17 -59 8 -91 24 -124 59 -20 21 -24 35
-23 88 1 47 6 68 22 87 44 55 50 69 58 128 9 62 9 63 97 166 14 16 45 17 379
17 406 0 383 4 393 -72 4 -30 16 -55 39 -81 26 -28 34 -46 34 -75 0 -56 17
-105 50 -147 39 -49 39 -87 2 -125 -28 -28 -43 -32 -144 -45 -55 -7 -76 -31
-58 -65 13 -24 -19 -23 370 -21 325 1 380 7 380 37 0 15 -32 38 -68 49 -13 4
-48 25 -77 47 -43 32 -55 47 -64 84 -6 24 -21 54 -32 65 -24 24 -49 79 -49
108 0 11 -14 37 -32 57 -25 29 -33 49 -39 97 -6 52 -12 65 -38 87 -25 20 -33
36 -41 84 -5 32 -16 68 -25 80 -8 11 -22 30 -30 42 -8 11 -20 47 -26 79 -8 44
-20 69 -45 97 -28 31 -34 46 -34 83 0 43 -24 85 -48 85 -15 0 -32 50 -32 95 0
35 -6 52 -29 78 -20 22 -35 56 -46 102 -10 43 -25 79 -40 95 -29 30 -45 71
-45 112 0 21 -11 43 -33 68 -27 28 -35 48 -40 91 -5 47 -11 59 -48 92 -48 42
-71 46 -93 15z m-4 -490 c55 -36 68 -59 68 -118 0 -29 8 -48 34 -79 23 -27 36
-55 41 -88 9 -59 30 -113 45 -113 16 0 40 -64 40 -108 0 -31 6 -44 36 -70 34
-30 35 -34 21 -55 -14 -22 -17 -22 -297 -25 -200 -2 -287 1 -296 9 -30 24 -14
90 32 140 17 18 26 42 30 80 5 44 12 60 40 86 30 28 34 38 34 84 0 46 4 55 36
84 30 28 36 41 45 100 9 63 23 105 35 105 4 0 29 -15 56 -32z"/>
<path d="M30314 8982 c-6 -4 -21 -25 -33 -48 -22 -39 -22 -45 -13 -160 5 -65
7 -141 4 -167 -3 -37 0 -53 13 -68 40 -43 75 -17 75 55 0 81 17 125 70 180
l49 51 193 6 c106 3 199 3 206 1 8 -3 18 -16 23 -29 5 -14 9 -350 9 -799 0
-637 -2 -781 -14 -808 -16 -38 -73 -66 -137 -66 -43 0 -102 -21 -114 -40 -4
-7 1 -21 12 -32 20 -19 35 -20 396 -20 394 -1 407 0 407 42 0 30 -27 42 -110
51 -44 4 -85 11 -91 15 -6 3 -18 23 -27 43 -15 32 -17 111 -20 716 -4 745 0
873 28 907 16 21 24 22 157 19 157 -3 245 -19 277 -50 17 -18 22 -38 27 -118
7 -109 22 -133 83 -133 59 0 61 5 66 177 3 87 2 175 -1 196 -12 72 -4 70 -300
56 -359 -16 -1129 -7 -1182 16 -42 17 -39 17 -53 7z"/>
<path d="M32928 8946 c-42 -38 -48 -49 -48 -84 0 -50 -15 -92 -40 -109 -18
-13 -24 -27 -49 -120 -6 -23 -23 -55 -36 -72 -16 -18 -29 -52 -36 -88 -8 -42
-19 -67 -41 -90 -25 -26 -32 -43 -36 -88 -4 -49 -9 -59 -38 -81 -28 -22 -34
-34 -40 -80 -5 -41 -15 -65 -39 -94 -24 -28 -35 -54 -40 -91 -5 -35 -16 -61
-36 -83 -34 -40 -49 -76 -49 -122 0 -24 -9 -44 -34 -71 -25 -29 -35 -50 -38
-86 -4 -37 -13 -57 -38 -82 -25 -25 -35 -47 -41 -87 -7 -40 -16 -59 -38 -78
-21 -18 -32 -40 -39 -75 -7 -32 -18 -56 -32 -65 -12 -8 -36 -27 -53 -41 -21
-17 -49 -28 -81 -32 -32 -3 -55 -12 -63 -23 -16 -22 -16 -26 0 -48 12 -17 36
-18 298 -18 156 -1 294 2 307 6 16 5 22 15 22 36 0 35 -22 49 -88 59 -39 5
-50 12 -74 46 -18 25 -26 47 -22 60 3 11 9 53 13 93 7 63 13 78 39 105 24 25
34 49 46 106 18 86 26 97 75 111 53 15 686 12 731 -3 39 -13 54 -47 66 -141 4
-37 13 -55 36 -76 25 -23 31 -39 37 -89 5 -42 14 -68 29 -84 29 -30 27 -45 -7
-84 -37 -40 -62 -53 -103 -53 -62 0 -100 -49 -63 -80 11 -9 99 -12 344 -12
181 0 335 3 340 7 6 3 11 17 11 30 0 27 -28 49 -73 61 -18 4 -54 36 -98 85
-64 73 -69 83 -69 124 0 39 -5 51 -35 80 -27 27 -36 46 -41 86 -5 36 -16 62
-39 89 -23 28 -34 52 -38 89 -6 51 -22 86 -57 131 -11 14 -24 49 -29 79 -6 40
-15 58 -36 75 -23 19 -30 34 -36 86 -6 51 -12 67 -37 90 -29 26 -34 40 -48
129 -4 26 -15 53 -29 65 -30 29 -41 53 -49 108 -5 32 -15 53 -30 65 -33 27
-46 56 -46 107 0 36 -6 52 -31 80 -20 23 -36 57 -45 97 -9 37 -26 75 -42 94
-15 18 -35 46 -44 64 -9 17 -25 31 -35 31 -10 0 -39 -20 -65 -44z m14 -423 c9
-10 19 -37 23 -59 4 -25 16 -51 31 -65 26 -24 44 -75 44 -126 0 -24 8 -38 32
-56 27 -22 32 -33 39 -92 8 -65 14 -80 60 -136 14 -17 22 -46 26 -87 6 -60 5
-62 -21 -72 -30 -11 -483 -14 -511 -4 -44 17 -35 127 14 179 21 21 32 47 40
89 6 33 19 70 28 84 46 63 53 80 53 119 0 33 7 50 32 78 21 25 34 52 39 87 12
75 39 98 71 61z"/>
<path d="M18091 8939 c-39 -63 -20 -89 63 -89 25 0 56 -5 70 -11 35 -16 77
-80 87 -131 11 -59 11 -1403 0 -1452 -5 -21 -22 -51 -38 -67 -15 -16 -36 -36
-46 -46 -9 -10 -29 -28 -43 -40 -20 -19 -23 -26 -14 -43 11 -20 20 -20 518
-20 303 0 525 5 551 11 23 5 58 21 77 35 23 18 52 28 95 33 52 6 64 12 85 39
13 17 38 33 54 37 17 4 48 22 71 41 23 19 52 37 65 40 14 4 31 19 39 35 8 15
28 36 45 46 16 9 33 25 36 35 3 10 20 32 39 49 23 22 36 45 40 73 5 30 17 51
46 77 35 33 39 41 39 87 0 39 8 65 38 119 l37 68 0 225 c0 210 -1 228 -20 254
-39 55 -55 92 -55 129 0 30 -7 45 -30 67 -17 16 -37 45 -46 66 -21 51 -120
148 -167 163 -21 7 -47 26 -59 42 -13 17 -38 33 -60 39 -20 6 -50 22 -67 35
-33 29 -105 45 -195 45 -33 0 -108 9 -165 20 -100 20 -120 20 -425 10 -309
-11 -499 -9 -598 6 -45 6 -47 5 -67 -27z m1049 -132 c34 -16 89 -30 145 -37
81 -11 93 -15 125 -46 20 -19 39 -34 44 -34 4 0 50 -43 102 -95 89 -89 94 -97
102 -149 5 -32 20 -72 36 -94 14 -21 30 -52 34 -68 4 -16 5 -144 2 -284 l-5
-255 -32 -49 c-20 -30 -33 -62 -33 -81 0 -48 -18 -91 -45 -105 -14 -7 -27 -22
-31 -33 -5 -17 -83 -98 -142 -148 -11 -9 -21 -22 -23 -28 -3 -7 -31 -21 -63
-31 -32 -11 -69 -30 -82 -43 -21 -22 -36 -24 -186 -34 -90 -6 -225 -8 -301 -5
-156 8 -162 11 -171 86 -23 187 -27 281 -28 627 0 217 0 414 0 439 -1 80 10
274 17 330 20 143 78 172 335 166 132 -2 150 -5 200 -29z"/>
<path d="M20231 8951 c-24 -24 -28 -73 -6 -91 10 -8 45 -12 98 -11 122 2 118
7 129 -190 13 -231 4 -1403 -11 -1450 -16 -50 -39 -67 -107 -79 -81 -15 -114
-29 -114 -50 0 -42 -3 -42 742 -41 618 1 714 4 724 16 7 9 14 85 18 183 4 92
8 187 9 212 2 40 0 45 -26 54 -46 17 -61 -1 -67 -77 -4 -54 -10 -71 -32 -94
-14 -15 -29 -45 -33 -65 -14 -77 9 -73 -395 -76 -329 -2 -364 -1 -381 14 -18
16 -19 38 -19 355 0 336 0 338 23 363 31 37 105 48 257 40 95 -5 147 -14 219
-36 52 -15 100 -33 108 -39 8 -8 13 -36 14 -83 1 -98 9 -120 41 -124 47 -6 50
15 49 325 0 243 -2 288 -16 309 -34 52 -67 15 -71 -77 -3 -82 -8 -91 -75 -123
-59 -29 -64 -29 -264 -34 -112 -3 -215 -2 -229 2 -54 13 -57 36 -54 391 2 231
6 327 15 336 15 15 148 22 353 20 138 -2 172 -6 210 -22 24 -11 75 -27 112
-35 45 -10 72 -22 78 -34 6 -10 10 -55 10 -99 0 -59 4 -84 16 -95 39 -39 80
-2 88 81 3 32 15 85 26 118 31 94 35 141 16 169 -28 44 -74 49 -421 45 -457
-5 -784 -3 -906 6 -101 7 -108 6 -128 -14z"/>
<path d="M21985 8955 c-5 -2 -27 -6 -48 -10 -25 -4 -43 -15 -54 -32 -16 -25
-16 -26 6 -44 18 -15 40 -19 97 -19 100 0 139 -17 153 -67 29 -103 33 -216 29
-857 l-3 -654 -31 -43 c-17 -24 -34 -54 -38 -66 -4 -12 -22 -31 -41 -42 -35
-20 -48 -62 -25 -76 19 -12 1296 -5 1330 6 53 19 63 53 70 249 8 210 3 240
-40 240 -22 0 -110 -168 -110 -209 0 -50 -21 -101 -48 -119 -23 -15 -65 -17
-405 -20 -338 -3 -381 -2 -397 13 -17 15 -18 56 -15 773 1 416 6 774 10 795
11 54 38 68 151 77 105 8 134 22 115 58 -6 10 -25 26 -43 35 -29 14 -58 15
-213 7 -99 -5 -214 -7 -255 -4 -41 2 -100 6 -130 8 -30 2 -59 3 -65 1z"/>
<path d="M26567 8951 c-82 -5 -101 -9 -113 -25 -35 -49 -5 -69 112 -77 59 -4
102 -12 117 -22 44 -29 50 -129 48 -827 -3 -774 -3 -767 -34 -794 -13 -12 -32
-34 -41 -49 -9 -15 -28 -32 -41 -37 -30 -11 -42 -47 -22 -67 12 -12 107 -14
661 -13 355 0 656 4 669 9 61 24 77 88 77 309 0 128 -2 144 -20 162 -11 11
-26 17 -33 14 -19 -7 -95 -162 -102 -209 -12 -77 -24 -102 -58 -116 -48 -20
-767 -20 -791 0 -16 13 -17 69 -14 795 2 606 6 786 16 803 15 28 69 43 149 43
34 0 74 5 88 12 34 15 33 50 -2 74 -24 15 -47 17 -153 15 -69 -1 -141 -3 -160
-4 -19 -1 -84 1 -145 4 -60 4 -154 3 -208 0z"/>
<path d="M7360 8369 c-14 -6 -36 -21 -50 -33 -14 -13 -47 -31 -73 -39 -52 -18
-92 -46 -168 -119 -26 -27 -53 -48 -59 -48 -6 0 -18 -17 -26 -37 -9 -21 -27
-50 -41 -64 -13 -15 -30 -51 -37 -81 -7 -30 -25 -72 -41 -92 -24 -32 -29 -50
-37 -139 -7 -80 -15 -113 -36 -152 -25 -46 -27 -58 -25 -153 2 -87 5 -107 24
-133 12 -17 27 -56 33 -87 10 -51 15 -59 48 -74 20 -10 43 -26 50 -37 23 -33
63 -41 203 -41 l133 0 41 34 c27 22 55 36 86 41 37 5 50 12 63 36 10 16 34 35
56 44 21 9 47 26 57 39 10 13 38 31 63 40 78 30 64 76 -24 76 -43 0 -51 -4
-70 -30 -15 -21 -36 -34 -66 -41 -25 -7 -63 -26 -84 -44 -44 -37 -108 -47
-225 -37 -75 8 -86 17 -100 85 -3 16 -18 41 -34 55 -39 37 -41 50 -31 143 16
138 60 189 163 189 46 0 107 22 107 39 0 13 46 30 102 37 40 6 60 14 80 37 15
16 49 35 75 43 26 8 59 25 73 38 14 13 40 31 57 40 19 9 39 30 46 49 8 17 22
38 31 46 36 30 46 68 46 170 l0 100 -55 55 -55 56 -137 -1 c-76 0 -149 -5
-163 -10z m122 -123 c25 -19 48 -42 52 -51 3 -9 6 -52 6 -95 l0 -79 -52 -53
c-29 -29 -65 -61 -80 -71 -16 -10 -28 -24 -28 -31 0 -23 -25 -36 -81 -43 -37
-4 -59 -13 -74 -29 -26 -28 -65 -44 -109 -44 -47 0 -59 19 -54 85 4 45 11 62
36 88 27 28 33 44 41 106 8 66 13 76 48 109 21 20 43 45 48 55 6 11 29 21 63
26 37 6 62 16 80 35 35 34 50 33 104 -8z"/>
<path d="M6326 5408 c-69 -68 -88 -121 -70 -192 7 -26 24 -60 38 -75 14 -15
26 -37 26 -49 0 -21 4 -22 105 -22 86 0 105 3 105 15 0 8 14 30 31 50 27 31
32 45 37 104 4 66 -10 141 -28 141 -5 0 -27 18 -50 40 -37 36 -47 40 -91 40
-45 0 -52 -4 -103 -52z"/>
<path d="M7546 5428 c-18 -18 -45 -42 -59 -53 -25 -19 -27 -25 -29 -109 l-1
-89 36 -31 c23 -19 37 -40 37 -53 0 -23 2 -23 115 -23 l115 0 0 24 c0 14 16
46 36 72 69 91 56 149 -57 244 -55 45 -65 50 -110 50 -43 0 -54 -5 -83 -32z"/>
<path d="M8780 5453 c-33 -12 -130 -125 -136 -159 -10 -55 4 -101 41 -135 19
-17 37 -44 40 -60 l7 -29 109 0 c109 0 109 0 109 24 0 16 13 35 40 56 l40 32
0 81 c0 45 -4 87 -8 93 -4 6 -22 19 -39 28 -18 9 -33 20 -33 24 0 5 -9 18 -20
30 -17 18 -31 22 -78 21 -31 0 -64 -3 -72 -6z"/>
<path d="M9966 5425 c-20 -19 -40 -35 -45 -35 -23 0 -41 -60 -41 -133 0 -66 3
-77 30 -113 16 -21 30 -47 30 -56 0 -16 12 -18 105 -18 102 0 105 1 105 23 0
12 13 33 30 47 24 20 32 35 36 77 4 28 3 72 0 98 -6 39 -16 55 -59 96 -48 45
-56 49 -104 49 -47 0 -56 -4 -87 -35z"/>
<path d="M11183 5450 c-13 -5 -23 -14 -23 -20 0 -5 -16 -20 -35 -32 -39 -26
-51 -56 -49 -133 2 -94 3 -95 38 -116 23 -13 37 -31 41 -50 l7 -29 109 0 c109
0 109 0 109 24 0 14 17 44 40 71 57 66 55 99 -11 193 -28 40 -63 79 -79 87
-32 16 -112 19 -147 5z"/>
<path d="M12395 5450 c-23 -9 -83 -78 -116 -134 -32 -56 -23 -119 25 -160 19
-17 38 -43 42 -58 l6 -28 109 0 c109 0 109 0 109 24 0 15 11 33 28 45 15 12
33 26 40 31 8 7 12 39 12 91 l0 80 -60 60 c-59 59 -60 59 -117 58 -32 0 -67
-4 -78 -9z"/>
<path d="M13571 5412 c-89 -84 -103 -192 -35 -273 19 -23 34 -47 34 -55 0 -11
21 -14 105 -14 77 0 105 3 105 13 0 6 14 31 30 55 36 54 46 115 30 182 -9 36
-20 56 -39 68 -14 9 -38 29 -53 44 -22 23 -34 28 -76 28 -46 0 -54 -4 -101
-48z"/>
<path d="M14779 5423 c-20 -21 -45 -45 -57 -53 -18 -12 -23 -27 -26 -80 -5
-95 1 -119 41 -143 22 -13 36 -30 40 -48 l6 -29 108 0 c109 0 109 0 109 24 0
14 17 44 40 71 35 40 40 53 40 95 0 43 -5 54 -52 110 -64 75 -91 90 -160 90
-49 0 -57 -3 -89 -37z"/>
<path d="M16022 5449 c-13 -5 -48 -33 -77 -63 -82 -85 -87 -164 -14 -236 21
-21 39 -48 39 -59 0 -20 5 -21 109 -21 l109 0 5 30 c4 19 17 34 35 44 38 20
42 32 42 127 0 67 -3 82 -20 97 -12 9 -39 34 -61 55 -36 33 -45 37 -92 36 -29
0 -63 -4 -75 -10z"/>
<path d="M17189 5407 c-50 -47 -57 -59 -63 -103 -9 -60 8 -142 35 -170 11 -12
21 -31 22 -43 1 -20 6 -21 109 -21 98 0 108 2 108 18 0 11 11 32 25 48 26 30
45 81 45 122 0 52 -23 113 -49 130 -14 9 -37 29 -49 45 -20 23 -31 27 -75 27
-49 0 -55 -4 -108 -53z"/>
<path d="M18408 5430 c-12 -17 -37 -39 -55 -50 l-34 -20 3 -97 c3 -88 5 -98
24 -108 38 -19 54 -37 54 -61 0 -24 1 -24 110 -24 l110 0 0 26 c0 17 14 39 40
65 36 36 40 45 40 90 0 63 -16 94 -76 144 -69 58 -83 64 -141 65 -47 0 -55 -3
-75 -30z"/>
<path d="M19659 5452 c-29 -13 -121 -97 -135 -124 -16 -31 -18 -101 -4 -128 5
-10 23 -32 40 -48 18 -18 30 -41 30 -56 l0 -26 110 0 110 0 0 25 c0 18 11 32
40 50 l40 25 0 95 0 96 -33 19 c-18 11 -43 33 -55 50 -20 27 -28 30 -75 29
-29 0 -59 -3 -68 -7z"/>
<path d="M20812 5412 c-45 -40 -54 -55 -64 -102 -14 -70 -5 -122 31 -163 16
-17 31 -42 35 -54 7 -22 12 -23 104 -23 97 0 98 0 110 28 6 15 22 43 34 62 18
27 22 49 22 105 0 38 -4 78 -10 87 -5 10 -33 38 -63 63 -46 40 -58 45 -99 45
-42 -1 -53 -6 -100 -48z"/>
<path d="M22018 5423 c-20 -21 -46 -46 -57 -55 -18 -16 -21 -29 -21 -108 l0
-91 36 -21 c23 -13 37 -30 41 -49 l6 -29 108 0 c105 0 109 1 109 22 0 12 17
37 39 57 44 41 55 75 45 139 -5 37 -17 55 -59 98 -61 62 -87 74 -159 74 -47 0
-55 -4 -88 -37z"/>
<path d="M23265 5446 c-16 -7 -54 -43 -82 -78 -47 -58 -53 -71 -53 -111 0 -39
6 -53 40 -92 23 -27 40 -57 40 -71 l0 -24 115 0 115 0 0 24 c0 17 12 34 35 52
l35 26 0 94 c0 91 -1 94 -27 111 -16 9 -42 32 -59 50 -28 29 -38 33 -80 33
-27 -1 -62 -7 -79 -14z"/>
<path d="M24455 5428 c-18 -18 -44 -40 -57 -49 -20 -14 -23 -27 -26 -98 -4
-86 6 -127 39 -157 10 -9 19 -25 19 -36 0 -16 10 -18 105 -18 84 0 105 3 105
14 0 8 12 28 26 45 14 17 34 53 45 80 18 48 18 50 -2 102 -14 37 -37 69 -71
102 -46 43 -55 47 -99 47 -42 0 -55 -5 -84 -32z"/>
<path d="M25620 5400 l-60 -60 0 -80 c0 -51 4 -83 13 -90 6 -5 24 -19 40 -31
16 -12 27 -30 27 -45 0 -24 0 -24 110 -24 l111 0 6 31 c3 18 19 40 39 56 65
49 59 130 -16 219 -58 69 -85 83 -157 84 -52 0 -55 -2 -113 -60z"/>
<path d="M26878 5443 c-15 -10 -50 -46 -78 -81 -69 -87 -68 -129 1 -210 16
-18 29 -44 29 -57 l0 -25 109 0 109 0 7 29 c4 19 18 37 41 50 l34 20 0 96 c0
86 -2 97 -22 113 -12 9 -35 30 -51 47 -25 25 -38 30 -90 33 -47 2 -69 -1 -89
-15z"/>
<path d="M28083 5428 c-17 -18 -44 -42 -59 -54 -24 -18 -28 -29 -32 -87 -5
-80 10 -130 44 -145 15 -8 27 -23 30 -42 l7 -30 98 0 c82 0 99 3 99 15 0 8 14
34 30 57 27 37 30 49 30 115 0 72 -18 133 -40 133 -5 0 -25 16 -44 35 -31 30
-42 35 -84 35 -42 0 -53 -5 -79 -32z"/>
<path d="M29242 5401 l-62 -58 0 -81 0 -80 40 -32 c27 -21 40 -40 40 -56 0
-24 0 -24 115 -24 l115 0 0 29 c0 21 10 37 35 58 66 52 61 147 -11 219 -24 25
-44 49 -44 54 0 14 -61 30 -115 30 -50 0 -55 -3 -113 -59z"/>
<path d="M30483 5412 c-76 -69 -113 -120 -113 -154 0 -20 13 -47 39 -79 22
-28 43 -63 46 -79 l7 -30 109 0 c108 0 109 0 109 24 0 15 12 33 35 50 l35 27
0 94 c0 90 -1 95 -26 112 -15 10 -40 33 -57 51 -27 28 -37 32 -81 32 -46 -1
-56 -5 -103 -48z"/>
<path d="M31691 5420 c-22 -22 -44 -40 -49 -40 -20 0 -35 -72 -30 -142 5 -61
9 -73 37 -102 17 -17 31 -40 31 -49 0 -15 13 -17 105 -17 73 0 105 4 105 12 0
6 13 32 29 57 16 25 34 63 41 84 17 55 -9 118 -77 185 -50 48 -57 52 -103 52
-44 0 -53 -4 -89 -40z"/>
</g>
</svg>
