<svg width="19" height="19" viewBox="0 0 19 19" fill="none" xmlns="http://www.w3.org/2000/svg">
<path d="M16.9313 7.6127L10.6312 13.9314C10.5562 14.0064 10.475 14.0594 10.3875 14.0904C10.3 14.1219 10.2063 14.1377 10.1063 14.1377C10.0063 14.1377 9.9125 14.1219 9.825 14.0904C9.7375 14.0594 9.65625 14.0064 9.58125 13.9314L3.2625 7.6127C3.0875 7.4377 3 7.21895 3 6.95645C3 6.69395 3.09375 6.46895 3.28125 6.28145C3.46875 6.09395 3.6875 6.0002 3.9375 6.0002C4.1875 6.0002 4.40625 6.09395 4.59375 6.28145L10.1063 11.7939L15.6188 6.28144C15.7938 6.10644 16.0093 6.01895 16.2652 6.01895C16.5218 6.01895 16.7438 6.1127 16.9313 6.3002C17.1188 6.4877 17.2125 6.70644 17.2125 6.95645C17.2125 7.20645 17.1188 7.4252 16.9313 7.6127Z" fill="#B0B5D3"/>
</svg>
