<svg width="645" height="479" viewBox="0 0 645 479" fill="none" xmlns="http://www.w3.org/2000/svg">
<g opacity="0.5" filter="url(#filter0_d_60_2047)">
<path d="M564.989 266.406L65.7271 400.183L93.9914 283.773L152.558 280.452L193.335 210.739L236.742 150.844L289.447 99.606L341.926 99.606L416.228 155.012L487.106 52.7262L564.989 266.406Z" fill="url(#paint0_radial_60_2047)"/>
<path d="M507.783 94.4308L595.339 283.929L564.989 266.406L487.106 52.7262L507.783 94.4308Z" fill="url(#paint1_radial_60_2047)"/>
<path d="M595.339 283.929L96.0778 417.706L65.7271 400.183L564.989 266.406L595.339 283.929Z" fill="url(#paint2_radial_60_2047)"/>
<path d="M446.579 172.535L507.783 94.4308L487.106 52.7262L416.228 155.012L446.579 172.535Z" fill="url(#paint3_radial_60_2047)"/>
<path d="M372.276 117.129L446.579 172.535L416.228 155.012L341.926 99.606L372.276 117.129Z" fill="url(#paint4_radial_60_2047)"/>
<path d="M312.227 112.304L372.276 117.129L341.926 99.606L289.447 99.606L312.227 112.304Z" fill="url(#paint5_radial_60_2047)"/>
<path d="M267.093 168.367L312.227 112.304L289.447 99.606L236.742 150.844L267.093 168.367Z" fill="url(#paint6_radial_60_2047)"/>
<path d="M223.685 228.262L267.093 168.367L236.742 150.844L193.335 210.739L223.685 228.262Z" fill="url(#paint7_radial_60_2047)"/>
<path d="M182.909 297.975L223.685 228.262L193.335 210.739L152.558 280.452L182.909 297.975Z" fill="url(#paint8_radial_60_2047)"/>
<path d="M124.342 301.296L182.909 297.975L152.558 280.452L93.9914 283.773L124.342 301.296Z" fill="url(#paint9_radial_60_2047)"/>
<path d="M96.0778 417.706L124.342 301.296L93.9914 283.773L65.7271 400.183L96.0778 417.706Z" fill="url(#paint10_radial_60_2047)"/>
<path d="M595.339 283.929L96.0777 417.706L124.342 301.296L182.908 297.975L223.685 228.262L267.093 168.366L312.577 112.304L372.276 117.129L446.579 172.535L492.363 63.2397L595.339 283.929Z" fill="#F8F8F8"/>
<path d="M599.334 287.211L100.072 420.988L128.336 304.577L186.903 301.256L227.68 231.544L271.087 171.648L316.782 116.86L376.271 120.411L450.573 175.816L494.816 68.1459L599.334 287.211Z" fill="url(#paint11_linear_60_2047)"/>
</g>
<defs>
<filter id="filter0_d_60_2047" x="-63.9812" y="-33.6191" width="708.315" height="520.237" filterUnits="userSpaceOnUse" color-interpolation-filters="sRGB">
<feFlood flood-opacity="0" result="BackgroundImageFix"/>
<feColorMatrix in="SourceAlpha" type="matrix" values="0 0 0 0 0 0 0 0 0 0 0 0 0 0 0 0 0 0 127 0" result="hardAlpha"/>
<feOffset dx="-10" dy="3"/>
<feGaussianBlur stdDeviation="27.5"/>
<feComposite in2="hardAlpha" operator="out"/>
<feColorMatrix type="matrix" values="0 0 0 0 0.681771 0 0 0 0 0.9625 0 0 0 0 0.747825 0 0 0 1 0"/>
<feBlend mode="normal" in2="BackgroundImageFix" result="effect1_dropShadow_60_2047"/>
<feBlend mode="normal" in="SourceGraphic" in2="effect1_dropShadow_60_2047" result="shape"/>
</filter>
<radialGradient id="paint0_radial_60_2047" cx="0" cy="0" r="1" gradientUnits="userSpaceOnUse" gradientTransform="translate(57.5758 427.987) rotate(-38.4253) scale(546.554 725.369)">
<stop stop-color="white" stop-opacity="0.75"/>
<stop offset="1" stop-color="#50508D" stop-opacity="0.75"/>
</radialGradient>
<radialGradient id="paint1_radial_60_2047" cx="0" cy="0" r="1" gradientUnits="userSpaceOnUse" gradientTransform="translate(57.5758 427.987) rotate(-38.4253) scale(546.554 725.369)">
<stop stop-color="white" stop-opacity="0.75"/>
<stop offset="1" stop-color="#50508D" stop-opacity="0.75"/>
</radialGradient>
<radialGradient id="paint2_radial_60_2047" cx="0" cy="0" r="1" gradientUnits="userSpaceOnUse" gradientTransform="translate(57.5758 427.987) rotate(-38.4253) scale(546.554 725.369)">
<stop stop-color="white" stop-opacity="0.75"/>
<stop offset="1" stop-color="#50508D" stop-opacity="0.75"/>
</radialGradient>
<radialGradient id="paint3_radial_60_2047" cx="0" cy="0" r="1" gradientUnits="userSpaceOnUse" gradientTransform="translate(57.5758 427.987) rotate(-38.4253) scale(546.554 725.369)">
<stop stop-color="white" stop-opacity="0.75"/>
<stop offset="1" stop-color="#50508D" stop-opacity="0.75"/>
</radialGradient>
<radialGradient id="paint4_radial_60_2047" cx="0" cy="0" r="1" gradientUnits="userSpaceOnUse" gradientTransform="translate(57.5758 427.987) rotate(-38.4253) scale(546.554 725.369)">
<stop stop-color="white" stop-opacity="0.75"/>
<stop offset="1" stop-color="#50508D" stop-opacity="0.75"/>
</radialGradient>
<radialGradient id="paint5_radial_60_2047" cx="0" cy="0" r="1" gradientUnits="userSpaceOnUse" gradientTransform="translate(57.5758 427.987) rotate(-38.4253) scale(546.554 725.369)">
<stop stop-color="white" stop-opacity="0.75"/>
<stop offset="1" stop-color="#50508D" stop-opacity="0.75"/>
</radialGradient>
<radialGradient id="paint6_radial_60_2047" cx="0" cy="0" r="1" gradientUnits="userSpaceOnUse" gradientTransform="translate(57.5758 427.987) rotate(-38.4253) scale(546.554 725.369)">
<stop stop-color="white" stop-opacity="0.75"/>
<stop offset="1" stop-color="#50508D" stop-opacity="0.75"/>
</radialGradient>
<radialGradient id="paint7_radial_60_2047" cx="0" cy="0" r="1" gradientUnits="userSpaceOnUse" gradientTransform="translate(57.5758 427.987) rotate(-38.4253) scale(546.554 725.369)">
<stop stop-color="white" stop-opacity="0.75"/>
<stop offset="1" stop-color="#50508D" stop-opacity="0.75"/>
</radialGradient>
<radialGradient id="paint8_radial_60_2047" cx="0" cy="0" r="1" gradientUnits="userSpaceOnUse" gradientTransform="translate(57.5758 427.987) rotate(-38.4253) scale(546.554 725.369)">
<stop stop-color="white" stop-opacity="0.75"/>
<stop offset="1" stop-color="#50508D" stop-opacity="0.75"/>
</radialGradient>
<radialGradient id="paint9_radial_60_2047" cx="0" cy="0" r="1" gradientUnits="userSpaceOnUse" gradientTransform="translate(57.5758 427.987) rotate(-38.4253) scale(546.554 725.369)">
<stop stop-color="white" stop-opacity="0.75"/>
<stop offset="1" stop-color="#50508D" stop-opacity="0.75"/>
</radialGradient>
<radialGradient id="paint10_radial_60_2047" cx="0" cy="0" r="1" gradientUnits="userSpaceOnUse" gradientTransform="translate(57.5758 427.987) rotate(-38.4253) scale(546.554 725.369)">
<stop stop-color="white" stop-opacity="0.75"/>
<stop offset="1" stop-color="#50508D" stop-opacity="0.75"/>
</radialGradient>
<linearGradient id="paint11_linear_60_2047" x1="59.0949" y1="3.61332" x2="52.1515" y2="363.603" gradientUnits="userSpaceOnUse">
<stop offset="0.138505" stop-color="#52EE90"/>
<stop offset="1" stop-color="#E0FFEC"/>
</linearGradient>
</defs>
</svg>
