<svg width="556" height="574" viewBox="0 0 556 574" fill="none" xmlns="http://www.w3.org/2000/svg">
<g filter="url(#filter0_d_101_1812)">
<rect x="12" y="8.5" width="520" height="537" rx="20" fill="white" shape-rendering="crispEdges"/>
<path d="M69.92 98.4V104H69.48V103.76L66.72 98.36L64.76 98.16V97.8C66.24 97.84 67.8 98.08 69.92 98.4ZM54 112.12V111.88C54 104.68 56.16 98.68 63.12 97.84V98.2C61.96 98.36 60.72 99.04 59.72 100.48C58.28 102.52 57.2 106.04 57.2 111.84V112.16C57.2 117.96 58.28 121.48 59.72 123.52C60.72 124.96 61.96 125.64 63.12 125.8V126.16C56.16 125.32 54 119.32 54 112.12ZM70.32 119.6L69.92 125.6C67.8 125.92 66.24 126.16 64.76 126.2V125.84L66.72 125.64L69.88 119.84V119.6H70.32ZM74.9591 120.96V121.24C74.9591 123.64 76.3591 124.96 78.3991 124.96C79.3191 124.96 80.2791 124.68 81.3591 124.08V124.32C80.7191 124.84 79.1991 126.2 76.7591 126.2C73.8791 126.2 71.9591 124.32 71.9591 121.6C71.9591 117.64 75.7191 116 79.5991 116H81.0391V116.28C77.0391 116.4 74.9591 118.28 74.9591 120.96ZM76.3991 106.56L76.3591 106.28C77.2791 106.12 78.1591 106 79.5591 106C83.2391 106 85.4791 107.88 85.4791 111.44V123.16C85.4791 124.4 86.0791 125.2 87.3191 125.2C87.6791 125.2 88.1591 125.08 88.7591 124.88L88.8391 125.04C88.3991 125.4 87.3191 126.24 85.5991 126.24C83.8791 126.24 82.6791 125.36 82.6791 123.32V111.72C82.6791 107.92 80.3991 105.96 76.3991 106.56ZM72.9191 109.96C72.9191 108.84 73.7991 108 74.7991 108C75.8791 108 76.7191 108.84 76.7191 109.96C76.7191 110.92 75.8791 111.8 74.7991 111.8C73.7991 111.8 72.9191 110.92 72.9191 109.96ZM93.7147 108.64V125.16L96.7147 125.76V126H88.0747V125.76L90.9147 125.16V99.08L88.3547 98.68V98.4L93.8747 97.04L93.7147 108.64ZM97.3947 117V116.84C97.3947 110.08 102.035 106.12 106.955 106.12V106.36C104.715 106.56 100.195 108.96 100.195 115.84V116.04C100.195 121.6 103.395 124.48 107.235 124.48C109.115 124.48 111.115 123.92 112.995 122.6L113.155 122.84C111.755 124.52 109.035 126.2 105.675 126.2C100.635 126.2 97.3947 122.36 97.3947 117ZM108.675 109.96C108.675 108.84 109.555 108 110.555 108C111.635 108 112.475 108.84 112.475 109.96C112.475 110.92 111.635 111.8 110.555 111.8C109.555 111.8 108.675 110.92 108.675 109.96ZM130.072 106.04L129.992 114.32V123.72L132.952 124.52V124.8L127.192 126V108.12L124.192 107.52V107.28L130.072 106.04ZM118.752 106.4V120.84C118.752 124.32 121.632 125.76 125.552 124.16V124.4C124.552 125.32 122.952 126.32 120.872 126.32C118.272 126.32 115.952 124.84 115.952 121.04V107.88L113.392 106.68V106.4H118.752ZM138.407 108.64V125.16L141.407 125.76V126H132.767V125.76L135.607 125.16V99.08L133.047 98.68V98.4L138.567 97.04L138.407 108.64ZM144.967 120.96V121.24C144.967 123.64 146.367 124.96 148.407 124.96C149.327 124.96 150.287 124.68 151.367 124.08V124.32C150.727 124.84 149.207 126.2 146.767 126.2C143.887 126.2 141.967 124.32 141.967 121.6C141.967 117.64 145.727 116 149.607 116H151.047V116.28C147.047 116.4 144.967 118.28 144.967 120.96ZM146.407 106.56L146.367 106.28C147.287 106.12 148.167 106 149.567 106C153.247 106 155.487 107.88 155.487 111.44V123.16C155.487 124.4 156.087 125.2 157.327 125.2C157.687 125.2 158.167 125.08 158.767 124.88L158.847 125.04C158.407 125.4 157.327 126.24 155.607 126.24C153.887 126.24 152.687 125.36 152.687 123.32V111.72C152.687 107.92 150.407 105.96 146.407 106.56ZM142.927 109.96C142.927 108.84 143.807 108 144.807 108C145.887 108 146.727 108.84 146.727 109.96C146.727 110.92 145.887 111.8 144.807 111.8C143.807 111.8 142.927 110.92 142.927 109.96ZM166.064 106.96V106.4H168.184V105.88L170.544 102.4V102.12H170.984V106.4H176.544V106.96H170.984V122.32C170.984 123.88 172.104 124.72 173.544 124.72C174.624 124.72 175.744 124.32 176.824 123.24L176.984 123.36C176.704 123.84 175.344 126.2 172.104 126.2C169.824 126.2 168.184 125.04 168.184 122.44V106.96H166.064ZM192.932 106.04L192.852 114.32V123.72L195.812 124.52V124.8L190.052 126V108.12L187.052 107.52V107.28L192.932 106.04ZM181.612 106.4V120.84C181.612 124.32 184.492 125.76 188.412 124.16V124.4C187.412 125.32 185.812 126.32 183.732 126.32C181.132 126.32 178.812 124.84 178.812 121.04V107.88L176.252 106.68V106.4H181.612ZM206.928 120.96V121.24C206.928 123.64 208.328 124.96 210.368 124.96C211.288 124.96 212.248 124.68 213.328 124.08V124.32C212.688 124.84 211.168 126.2 208.728 126.2C205.848 126.2 203.928 124.32 203.928 121.6C203.928 117.64 207.688 116 211.568 116H213.008V116.28C209.008 116.4 206.928 118.28 206.928 120.96ZM208.368 106.56L208.328 106.28C209.248 106.12 210.128 106 211.528 106C215.208 106 217.448 107.88 217.448 111.44V123.16C217.448 124.4 218.048 125.2 219.288 125.2C219.648 125.2 220.128 125.08 220.728 124.88L220.808 125.04C220.368 125.4 219.288 126.24 217.568 126.24C215.848 126.24 214.648 125.36 214.648 123.32V111.72C214.648 107.92 212.368 105.96 208.368 106.56ZM204.888 109.96C204.888 108.84 205.768 108 206.768 108C207.848 108 208.688 108.84 208.688 109.96C208.688 110.92 207.848 111.8 206.768 111.8C205.768 111.8 204.888 110.92 204.888 109.96ZM237.483 125.16L239.923 125.76V126H232.003V125.76L234.683 125.16V111.56C234.683 108.2 231.803 106.32 227.483 108.24V108C228.723 107.04 230.683 106.08 232.603 106.08C235.203 106.08 237.483 107.68 237.483 111.36V125.16ZM223.043 125.16V107.88L220.483 106.68V106.4H225.843V125.16L229.243 125.76V126H220.203V125.76L223.043 125.16ZM240.33 106.96V106.4H242.45V105.88L244.81 102.4V102.12H245.25V106.4H250.81V106.96H245.25V122.32C245.25 123.88 246.37 124.72 247.81 124.72C248.89 124.72 250.01 124.32 251.09 123.24L251.25 123.36C250.97 123.84 249.61 126.2 246.37 126.2C244.09 126.2 242.45 125.04 242.45 122.44V106.96H240.33ZM253.077 99.12C253.077 98.04 253.877 97.2 254.957 97.2C256.037 97.2 256.917 98.04 256.917 99.12C256.917 100.12 256.037 101 254.957 101C253.877 101 253.077 100.12 253.077 99.12ZM253.437 125.16V107.88L250.877 106.68V106.4H256.237V125.16L258.837 125.76V126H250.597V125.76L253.437 125.16ZM259.679 117V116.84C259.679 110.08 264.319 106.12 269.239 106.12V106.36C266.999 106.56 262.479 108.96 262.479 115.84V116.04C262.479 121.6 265.679 124.48 269.519 124.48C271.399 124.48 273.399 123.92 275.279 122.6L275.439 122.84C274.039 124.52 271.319 126.2 267.959 126.2C262.919 126.2 259.679 122.36 259.679 117ZM270.959 109.96C270.959 108.84 271.839 108 272.839 108C273.919 108 274.759 108.84 274.759 109.96C274.759 110.92 273.919 111.8 272.839 111.8C271.839 111.8 270.959 110.92 270.959 109.96ZM278.237 99.12C278.237 98.04 279.037 97.2 280.117 97.2C281.197 97.2 282.077 98.04 282.077 99.12C282.077 100.12 281.197 101 280.117 101C279.037 101 278.237 100.12 278.237 99.12ZM278.597 125.16V107.88L276.037 106.68V106.4H281.397V125.16L283.997 125.76V126H275.757V125.76L278.597 125.16ZM295.158 106C298.718 106 302.518 108.76 302.518 115.68C302.518 121.76 299.238 126.16 293.758 126.16C292.918 126.16 291.998 126.04 291.038 125.8V125.52H291.318C295.918 125.52 299.558 122.8 299.558 115.68C299.558 109.76 296.278 107.64 293.398 107.64C291.798 107.64 290.678 108.04 289.398 108.8V132.8L292.798 133.4V133.64H283.758V133.4L286.598 132.8V107.88L284.038 106.68V106.4H289.398V108.36C290.558 107.28 292.438 106 295.158 106ZM317.773 116.24V116.04C317.773 107.64 314.413 106.52 313.453 106.32V106.08C317.853 106.6 320.893 110.76 320.893 116.04V116.24C320.893 121.48 317.853 125.64 313.453 126.16V125.92C314.413 125.72 317.773 124.64 317.773 116.24ZM307.453 116.04V116.24C307.453 124.64 310.813 125.72 311.773 125.92V126.16C307.373 125.64 304.333 121.48 304.333 116.24V116.04C304.333 110.76 307.373 106.6 311.773 106.08V106.32C310.813 106.52 307.453 107.64 307.453 116.04ZM337.557 126.16C333.997 126.16 330.197 123.4 330.197 116.48C330.197 110.4 333.477 106 338.957 106C339.797 106 340.717 106.12 341.677 106.36V106.64L341.157 106.56C336.197 105.8 333.157 109.32 333.157 116.08C333.157 122.4 336.437 124.52 339.317 124.52C340.917 124.52 342.037 124.12 343.357 123.36V99.12L340.397 98.72V98.44L346.317 97.08L346.157 108.68V124.2L349.237 125V125.24L343.357 126.2V123.8C342.197 124.88 340.277 126.16 337.557 126.16ZM349.964 117V116.84C349.964 109.68 354.044 106.32 357.844 106.12V106.36C357.084 106.68 352.764 107.72 352.764 115.04V115.68C352.764 121.76 355.764 124.48 359.524 124.48C361.764 124.48 363.284 123.84 365.164 122.68L365.324 122.92C363.564 124.8 361.244 126.2 358.004 126.2C352.964 126.2 349.964 122.4 349.964 117ZM354.564 114.6V114.32L362.404 114.12C362.844 109.08 361.164 106.84 359.684 106.08C363.844 106.4 365.444 110.08 365.444 113.56V114.6H354.564ZM376.772 125.16V107.88L374.212 106.68V106.4H379.572V125.16L382.972 125.76V126H373.932V125.76L376.772 125.16ZM382.612 108.04C382.612 106.92 383.492 106.08 384.492 106.08C385.572 106.08 386.412 106.92 386.412 108.04C386.412 109 385.572 109.88 384.492 109.88C383.492 109.88 382.612 109 382.612 108.04ZM386.57 117V116.84C386.57 109.68 390.65 106.32 394.45 106.12V106.36C393.69 106.68 389.37 107.72 389.37 115.04V115.68C389.37 121.76 392.37 124.48 396.13 124.48C398.37 124.48 399.89 123.84 401.77 122.68L401.93 122.92C400.17 124.8 397.85 126.2 394.61 126.2C389.57 126.2 386.57 122.4 386.57 117ZM391.17 114.6V114.32L399.01 114.12C399.45 109.08 397.77 106.84 396.29 106.08C400.45 106.4 402.05 110.08 402.05 113.56V114.6H391.17ZM420.316 125.16L422.756 125.76V126H414.836V125.76L417.516 125.16V111.56C417.516 108.2 414.636 106.32 410.316 108.24V108C411.556 107.04 413.516 106.08 415.436 106.08C418.036 106.08 420.316 107.68 420.316 111.36V125.16ZM405.876 125.16V107.88L403.316 106.68V106.4H408.676V125.16L412.076 125.76V126H403.036V125.76L405.876 125.16ZM423.162 106.96V106.4H425.282V105.88L427.642 102.4V102.12H428.082V106.4H433.642V106.96H428.082V122.32C428.082 123.88 429.202 124.72 430.642 124.72C431.722 124.72 432.842 124.32 433.922 123.24L434.082 123.36C433.802 123.84 432.442 126.2 429.202 126.2C426.922 126.2 425.282 125.04 425.282 122.44V106.96H423.162ZM437.07 120.96V121.24C437.07 123.64 438.47 124.96 440.51 124.96C441.43 124.96 442.39 124.68 443.47 124.08V124.32C442.83 124.84 441.31 126.2 438.87 126.2C435.99 126.2 434.07 124.32 434.07 121.6C434.07 117.64 437.83 116 441.71 116H443.15V116.28C439.15 116.4 437.07 118.28 437.07 120.96ZM438.51 106.56L438.47 106.28C439.39 106.12 440.27 106 441.67 106C445.35 106 447.59 107.88 447.59 111.44V123.16C447.59 124.4 448.19 125.2 449.43 125.2C449.79 125.2 450.27 125.08 450.87 124.88L450.95 125.04C450.51 125.4 449.43 126.24 447.71 126.24C445.99 126.24 444.79 125.36 444.79 123.32V111.72C444.79 107.92 442.51 105.96 438.51 106.56ZM435.03 109.96C435.03 108.84 435.91 108 436.91 108C437.99 108 438.83 108.84 438.83 109.96C438.83 110.92 437.99 111.8 436.91 111.8C435.91 111.8 435.03 110.92 435.03 109.96Z" fill="#0EBE54"/>
<path d="M96.687 183.822V186H89.163V183.822H91.863V176.37H91.791L89.145 178.782V175.812L91.809 173.4H94.257V183.822H96.687ZM100.114 186.144C99.7184 186.144 99.3824 186.012 99.1064 185.748C98.8424 185.472 98.7104 185.136 98.7104 184.74C98.7104 184.344 98.8424 184.008 99.1064 183.732C99.3824 183.456 99.7184 183.318 100.114 183.318C100.522 183.318 100.858 183.456 101.122 183.732C101.398 184.008 101.536 184.344 101.536 184.74C101.536 185.124 101.398 185.454 101.122 185.73C100.858 186.006 100.522 186.144 100.114 186.144ZM110.152 173.4H112.672V186H110.152V173.4ZM114.983 176.496H117.503V177.954H117.629C117.845 177.486 118.193 177.09 118.673 176.766C119.153 176.43 119.735 176.262 120.419 176.262C121.655 176.262 122.525 176.658 123.029 177.45C123.545 178.242 123.803 179.142 123.803 180.15V186H121.319V180.564C121.319 179.868 121.151 179.322 120.815 178.926C120.491 178.53 120.029 178.332 119.429 178.332C118.793 178.332 118.313 178.542 117.989 178.962C117.665 179.37 117.503 179.904 117.503 180.564V186H114.983V176.496ZM130.383 189.996C129.939 189.996 129.603 189.966 129.375 189.906C129.147 189.858 128.919 189.792 128.691 189.708V187.71C128.811 187.746 129.003 187.782 129.267 187.818C129.543 187.866 129.807 187.89 130.059 187.89C130.899 187.89 131.487 187.65 131.823 187.17C132.171 186.702 132.345 186.114 132.345 185.406V184.146H132.201C132.009 184.578 131.673 184.98 131.193 185.352C130.713 185.724 130.077 185.91 129.285 185.91C128.517 185.91 127.851 185.712 127.287 185.316C126.723 184.908 126.291 184.344 125.991 183.624C125.691 182.892 125.541 182.052 125.541 181.104C125.541 180.132 125.691 179.286 125.991 178.566C126.291 177.834 126.723 177.27 127.287 176.874C127.863 176.466 128.535 176.262 129.303 176.262C130.107 176.262 130.749 176.46 131.229 176.856C131.709 177.24 132.033 177.648 132.201 178.08H132.345V176.496H134.847V185.406C134.847 186.018 134.733 186.666 134.505 187.35C134.289 188.046 133.851 188.658 133.191 189.186C132.531 189.726 131.595 189.996 130.383 189.996ZM130.221 183.894C130.917 183.894 131.445 183.612 131.805 183.048C132.165 182.484 132.345 181.824 132.345 181.068C132.345 180.324 132.165 179.676 131.805 179.124C131.457 178.56 130.929 178.278 130.221 178.278C129.513 178.278 128.979 178.56 128.619 179.124C128.259 179.676 128.079 180.324 128.079 181.068C128.079 181.824 128.253 182.484 128.601 183.048C128.961 183.612 129.501 183.894 130.221 183.894ZM136.975 176.496H139.441V178.008H139.567C139.723 177.588 140.011 177.234 140.431 176.946C140.851 176.646 141.391 176.496 142.051 176.496C142.303 176.496 142.519 176.52 142.699 176.568L142.591 178.854C142.291 178.77 141.973 178.728 141.637 178.728C140.893 178.728 140.341 178.926 139.981 179.322C139.621 179.706 139.441 180.348 139.441 181.248V186H136.975V176.496ZM148.059 186.144C147.063 186.144 146.223 185.916 145.539 185.46C144.855 184.992 144.345 184.386 144.009 183.642C143.685 182.886 143.523 182.076 143.523 181.212C143.523 180.348 143.685 179.544 144.009 178.8C144.345 178.044 144.855 177.432 145.539 176.964C146.223 176.496 147.069 176.262 148.077 176.262C149.409 176.262 150.465 176.688 151.245 177.54C152.037 178.392 152.433 179.622 152.433 181.23V181.914H145.917V182.058C145.917 182.634 146.115 183.132 146.511 183.552C146.907 183.96 147.405 184.164 148.005 184.164C148.473 184.164 148.869 184.056 149.193 183.84C149.517 183.624 149.751 183.33 149.895 182.958H152.343C152.091 183.894 151.599 184.662 150.867 185.262C150.135 185.85 149.199 186.144 148.059 186.144ZM150.039 180.294C150.015 179.538 149.823 178.98 149.463 178.62C149.103 178.26 148.629 178.08 148.041 178.08C147.417 178.08 146.925 178.278 146.565 178.674C146.205 179.07 146.013 179.61 145.989 180.294H150.039ZM157.71 186.144C156.906 186.144 156.21 185.994 155.622 185.694C155.046 185.394 154.608 185.004 154.308 184.524C154.008 184.032 153.858 183.516 153.858 182.976V182.868H156.288V182.976C156.288 183.3 156.414 183.588 156.666 183.84C156.918 184.092 157.284 184.218 157.764 184.218C158.16 184.218 158.478 184.128 158.718 183.948C158.97 183.756 159.096 183.498 159.096 183.174C159.096 182.886 158.988 182.658 158.772 182.49C158.556 182.322 158.286 182.214 157.962 182.166L156.882 181.95C156.174 181.818 155.532 181.536 154.956 181.104C154.38 180.672 154.092 180.018 154.092 179.142C154.092 178.242 154.422 177.54 155.082 177.036C155.742 176.52 156.588 176.262 157.62 176.262C158.376 176.262 159.03 176.4 159.582 176.676C160.134 176.952 160.554 177.318 160.842 177.774C161.13 178.218 161.274 178.698 161.274 179.214V179.286H158.844V179.232C158.844 178.944 158.736 178.68 158.52 178.44C158.304 178.188 157.974 178.062 157.53 178.062C157.158 178.062 156.858 178.158 156.63 178.35C156.402 178.542 156.288 178.794 156.288 179.106C156.288 179.394 156.402 179.622 156.63 179.79C156.87 179.958 157.164 180.072 157.512 180.132L158.7 180.366C159.468 180.534 160.116 180.84 160.644 181.284C161.172 181.716 161.436 182.334 161.436 183.138C161.436 183.738 161.274 184.266 160.95 184.722C160.626 185.178 160.176 185.532 159.6 185.784C159.036 186.024 158.406 186.144 157.71 186.144ZM166.443 186.144C165.267 186.144 164.349 185.694 163.689 184.794C163.029 183.894 162.699 182.706 162.699 181.23C162.699 179.73 163.029 178.53 163.689 177.63C164.361 176.718 165.297 176.262 166.497 176.262C167.301 176.262 167.931 176.448 168.387 176.82C168.843 177.18 169.167 177.564 169.359 177.972H169.503V176.496H172.005V186H169.503V184.362H169.359C169.143 184.806 168.807 185.214 168.351 185.586C167.895 185.958 167.259 186.144 166.443 186.144ZM167.361 184.128C168.069 184.128 168.603 183.84 168.963 183.264C169.323 182.688 169.503 181.998 169.503 181.194C169.503 180.39 169.323 179.706 168.963 179.142C168.615 178.578 168.081 178.296 167.361 178.296C166.641 178.296 166.107 178.578 165.759 179.142C165.411 179.706 165.237 180.39 165.237 181.194C165.237 182.01 165.411 182.706 165.759 183.282C166.107 183.846 166.641 184.128 167.361 184.128ZM181.899 178.44V182.67C181.899 183.09 181.917 183.402 181.953 183.606C182.001 183.81 182.121 183.972 182.313 184.092C182.505 184.212 182.817 184.272 183.249 184.272C183.501 184.272 183.759 184.248 184.023 184.2V185.928C183.891 185.952 183.651 185.982 183.303 186.018C182.967 186.054 182.637 186.072 182.313 186.072C181.437 186.072 180.783 185.946 180.351 185.694C179.931 185.43 179.667 185.106 179.559 184.722C179.451 184.326 179.397 183.822 179.397 183.21V178.44H177.813V176.496H179.415V173.4H181.899V176.496H184.023V178.44H181.899ZM194.551 186H192.049V184.488H191.923C191.707 184.956 191.365 185.358 190.897 185.694C190.441 186.018 189.877 186.18 189.205 186.18C187.993 186.18 187.141 185.784 186.649 184.992C186.157 184.188 185.911 183.288 185.911 182.292V176.496H188.395V181.878C188.395 182.562 188.551 183.108 188.863 183.516C189.175 183.912 189.619 184.11 190.195 184.11C190.819 184.11 191.281 183.9 191.581 183.48C191.893 183.06 192.049 182.526 192.049 181.878V176.496H194.551V186ZM200.766 176.496H203.232V178.008H203.358C203.514 177.588 203.802 177.234 204.222 176.946C204.642 176.646 205.182 176.496 205.842 176.496C206.094 176.496 206.31 176.52 206.49 176.568L206.382 178.854C206.082 178.77 205.764 178.728 205.428 178.728C204.684 178.728 204.132 178.926 203.772 179.322C203.412 179.706 203.232 180.348 203.232 181.248V186H200.766V176.496ZM211.85 186.144C210.854 186.144 210.014 185.916 209.33 185.46C208.646 184.992 208.136 184.386 207.8 183.642C207.476 182.886 207.314 182.076 207.314 181.212C207.314 180.348 207.476 179.544 207.8 178.8C208.136 178.044 208.646 177.432 209.33 176.964C210.014 176.496 210.86 176.262 211.868 176.262C213.2 176.262 214.256 176.688 215.036 177.54C215.828 178.392 216.224 179.622 216.224 181.23V181.914H209.708V182.058C209.708 182.634 209.906 183.132 210.302 183.552C210.698 183.96 211.196 184.164 211.796 184.164C212.264 184.164 212.66 184.056 212.984 183.84C213.308 183.624 213.542 183.33 213.686 182.958H216.134C215.882 183.894 215.39 184.662 214.658 185.262C213.926 185.85 212.99 186.144 211.85 186.144ZM213.83 180.294C213.806 179.538 213.614 178.98 213.254 178.62C212.894 178.26 212.42 178.08 211.832 178.08C211.208 178.08 210.716 178.278 210.356 178.674C209.996 179.07 209.804 179.61 209.78 180.294H213.83ZM217.973 176.496H220.493V177.954H220.619C220.835 177.486 221.183 177.09 221.663 176.766C222.143 176.43 222.725 176.262 223.409 176.262C224.645 176.262 225.515 176.658 226.019 177.45C226.535 178.242 226.793 179.142 226.793 180.15V186H224.309V180.564C224.309 179.868 224.141 179.322 223.805 178.926C223.481 178.53 223.019 178.332 222.419 178.332C221.783 178.332 221.303 178.542 220.979 178.962C220.655 179.37 220.493 179.904 220.493 180.564V186H217.973V176.496ZM232.172 178.44V182.67C232.172 183.09 232.19 183.402 232.226 183.606C232.274 183.81 232.394 183.972 232.586 184.092C232.778 184.212 233.09 184.272 233.522 184.272C233.774 184.272 234.032 184.248 234.296 184.2V185.928C234.164 185.952 233.924 185.982 233.576 186.018C233.24 186.054 232.91 186.072 232.586 186.072C231.71 186.072 231.056 185.946 230.624 185.694C230.204 185.43 229.94 185.106 229.832 184.722C229.724 184.326 229.67 183.822 229.67 183.21V178.44H228.086V176.496H229.688V173.4H232.172V176.496H234.296V178.44H232.172ZM239.55 186.144C238.374 186.144 237.456 185.694 236.796 184.794C236.136 183.894 235.806 182.706 235.806 181.23C235.806 179.73 236.136 178.53 236.796 177.63C237.468 176.718 238.404 176.262 239.604 176.262C240.408 176.262 241.038 176.448 241.494 176.82C241.95 177.18 242.274 177.564 242.466 177.972H242.61V176.496H245.112V186H242.61V184.362H242.466C242.25 184.806 241.914 185.214 241.458 185.586C241.002 185.958 240.366 186.144 239.55 186.144ZM240.468 184.128C241.176 184.128 241.71 183.84 242.07 183.264C242.43 182.688 242.61 181.998 242.61 181.194C242.61 180.39 242.43 179.706 242.07 179.142C241.722 178.578 241.188 178.296 240.468 178.296C239.748 178.296 239.214 178.578 238.866 179.142C238.518 179.706 238.344 180.39 238.344 181.194C238.344 182.01 238.518 182.706 238.866 183.282C239.214 183.846 239.748 184.128 240.468 184.128ZM251.442 176.496H253.944V178.026H254.07C254.202 177.69 254.478 177.312 254.898 176.892C255.318 176.472 255.93 176.262 256.734 176.262C257.358 176.262 257.88 176.406 258.3 176.694C258.72 176.982 259.026 177.288 259.218 177.612C259.422 177.924 259.542 178.152 259.578 178.296H259.704C259.848 177.912 260.148 177.48 260.604 177C261.06 176.508 261.762 176.262 262.71 176.262C263.538 176.262 264.192 176.478 264.672 176.91C265.164 177.33 265.506 177.84 265.698 178.44C265.902 179.028 266.004 179.598 266.004 180.15V186H263.502V180.402C263.502 179.754 263.334 179.262 262.998 178.926C262.662 178.59 262.254 178.422 261.774 178.422C261.282 178.422 260.856 178.596 260.496 178.944C260.148 179.292 259.974 179.778 259.974 180.402V186H257.472V180.402C257.472 179.754 257.304 179.262 256.968 178.926C256.632 178.59 256.224 178.422 255.744 178.422C255.252 178.422 254.826 178.596 254.466 178.944C254.118 179.292 253.944 179.778 253.944 180.402V186H251.442V176.496ZM272.284 186.144C271.288 186.144 270.448 185.916 269.764 185.46C269.08 184.992 268.57 184.386 268.234 183.642C267.91 182.886 267.748 182.076 267.748 181.212C267.748 180.348 267.91 179.544 268.234 178.8C268.57 178.044 269.08 177.432 269.764 176.964C270.448 176.496 271.294 176.262 272.302 176.262C273.634 176.262 274.69 176.688 275.47 177.54C276.262 178.392 276.658 179.622 276.658 181.23V181.914H270.142V182.058C270.142 182.634 270.34 183.132 270.736 183.552C271.132 183.96 271.63 184.164 272.23 184.164C272.698 184.164 273.094 184.056 273.418 183.84C273.742 183.624 273.976 183.33 274.12 182.958H276.568C276.316 183.894 275.824 184.662 275.092 185.262C274.36 185.85 273.424 186.144 272.284 186.144ZM274.264 180.294C274.24 179.538 274.048 178.98 273.688 178.62C273.328 178.26 272.854 178.08 272.266 178.08C271.642 178.08 271.15 178.278 270.79 178.674C270.43 179.07 270.238 179.61 270.214 180.294H274.264ZM278.407 176.496H280.927V177.954H281.053C281.269 177.486 281.617 177.09 282.097 176.766C282.577 176.43 283.159 176.262 283.843 176.262C285.079 176.262 285.949 176.658 286.453 177.45C286.969 178.242 287.227 179.142 287.227 180.15V186H284.743V180.564C284.743 179.868 284.575 179.322 284.239 178.926C283.915 178.53 283.453 178.332 282.853 178.332C282.217 178.332 281.737 178.542 281.413 178.962C281.089 179.37 280.927 179.904 280.927 180.564V186H278.407V176.496ZM292.745 186.144C291.941 186.144 291.245 185.994 290.657 185.694C290.081 185.394 289.643 185.004 289.343 184.524C289.043 184.032 288.893 183.516 288.893 182.976V182.868H291.323V182.976C291.323 183.3 291.449 183.588 291.701 183.84C291.953 184.092 292.319 184.218 292.799 184.218C293.195 184.218 293.513 184.128 293.753 183.948C294.005 183.756 294.131 183.498 294.131 183.174C294.131 182.886 294.023 182.658 293.807 182.49C293.591 182.322 293.321 182.214 292.997 182.166L291.917 181.95C291.209 181.818 290.567 181.536 289.991 181.104C289.415 180.672 289.127 180.018 289.127 179.142C289.127 178.242 289.457 177.54 290.117 177.036C290.777 176.52 291.623 176.262 292.655 176.262C293.411 176.262 294.065 176.4 294.617 176.676C295.169 176.952 295.589 177.318 295.877 177.774C296.165 178.218 296.309 178.698 296.309 179.214V179.286H293.879V179.232C293.879 178.944 293.771 178.68 293.555 178.44C293.339 178.188 293.009 178.062 292.565 178.062C292.193 178.062 291.893 178.158 291.665 178.35C291.437 178.542 291.323 178.794 291.323 179.106C291.323 179.394 291.437 179.622 291.665 179.79C291.905 179.958 292.199 180.072 292.547 180.132L293.735 180.366C294.503 180.534 295.151 180.84 295.679 181.284C296.207 181.716 296.471 182.334 296.471 183.138C296.471 183.738 296.309 184.266 295.985 184.722C295.661 185.178 295.211 185.532 294.635 185.784C294.071 186.024 293.441 186.144 292.745 186.144ZM306.752 186H304.25V184.488H304.124C303.908 184.956 303.566 185.358 303.098 185.694C302.642 186.018 302.078 186.18 301.406 186.18C300.194 186.18 299.342 185.784 298.85 184.992C298.358 184.188 298.112 183.288 298.112 182.292V176.496H300.596V181.878C300.596 182.562 300.752 183.108 301.064 183.516C301.376 183.912 301.82 184.11 302.396 184.11C303.02 184.11 303.482 183.9 303.782 183.48C304.094 183.06 304.25 182.526 304.25 181.878V176.496H306.752V186ZM312.113 186.144C310.937 186.144 310.019 185.694 309.359 184.794C308.699 183.894 308.369 182.706 308.369 181.23C308.369 179.73 308.699 178.53 309.359 177.63C310.031 176.718 310.967 176.262 312.167 176.262C312.971 176.262 313.601 176.448 314.057 176.82C314.513 177.18 314.837 177.564 315.029 177.972H315.173V176.496H317.675V186H315.173V184.362H315.029C314.813 184.806 314.477 185.214 314.021 185.586C313.565 185.958 312.929 186.144 312.113 186.144ZM313.031 184.128C313.739 184.128 314.273 183.84 314.633 183.264C314.993 182.688 315.173 181.998 315.173 181.194C315.173 180.39 314.993 179.706 314.633 179.142C314.285 178.578 313.751 178.296 313.031 178.296C312.311 178.296 311.777 178.578 311.429 179.142C311.081 179.706 310.907 180.39 310.907 181.194C310.907 182.01 311.081 182.706 311.429 183.282C311.777 183.846 312.311 184.128 313.031 184.128ZM322.898 186.072C322.01 186.072 321.35 185.94 320.918 185.676C320.498 185.4 320.234 185.064 320.126 184.668C320.03 184.26 319.982 183.744 319.982 183.12V172.5H322.466V182.616C322.466 183.048 322.484 183.372 322.52 183.588C322.568 183.792 322.688 183.96 322.88 184.092C323.084 184.212 323.402 184.272 323.834 184.272C323.978 184.272 324.146 184.26 324.338 184.236V185.964C323.726 186.036 323.246 186.072 322.898 186.072ZM327.845 186.144C327.449 186.144 327.113 186.012 326.837 185.748C326.573 185.472 326.441 185.136 326.441 184.74C326.441 184.344 326.573 184.008 326.837 183.732C327.113 183.456 327.449 183.318 327.845 183.318C328.253 183.318 328.589 183.456 328.853 183.732C329.129 184.008 329.267 184.344 329.267 184.74C329.267 185.124 329.129 185.454 328.853 185.73C328.589 186.006 328.253 186.144 327.845 186.144Z" fill="#323232"/>
<rect x="82" y="208" width="337" height="55" rx="20" fill="#ECECEC"/>
<path d="M112.14 243.12C111.18 243.12 110.34 242.933 109.62 242.56C108.913 242.173 108.353 241.68 107.94 241.08C107.54 240.467 107.287 239.8 107.18 239.08H109.62C109.78 239.707 110.087 240.18 110.54 240.5C110.993 240.807 111.513 240.96 112.1 240.96C112.9 240.96 113.52 240.7 113.96 240.18C114.413 239.647 114.64 238.967 114.64 238.14C114.64 237.273 114.4 236.593 113.92 236.1C113.453 235.607 112.833 235.36 112.06 235.36C110.967 235.36 110.207 235.86 109.78 236.86L107.36 236.78L107.74 229H116.18V231.22H109.72L109.52 235H109.62C109.833 234.693 110.167 234.387 110.62 234.08C111.087 233.773 111.767 233.62 112.66 233.62C114.007 233.62 115.073 234.027 115.86 234.84C116.66 235.653 117.06 236.753 117.06 238.14C117.06 239.047 116.867 239.88 116.48 240.64C116.107 241.387 115.547 241.987 114.8 242.44C114.067 242.893 113.18 243.12 112.14 243.12ZM124.132 243.26C122.359 243.26 121.039 242.673 120.172 241.5C119.306 240.313 118.872 238.767 118.872 236.86V235.08C118.872 233.173 119.306 231.64 120.172 230.48C121.039 229.307 122.359 228.72 124.132 228.72C125.906 228.72 127.226 229.307 128.092 230.48C128.959 231.64 129.392 233.173 129.392 235.08V236.86C129.392 238.767 128.959 240.313 128.092 241.5C127.226 242.673 125.906 243.26 124.132 243.26ZM124.132 241.14C125.852 241.14 126.712 239.727 126.712 236.9V235.02C126.712 232.22 125.852 230.82 124.132 230.82C122.412 230.82 121.552 232.22 121.552 235.02V236.9C121.552 239.727 122.412 241.14 124.132 241.14ZM136.495 243.26C134.722 243.26 133.402 242.673 132.535 241.5C131.669 240.313 131.235 238.767 131.235 236.86V235.08C131.235 233.173 131.669 231.64 132.535 230.48C133.402 229.307 134.722 228.72 136.495 228.72C138.269 228.72 139.589 229.307 140.455 230.48C141.322 231.64 141.755 233.173 141.755 235.08V236.86C141.755 238.767 141.322 240.313 140.455 241.5C139.589 242.673 138.269 243.26 136.495 243.26ZM136.495 241.14C138.215 241.14 139.075 239.727 139.075 236.9V235.02C139.075 232.22 138.215 230.82 136.495 230.82C134.775 230.82 133.915 232.22 133.915 235.02V236.9C133.915 239.727 134.775 241.14 136.495 241.14ZM150.28 241.02C151.053 241.02 151.706 240.787 152.24 240.32C152.773 239.84 153.146 239.227 153.36 238.48H155.68C155.386 239.867 154.766 240.993 153.82 241.86C152.886 242.727 151.693 243.16 150.24 243.16C148.733 243.16 147.486 242.687 146.5 241.74C145.526 240.78 144.886 239.533 144.58 238H142.92V236.86H144.42C144.406 236.7 144.4 236.453 144.4 236.12C144.4 235.787 144.406 235.54 144.42 235.38H142.92V234.24H144.58C144.886 232.72 145.526 231.487 146.5 230.54C147.486 229.593 148.733 229.12 150.24 229.12C151.72 229.12 152.933 229.567 153.88 230.46C154.84 231.353 155.466 232.533 155.76 234H153.44C153.253 233.187 152.873 232.52 152.3 232C151.74 231.48 151.066 231.22 150.28 231.22C149.44 231.22 148.746 231.487 148.2 232.02C147.666 232.553 147.293 233.293 147.08 234.24H150.5V235.38H146.92C146.906 235.54 146.9 235.787 146.9 236.12C146.9 236.453 146.906 236.7 146.92 236.86H150.5V238H147.08C147.293 238.947 147.666 239.687 148.2 240.22C148.746 240.753 149.44 241.02 150.28 241.02Z" fill="#3B3BF1"/>
<path d="M87.6089 335.876L89.6069 334.13L90.4529 333.428C91.2449 332.78 91.8629 332.252 92.3069 331.844C92.7509 331.436 93.1169 331.004 93.4049 330.548C93.6929 330.08 93.8369 329.606 93.8369 329.126C93.8369 328.61 93.6809 328.172 93.3689 327.812C93.0569 327.452 92.5829 327.272 91.9469 327.272C91.1669 327.272 90.6449 327.5 90.3809 327.956C90.1289 328.4 90.0029 328.874 90.0029 329.378V329.594H87.5549C87.5549 328.694 87.7289 327.908 88.0769 327.236C88.4369 326.564 88.9409 326.048 89.5889 325.688C90.2489 325.316 91.0229 325.13 91.9109 325.13C92.8109 325.13 93.5789 325.304 94.2149 325.652C94.8629 325.988 95.3489 326.45 95.6729 327.038C96.0089 327.626 96.1769 328.274 96.1769 328.982C96.1769 329.69 96.0269 330.338 95.7269 330.926C95.4269 331.502 95.0669 332.006 94.6469 332.438C94.2269 332.858 93.6869 333.344 93.0269 333.896L92.7389 334.148L90.8849 335.732V335.822H96.2849V338H87.6269L87.6089 335.876ZM100.114 338.144C99.7184 338.144 99.3824 338.012 99.1064 337.748C98.8424 337.472 98.7104 337.136 98.7104 336.74C98.7104 336.344 98.8424 336.008 99.1064 335.732C99.3824 335.456 99.7184 335.318 100.114 335.318C100.522 335.318 100.858 335.456 101.122 335.732C101.398 336.008 101.536 336.344 101.536 336.74C101.536 337.124 101.398 337.454 101.122 337.73C100.858 338.006 100.522 338.144 100.114 338.144ZM112.546 327.578V330.62H117.496V332.582H112.546V335.822H118.378V338H110.044V325.4H118.378V327.578H112.546ZM123.281 338.072C122.393 338.072 121.733 337.94 121.301 337.676C120.881 337.4 120.617 337.064 120.509 336.668C120.413 336.26 120.365 335.744 120.365 335.12V324.5H122.849V334.616C122.849 335.048 122.867 335.372 122.903 335.588C122.951 335.792 123.071 335.96 123.263 336.092C123.467 336.212 123.785 336.272 124.217 336.272C124.361 336.272 124.529 336.26 124.721 336.236V337.964C124.109 338.036 123.629 338.072 123.281 338.072ZM126.662 328.496H129.146V338H126.662V328.496ZM127.886 326.858C127.49 326.858 127.16 326.726 126.896 326.462C126.632 326.186 126.5 325.856 126.5 325.472C126.5 325.076 126.632 324.746 126.896 324.482C127.16 324.218 127.49 324.086 127.886 324.086C128.282 324.086 128.612 324.224 128.876 324.5C129.14 324.764 129.272 325.088 129.272 325.472C129.272 325.856 129.14 326.186 128.876 326.462C128.612 326.726 128.282 326.858 127.886 326.858ZM136.043 341.996C135.599 341.996 135.263 341.966 135.035 341.906C134.807 341.858 134.579 341.792 134.351 341.708V339.71C134.471 339.746 134.663 339.782 134.927 339.818C135.203 339.866 135.467 339.89 135.719 339.89C136.559 339.89 137.147 339.65 137.483 339.17C137.831 338.702 138.005 338.114 138.005 337.406V336.146H137.861C137.669 336.578 137.333 336.98 136.853 337.352C136.373 337.724 135.737 337.91 134.945 337.91C134.177 337.91 133.511 337.712 132.947 337.316C132.383 336.908 131.951 336.344 131.651 335.624C131.351 334.892 131.201 334.052 131.201 333.104C131.201 332.132 131.351 331.286 131.651 330.566C131.951 329.834 132.383 329.27 132.947 328.874C133.523 328.466 134.195 328.262 134.963 328.262C135.767 328.262 136.409 328.46 136.889 328.856C137.369 329.24 137.693 329.648 137.861 330.08H138.005V328.496H140.507V337.406C140.507 338.018 140.393 338.666 140.165 339.35C139.949 340.046 139.511 340.658 138.851 341.186C138.191 341.726 137.255 341.996 136.043 341.996ZM135.881 335.894C136.577 335.894 137.105 335.612 137.465 335.048C137.825 334.484 138.005 333.824 138.005 333.068C138.005 332.324 137.825 331.676 137.465 331.124C137.117 330.56 136.589 330.278 135.881 330.278C135.173 330.278 134.639 330.56 134.279 331.124C133.919 331.676 133.739 332.324 133.739 333.068C133.739 333.824 133.913 334.484 134.261 335.048C134.621 335.612 135.161 335.894 135.881 335.894ZM147.04 338.144C146.044 338.144 145.204 337.916 144.52 337.46C143.836 336.992 143.326 336.386 142.99 335.642C142.666 334.886 142.504 334.076 142.504 333.212C142.504 332.348 142.666 331.544 142.99 330.8C143.326 330.044 143.836 329.432 144.52 328.964C145.204 328.496 146.05 328.262 147.058 328.262C148.39 328.262 149.446 328.688 150.226 329.54C151.018 330.392 151.414 331.622 151.414 333.23V333.914H144.898V334.058C144.898 334.634 145.096 335.132 145.492 335.552C145.888 335.96 146.386 336.164 146.986 336.164C147.454 336.164 147.85 336.056 148.174 335.84C148.498 335.624 148.732 335.33 148.876 334.958H151.324C151.072 335.894 150.58 336.662 149.848 337.262C149.116 337.85 148.18 338.144 147.04 338.144ZM149.02 332.294C148.996 331.538 148.804 330.98 148.444 330.62C148.084 330.26 147.61 330.08 147.022 330.08C146.398 330.08 145.906 330.278 145.546 330.674C145.186 331.07 144.994 331.61 144.97 332.294H149.02ZM160.353 338.072C159.465 338.072 158.805 337.94 158.373 337.676C157.953 337.4 157.689 337.064 157.581 336.668C157.485 336.26 157.437 335.744 157.437 335.12V324.5H159.921V334.616C159.921 335.048 159.939 335.372 159.975 335.588C160.023 335.792 160.143 335.96 160.335 336.092C160.539 336.212 160.857 336.272 161.289 336.272C161.433 336.272 161.601 336.26 161.793 336.236V337.964C161.181 338.036 160.701 338.072 160.353 338.072ZM166.812 338.144C165.636 338.144 164.718 337.694 164.058 336.794C163.398 335.894 163.068 334.706 163.068 333.23C163.068 331.73 163.398 330.53 164.058 329.63C164.73 328.718 165.666 328.262 166.866 328.262C167.67 328.262 168.3 328.448 168.756 328.82C169.212 329.18 169.536 329.564 169.728 329.972H169.872V328.496H172.374V338H169.872V336.362H169.728C169.512 336.806 169.176 337.214 168.72 337.586C168.264 337.958 167.628 338.144 166.812 338.144ZM167.73 336.128C168.438 336.128 168.972 335.84 169.332 335.264C169.692 334.688 169.872 333.998 169.872 333.194C169.872 332.39 169.692 331.706 169.332 331.142C168.984 330.578 168.45 330.296 167.73 330.296C167.01 330.296 166.476 330.578 166.128 331.142C165.78 331.706 165.606 332.39 165.606 333.194C165.606 334.01 165.78 334.706 166.128 335.282C166.476 335.846 167.01 336.128 167.73 336.128ZM182.97 338.162C181.962 338.162 181.116 337.928 180.432 337.46C179.748 336.992 179.238 336.38 178.902 335.624C178.578 334.868 178.416 334.058 178.416 333.194C178.416 332.342 178.578 331.544 178.902 330.8C179.238 330.044 179.748 329.432 180.432 328.964C181.116 328.496 181.962 328.262 182.97 328.262C184.242 328.262 185.244 328.628 185.976 329.36C186.72 330.08 187.17 330.992 187.326 332.096H184.896C184.812 331.556 184.608 331.124 184.284 330.8C183.972 330.464 183.54 330.296 182.988 330.296C182.256 330.296 181.716 330.578 181.368 331.142C181.032 331.706 180.864 332.39 180.864 333.194C180.864 334.022 181.032 334.718 181.368 335.282C181.716 335.846 182.256 336.128 182.988 336.128C183.528 336.128 183.96 335.966 184.284 335.642C184.608 335.306 184.812 334.868 184.896 334.328H187.326C187.17 335.432 186.72 336.35 185.976 337.082C185.244 337.802 184.242 338.162 182.97 338.162ZM192.388 338.144C191.212 338.144 190.294 337.694 189.634 336.794C188.974 335.894 188.644 334.706 188.644 333.23C188.644 331.73 188.974 330.53 189.634 329.63C190.306 328.718 191.242 328.262 192.442 328.262C193.246 328.262 193.876 328.448 194.332 328.82C194.788 329.18 195.112 329.564 195.304 329.972H195.448V328.496H197.95V338H195.448V336.362H195.304C195.088 336.806 194.752 337.214 194.296 337.586C193.84 337.958 193.204 338.144 192.388 338.144ZM193.306 336.128C194.014 336.128 194.548 335.84 194.908 335.264C195.268 334.688 195.448 333.998 195.448 333.194C195.448 332.39 195.268 331.706 194.908 331.142C194.56 330.578 194.026 330.296 193.306 330.296C192.586 330.296 192.052 330.578 191.704 331.142C191.356 331.706 191.182 332.39 191.182 333.194C191.182 334.01 191.356 334.706 191.704 335.282C192.052 335.846 192.586 336.128 193.306 336.128ZM200.131 328.496H202.651V329.954H202.777C202.993 329.486 203.341 329.09 203.821 328.766C204.301 328.43 204.883 328.262 205.567 328.262C206.803 328.262 207.673 328.658 208.177 329.45C208.693 330.242 208.951 331.142 208.951 332.15V338H206.467V332.564C206.467 331.868 206.299 331.322 205.963 330.926C205.639 330.53 205.177 330.332 204.577 330.332C203.941 330.332 203.461 330.542 203.137 330.962C202.813 331.37 202.651 331.904 202.651 332.564V338H200.131V328.496ZM214.33 330.44V334.67C214.33 335.09 214.348 335.402 214.384 335.606C214.432 335.81 214.552 335.972 214.744 336.092C214.936 336.212 215.248 336.272 215.68 336.272C215.932 336.272 216.19 336.248 216.454 336.2V337.928C216.322 337.952 216.082 337.982 215.734 338.018C215.398 338.054 215.068 338.072 214.744 338.072C213.868 338.072 213.214 337.946 212.782 337.694C212.362 337.43 212.098 337.106 211.99 336.722C211.882 336.326 211.828 335.822 211.828 335.21V330.44H210.244V328.496H211.846V325.4H214.33V328.496H216.454V330.44H214.33ZM218.63 328.496H221.114V338H218.63V328.496ZM219.854 326.858C219.458 326.858 219.128 326.726 218.864 326.462C218.6 326.186 218.468 325.856 218.468 325.472C218.468 325.076 218.6 324.746 218.864 324.482C219.128 324.218 219.458 324.086 219.854 324.086C220.25 324.086 220.58 324.224 220.844 324.5C221.108 324.764 221.24 325.088 221.24 325.472C221.24 325.856 221.108 326.186 220.844 326.462C220.58 326.726 220.25 326.858 219.854 326.858ZM226.914 338.144C225.714 338.144 224.784 337.694 224.124 336.794C223.476 335.894 223.152 334.706 223.152 333.23C223.152 331.718 223.476 330.512 224.124 329.612C224.784 328.712 225.72 328.262 226.932 328.262C227.748 328.262 228.384 328.448 228.84 328.82C229.296 329.18 229.62 329.564 229.812 329.972H229.956V324.482H232.458V338H229.956V336.362H229.812C229.596 336.806 229.26 337.214 228.804 337.586C228.348 337.958 227.718 338.144 226.914 338.144ZM227.814 336.164C228.522 336.164 229.056 335.876 229.416 335.3C229.776 334.724 229.956 334.034 229.956 333.23C229.956 332.438 229.776 331.754 229.416 331.178C229.056 330.602 228.522 330.314 227.814 330.314C227.094 330.314 226.554 330.602 226.194 331.178C225.846 331.742 225.672 332.42 225.672 333.212C225.672 334.028 225.846 334.724 226.194 335.3C226.554 335.876 227.094 336.164 227.814 336.164ZM237.88 338.144C236.704 338.144 235.786 337.694 235.126 336.794C234.466 335.894 234.136 334.706 234.136 333.23C234.136 331.73 234.466 330.53 235.126 329.63C235.798 328.718 236.734 328.262 237.934 328.262C238.738 328.262 239.368 328.448 239.824 328.82C240.28 329.18 240.604 329.564 240.796 329.972H240.94V328.496H243.442V338H240.94V336.362H240.796C240.58 336.806 240.244 337.214 239.788 337.586C239.332 337.958 238.696 338.144 237.88 338.144ZM238.798 336.128C239.506 336.128 240.04 335.84 240.4 335.264C240.76 334.688 240.94 333.998 240.94 333.194C240.94 332.39 240.76 331.706 240.4 331.142C240.052 330.578 239.518 330.296 238.798 330.296C238.078 330.296 237.544 330.578 237.196 331.142C236.848 331.706 236.674 332.39 236.674 333.194C236.674 334.01 236.848 334.706 237.196 335.282C237.544 335.846 238.078 336.128 238.798 336.128ZM249.132 338.144C247.932 338.144 247.002 337.694 246.342 336.794C245.694 335.894 245.37 334.706 245.37 333.23C245.37 331.718 245.694 330.512 246.342 329.612C247.002 328.712 247.938 328.262 249.15 328.262C249.966 328.262 250.602 328.448 251.058 328.82C251.514 329.18 251.838 329.564 252.03 329.972H252.174V324.482H254.676V338H252.174V336.362H252.03C251.814 336.806 251.478 337.214 251.022 337.586C250.566 337.958 249.936 338.144 249.132 338.144ZM250.032 336.164C250.74 336.164 251.274 335.876 251.634 335.3C251.994 334.724 252.174 334.034 252.174 333.23C252.174 332.438 251.994 331.754 251.634 331.178C251.274 330.602 250.74 330.314 250.032 330.314C249.312 330.314 248.772 330.602 248.412 331.178C248.064 331.742 247.89 332.42 247.89 333.212C247.89 334.028 248.064 334.724 248.412 335.3C248.772 335.876 249.312 336.164 250.032 336.164ZM264.337 338.144C263.137 338.144 262.207 337.694 261.547 336.794C260.899 335.894 260.575 334.706 260.575 333.23C260.575 331.718 260.899 330.512 261.547 329.612C262.207 328.712 263.143 328.262 264.355 328.262C265.171 328.262 265.807 328.448 266.263 328.82C266.719 329.18 267.043 329.564 267.235 329.972H267.379V324.482H269.881V338H267.379V336.362H267.235C267.019 336.806 266.683 337.214 266.227 337.586C265.771 337.958 265.141 338.144 264.337 338.144ZM265.237 336.164C265.945 336.164 266.479 335.876 266.839 335.3C267.199 334.724 267.379 334.034 267.379 333.23C267.379 332.438 267.199 331.754 266.839 331.178C266.479 330.602 265.945 330.314 265.237 330.314C264.517 330.314 263.977 330.602 263.617 331.178C263.269 331.742 263.095 332.42 263.095 333.212C263.095 334.028 263.269 334.724 263.617 335.3C263.977 335.876 264.517 336.164 265.237 336.164ZM276.186 338.144C275.19 338.144 274.35 337.916 273.666 337.46C272.982 336.992 272.472 336.386 272.136 335.642C271.812 334.886 271.65 334.076 271.65 333.212C271.65 332.348 271.812 331.544 272.136 330.8C272.472 330.044 272.982 329.432 273.666 328.964C274.35 328.496 275.196 328.262 276.204 328.262C277.536 328.262 278.592 328.688 279.372 329.54C280.164 330.392 280.56 331.622 280.56 333.23V333.914H274.044V334.058C274.044 334.634 274.242 335.132 274.638 335.552C275.034 335.96 275.532 336.164 276.132 336.164C276.6 336.164 276.996 336.056 277.32 335.84C277.644 335.624 277.878 335.33 278.022 334.958H280.47C280.218 335.894 279.726 336.662 278.994 337.262C278.262 337.85 277.326 338.144 276.186 338.144ZM278.166 332.294C278.142 331.538 277.95 330.98 277.59 330.62C277.23 330.26 276.756 330.08 276.168 330.08C275.544 330.08 275.052 330.278 274.692 330.674C274.332 331.07 274.14 331.61 274.116 332.294H278.166ZM286.458 328.496H288.96V330.026H289.086C289.218 329.69 289.494 329.312 289.914 328.892C290.334 328.472 290.946 328.262 291.75 328.262C292.374 328.262 292.896 328.406 293.316 328.694C293.736 328.982 294.042 329.288 294.234 329.612C294.438 329.924 294.558 330.152 294.594 330.296H294.72C294.864 329.912 295.164 329.48 295.62 329C296.076 328.508 296.778 328.262 297.726 328.262C298.554 328.262 299.208 328.478 299.688 328.91C300.18 329.33 300.522 329.84 300.714 330.44C300.918 331.028 301.02 331.598 301.02 332.15V338H298.518V332.402C298.518 331.754 298.35 331.262 298.014 330.926C297.678 330.59 297.27 330.422 296.79 330.422C296.298 330.422 295.872 330.596 295.512 330.944C295.164 331.292 294.99 331.778 294.99 332.402V338H292.488V332.402C292.488 331.754 292.32 331.262 291.984 330.926C291.648 330.59 291.24 330.422 290.76 330.422C290.268 330.422 289.842 330.596 289.482 330.944C289.134 331.292 288.96 331.778 288.96 332.402V338H286.458V328.496ZM307.299 338.144C306.303 338.144 305.463 337.916 304.779 337.46C304.095 336.992 303.585 336.386 303.249 335.642C302.925 334.886 302.763 334.076 302.763 333.212C302.763 332.348 302.925 331.544 303.249 330.8C303.585 330.044 304.095 329.432 304.779 328.964C305.463 328.496 306.309 328.262 307.317 328.262C308.649 328.262 309.705 328.688 310.485 329.54C311.277 330.392 311.673 331.622 311.673 333.23V333.914H305.157V334.058C305.157 334.634 305.355 335.132 305.751 335.552C306.147 335.96 306.645 336.164 307.245 336.164C307.713 336.164 308.109 336.056 308.433 335.84C308.757 335.624 308.991 335.33 309.135 334.958H311.583C311.331 335.894 310.839 336.662 310.107 337.262C309.375 337.85 308.439 338.144 307.299 338.144ZM309.279 332.294C309.255 331.538 309.063 330.98 308.703 330.62C308.343 330.26 307.869 330.08 307.281 330.08C306.657 330.08 306.165 330.278 305.805 330.674C305.445 331.07 305.253 331.61 305.229 332.294H309.279ZM316.95 338.144C316.146 338.144 315.45 337.994 314.862 337.694C314.286 337.394 313.848 337.004 313.548 336.524C313.248 336.032 313.098 335.516 313.098 334.976V334.868H315.528V334.976C315.528 335.3 315.654 335.588 315.906 335.84C316.158 336.092 316.524 336.218 317.004 336.218C317.4 336.218 317.718 336.128 317.958 335.948C318.21 335.756 318.336 335.498 318.336 335.174C318.336 334.886 318.228 334.658 318.012 334.49C317.796 334.322 317.526 334.214 317.202 334.166L316.122 333.95C315.414 333.818 314.772 333.536 314.196 333.104C313.62 332.672 313.332 332.018 313.332 331.142C313.332 330.242 313.662 329.54 314.322 329.036C314.982 328.52 315.828 328.262 316.86 328.262C317.616 328.262 318.27 328.4 318.822 328.676C319.374 328.952 319.794 329.318 320.082 329.774C320.37 330.218 320.514 330.698 320.514 331.214V331.286H318.084V331.232C318.084 330.944 317.976 330.68 317.76 330.44C317.544 330.188 317.214 330.062 316.77 330.062C316.398 330.062 316.098 330.158 315.87 330.35C315.642 330.542 315.528 330.794 315.528 331.106C315.528 331.394 315.642 331.622 315.87 331.79C316.11 331.958 316.404 332.072 316.752 332.132L317.94 332.366C318.708 332.534 319.356 332.84 319.884 333.284C320.412 333.716 320.676 334.334 320.676 335.138C320.676 335.738 320.514 336.266 320.19 336.722C319.866 337.178 319.416 337.532 318.84 337.784C318.276 338.024 317.646 338.144 316.95 338.144ZM326.565 338.144C325.569 338.144 324.729 337.916 324.045 337.46C323.361 336.992 322.851 336.386 322.515 335.642C322.191 334.886 322.029 334.076 322.029 333.212C322.029 332.348 322.191 331.544 322.515 330.8C322.851 330.044 323.361 329.432 324.045 328.964C324.729 328.496 325.575 328.262 326.583 328.262C327.915 328.262 328.971 328.688 329.751 329.54C330.543 330.392 330.939 331.622 330.939 333.23V333.914H324.423V334.058C324.423 334.634 324.621 335.132 325.017 335.552C325.413 335.96 325.911 336.164 326.511 336.164C326.979 336.164 327.375 336.056 327.699 335.84C328.023 335.624 328.257 335.33 328.401 334.958H330.849C330.597 335.894 330.105 336.662 329.373 337.262C328.641 337.85 327.705 338.144 326.565 338.144ZM328.545 332.294C328.521 331.538 328.329 330.98 327.969 330.62C327.609 330.26 327.135 330.08 326.547 330.08C325.923 330.08 325.431 330.278 325.071 330.674C324.711 331.07 324.519 331.61 324.495 332.294H328.545ZM336.216 338.144C335.412 338.144 334.716 337.994 334.128 337.694C333.552 337.394 333.114 337.004 332.814 336.524C332.514 336.032 332.364 335.516 332.364 334.976V334.868H334.794V334.976C334.794 335.3 334.92 335.588 335.172 335.84C335.424 336.092 335.79 336.218 336.27 336.218C336.666 336.218 336.984 336.128 337.224 335.948C337.476 335.756 337.602 335.498 337.602 335.174C337.602 334.886 337.494 334.658 337.278 334.49C337.062 334.322 336.792 334.214 336.468 334.166L335.388 333.95C334.68 333.818 334.038 333.536 333.462 333.104C332.886 332.672 332.598 332.018 332.598 331.142C332.598 330.242 332.928 329.54 333.588 329.036C334.248 328.52 335.094 328.262 336.126 328.262C336.882 328.262 337.536 328.4 338.088 328.676C338.64 328.952 339.06 329.318 339.348 329.774C339.636 330.218 339.78 330.698 339.78 331.214V331.286H337.35V331.232C337.35 330.944 337.242 330.68 337.026 330.44C336.81 330.188 336.48 330.062 336.036 330.062C335.664 330.062 335.364 330.158 335.136 330.35C334.908 330.542 334.794 330.794 334.794 331.106C334.794 331.394 334.908 331.622 335.136 331.79C335.376 331.958 335.67 332.072 336.018 332.132L337.206 332.366C337.974 332.534 338.622 332.84 339.15 333.284C339.678 333.716 339.942 334.334 339.942 335.138C339.942 335.738 339.78 336.266 339.456 336.722C339.132 337.178 338.682 337.532 338.106 337.784C337.542 338.024 336.912 338.144 336.216 338.144ZM349.295 338.144C348.107 338.144 347.183 337.694 346.523 336.794C345.863 335.894 345.533 334.706 345.533 333.23C345.533 331.718 345.863 330.512 346.523 329.612C347.183 328.712 348.113 328.262 349.313 328.262C350.129 328.262 350.765 328.448 351.221 328.82C351.677 329.18 352.001 329.564 352.193 329.972H352.337V328.496H354.839V341.744H352.337V336.362H352.193C351.977 336.806 351.641 337.214 351.185 337.586C350.729 337.958 350.099 338.144 349.295 338.144ZM350.195 336.164C350.903 336.164 351.437 335.876 351.797 335.3C352.157 334.724 352.337 334.034 352.337 333.23C352.337 332.426 352.157 331.742 351.797 331.178C351.449 330.602 350.915 330.314 350.195 330.314C349.475 330.314 348.941 330.596 348.593 331.16C348.245 331.724 348.071 332.408 348.071 333.212C348.071 334.028 348.245 334.724 348.593 335.3C348.941 335.876 349.475 336.164 350.195 336.164ZM365.551 338H363.049V336.488H362.923C362.707 336.956 362.365 337.358 361.897 337.694C361.441 338.018 360.877 338.18 360.205 338.18C358.993 338.18 358.141 337.784 357.649 336.992C357.157 336.188 356.911 335.288 356.911 334.292V328.496H359.395V333.878C359.395 334.562 359.551 335.108 359.863 335.516C360.175 335.912 360.619 336.11 361.195 336.11C361.819 336.11 362.281 335.9 362.581 335.48C362.893 335.06 363.049 334.526 363.049 333.878V328.496H365.551V338ZM371.794 338.144C370.798 338.144 369.958 337.916 369.274 337.46C368.59 336.992 368.08 336.386 367.744 335.642C367.42 334.886 367.258 334.076 367.258 333.212C367.258 332.348 367.42 331.544 367.744 330.8C368.08 330.044 368.59 329.432 369.274 328.964C369.958 328.496 370.804 328.262 371.812 328.262C373.144 328.262 374.2 328.688 374.98 329.54C375.772 330.392 376.168 331.622 376.168 333.23V333.914H369.652V334.058C369.652 334.634 369.85 335.132 370.246 335.552C370.642 335.96 371.14 336.164 371.74 336.164C372.208 336.164 372.604 336.056 372.928 335.84C373.252 335.624 373.486 335.33 373.63 334.958H376.078C375.826 335.894 375.334 336.662 374.602 337.262C373.87 337.85 372.934 338.144 371.794 338.144ZM373.774 332.294C373.75 331.538 373.558 330.98 373.198 330.62C372.838 330.26 372.364 330.08 371.776 330.08C371.152 330.08 370.66 330.278 370.3 330.674C369.94 331.07 369.748 331.61 369.724 332.294H373.774ZM385.629 338.144C384.441 338.144 383.517 337.694 382.857 336.794C382.197 335.894 381.867 334.706 381.867 333.23C381.867 331.718 382.197 330.512 382.857 329.612C383.517 328.712 384.447 328.262 385.647 328.262C386.463 328.262 387.099 328.448 387.555 328.82C388.011 329.18 388.335 329.564 388.527 329.972H388.671V328.496H391.173V341.744H388.671V336.362H388.527C388.311 336.806 387.975 337.214 387.519 337.586C387.063 337.958 386.433 338.144 385.629 338.144ZM386.529 336.164C387.237 336.164 387.771 335.876 388.131 335.3C388.491 334.724 388.671 334.034 388.671 333.23C388.671 332.426 388.491 331.742 388.131 331.178C387.783 330.602 387.249 330.314 386.529 330.314C385.809 330.314 385.275 330.596 384.927 331.16C384.579 331.724 384.405 332.408 384.405 333.212C384.405 334.028 384.579 334.724 384.927 335.3C385.275 335.876 385.809 336.164 386.529 336.164ZM401.885 338H399.383V336.488H399.257C399.041 336.956 398.699 337.358 398.231 337.694C397.775 338.018 397.211 338.18 396.539 338.18C395.327 338.18 394.475 337.784 393.983 336.992C393.491 336.188 393.245 335.288 393.245 334.292V328.496H395.729V333.878C395.729 334.562 395.885 335.108 396.197 335.516C396.509 335.912 396.953 336.11 397.529 336.11C398.153 336.11 398.615 335.9 398.915 335.48C399.227 335.06 399.383 334.526 399.383 333.878V328.496H401.885V338ZM404.168 328.496H406.652V338H404.168V328.496ZM405.392 326.858C404.996 326.858 404.666 326.726 404.402 326.462C404.138 326.186 404.006 325.856 404.006 325.472C404.006 325.076 404.138 324.746 404.402 324.482C404.666 324.218 404.996 324.086 405.392 324.086C405.788 324.086 406.118 324.224 406.382 324.5C406.646 324.764 406.778 325.088 406.778 325.472C406.778 325.856 406.646 326.186 406.382 326.462C406.118 326.726 405.788 326.858 405.392 326.858ZM413.243 338.144C412.247 338.144 411.407 337.916 410.723 337.46C410.039 336.992 409.529 336.386 409.193 335.642C408.869 334.886 408.707 334.076 408.707 333.212C408.707 332.348 408.869 331.544 409.193 330.8C409.529 330.044 410.039 329.432 410.723 328.964C411.407 328.496 412.253 328.262 413.261 328.262C414.593 328.262 415.649 328.688 416.429 329.54C417.221 330.392 417.617 331.622 417.617 333.23V333.914H411.101V334.058C411.101 334.634 411.299 335.132 411.695 335.552C412.091 335.96 412.589 336.164 413.189 336.164C413.657 336.164 414.053 336.056 414.377 335.84C414.701 335.624 414.935 335.33 415.079 334.958H417.527C417.275 335.894 416.783 336.662 416.051 337.262C415.319 337.85 414.383 338.144 413.243 338.144ZM415.223 332.294C415.199 331.538 415.007 330.98 414.647 330.62C414.287 330.26 413.813 330.08 413.225 330.08C412.601 330.08 412.109 330.278 411.749 330.674C411.389 331.07 411.197 331.61 411.173 332.294H415.223ZM419.438 328.496H421.904V330.008H422.03C422.186 329.588 422.474 329.234 422.894 328.946C423.314 328.646 423.854 328.496 424.514 328.496C424.766 328.496 424.982 328.52 425.162 328.568L425.054 330.854C424.754 330.77 424.436 330.728 424.1 330.728C423.356 330.728 422.804 330.926 422.444 331.322C422.084 331.706 421.904 332.348 421.904 333.248V338H419.438V328.496ZM430.522 338.144C429.526 338.144 428.686 337.916 428.002 337.46C427.318 336.992 426.808 336.386 426.472 335.642C426.148 334.886 425.986 334.076 425.986 333.212C425.986 332.348 426.148 331.544 426.472 330.8C426.808 330.044 427.318 329.432 428.002 328.964C428.686 328.496 429.532 328.262 430.54 328.262C431.872 328.262 432.928 328.688 433.708 329.54C434.5 330.392 434.896 331.622 434.896 333.23V333.914H428.38V334.058C428.38 334.634 428.578 335.132 428.974 335.552C429.37 335.96 429.868 336.164 430.468 336.164C430.936 336.164 431.332 336.056 431.656 335.84C431.98 335.624 432.214 335.33 432.358 334.958H434.806C434.554 335.894 434.062 336.662 433.33 337.262C432.598 337.85 431.662 338.144 430.522 338.144ZM432.502 332.294C432.478 331.538 432.286 330.98 431.926 330.62C431.566 330.26 431.092 330.08 430.504 330.08C429.88 330.08 429.388 330.278 429.028 330.674C428.668 331.07 428.476 331.61 428.452 332.294H432.502ZM440.173 338.144C439.369 338.144 438.673 337.994 438.085 337.694C437.509 337.394 437.071 337.004 436.771 336.524C436.471 336.032 436.321 335.516 436.321 334.976V334.868H438.751V334.976C438.751 335.3 438.877 335.588 439.129 335.84C439.381 336.092 439.747 336.218 440.227 336.218C440.623 336.218 440.941 336.128 441.181 335.948C441.433 335.756 441.559 335.498 441.559 335.174C441.559 334.886 441.451 334.658 441.235 334.49C441.019 334.322 440.749 334.214 440.425 334.166L439.345 333.95C438.637 333.818 437.995 333.536 437.419 333.104C436.843 332.672 436.555 332.018 436.555 331.142C436.555 330.242 436.885 329.54 437.545 329.036C438.205 328.52 439.051 328.262 440.083 328.262C440.839 328.262 441.493 328.4 442.045 328.676C442.597 328.952 443.017 329.318 443.305 329.774C443.593 330.218 443.737 330.698 443.737 331.214V331.286H441.307V331.232C441.307 330.944 441.199 330.68 440.983 330.44C440.767 330.188 440.437 330.062 439.993 330.062C439.621 330.062 439.321 330.158 439.093 330.35C438.865 330.542 438.751 330.794 438.751 331.106C438.751 331.394 438.865 331.622 439.093 331.79C439.333 331.958 439.627 332.072 439.975 332.132L441.163 332.366C441.931 332.534 442.579 332.84 443.107 333.284C443.635 333.716 443.899 334.334 443.899 335.138C443.899 335.738 443.737 336.266 443.413 336.722C443.089 337.178 442.639 337.532 442.063 337.784C441.499 338.024 440.869 338.144 440.173 338.144ZM113.392 360.144C112.216 360.144 111.298 359.694 110.638 358.794C109.978 357.894 109.648 356.706 109.648 355.23C109.648 353.73 109.978 352.53 110.638 351.63C111.31 350.718 112.246 350.262 113.446 350.262C114.25 350.262 114.88 350.448 115.336 350.82C115.792 351.18 116.116 351.564 116.308 351.972H116.452V350.496H118.954V360H116.452V358.362H116.308C116.092 358.806 115.756 359.214 115.3 359.586C114.844 359.958 114.208 360.144 113.392 360.144ZM114.31 358.128C115.018 358.128 115.552 357.84 115.912 357.264C116.272 356.688 116.452 355.998 116.452 355.194C116.452 354.39 116.272 353.706 115.912 353.142C115.564 352.578 115.03 352.296 114.31 352.296C113.59 352.296 113.056 352.578 112.708 353.142C112.36 353.706 112.186 354.39 112.186 355.194C112.186 356.01 112.36 356.706 112.708 357.282C113.056 357.846 113.59 358.128 114.31 358.128ZM121.135 350.496H123.655V351.954H123.781C123.997 351.486 124.345 351.09 124.825 350.766C125.305 350.43 125.887 350.262 126.571 350.262C127.807 350.262 128.677 350.658 129.181 351.45C129.697 352.242 129.955 353.142 129.955 354.15V360H127.471V354.564C127.471 353.868 127.303 353.322 126.967 352.926C126.643 352.53 126.181 352.332 125.581 352.332C124.945 352.332 124.465 352.542 124.141 352.962C123.817 353.37 123.655 353.904 123.655 354.564V360H121.135V350.496ZM135.334 352.44V356.67C135.334 357.09 135.352 357.402 135.388 357.606C135.436 357.81 135.556 357.972 135.748 358.092C135.94 358.212 136.252 358.272 136.684 358.272C136.936 358.272 137.194 358.248 137.458 358.2V359.928C137.326 359.952 137.086 359.982 136.738 360.018C136.402 360.054 136.072 360.072 135.748 360.072C134.872 360.072 134.218 359.946 133.786 359.694C133.366 359.43 133.102 359.106 132.994 358.722C132.886 358.326 132.832 357.822 132.832 357.21V352.44H131.248V350.496H132.85V347.4H135.334V350.496H137.458V352.44H135.334ZM139.634 350.496H142.118V360H139.634V350.496ZM140.858 348.858C140.462 348.858 140.132 348.726 139.868 348.462C139.604 348.186 139.472 347.856 139.472 347.472C139.472 347.076 139.604 346.746 139.868 346.482C140.132 346.218 140.462 346.086 140.858 346.086C141.254 346.086 141.584 346.224 141.848 346.5C142.112 346.764 142.244 347.088 142.244 347.472C142.244 347.856 142.112 348.186 141.848 348.462C141.584 348.726 141.254 348.858 140.858 348.858ZM148.728 360.162C147.72 360.162 146.874 359.928 146.19 359.46C145.506 358.992 144.996 358.38 144.66 357.624C144.336 356.868 144.174 356.058 144.174 355.194C144.174 354.342 144.336 353.544 144.66 352.8C144.996 352.044 145.506 351.432 146.19 350.964C146.874 350.496 147.72 350.262 148.728 350.262C150 350.262 151.002 350.628 151.734 351.36C152.478 352.08 152.928 352.992 153.084 354.096H150.654C150.57 353.556 150.366 353.124 150.042 352.8C149.73 352.464 149.298 352.296 148.746 352.296C148.014 352.296 147.474 352.578 147.126 353.142C146.79 353.706 146.622 354.39 146.622 355.194C146.622 356.022 146.79 356.718 147.126 357.282C147.474 357.846 148.014 358.128 148.746 358.128C149.286 358.128 149.718 357.966 150.042 357.642C150.366 357.306 150.57 356.868 150.654 356.328H153.084C152.928 357.432 152.478 358.35 151.734 359.082C151.002 359.802 150 360.162 148.728 360.162ZM155.068 350.496H157.552V360H155.068V350.496ZM156.292 348.858C155.896 348.858 155.566 348.726 155.302 348.462C155.038 348.186 154.906 347.856 154.906 347.472C154.906 347.076 155.038 346.746 155.302 346.482C155.566 346.218 155.896 346.086 156.292 346.086C156.688 346.086 157.018 346.224 157.282 346.5C157.546 346.764 157.678 347.088 157.678 347.472C157.678 347.856 157.546 348.186 157.282 348.462C157.018 348.726 156.688 348.858 156.292 348.858ZM165.562 360.144C164.758 360.144 164.128 359.958 163.672 359.586C163.216 359.214 162.88 358.806 162.664 358.362H162.52V363.744H160.018V350.496H162.52V351.972H162.664C162.856 351.564 163.18 351.18 163.636 350.82C164.092 350.448 164.728 350.262 165.544 350.262C166.756 350.262 167.686 350.712 168.334 351.612C168.994 352.512 169.324 353.718 169.324 355.23C169.324 356.706 168.994 357.894 168.334 358.794C167.686 359.694 166.762 360.144 165.562 360.144ZM164.662 358.164C165.382 358.164 165.916 357.876 166.264 357.3C166.624 356.724 166.804 356.028 166.804 355.212C166.804 354.42 166.624 353.742 166.264 353.178C165.916 352.602 165.382 352.314 164.662 352.314C163.954 352.314 163.42 352.602 163.06 353.178C162.7 353.754 162.52 354.438 162.52 355.23C162.52 356.034 162.7 356.724 163.06 357.3C163.42 357.876 163.954 358.164 164.662 358.164ZM174.546 360.144C173.37 360.144 172.452 359.694 171.792 358.794C171.132 357.894 170.802 356.706 170.802 355.23C170.802 353.73 171.132 352.53 171.792 351.63C172.464 350.718 173.4 350.262 174.6 350.262C175.404 350.262 176.034 350.448 176.49 350.82C176.946 351.18 177.27 351.564 177.462 351.972H177.606V350.496H180.108V360H177.606V358.362H177.462C177.246 358.806 176.91 359.214 176.454 359.586C175.998 359.958 175.362 360.144 174.546 360.144ZM175.464 358.128C176.172 358.128 176.706 357.84 177.066 357.264C177.426 356.688 177.606 355.998 177.606 355.194C177.606 354.39 177.426 353.706 177.066 353.142C176.718 352.578 176.184 352.296 175.464 352.296C174.744 352.296 174.21 352.578 173.862 353.142C173.514 353.706 173.34 354.39 173.34 355.194C173.34 356.01 173.514 356.706 173.862 357.282C174.21 357.846 174.744 358.128 175.464 358.128ZM182.362 350.496H184.828V352.008H184.954C185.11 351.588 185.398 351.234 185.818 350.946C186.238 350.646 186.778 350.496 187.438 350.496C187.69 350.496 187.906 350.52 188.086 350.568L187.978 352.854C187.678 352.77 187.36 352.728 187.024 352.728C186.28 352.728 185.728 352.926 185.368 353.322C185.008 353.706 184.828 354.348 184.828 355.248V360H182.362V350.496ZM191.105 360.144C190.709 360.144 190.373 360.012 190.097 359.748C189.833 359.472 189.701 359.136 189.701 358.74C189.701 358.344 189.833 358.008 190.097 357.732C190.373 357.456 190.709 357.318 191.105 357.318C191.513 357.318 191.849 357.456 192.113 357.732C192.389 358.008 192.527 358.344 192.527 358.74C192.527 359.124 192.389 359.454 192.113 359.73C191.849 360.006 191.513 360.144 191.105 360.144Z" fill="#323232"/>
<circle opacity="0.7" cx="117" cy="421" r="34" stroke="#00FF3C" stroke-width="2"/>
<path d="M109.297 424.914H111.652V425.805C111.652 426.438 111.793 426.902 112.074 427.199C112.355 427.496 112.816 427.645 113.457 427.645H118.297C118.938 427.645 119.398 427.496 119.68 427.199C119.961 426.902 120.102 426.438 120.102 425.805V424.504C120.102 423.863 119.961 423.398 119.68 423.109C119.398 422.82 118.938 422.676 118.297 422.676H113.328V420.332H118.227C118.812 420.309 119.23 420.152 119.48 419.863C119.738 419.566 119.867 419.113 119.867 418.504V417.402C119.867 416.762 119.723 416.293 119.434 415.996C119.152 415.699 118.695 415.551 118.062 415.551H113.691C113.059 415.551 112.602 415.699 112.32 415.996C112.039 416.293 111.898 416.762 111.898 417.402V418.293H109.543V417.285C109.543 414.559 110.902 413.195 113.621 413.195H118.133C119.516 413.195 120.539 413.531 121.203 414.203C121.875 414.875 122.211 415.902 122.211 417.285V417.59C122.211 418.535 122.043 419.316 121.707 419.934C121.379 420.543 120.898 420.996 120.266 421.293C120.977 421.504 121.52 421.926 121.895 422.559C122.27 423.191 122.457 424.031 122.457 425.078V425.922C122.457 428.641 121.098 430 118.379 430H113.387C110.66 430 109.297 428.641 109.297 425.922V424.914Z" fill="black"/>
<circle cx="217" cy="421" r="34" fill="white" stroke="#00FF3C" stroke-width="2"/>
<path d="M209.754 415.598C209.754 415.27 209.816 414.961 209.941 414.672C210.066 414.375 210.238 414.121 210.457 413.91C210.676 413.691 210.93 413.52 211.219 413.395C211.516 413.262 211.828 413.195 212.156 413.195H219.832C220.16 413.195 220.469 413.262 220.758 413.395C221.055 413.52 221.312 413.691 221.531 413.91C221.75 414.121 221.922 414.375 222.047 414.672C222.172 414.961 222.234 415.27 222.234 415.598V417.766H219.832V415.598H212.156V420.402H219.832C220.16 420.402 220.469 420.465 220.758 420.59C221.055 420.715 221.312 420.887 221.531 421.105C221.75 421.324 221.922 421.582 222.047 421.879C222.172 422.168 222.234 422.477 222.234 422.805V427.598C222.234 427.926 222.172 428.238 222.047 428.535C221.922 428.824 221.75 429.078 221.531 429.297C221.312 429.516 221.055 429.688 220.758 429.812C220.469 429.938 220.16 430 219.832 430H212.156C211.828 430 211.516 429.938 211.219 429.812C210.93 429.688 210.676 429.516 210.457 429.297C210.238 429.078 210.066 428.824 209.941 428.535C209.816 428.238 209.754 427.926 209.754 427.598V415.598ZM212.156 422.805V427.598H219.832V422.805H212.156Z" fill="black"/>
<circle cx="317" cy="421" r="34" fill="white" stroke="#00FF3C" stroke-width="2"/>
<path d="M322.234 427.598C322.234 427.926 322.172 428.238 322.047 428.535C321.922 428.824 321.75 429.078 321.531 429.297C321.312 429.516 321.055 429.688 320.758 429.812C320.469 429.938 320.16 430 319.832 430H312.156C311.828 430 311.516 429.938 311.219 429.812C310.93 429.688 310.676 429.516 310.457 429.297C310.238 429.078 310.066 428.824 309.941 428.535C309.816 428.238 309.754 427.926 309.754 427.598V425.441H312.156V427.598H319.832V422.805H312.156C311.828 422.805 311.516 422.742 311.219 422.617C310.93 422.484 310.676 422.312 310.457 422.102C310.238 421.883 310.066 421.629 309.941 421.34C309.816 421.043 309.754 420.73 309.754 420.402V415.598C309.754 415.27 309.816 414.961 309.941 414.672C310.066 414.375 310.238 414.121 310.457 413.91C310.676 413.691 310.93 413.52 311.219 413.395C311.516 413.262 311.828 413.195 312.156 413.195H319.832C320.16 413.195 320.469 413.262 320.758 413.395C321.055 413.52 321.312 413.691 321.531 413.91C321.75 414.121 321.922 414.375 322.047 414.672C322.172 414.961 322.234 415.27 322.234 415.598V427.598ZM319.832 420.402V415.598H312.156V420.402H319.832Z" fill="black"/>
<circle cx="418" cy="421" r="35" fill="url(#paint0_linear_101_1812)"/>
<path d="M409.556 414.195V431H407.153V416.598H404.271V414.195H409.556ZM416.198 416.598V418.766H413.796V416.598C413.796 416.27 413.858 415.961 413.983 415.672C414.108 415.375 414.28 415.121 414.499 414.91C414.718 414.691 414.972 414.52 415.261 414.395C415.557 414.262 415.87 414.195 416.198 414.195H423.804C424.132 414.195 424.44 414.262 424.729 414.395C425.026 414.52 425.28 414.691 425.491 414.91C425.71 415.121 425.882 415.375 426.007 415.672C426.139 415.961 426.206 416.27 426.206 416.598V419.668C426.206 419.996 426.175 420.289 426.112 420.547C426.05 420.805 425.948 421.039 425.807 421.25C425.675 421.453 425.503 421.637 425.292 421.801C425.081 421.965 424.823 422.121 424.518 422.27L416.198 426.172V428.598H424.108V426.441H426.511V431H413.796V426.582C413.796 426.254 413.827 425.961 413.889 425.703C413.96 425.445 414.061 425.215 414.194 425.012C414.327 424.809 414.499 424.625 414.71 424.461C414.929 424.289 415.182 424.133 415.472 423.992L423.804 420.078V416.598H416.198Z" fill="black"/>
</g>
<defs>
<filter id="filter0_d_101_1812" x="0" y="0.5" width="556" height="573" filterUnits="userSpaceOnUse" color-interpolation-filters="sRGB">
<feFlood flood-opacity="0" result="BackgroundImageFix"/>
<feColorMatrix in="SourceAlpha" type="matrix" values="0 0 0 0 0 0 0 0 0 0 0 0 0 0 0 0 0 0 127 0" result="hardAlpha"/>
<feOffset dx="6" dy="10"/>
<feGaussianBlur stdDeviation="9"/>
<feComposite in2="hardAlpha" operator="out"/>
<feColorMatrix type="matrix" values="0 0 0 0 0.232517 0 0 0 0 0.232517 0 0 0 0 0.945833 0 0 0 0.2 0"/>
<feBlend mode="normal" in2="BackgroundImageFix" result="effect1_dropShadow_101_1812"/>
<feBlend mode="normal" in="SourceGraphic" in2="effect1_dropShadow_101_1812" result="shape"/>
</filter>
<linearGradient id="paint0_linear_101_1812" x1="486.946" y1="-147.514" x2="276.399" y2="-112.03" gradientUnits="userSpaceOnUse">
<stop offset="0.28125" stop-color="#52EE90"/>
<stop offset="1" stop-color="#E0FFEC"/>
</linearGradient>
</defs>
</svg>
