<svg width="937" height="687" viewBox="0 0 937 687" fill="none" xmlns="http://www.w3.org/2000/svg">
<mask id="mask0_60_1874" style="mask-type:alpha" maskUnits="userSpaceOnUse" x="0" y="0" width="937" height="687">
<rect x="0.5" y="0.5" width="936" height="686" fill="#D9D9D9"/>
</mask>
<g mask="url(#mask0_60_1874)">
<g opacity="0.94">
<g filter="url(#filter0_d_60_1874)">
<ellipse cx="210.873" cy="210.873" rx="210.873" ry="210.873" transform="matrix(3.7656e-05 -0.999779 0.866325 -0.499922 299.849 625.728)" fill="white"/>
<path d="M482.549 99.6318C582.976 41.6798 664.384 88.653 664.379 204.549C664.375 320.446 582.96 461.378 482.534 519.33C382.108 577.282 300.7 530.309 300.704 414.412C300.708 298.516 382.123 157.584 482.549 99.6318Z" stroke="url(#paint0_linear_60_1874)" stroke-width="1.95563"/>
</g>
<path d="M679.753 208.972L679.752 208.993L679.752 209.013C679.767 269.152 658.649 335.831 624.459 395.015C590.269 454.199 543.048 505.816 490.929 535.873L490.921 535.877L490.913 535.882C439.166 567.374 387.164 569.272 348.134 548.403C309.111 527.539 282.89 483.828 282.876 423.752C282.861 363.619 305.38 293.824 340.98 231.516C376.58 169.208 425.208 114.482 477.319 84.4296C529.358 54.4189 581.494 57.3413 619.837 81.8183C658.188 106.301 682.837 152.41 679.753 208.972Z" fill="#2F2F4D"/>
<path d="M679.753 208.972L679.752 208.993L679.752 209.013C679.767 269.152 658.649 335.831 624.459 395.015C590.269 454.199 543.048 505.816 490.929 535.873L490.921 535.877L490.913 535.882C439.166 567.374 387.164 569.272 348.134 548.403C309.111 527.539 282.89 483.828 282.876 423.752C282.861 363.619 305.38 293.824 340.98 231.516C376.58 169.208 425.208 114.482 477.319 84.4296C529.358 54.4189 581.494 57.3413 619.837 81.8183C658.188 106.301 682.837 152.41 679.753 208.972Z" stroke="url(#paint1_radial_60_1874)" stroke-width="1.5" style="mix-blend-mode:overlay"/>
<g filter="url(#filter1_b_60_1874)">
<ellipse cx="221.248" cy="221.248" rx="221.248" ry="221.248" transform="matrix(3.77374e-05 -0.999779 0.866325 -0.499922 276.778 636.704)" fill="url(#paint2_radial_60_1874)"/>
<path d="M468.467 85.1993C573.608 24.5271 658.837 73.7052 658.832 195.042C658.828 316.378 573.591 463.926 468.451 524.598C363.311 585.27 278.082 536.092 278.086 414.755C278.091 293.419 363.327 145.872 468.467 85.1993Z" stroke="url(#paint3_linear_60_1874)" stroke-width="3" style="mix-blend-mode:overlay"/>
</g>
</g>
<g filter="url(#filter2_d_60_1874)">
<path fill-rule="evenodd" clip-rule="evenodd" d="M131.295 158.132C128.114 160.655 127.138 165.269 128.618 170.789L170.142 325.668C172.978 336.244 183.855 347.115 194.438 349.949L433.932 414.084C439.224 415.501 443.44 414.64 445.978 412.102C448.516 409.565 449.377 405.352 447.959 400.065L406.435 245.186C404.955 239.666 401.163 233.776 396.033 229.026L248.194 92.1833C239.274 83.9262 228.481 81.0361 222.951 85.4233L131.295 158.132ZM214.363 224.513C222.439 226.676 228.874 225.361 232.748 221.489C236.621 217.617 237.934 211.187 235.771 203.117C231.443 186.976 214.842 170.385 198.691 166.059C190.615 163.897 184.18 165.211 180.306 169.084C176.433 172.956 175.12 179.385 177.283 187.455C181.611 203.596 198.212 220.188 214.363 224.513ZM291.222 245.095C288.115 244.263 285.641 244.768 284.151 246.258C282.661 247.747 282.156 250.22 282.988 253.324L317.747 382.97L413.727 408.673L378.968 279.027C377.303 272.818 370.918 266.437 364.706 264.773L291.222 245.095Z" fill="url(#paint4_radial_60_1874)"/>
<path d="M427.475 224.158C425.995 218.637 422.204 212.747 417.073 207.998L396.033 229.026C401.163 233.776 404.955 239.666 406.435 245.186L427.475 224.158Z" fill="url(#paint5_radial_60_1874)"/>
<path d="M417.073 207.998L269.235 71.1551L248.194 92.1833L396.033 229.026L417.073 207.998Z" fill="url(#paint6_radial_60_1874)"/>
<path d="M269.235 71.1551C260.314 62.8979 249.521 60.0075 243.991 64.3948L222.951 85.4233C228.481 81.0361 239.274 83.9262 248.194 92.1833L269.235 71.1551Z" fill="url(#paint7_radial_60_1874)"/>
<path d="M469 379.037L427.475 224.158L406.435 245.186L447.959 400.065L469 379.037Z" fill="url(#paint8_radial_60_1874)"/>
<path d="M400.008 257.998C398.344 251.79 391.959 245.409 385.747 243.745L364.706 264.773C370.918 266.437 377.303 272.818 378.968 279.027L400.008 257.998Z" fill="url(#paint9_radial_60_1874)"/>
<path d="M385.747 243.745L312.262 224.067L291.222 245.095L364.706 264.773L385.747 243.745Z" fill="url(#paint10_radial_60_1874)"/>
<path d="M243.991 64.3948L152.335 137.103L131.295 158.132L222.951 85.4233L243.991 64.3948Z" fill="url(#paint11_radial_60_1874)"/>
<path d="M434.767 387.645L400.008 257.998L378.968 279.027L413.727 408.673L434.767 387.645Z" fill="url(#paint12_radial_60_1874)"/>
<path d="M312.262 224.067C309.156 223.235 306.681 223.74 305.191 225.23L284.151 246.257C285.641 244.768 288.116 244.263 291.222 245.095L312.262 224.067Z" fill="url(#paint13_radial_60_1874)"/>
<path d="M467.019 391.074C469.557 388.537 470.417 384.324 469 379.037L447.959 400.065C449.377 405.352 448.516 409.565 445.978 412.102L467.019 391.074Z" fill="url(#paint14_radial_60_1874)"/>
<path d="M305.191 225.23C303.701 226.719 303.196 229.192 304.028 232.295L282.988 253.324C282.156 250.22 282.661 247.747 284.151 246.258L305.191 225.23Z" fill="url(#paint15_radial_60_1874)"/>
<path d="M256.811 182.089C252.483 165.947 235.882 149.356 219.731 145.031L198.691 166.059C214.842 170.385 231.443 186.976 235.771 203.117L256.811 182.089Z" fill="url(#paint16_radial_60_1874)"/>
<path d="M454.973 393.056C460.263 394.472 464.478 393.612 467.017 391.076L445.978 412.102C443.44 414.64 439.224 415.501 433.932 414.084L454.973 393.056Z" fill="url(#paint17_radial_60_1874)"/>
<path d="M253.788 200.46C257.661 196.588 258.975 190.159 256.811 182.089L235.771 203.117C237.934 211.187 236.621 217.617 232.748 221.489L253.788 200.46Z" fill="url(#paint18_radial_60_1874)"/>
<path d="M219.731 145.031C211.655 142.868 205.221 144.182 201.347 148.055L180.309 169.081C184.183 165.21 190.617 163.897 198.691 166.059L219.731 145.031Z" fill="url(#paint19_radial_60_1874)"/>
<path d="M235.403 203.484C243.478 205.647 249.911 204.334 253.785 200.463L232.748 221.489C228.874 225.361 222.439 226.676 214.363 224.513L235.403 203.484Z" fill="url(#paint20_radial_60_1874)"/>
<path d="M201.347 148.055C197.474 151.927 196.16 158.357 198.324 166.427L177.283 187.455C175.12 179.385 176.433 172.956 180.306 169.084L201.347 148.055Z" fill="url(#paint21_radial_60_1874)"/>
<path d="M198.324 166.427C202.651 182.568 219.252 199.159 235.403 203.484L214.363 224.513C198.212 220.188 181.611 203.596 177.283 187.455L198.324 166.427Z" fill="url(#paint22_radial_60_1874)"/>
<path d="M304.028 232.295L338.787 361.942L317.747 382.97L282.988 253.324L304.028 232.295Z" fill="url(#paint23_radial_60_1874)"/>
<path d="M338.787 361.942L434.767 387.645L413.727 408.673L317.747 382.97L338.787 361.942Z" fill="url(#paint24_radial_60_1874)"/>
<path d="M151.02 138.418C148.912 141.073 148.407 145.093 149.659 149.761L128.618 170.789C127.138 165.269 128.114 160.655 131.295 158.132L151.02 138.418C151.406 137.933 151.844 137.493 152.335 137.103L151.02 138.418Z" fill="url(#paint25_radial_60_1874)"/>
<path d="M215.478 328.921L454.973 393.056L433.932 414.084L194.438 349.949L215.478 328.921Z" fill="url(#paint26_radial_60_1874)"/>
<path d="M149.659 149.761L191.183 304.639L170.142 325.668L128.618 170.789L149.659 149.761Z" fill="url(#paint27_radial_60_1874)"/>
<path d="M191.183 304.639C194.018 315.216 204.896 326.087 215.478 328.921L194.438 349.949C183.855 347.115 172.978 336.244 170.142 325.668L191.183 304.639Z" fill="url(#paint28_radial_60_1874)"/>
<path d="M149.567 151.216C147.888 144.953 148.995 139.719 152.604 136.856L242.286 65.7131C248.561 60.7354 260.806 64.0145 270.927 73.3828L415.581 207.279C421.403 212.667 425.704 219.35 427.384 225.613L467.904 376.747C471.121 388.746 463.996 395.867 451.989 392.652L217.652 329.898C205.645 326.683 193.304 314.349 190.087 302.35L149.567 151.216Z" fill="#B0B5D3"/>
<path fill-rule="evenodd" clip-rule="evenodd" d="M153.008 136.569C149.399 139.432 148.293 144.666 149.972 150.929L190.492 302.063C193.709 314.062 206.05 326.396 218.057 329.611L338.787 361.942L304.028 232.295C302.363 226.087 306.05 222.403 312.262 224.066L385.746 243.745C391.958 245.408 398.343 251.79 400.008 257.998L434.767 387.644L452.394 392.365C464.4 395.58 471.525 388.459 468.308 376.459L427.788 225.326C426.109 219.063 421.807 212.38 415.986 206.992L271.331 73.0957C261.21 63.7274 248.966 60.4483 242.691 65.426L153.008 136.569ZM235.403 203.484C251.554 207.809 261.139 198.23 256.811 182.089C252.483 165.947 235.882 149.356 219.731 145.031C203.58 140.706 193.996 150.285 198.323 166.426C202.651 182.568 219.252 199.159 235.403 203.484Z" fill="url(#paint29_radial_60_1874)"/>
</g>
</g>
<defs>
<filter id="filter0_d_60_1874" x="169.857" y="23.7148" width="665.369" height="771.532" filterUnits="userSpaceOnUse" color-interpolation-filters="sRGB">
<feFlood flood-opacity="0" result="BackgroundImageFix"/>
<feColorMatrix in="SourceAlpha" type="matrix" values="0 0 0 0 0 0 0 0 0 0 0 0 0 0 0 0 0 0 127 0" result="hardAlpha"/>
<feOffset dx="20" dy="100"/>
<feGaussianBlur stdDeviation="75"/>
<feComposite in2="hardAlpha" operator="out"/>
<feColorMatrix type="matrix" values="0 0 0 0 0 0 0 0 0 0.15942 0 0 0 0 1 0 0 0 0.4 0"/>
<feBlend mode="normal" in2="BackgroundImageFix" result="effect1_dropShadow_60_1874"/>
<feBlend mode="normal" in="SourceGraphic" in2="effect1_dropShadow_60_1874" result="shape"/>
</filter>
<filter id="filter1_b_60_1874" x="207.253" y="-12.0005" width="522.412" height="633.798" filterUnits="userSpaceOnUse" color-interpolation-filters="sRGB">
<feFlood flood-opacity="0" result="BackgroundImageFix"/>
<feGaussianBlur in="BackgroundImageFix" stdDeviation="34.7668"/>
<feComposite in2="SourceAlpha" operator="in" result="effect1_backgroundBlur_60_1874"/>
<feBlend mode="normal" in="SourceGraphic" in2="effect1_backgroundBlur_60_1874" result="shape"/>
</filter>
<filter id="filter2_d_60_1874" x="-196.927" y="-107.282" width="831.216" height="830.845" filterUnits="userSpaceOnUse" color-interpolation-filters="sRGB">
<feFlood flood-opacity="0" result="BackgroundImageFix"/>
<feColorMatrix in="SourceAlpha" type="matrix" values="0 0 0 0 0 0 0 0 0 0 0 0 0 0 0 0 0 0 127 0" result="hardAlpha"/>
<feOffset dx="-50" dy="50"/>
<feGaussianBlur stdDeviation="50"/>
<feComposite in2="hardAlpha" operator="out"/>
<feColorMatrix type="matrix" values="0 0 0 0 0 0 0 0 0 0.15942 0 0 0 0 1 0 0 0 0.4 0"/>
<feBlend mode="normal" in2="BackgroundImageFix" result="effect1_dropShadow_60_1874"/>
<feBlend mode="normal" in="SourceGraphic" in2="effect1_dropShadow_60_1874" result="shape"/>
</filter>
<linearGradient id="paint0_linear_60_1874" x1="448.467" y1="503.432" x2="588.533" y2="226.256" gradientUnits="userSpaceOnUse">
<stop stop-color="white" stop-opacity="0.43"/>
<stop offset="0.846595" stop-color="white" stop-opacity="0.44"/>
<stop offset="1" stop-color="white" stop-opacity="0"/>
</linearGradient>
<radialGradient id="paint1_radial_60_1874" cx="0" cy="0" r="1" gradientUnits="userSpaceOnUse" gradientTransform="translate(346.789 548.561) rotate(-55.9247) scale(535.677 938.849)">
<stop offset="0.0567805" stop-color="white" stop-opacity="0"/>
<stop offset="0.307354" stop-color="white"/>
<stop offset="0.776131" stop-color="white"/>
<stop offset="0.979895" stop-color="white" stop-opacity="0"/>
</radialGradient>
<radialGradient id="paint2_radial_60_1874" cx="0" cy="0" r="1" gradientUnits="userSpaceOnUse" gradientTransform="translate(334.488 -1225.83) rotate(98.5461) scale(2170.8 1554.74)">
<stop offset="0.244792" stop-color="#2F2F4D"/>
<stop offset="1" stop-color="#B0B5D3"/>
</radialGradient>
<linearGradient id="paint3_linear_60_1874" x1="723.898" y1="227.298" x2="279.995" y2="376.648" gradientUnits="userSpaceOnUse">
<stop stop-color="white" stop-opacity="0"/>
<stop offset="0.238618" stop-color="#424361"/>
<stop offset="0.795365" stop-color="#8E92B0"/>
<stop offset="1" stop-color="white" stop-opacity="0"/>
</linearGradient>
<radialGradient id="paint4_radial_60_1874" cx="0" cy="0" r="1" gradientUnits="userSpaceOnUse" gradientTransform="translate(977.457 -257.838) rotate(148.007) scale(1304.23 1392.06)">
<stop offset="0.28125" stop-color="#52EE90"/>
<stop offset="1" stop-color="#E0FFEC"/>
</radialGradient>
<radialGradient id="paint5_radial_60_1874" cx="0" cy="0" r="1" gradientUnits="userSpaceOnUse" gradientTransform="translate(977.457 -257.838) rotate(148.007) scale(1304.23 1392.06)">
<stop offset="0.28125" stop-color="#52EE90"/>
<stop offset="1" stop-color="#E0FFEC"/>
</radialGradient>
<radialGradient id="paint6_radial_60_1874" cx="0" cy="0" r="1" gradientUnits="userSpaceOnUse" gradientTransform="translate(977.457 -257.838) rotate(148.007) scale(1304.23 1392.06)">
<stop offset="0.28125" stop-color="#52EE90"/>
<stop offset="1" stop-color="#E0FFEC"/>
</radialGradient>
<radialGradient id="paint7_radial_60_1874" cx="0" cy="0" r="1" gradientUnits="userSpaceOnUse" gradientTransform="translate(977.457 -257.838) rotate(148.007) scale(1304.23 1392.06)">
<stop offset="0.28125" stop-color="#52EE90"/>
<stop offset="1" stop-color="#E0FFEC"/>
</radialGradient>
<radialGradient id="paint8_radial_60_1874" cx="0" cy="0" r="1" gradientUnits="userSpaceOnUse" gradientTransform="translate(977.457 -257.838) rotate(148.007) scale(1304.23 1392.06)">
<stop offset="0.28125" stop-color="#52EE90"/>
<stop offset="1" stop-color="#E0FFEC"/>
</radialGradient>
<radialGradient id="paint9_radial_60_1874" cx="0" cy="0" r="1" gradientUnits="userSpaceOnUse" gradientTransform="translate(977.457 -257.838) rotate(148.007) scale(1304.23 1392.06)">
<stop offset="0.28125" stop-color="#52EE90"/>
<stop offset="1" stop-color="#E0FFEC"/>
</radialGradient>
<radialGradient id="paint10_radial_60_1874" cx="0" cy="0" r="1" gradientUnits="userSpaceOnUse" gradientTransform="translate(977.457 -257.838) rotate(148.007) scale(1304.23 1392.06)">
<stop offset="0.28125" stop-color="#52EE90"/>
<stop offset="1" stop-color="#E0FFEC"/>
</radialGradient>
<radialGradient id="paint11_radial_60_1874" cx="0" cy="0" r="1" gradientUnits="userSpaceOnUse" gradientTransform="translate(977.457 -257.838) rotate(148.007) scale(1304.23 1392.06)">
<stop offset="0.28125" stop-color="#52EE90"/>
<stop offset="1" stop-color="#E0FFEC"/>
</radialGradient>
<radialGradient id="paint12_radial_60_1874" cx="0" cy="0" r="1" gradientUnits="userSpaceOnUse" gradientTransform="translate(977.457 -257.838) rotate(148.007) scale(1304.23 1392.06)">
<stop offset="0.28125" stop-color="#52EE90"/>
<stop offset="1" stop-color="#E0FFEC"/>
</radialGradient>
<radialGradient id="paint13_radial_60_1874" cx="0" cy="0" r="1" gradientUnits="userSpaceOnUse" gradientTransform="translate(977.457 -257.838) rotate(148.007) scale(1304.23 1392.06)">
<stop offset="0.28125" stop-color="#52EE90"/>
<stop offset="1" stop-color="#E0FFEC"/>
</radialGradient>
<radialGradient id="paint14_radial_60_1874" cx="0" cy="0" r="1" gradientUnits="userSpaceOnUse" gradientTransform="translate(977.457 -257.838) rotate(148.007) scale(1304.23 1392.06)">
<stop offset="0.28125" stop-color="#52EE90"/>
<stop offset="1" stop-color="#E0FFEC"/>
</radialGradient>
<radialGradient id="paint15_radial_60_1874" cx="0" cy="0" r="1" gradientUnits="userSpaceOnUse" gradientTransform="translate(977.457 -257.838) rotate(148.007) scale(1304.23 1392.06)">
<stop offset="0.28125" stop-color="#52EE90"/>
<stop offset="1" stop-color="#E0FFEC"/>
</radialGradient>
<radialGradient id="paint16_radial_60_1874" cx="0" cy="0" r="1" gradientUnits="userSpaceOnUse" gradientTransform="translate(977.457 -257.838) rotate(148.007) scale(1304.23 1392.06)">
<stop offset="0.28125" stop-color="#52EE90"/>
<stop offset="1" stop-color="#E0FFEC"/>
</radialGradient>
<radialGradient id="paint17_radial_60_1874" cx="0" cy="0" r="1" gradientUnits="userSpaceOnUse" gradientTransform="translate(977.457 -257.838) rotate(148.007) scale(1304.23 1392.06)">
<stop offset="0.28125" stop-color="#52EE90"/>
<stop offset="1" stop-color="#E0FFEC"/>
</radialGradient>
<radialGradient id="paint18_radial_60_1874" cx="0" cy="0" r="1" gradientUnits="userSpaceOnUse" gradientTransform="translate(977.457 -257.838) rotate(148.007) scale(1304.23 1392.06)">
<stop offset="0.28125" stop-color="#52EE90"/>
<stop offset="1" stop-color="#E0FFEC"/>
</radialGradient>
<radialGradient id="paint19_radial_60_1874" cx="0" cy="0" r="1" gradientUnits="userSpaceOnUse" gradientTransform="translate(977.457 -257.838) rotate(148.007) scale(1304.23 1392.06)">
<stop offset="0.28125" stop-color="#52EE90"/>
<stop offset="1" stop-color="#E0FFEC"/>
</radialGradient>
<radialGradient id="paint20_radial_60_1874" cx="0" cy="0" r="1" gradientUnits="userSpaceOnUse" gradientTransform="translate(977.457 -257.838) rotate(148.007) scale(1304.23 1392.06)">
<stop offset="0.28125" stop-color="#52EE90"/>
<stop offset="1" stop-color="#E0FFEC"/>
</radialGradient>
<radialGradient id="paint21_radial_60_1874" cx="0" cy="0" r="1" gradientUnits="userSpaceOnUse" gradientTransform="translate(977.457 -257.838) rotate(148.007) scale(1304.23 1392.06)">
<stop offset="0.28125" stop-color="#52EE90"/>
<stop offset="1" stop-color="#E0FFEC"/>
</radialGradient>
<radialGradient id="paint22_radial_60_1874" cx="0" cy="0" r="1" gradientUnits="userSpaceOnUse" gradientTransform="translate(977.457 -257.838) rotate(148.007) scale(1304.23 1392.06)">
<stop offset="0.28125" stop-color="#52EE90"/>
<stop offset="1" stop-color="#E0FFEC"/>
</radialGradient>
<radialGradient id="paint23_radial_60_1874" cx="0" cy="0" r="1" gradientUnits="userSpaceOnUse" gradientTransform="translate(977.457 -257.838) rotate(148.007) scale(1304.23 1392.06)">
<stop offset="0.28125" stop-color="#52EE90"/>
<stop offset="1" stop-color="#E0FFEC"/>
</radialGradient>
<radialGradient id="paint24_radial_60_1874" cx="0" cy="0" r="1" gradientUnits="userSpaceOnUse" gradientTransform="translate(977.457 -257.838) rotate(148.007) scale(1304.23 1392.06)">
<stop offset="0.28125" stop-color="#52EE90"/>
<stop offset="1" stop-color="#E0FFEC"/>
</radialGradient>
<radialGradient id="paint25_radial_60_1874" cx="0" cy="0" r="1" gradientUnits="userSpaceOnUse" gradientTransform="translate(977.457 -257.838) rotate(148.007) scale(1304.23 1392.06)">
<stop offset="0.28125" stop-color="#52EE90"/>
<stop offset="1" stop-color="#E0FFEC"/>
</radialGradient>
<radialGradient id="paint26_radial_60_1874" cx="0" cy="0" r="1" gradientUnits="userSpaceOnUse" gradientTransform="translate(977.457 -257.838) rotate(148.007) scale(1304.23 1392.06)">
<stop offset="0.28125" stop-color="#52EE90"/>
<stop offset="1" stop-color="#E0FFEC"/>
</radialGradient>
<radialGradient id="paint27_radial_60_1874" cx="0" cy="0" r="1" gradientUnits="userSpaceOnUse" gradientTransform="translate(977.457 -257.838) rotate(148.007) scale(1304.23 1392.06)">
<stop offset="0.28125" stop-color="#52EE90"/>
<stop offset="1" stop-color="#E0FFEC"/>
</radialGradient>
<radialGradient id="paint28_radial_60_1874" cx="0" cy="0" r="1" gradientUnits="userSpaceOnUse" gradientTransform="translate(977.457 -257.838) rotate(148.007) scale(1304.23 1392.06)">
<stop offset="0.28125" stop-color="#52EE90"/>
<stop offset="1" stop-color="#E0FFEC"/>
</radialGradient>
<radialGradient id="paint29_radial_60_1874" cx="0" cy="0" r="1" gradientUnits="userSpaceOnUse" gradientTransform="translate(105.996 -740.146) rotate(82.4479) scale(1399.27 943.788)">
<stop offset="0.28125" stop-color="white"/>
<stop offset="1" stop-color="#D2D2D2"/>
</radialGradient>
</defs>
</svg>
