<svg width="559" height="227" viewBox="0 0 559 227" fill="none" xmlns="http://www.w3.org/2000/svg">
<g filter="url(#filter0_d_60_1762)">
<rect x="12.8706" y="8" width="522" height="191" rx="13" fill="white" shape-rendering="crispEdges"/>
<g filter="url(#filter1_d_60_1762)">
<rect x="44.8706" y="54" width="102.846" height="99" rx="13" fill="#00E55B" shape-rendering="crispEdges"/>
<path fill-rule="evenodd" clip-rule="evenodd" d="M69.8706 97.888H71.7458C81.8801 97.888 90.743 90.903 92.3354 80.2936L92.5751 78.6968L100.012 78.6967L100.252 80.2936C101.844 90.903 110.707 97.888 120.841 97.888H122.717V101.638H120.841C110.935 101.638 101.97 95.913 98.1687 86.7406V128.304H94.4184V86.7406C90.6174 95.913 81.6525 101.638 71.7458 101.638H69.8706V97.888Z" fill="white"/>
</g>
<path d="M199.457 79.42H197.617V84.5H194.857V70.5H200.037C201.157 70.5 202.097 70.7133 202.857 71.14C203.617 71.5667 204.177 72.12 204.537 72.8C204.897 73.48 205.077 74.22 205.077 75.02C205.077 75.94 204.837 76.7733 204.357 77.52C203.877 78.2533 203.15 78.78 202.177 79.1L205.337 84.5H202.437L199.457 79.42ZM197.617 77.16H199.617C200.39 77.16 201.043 77 201.577 76.68C202.123 76.3467 202.397 75.7933 202.397 75.02C202.397 74.2467 202.13 73.7067 201.597 73.4C201.063 73.08 200.403 72.92 199.617 72.92H197.617V77.16ZM210.078 72.92V76.3H215.578V78.48H210.078V82.08H216.558V84.5H207.298V70.5H216.558V72.92H210.078ZM218.626 70.5H221.846L227.566 80.22H227.606V70.5H230.366V84.52H227.126L221.446 75.08H221.386V84.52H218.626V70.5ZM242.61 72.92H238.81V84.5H236.05V72.92H232.25V70.5H242.61V72.92ZM251.178 81.06H246.378L245.258 84.5H242.458L247.498 70.5H250.098L255.118 84.5H252.318L251.178 81.06ZM250.478 78.92L248.818 73.94H248.698L247.078 78.92H250.478ZM264.063 72.92V76.3H269.443V78.46H264.063V84.5H261.283V70.5H270.163V72.92H264.063ZM280.318 82.08V84.5H271.478L271.458 70.5H274.258L274.238 82.08H280.318ZM287.842 84.7C286.109 84.7 284.716 84.1867 283.662 83.16C282.609 82.12 282.082 80.52 282.082 78.36V70.5H284.842V78.2C284.842 79.28 285.056 80.1933 285.482 80.94C285.922 81.6867 286.709 82.06 287.842 82.06C288.949 82.06 289.722 81.6933 290.162 80.96C290.602 80.2133 290.822 79.2933 290.822 78.2V70.5H293.562V78.36C293.562 80.5067 293.036 82.1 291.982 83.14C290.929 84.18 289.549 84.7 287.842 84.7ZM296.032 70.5H298.832V84.5H296.032V70.5ZM301.4 70.48H306.84C308.08 70.48 309.173 70.76 310.12 71.32C311.066 71.8667 311.8 72.6667 312.32 73.72C312.853 74.7733 313.12 76.0267 313.12 77.48C313.12 78.9333 312.853 80.1867 312.32 81.24C311.786 82.2933 311.04 83.1 310.08 83.66C309.133 84.2067 308.04 84.48 306.8 84.48H301.4V70.48ZM306.3 82C307.486 82 308.426 81.6467 309.12 80.94C309.813 80.2333 310.16 79.0733 310.16 77.46C310.16 75.8467 309.813 74.6933 309.12 74C308.426 73.2933 307.486 72.94 306.3 72.94H304.1V82H306.3ZM322.076 81.06H317.276L316.156 84.5H313.356L318.396 70.5H320.996L326.016 84.5H323.216L322.076 81.06ZM321.376 78.92L319.716 73.94H319.596L317.976 78.92H321.376Z" fill="#50508D"/>
<path d="M197.849 107.896C197.849 107.267 197.969 106.675 198.209 106.121C198.448 105.552 198.778 105.065 199.197 104.661C199.616 104.242 200.103 103.912 200.657 103.673C201.226 103.418 201.825 103.291 202.454 103.291H217.166C217.795 103.291 218.386 103.418 218.94 103.673C219.509 103.912 220.003 104.242 220.423 104.661C220.842 105.065 221.171 105.552 221.411 106.121C221.65 106.675 221.77 107.267 221.77 107.896V112.051H217.166V107.896H202.454V117.104H217.166C217.795 117.104 218.386 117.224 218.94 117.464C219.509 117.703 220.003 118.033 220.423 118.452C220.842 118.871 221.171 119.366 221.411 119.935C221.65 120.489 221.77 121.08 221.77 121.709V130.896C221.77 131.524 221.65 132.123 221.411 132.692C221.171 133.246 220.842 133.733 220.423 134.152C220.003 134.572 219.509 134.901 218.94 135.141C218.386 135.38 217.795 135.5 217.166 135.5H202.454C201.825 135.5 201.226 135.38 200.657 135.141C200.103 134.901 199.616 134.572 199.197 134.152C198.778 133.733 198.448 133.246 198.209 132.692C197.969 132.123 197.849 131.524 197.849 130.896V107.896ZM202.454 121.709V130.896H217.166V121.709H202.454ZM228.033 125.752H232.547V127.459C232.547 128.672 232.817 129.563 233.356 130.132C233.895 130.701 234.778 130.985 236.006 130.985H245.283C246.51 130.985 247.394 130.701 247.933 130.132C248.472 129.563 248.742 128.672 248.742 127.459V124.966C248.742 123.738 248.472 122.847 247.933 122.293C247.394 121.739 246.51 121.462 245.283 121.462H235.759V116.97H245.148C246.271 116.925 247.072 116.625 247.551 116.071C248.045 115.502 248.292 114.634 248.292 113.466V111.354C248.292 110.127 248.015 109.228 247.461 108.659C246.922 108.09 246.046 107.806 244.833 107.806H236.455C235.243 107.806 234.367 108.09 233.827 108.659C233.288 109.228 233.019 110.127 233.019 111.354V113.062H228.504V111.13C228.504 105.904 231.11 103.291 236.321 103.291H244.968C247.618 103.291 249.58 103.935 250.853 105.223C252.141 106.51 252.785 108.479 252.785 111.13V111.714C252.785 113.526 252.463 115.023 251.819 116.206C251.19 117.374 250.269 118.243 249.056 118.812C250.419 119.216 251.459 120.024 252.178 121.237C252.897 122.45 253.256 124.06 253.256 126.066V127.684C253.256 132.895 250.651 135.5 245.44 135.5H235.871C230.646 135.5 228.033 132.895 228.033 127.684V125.752ZM282.429 127.684C282.384 130.304 281.725 132.266 280.452 133.568C279.179 134.856 277.233 135.5 274.612 135.5H265.965C260.739 135.5 258.126 132.895 258.126 127.684V125.752H262.641V127.459C262.641 128.672 262.91 129.563 263.449 130.132C263.988 130.701 264.872 130.985 266.1 130.985H274.455C275.683 130.985 276.566 130.701 277.105 130.132C277.644 129.563 277.914 128.672 277.914 127.459V123.124C277.914 121.911 277.644 121.028 277.105 120.474C276.566 119.905 275.683 119.62 274.455 119.62H259.047V103.291H281.598V107.896H263.651V115.128H274.612C277.248 115.128 279.209 115.772 280.497 117.06C281.785 118.332 282.429 120.294 282.429 122.944V127.684ZM291.97 142.351H288.713L292.015 135.5H288.713V128.784H295.429V135.5L291.97 142.351ZM328.398 130.896C328.398 131.524 328.278 132.123 328.038 132.692C327.799 133.246 327.469 133.733 327.05 134.152C326.631 134.572 326.136 134.901 325.567 135.141C325.013 135.38 324.422 135.5 323.793 135.5H307.689C307.06 135.5 306.461 135.38 305.892 135.141C305.338 134.901 304.851 134.572 304.432 134.152C304.012 133.733 303.683 133.246 303.443 132.692C303.204 132.123 303.084 131.524 303.084 130.896V107.896C303.084 107.267 303.204 106.675 303.443 106.121C303.683 105.552 304.012 105.065 304.432 104.661C304.851 104.242 305.338 103.912 305.892 103.673C306.461 103.418 307.06 103.291 307.689 103.291H323.793C324.422 103.291 325.013 103.418 325.567 103.673C326.136 103.912 326.631 104.242 327.05 104.661C327.469 105.065 327.799 105.552 328.038 106.121C328.278 106.675 328.398 107.267 328.398 107.896V130.896ZM307.689 107.896V130.896H323.793V107.896H307.689ZM361.815 130.896C361.815 131.524 361.695 132.123 361.456 132.692C361.216 133.246 360.887 133.733 360.467 134.152C360.048 134.572 359.554 134.901 358.985 135.141C358.431 135.38 357.84 135.5 357.211 135.5H341.106C340.477 135.5 339.878 135.38 339.309 135.141C338.755 134.901 338.269 134.572 337.849 134.152C337.43 133.733 337.101 133.246 336.861 132.692C336.621 132.123 336.502 131.524 336.502 130.896V107.896C336.502 107.267 336.621 106.675 336.861 106.121C337.101 105.552 337.43 105.065 337.849 104.661C338.269 104.242 338.755 103.912 339.309 103.673C339.878 103.418 340.477 103.291 341.106 103.291H357.211C357.84 103.291 358.431 103.418 358.985 103.673C359.554 103.912 360.048 104.242 360.467 104.661C360.887 105.065 361.216 105.552 361.456 106.121C361.695 106.675 361.815 107.267 361.815 107.896V130.896ZM341.106 107.896V130.896H357.211V107.896H341.106ZM367.156 114.162H371.986V107.896C371.986 107.267 372.105 106.675 372.345 106.121C372.6 105.552 372.929 105.065 373.333 104.661C373.753 104.242 374.239 103.912 374.793 103.673C375.362 103.418 375.961 103.291 376.59 103.291H394.087C394.716 103.291 395.308 103.418 395.862 103.673C396.416 103.912 396.902 104.242 397.322 104.661C397.741 105.065 398.07 105.552 398.31 106.121C398.549 106.675 398.669 107.267 398.669 107.896V111.13H394.087V107.896H376.59V114.162H392.56L389.887 117.891H376.59V120.923H387.596L384.923 124.651H376.59V130.896H394.087V127.684H398.669V130.896C398.669 131.524 398.549 132.123 398.31 132.692C398.07 133.246 397.741 133.733 397.322 134.152C396.902 134.572 396.416 134.901 395.862 135.141C395.308 135.38 394.716 135.5 394.087 135.5H376.59C375.961 135.5 375.362 135.38 374.793 135.141C374.239 134.901 373.753 134.572 373.333 134.152C372.929 133.733 372.6 133.246 372.345 132.692C372.105 132.123 371.986 131.524 371.986 130.896V124.651H367.156V120.923H371.986V117.891H367.156V114.162Z" fill="#00E55B"/>
</g>
<defs>
<filter id="filter0_d_60_1762" x="0.870605" y="0" width="558" height="227" filterUnits="userSpaceOnUse" color-interpolation-filters="sRGB">
<feFlood flood-opacity="0" result="BackgroundImageFix"/>
<feColorMatrix in="SourceAlpha" type="matrix" values="0 0 0 0 0 0 0 0 0 0 0 0 0 0 0 0 0 0 127 0" result="hardAlpha"/>
<feOffset dx="6" dy="10"/>
<feGaussianBlur stdDeviation="9"/>
<feComposite in2="hardAlpha" operator="out"/>
<feColorMatrix type="matrix" values="0 0 0 0 0.232517 0 0 0 0 0.232517 0 0 0 0 0.945833 0 0 0 0.2 0"/>
<feBlend mode="normal" in2="BackgroundImageFix" result="effect1_dropShadow_60_1762"/>
<feBlend mode="normal" in="SourceGraphic" in2="effect1_dropShadow_60_1762" result="shape"/>
</filter>
<filter id="filter1_d_60_1762" x="30.8706" y="44" width="130.846" height="127" filterUnits="userSpaceOnUse" color-interpolation-filters="sRGB">
<feFlood flood-opacity="0" result="BackgroundImageFix"/>
<feColorMatrix in="SourceAlpha" type="matrix" values="0 0 0 0 0 0 0 0 0 0 0 0 0 0 0 0 0 0 127 0" result="hardAlpha"/>
<feMorphology radius="6" operator="dilate" in="SourceAlpha" result="effect1_dropShadow_60_1762"/>
<feOffset dy="4"/>
<feGaussianBlur stdDeviation="4"/>
<feComposite in2="hardAlpha" operator="out"/>
<feColorMatrix type="matrix" values="0 0 0 0 0.29276 0 0 0 0 0.63407 0 0 0 0 0.9625 0 0 0 0.1 0"/>
<feBlend mode="normal" in2="BackgroundImageFix" result="effect1_dropShadow_60_1762"/>
<feBlend mode="normal" in="SourceGraphic" in2="effect1_dropShadow_60_1762" result="shape"/>
</filter>
</defs>
</svg>
