<svg width="42" height="42" viewBox="0 0 42 42" fill="none" xmlns="http://www.w3.org/2000/svg">
<path d="M22.1839 41.33C21.3239 41.33 20.464 41.33 19.604 41.33C19.484 41.31 19.374 41.2701 19.254 41.2601C16.624 41.0601 14.124 40.3801 11.774 39.2001C3.87401 35.2601 -0.605977 27.0501 0.414023 18.2501C1.09402 12.3701 3.88398 7.61999 8.62398 4.09999C15.314 -0.86001 24.0339 -1.36004 31.2039 2.81996C36.7239 6.03996 40.054 10.8701 41.224 17.1701C41.364 17.9101 41.434 18.66 41.534 19.4C41.534 20.26 41.534 21.1201 41.534 21.9801C41.514 22.0801 41.474 22.1902 41.464 22.2902C41.194 25.8402 40.094 29.12 38.094 32.07C34.804 36.93 30.264 39.9301 24.484 41.0101C23.724 41.1601 22.9539 41.23 22.1839 41.33ZM26.484 29.5101C26.994 30.3201 27.484 31.08 27.964 31.86C28.104 32.09 28.2539 32.0401 28.4339 31.9801C30.9439 31.1701 33.274 30.0101 35.404 28.4501C35.544 28.3501 35.6739 28.1401 35.6939 27.9701C35.8639 26.1501 35.844 24.3201 35.624 22.5001C35.124 18.4901 33.6739 14.8501 31.4339 11.5101C31.3239 11.3401 31.144 11.19 30.964 11.1C29.174 10.29 27.304 9.72 25.364 9.36C25.144 9.32 25.0439 9.36995 24.9539 9.55995C24.7939 9.90995 24.6039 10.25 24.4539 10.61C24.3539 10.84 24.254 10.92 23.974 10.89C23.124 10.8 22.264 10.7001 21.404 10.7001C20.104 10.7001 18.804 10.79 17.464 10.84C17.274 10.47 17.0439 10.03 16.8339 9.57997C16.7439 9.37997 16.634 9.32 16.394 9.36C14.644 9.69 12.964 10.21 11.304 10.86C10.734 11.08 10.314 11.4101 10.034 11.9501C9.79402 12.4101 9.49397 12.8499 9.23397 13.2999C6.66397 17.8599 5.62394 22.7401 6.07394 27.9501C6.08394 28.1001 6.17402 28.3 6.28402 28.39C8.46402 29.99 10.8539 31.1901 13.4339 32.0001C13.5239 32.0301 13.694 31.9901 13.734 31.9301C14.254 31.1401 14.754 30.3402 15.274 29.5202C14.384 29.0902 13.574 28.6902 12.744 28.2902C13.234 27.7302 13.244 27.7301 13.804 27.9601C18.544 29.9501 23.274 29.9501 28.004 27.9301C28.484 27.7301 28.6439 27.78 28.9539 28.31C28.1739 28.7 27.364 29.0901 26.484 29.5101Z" fill="#B7FFD3"/>
<path d="M25.884 18.8296C27.474 18.8396 28.734 20.3996 28.534 22.1196C28.464 22.7296 28.274 23.2998 27.894 23.7898C26.864 25.1398 24.964 25.1696 23.894 23.8496C22.764 22.4696 23.014 20.2898 24.414 19.2898C24.864 18.9698 25.324 18.8196 25.884 18.8296Z" fill="#B7FFD3"/>
<path d="M18.634 21.7403C18.594 22.6503 18.3639 23.3803 17.8139 23.9803C16.7339 25.1503 15.014 25.1002 14.004 23.8802C13.124 22.8202 13.034 21.2401 13.774 20.0801C14.374 19.1501 15.384 18.6802 16.384 18.8602C17.444 19.0502 18.334 19.9602 18.554 21.0902C18.594 21.3402 18.614 21.5903 18.634 21.7403Z" fill="#B7FFD3"/>
</svg>
