<svg width="42" height="42" viewBox="0 0 42 42" fill="none" xmlns="http://www.w3.org/2000/svg">
<path d="M21.1161 17.3896C20.4753 17.3896 19.8489 17.5795 19.3161 17.9355C18.7832 18.2916 18.3679 18.7976 18.1227 19.3896C17.8775 19.9817 17.8134 20.6332 17.9384 21.2617C18.0634 21.8902 18.372 22.4675 18.8251 22.9207C19.2782 23.3738 19.8555 23.6824 20.484 23.8074C21.1125 23.9324 21.7639 23.868 22.356 23.6228C22.948 23.3776 23.4541 22.9625 23.8101 22.4297C24.1661 21.8969 24.3561 21.2705 24.3561 20.6296C24.3561 19.7703 24.0147 18.9462 23.4071 18.3386C22.7995 17.731 21.9754 17.3896 21.1161 17.3896V17.3896Z" fill="#989897"/>
<path d="M28.696 14.9001C28.5332 14.4801 28.2846 14.0988 27.9661 13.7803C27.6475 13.4617 27.2661 13.2131 26.8461 13.0503C26.2695 12.8375 25.6605 12.7258 25.046 12.7202C24.046 12.7202 23.7161 12.6602 21.1161 12.6602C18.5161 12.6602 18.216 12.6602 17.186 12.7202C16.5715 12.7258 15.9626 12.8375 15.3861 13.0503C14.9661 13.2131 14.5845 13.4617 14.266 13.7803C13.9475 14.0988 13.6989 14.4801 13.5361 14.9001C13.3248 15.4774 13.2098 16.0856 13.196 16.7002C13.196 17.7002 13.196 18.0404 13.196 20.6304C13.196 23.2204 13.196 23.5403 13.196 24.5603C13.2091 25.1782 13.324 25.7898 13.5361 26.3704C13.6954 26.7922 13.9445 27.1742 14.2661 27.4902C14.5781 27.8144 14.9617 28.061 15.3861 28.2102C15.9617 28.4277 16.5708 28.5429 17.186 28.5503C18.186 28.5503 18.5161 28.5503 21.1161 28.5503C23.7161 28.5503 24.016 28.5503 25.046 28.5503C25.6613 28.5429 26.2705 28.4277 26.8461 28.2102C27.2705 28.061 27.6541 27.8144 27.9661 27.4902C28.2877 27.1742 28.5368 26.7922 28.696 26.3704C28.9081 25.7898 29.0231 25.1782 29.0361 24.5603C29.0361 23.5603 29.0361 23.2304 29.0361 20.6304C29.0361 18.0304 29.0361 17.7302 29.0361 16.7002C29.0224 16.0856 28.9074 15.4774 28.696 14.9001V14.9001ZM21.1161 25.6304C20.1272 25.6304 19.1605 25.337 18.3383 24.7876C17.516 24.2382 16.8751 23.4573 16.4967 22.5437C16.1183 21.6301 16.0192 20.6247 16.2122 19.6548C16.4051 18.6849 16.8813 17.794 17.5806 17.0947C18.2798 16.3955 19.1707 15.9192 20.1406 15.7263C21.1105 15.5334 22.1159 15.6325 23.0295 16.011C23.9432 16.3894 24.724 17.03 25.2734 17.8523C25.8228 18.6745 26.1161 19.6415 26.1161 20.6304C26.1161 21.9565 25.5893 23.2281 24.6516 24.1658C23.7139 25.1035 22.4422 25.6304 21.1161 25.6304V25.6304ZM26.306 16.6304C26.0746 16.6304 25.8484 16.5617 25.656 16.4331C25.4636 16.3045 25.3137 16.1217 25.2251 15.908C25.1365 15.6942 25.1134 15.4589 25.1586 15.2319C25.2037 15.005 25.3151 14.7967 25.4788 14.6331C25.6424 14.4694 25.8508 14.3579 26.0778 14.3127C26.3047 14.2676 26.54 14.2908 26.7538 14.3794C26.9676 14.4679 27.1504 14.6179 27.2789 14.8103C27.4075 15.0027 27.4761 15.2288 27.4761 15.4602C27.4708 15.767 27.3452 16.0595 27.1263 16.2747C26.9075 16.4898 26.6129 16.6104 26.306 16.6104V16.6304Z" fill="#989897"/>
<path d="M21.1161 2.4223e-06C17.033 -0.00197532 13.0412 1.20718 9.6454 3.47437C6.24963 5.74156 3.6025 8.96494 2.03907 12.7368C0.47564 16.5087 0.0661124 20.6596 0.862192 24.6643C1.65827 28.669 3.6242 32.3475 6.51136 35.2346C9.39852 38.1218 13.0772 40.088 17.0819 40.884C21.0866 41.6801 25.2374 41.2705 29.0093 39.707C32.7812 38.1436 36.0045 35.4966 38.2717 32.1008C40.5389 28.7051 41.7481 24.7132 41.7461 20.6301C41.7461 17.921 41.2124 15.2383 40.1757 12.7354C39.1389 10.2324 37.6194 7.95816 35.7037 6.04248C33.7881 4.12681 31.5138 2.60707 29.0109 1.57031C26.5079 0.53356 23.8253 2.4223e-06 21.1161 2.4223e-06V2.4223e-06ZM30.7861 24.6401C30.7667 25.4471 30.6111 26.2448 30.3261 27C30.082 27.6478 29.6998 28.2347 29.2061 28.72C28.7239 29.2199 28.1363 29.606 27.4861 29.8501C26.7299 30.1301 25.9323 30.2822 25.1261 30.3001C24.1261 30.3001 23.7561 30.3601 21.1261 30.3601C18.4961 30.3601 18.1261 30.3601 17.1261 30.3001C16.3199 30.2822 15.5223 30.1301 14.7661 29.8501C14.1212 29.5977 13.5356 29.214 13.0468 28.7234C12.5579 28.2328 12.1762 27.6458 11.926 27C11.641 26.2448 11.4855 25.4471 11.4661 24.6401C11.4661 23.6401 11.4661 23.2701 11.4661 20.6401C11.4661 18.0101 11.4661 17.6401 11.4661 16.6401C11.4866 15.8333 11.6421 15.0355 11.926 14.28C12.1663 13.6303 12.549 13.0426 13.046 12.5601C13.5313 12.0663 14.1183 11.684 14.7661 11.4399C15.521 11.1551 16.3194 11.0029 17.1261 10.99C18.1261 10.99 18.4961 10.9299 21.1261 10.9299C23.7561 10.9299 24.1261 10.93 25.1261 10.99C25.9328 11.0029 26.7312 11.1551 27.4861 11.4399C28.1301 11.6913 28.7149 12.0734 29.2037 12.5623C29.6926 13.0511 30.0747 13.636 30.3261 14.28C30.61 15.0355 30.7656 15.8333 30.7861 16.6401C30.7861 17.6401 30.7861 18.0101 30.7861 20.6401C30.7861 23.2701 30.8261 23.6001 30.7861 24.6401V24.6401Z" fill="#989897"/>
</svg>
