<svg width="42" height="42" viewBox="0 0 42 42" fill="none" xmlns="http://www.w3.org/2000/svg">
<path d="M41.2705 19.3402C41.2705 20.1702 41.2705 21.0102 41.2705 21.8402C41.2505 21.9702 41.2205 22.1004 41.2005 22.2304C41.0905 23.0404 41.0204 23.8603 40.8604 24.6603C39.2504 32.9703 32.5305 39.5303 24.1905 40.9503C23.4405 41.0803 22.6805 41.1602 21.9305 41.2702C21.0705 41.2702 20.2105 41.2702 19.3505 41.2702C19.2505 41.2502 19.1505 41.2103 19.0405 41.2003C17.1905 41.0703 15.4005 40.6802 13.6705 40.0502C3.47048 36.3702 -2.14954 25.4902 0.780462 15.0502C4.41046 2.09019 19.2904 -3.9798 30.9804 2.8102C36.4904 6.0102 39.8005 10.8503 40.9605 17.1203C41.1005 17.8503 41.1705 18.5902 41.2705 19.3402ZM21.9405 31.4704C21.9405 31.3004 21.9405 31.1404 21.9405 30.9804C21.9405 28.7204 21.9305 26.4703 21.9405 24.2103C21.9405 23.3903 22.0104 22.5702 22.3904 21.8202C22.8804 20.8702 23.8604 20.4403 25.1404 20.6203C26.0204 20.7403 26.6305 21.3503 26.8305 22.3803C26.9305 22.9203 26.9804 23.4702 26.9904 24.0202C27.0104 26.3602 27.0004 28.6902 27.0004 31.0302C27.0004 31.1702 27.0004 31.3103 27.0004 31.4603C28.5204 31.4603 29.9904 31.4603 31.4804 31.4603C31.4904 31.3303 31.5004 31.2303 31.5004 31.1203C31.5004 28.4703 31.5204 25.8303 31.4804 23.1803C31.4604 22.2203 31.3605 21.2502 31.1705 20.3102C30.8305 18.6102 29.8905 17.3503 28.1505 16.8903C27.4205 16.7003 26.6404 16.6103 25.8804 16.6303C24.2104 16.6803 22.8505 17.3602 21.9205 18.8002C21.9005 18.8402 21.8604 18.8603 21.7504 18.9603C21.7504 18.2403 21.7504 17.6201 21.7504 17.0101C20.3004 17.0101 18.8904 17.0101 17.4804 17.0101C17.4804 21.8401 17.4804 26.6403 17.4804 31.4603C18.9704 31.4703 20.4305 31.4704 21.9405 31.4704ZM14.6104 31.4704C14.6104 26.6404 14.6104 21.8302 14.6104 17.0202C13.1104 17.0202 11.6405 17.0202 10.1805 17.0202C10.1805 21.8502 10.1805 26.6604 10.1805 31.4704C11.6705 31.4704 13.1304 31.4704 14.6104 31.4704ZM12.3505 15.0001C13.8105 15.0001 14.9904 13.8303 14.9904 12.3803C14.9904 10.9503 13.8004 9.77016 12.3704 9.77016C10.9404 9.77016 9.76044 10.9503 9.76044 12.3903C9.75044 13.8203 10.9105 14.9901 12.3505 15.0001Z" fill="#B7FFD3"/>
</svg>
