<svg width="43" height="42" viewBox="0 0 43 42" fill="none" xmlns="http://www.w3.org/2000/svg">
<path d="M21.3761 0C9.97611 0 0.746109 9.23988 0.746109 20.6299C0.746109 32.0299 9.98611 41.2598 21.3761 41.2598C32.7761 41.2598 42.0061 32.0199 42.0061 20.6299C42.0161 9.23988 32.7761 0 21.3761 0ZM31.7461 16.72C31.7561 16.93 31.7561 17.1499 31.7561 17.3599C31.7561 23.9299 26.7561 31.5098 17.6061 31.5098C14.7961 31.5098 12.1861 30.6898 9.9861 29.2798C10.3761 29.3298 10.776 29.3499 11.176 29.3499C13.506 29.3499 15.6561 28.56 17.3561 27.22C15.1761 27.18 13.3461 25.7398 12.7061 23.7598C13.0061 23.8198 13.3161 23.8499 13.6461 23.8499C14.0961 23.8499 14.5361 23.7899 14.9561 23.6699C12.6761 23.2099 10.9661 21.1998 10.9661 18.7898C10.9661 18.7698 10.9661 18.75 10.9661 18.73C11.6361 19.1 12.4061 19.3299 13.2161 19.3499C11.8761 18.4599 11.0061 16.94 11.0061 15.21C11.0061 14.3 11.256 13.44 11.676 12.71C14.126 15.72 17.796 17.6999 21.926 17.9099C21.836 17.5499 21.796 17.1698 21.796 16.7798C21.796 14.0298 24.0261 11.8098 26.7661 11.8098C28.1961 11.8098 29.4861 12.4099 30.3961 13.3799C31.5261 13.1599 32.596 12.7399 33.556 12.1699C33.186 13.3299 32.3961 14.3099 31.3661 14.9199C32.3761 14.7999 33.3361 14.5299 34.2261 14.1399C33.5561 15.1399 32.7161 16.02 31.7461 16.72Z" fill="#B7FFD3"/>
</svg>
